<?xml version="1.0" encoding="UTF-8" standalone="no"?>
<!DOCTYPE svg PUBLIC "-//W3C//DTD SVG 1.1//EN"
 "http://www.w3.org/Graphics/SVG/1.1/DTD/svg11.dtd">
<!-- Generated by graphviz version 2.40.1 (20161225.0304)
 -->
<!-- Title: %3 Pages: 1 -->
<svg width="557pt" height="231pt"
 viewBox="0.00 0.00 557.00 230.94" xmlns="http://www.w3.org/2000/svg" xmlns:xlink="http://www.w3.org/1999/xlink">
<g id="graph0" class="graph" transform="scale(1 1) rotate(0) translate(4 226.9361)">
<title>%3</title>
<polygon fill="#ffffff" stroke="transparent" points="-4,4 -4,-226.9361 553,-226.9361 553,4 -4,4"/>
<!-- RF_R -->
<g id="node1" class="node">
<title>RF_R</title>
<polygon fill="#d3d3d3" stroke="#000000" points="144,-222.9361 106,-222.9361 106,-204.9361 144,-204.9361 144,-222.9361"/>
<text text-anchor="middle" x="125" y="-211.7361" font-family="Times,serif" font-size="9.00" fill="#000000">RF_R</text>
</g>
<!-- RF_FR -->
<g id="node2" class="node">
<title>RF_FR</title>
<polygon fill="#d3d3d3" stroke="#000000" points="206,-222.9361 162,-222.9361 162,-204.9361 206,-204.9361 206,-222.9361"/>
<text text-anchor="middle" x="184" y="-211.7361" font-family="Times,serif" font-size="9.00" fill="#000000">RF_FR</text>
</g>
<!-- RF_F -->
<g id="node3" class="node">
<title>RF_F</title>
<polygon fill="#d3d3d3" stroke="#000000" points="38,-153.1873 0,-153.1873 0,-135.1873 38,-135.1873 38,-153.1873"/>
<text text-anchor="middle" x="19" y="-141.9873" font-family="Times,serif" font-size="9.00" fill="#000000">RF_F</text>
</g>
<!-- ANG_VEL -->
<g id="node11" class="node">
<title>ANG_VEL</title>
<ellipse fill="#add8e6" stroke="#000000" cx="150" cy="-41.7193" rx="41.9398" ry="41.9398"/>
<text text-anchor="middle" x="150" y="-39.5193" font-family="Times,serif" font-size="9.00" fill="#000000">ANG_VEL</text>
</g>
<!-- RF_F&#45;&gt;ANG_VEL -->
<g id="edge6" class="edge">
<title>RF_F&#45;&gt;ANG_VEL</title>
<path fill="none" stroke="#00ff00" stroke-width=".2858" d="M30.6254,-135.094C47.9902,-121.5112 81.5642,-95.2497 108.6945,-74.0284"/>
<polygon fill="#00ff00" stroke="#00ff00" stroke-width=".2858" points="111.1621,-76.5418 116.8823,-67.6239 106.8493,-71.0282 111.1621,-76.5418"/>
</g>
<!-- RF_FL -->
<g id="node4" class="node">
<title>RF_FL</title>
<polygon fill="#d3d3d3" stroke="#000000" points="390.5,-153.1873 347.5,-153.1873 347.5,-135.1873 390.5,-135.1873 390.5,-153.1873"/>
<text text-anchor="middle" x="369" y="-141.9873" font-family="Times,serif" font-size="9.00" fill="#000000">RF_FL</text>
</g>
<!-- VEL -->
<g id="node12" class="node">
<title>VEL</title>
<ellipse fill="#add8e6" stroke="#000000" cx="398" cy="-41.7193" rx="24.0833" ry="24.0833"/>
<text text-anchor="middle" x="398" y="-39.5193" font-family="Times,serif" font-size="9.00" fill="#000000">VEL</text>
</g>
<!-- RF_FL&#45;&gt;VEL -->
<g id="edge3" class="edge">
<title>RF_FL&#45;&gt;VEL</title>
<path fill="none" stroke="#ff0000" stroke-width=".2152" stroke-dasharray="1,5" d="M371.5736,-135.094C375.3618,-121.7087 382.6348,-96.0106 388.5932,-74.957"/>
<polygon fill="#ff0000" stroke="#ff0000" stroke-width=".2152" points="392.0361,-75.6442 391.3917,-65.069 385.3007,-73.738 392.0361,-75.6442"/>
</g>
<!-- RF_L -->
<g id="node5" class="node">
<title>RF_L</title>
<polygon fill="#d3d3d3" stroke="#000000" points="329,-153.1873 291,-153.1873 291,-135.1873 329,-135.1873 329,-153.1873"/>
<text text-anchor="middle" x="310" y="-141.9873" font-family="Times,serif" font-size="9.00" fill="#000000">RF_L</text>
</g>
<!-- RF_L&#45;&gt;ANG_VEL -->
<g id="edge7" class="edge">
<title>RF_L&#45;&gt;ANG_VEL</title>
<path fill="none" stroke="#ff0000" stroke-width=".1285" d="M300.5364,-135.003C295.2828,-130.1193 288.51,-124.1651 282,-119.4386 254.6644,-99.5921 221.9575,-80.3062 195.9396,-65.9108"/>
<polygon fill="#ff0000" stroke="#ff0000" stroke-width=".1285" points="197.4869,-62.7676 187.0355,-61.03 194.1221,-68.9059 197.4869,-62.7676"/>
</g>
<!-- RF_L&#45;&gt;VEL -->
<g id="edge1" class="edge">
<title>RF_L&#45;&gt;VEL</title>
<path fill="none" stroke="#00ff00" stroke-width=".4815" d="M317.8094,-135.094C330.6219,-120.175 356.5707,-89.96 375.4914,-67.9285"/>
<polygon fill="#00ff00" stroke="#00ff00" stroke-width=".4815" points="378.2469,-70.0921 382.1069,-60.2254 372.9364,-65.5315 378.2469,-70.0921"/>
</g>
<!-- RF_B -->
<g id="node6" class="node">
<title>RF_B</title>
<polygon fill="#d3d3d3" stroke="#000000" points="447,-153.1873 409,-153.1873 409,-135.1873 447,-135.1873 447,-153.1873"/>
<text text-anchor="middle" x="428" y="-141.9873" font-family="Times,serif" font-size="9.00" fill="#000000">RF_B</text>
</g>
<!-- RF_B&#45;&gt;VEL -->
<g id="edge5" class="edge">
<title>RF_B&#45;&gt;VEL</title>
<path fill="none" stroke="#ff0000" stroke-width="1.0078" d="M425.3377,-135.094C421.401,-121.6478 413.8266,-95.7767 407.6472,-74.6702"/>
<polygon fill="#ff0000" stroke="#ff0000" stroke-width="1.0078" points="411.0051,-73.6827 404.8362,-65.069 404.2871,-75.6496 411.0051,-73.6827"/>
</g>
<!-- RAD_F -->
<g id="node7" class="node">
<title>RAD_F</title>
<polygon fill="#d3d3d3" stroke="#000000" points="140,-153.1873 94,-153.1873 94,-135.1873 140,-135.1873 140,-153.1873"/>
<text text-anchor="middle" x="117" y="-141.9873" font-family="Times,serif" font-size="9.00" fill="#000000">RAD_F</text>
</g>
<!-- RAD_F&#45;&gt;ANG_VEL -->
<g id="edge8" class="edge">
<title>RAD_F&#45;&gt;ANG_VEL</title>
<path fill="none" stroke="#ff0000" stroke-width=".3376" stroke-dasharray="1,5" d="M119.9285,-135.094C123.146,-125.1036 128.5723,-108.2542 133.9371,-91.5962"/>
<polygon fill="#ff0000" stroke="#ff0000" stroke-width=".3376" points="137.3374,-92.4551 137.0715,-81.8636 130.6744,-90.3092 137.3374,-92.4551"/>
</g>
<!-- RAD_L -->
<g id="node8" class="node">
<title>RAD_L</title>
<polygon fill="#d3d3d3" stroke="#000000" points="549,-153.1873 503,-153.1873 503,-135.1873 549,-135.1873 549,-153.1873"/>
<text text-anchor="middle" x="526" y="-141.9873" font-family="Times,serif" font-size="9.00" fill="#000000">RAD_L</text>
</g>
<!-- RAD_L&#45;&gt;VEL -->
<g id="edge4" class="edge">
<title>RAD_L&#45;&gt;VEL</title>
<path fill="none" stroke="#ff0000" stroke-width=".3286" d="M514.6409,-135.094C494.6795,-119.1143 452.7971,-85.5861 425.0352,-63.3618"/>
<polygon fill="#ff0000" stroke="#ff0000" stroke-width=".3286" points="426.9067,-60.3767 416.9127,-56.8595 422.532,-65.8413 426.9067,-60.3767"/>
</g>
<!-- RAD_B -->
<g id="node9" class="node">
<title>RAD_B</title>
<polygon fill="#d3d3d3" stroke="#000000" points="271.5,-222.9361 224.5,-222.9361 224.5,-204.9361 271.5,-204.9361 271.5,-222.9361"/>
<text text-anchor="middle" x="248" y="-211.7361" font-family="Times,serif" font-size="9.00" fill="#000000">RAD_B</text>
</g>
<!-- RAD_B&#45;&gt;ANG_VEL -->
<g id="edge10" class="edge">
<title>RAD_B&#45;&gt;ANG_VEL</title>
<path fill="none" stroke="#00ff00" stroke-width=".3265" d="M224.3452,-207.4541C179.2206,-195.0826 85.2702,-169.291 85,-168.9361 63.2333,-140.3459 86.9218,-103.3709 111.5878,-76.6585"/>
<polygon fill="#00ff00" stroke="#00ff00" stroke-width=".3265" points="114.1408,-79.0531 118.5338,-69.4119 109.0873,-74.2092 114.1408,-79.0531"/>
</g>
<!-- RAD_B&#45;&gt;VEL -->
<g id="edge11" class="edge">
<title>RAD_B&#45;&gt;VEL</title>
<path fill="none" stroke="#ff0000" stroke-width=".2172" d="M271.6556,-212.4369C321.1662,-208.7546 433.0328,-197.4035 456,-168.9361 481.6343,-137.1628 448.5518,-92.2284 422.8398,-65.1404"/>
<polygon fill="#ff0000" stroke="#ff0000" stroke-width=".2172" points="425.3382,-62.6893 415.8381,-57.9991 420.3399,-67.59 425.3382,-62.6893"/>
</g>
<!-- 1366 -->
<g id="node13" class="node">
<title>1366</title>
<ellipse fill="#ffffff" stroke="#000000" cx="248" cy="-144.1873" rx="25" ry="25"/>
<text text-anchor="middle" x="248" y="-141.9873" font-family="Times,serif" font-size="9.00" fill="#000000">1366</text>
</g>
<!-- RAD_B&#45;&gt;1366 -->
<g id="edge12" class="edge">
<title>RAD_B&#45;&gt;1366</title>
<path fill="none" stroke="#00ff00" stroke-width=".214" d="M248,-204.8176C248,-198.2009 248,-188.7894 248,-179.3498"/>
<polygon fill="#00ff00" stroke="#00ff00" stroke-width=".214" points="251.5001,-179.2266 248,-169.2266 244.5001,-179.2266 251.5001,-179.2266"/>
</g>
<!-- RAD_R -->
<g id="node10" class="node">
<title>RAD_R</title>
<polygon fill="#d3d3d3" stroke="#000000" points="205.5,-153.1873 158.5,-153.1873 158.5,-135.1873 205.5,-135.1873 205.5,-153.1873"/>
<text text-anchor="middle" x="182" y="-141.9873" font-family="Times,serif" font-size="9.00" fill="#000000">RAD_R</text>
</g>
<!-- RAD_R&#45;&gt;ANG_VEL -->
<g id="edge9" class="edge">
<title>RAD_R&#45;&gt;ANG_VEL</title>
<path fill="none" stroke="#00ff00" stroke-width=".8807" d="M179.1602,-135.094C176.0403,-125.1036 170.7783,-108.2542 165.5762,-91.5962"/>
<polygon fill="#00ff00" stroke="#00ff00" stroke-width=".8807" points="168.8587,-90.3656 162.5368,-81.8636 162.1769,-92.4523 168.8587,-90.3656"/>
</g>
<!-- ANG_VEL&#45;&gt;ANG_VEL -->
<g id="edge2" class="edge">
<title>ANG_VEL&#45;&gt;ANG_VEL</title>
<path fill="none" stroke="#00ff00" stroke-width=".5653" d="M187.3246,-60.8443C199.7661,-60.8443 209.7193,-54.4693 209.7193,-41.7193 209.7193,-32.7545 204.7986,-26.9413 197.5521,-24.2799"/>
<polygon fill="#00ff00" stroke="#00ff00" stroke-width=".5653" points="197.7606,-20.7671 187.3246,-22.5943 196.6223,-27.6739 197.7606,-20.7671"/>
</g>
<!-- 1366&#45;&gt;ANG_VEL -->
<g id="edge13" class="edge">
<title>1366&#45;&gt;ANG_VEL</title>
<path fill="none" stroke="#00ff00" stroke-width=".3619" d="M230.4796,-125.8681C218.1782,-113.0059 201.2864,-95.344 186.1536,-79.5212"/>
<polygon fill="#00ff00" stroke="#00ff00" stroke-width=".3619" points="188.335,-76.7383 178.8938,-71.9305 183.2762,-81.5765 188.335,-76.7383"/>
</g>
<!-- 1366&#45;&gt;VEL -->
<g id="edge14" class="edge">
<title>1366&#45;&gt;VEL</title>
<path fill="none" stroke="#00ff00" stroke-width=".3632" d="M268.0429,-129.4C272.6067,-126.0883 277.4512,-122.6162 282,-119.4386 311.4278,-98.8817 345.6243,-76.1021 369.2262,-60.5495"/>
<polygon fill="#00ff00" stroke="#00ff00" stroke-width=".3632" points="371.2894,-63.3817 377.7211,-54.9624 367.4429,-57.5333 371.2894,-63.3817"/>
</g>
</g>
</svg>
