<?xml version="1.0" encoding="UTF-8" standalone="no"?>
<!DOCTYPE svg PUBLIC "-//W3C//DTD SVG 1.1//EN"
 "http://www.w3.org/Graphics/SVG/1.1/DTD/svg11.dtd">
<!-- Generated by graphviz version 2.40.1 (20161225.0304)
 -->
<!-- Title: %3 Pages: 1 -->
<svg width="481pt" height="224pt"
 viewBox="0.00 0.00 481.00 223.87" xmlns="http://www.w3.org/2000/svg" xmlns:xlink="http://www.w3.org/1999/xlink">
<g id="graph0" class="graph" transform="scale(1 1) rotate(0) translate(4 219.865)">
<title>%3</title>
<polygon fill="#ffffff" stroke="transparent" points="-4,4 -4,-219.865 477,-219.865 477,4 -4,4"/>
<!-- RF_R -->
<g id="node1" class="node">
<title>RF_R</title>
<polygon fill="#d3d3d3" stroke="#000000" points="38,-149.6518 0,-149.6518 0,-131.6518 38,-131.6518 38,-149.6518"/>
<text text-anchor="middle" x="19" y="-138.4518" font-family="Times,serif" font-size="9.00" fill="#000000">RF_R</text>
</g>
<!-- ANG_VEL -->
<g id="node11" class="node">
<title>ANG_VEL</title>
<ellipse fill="#add8e6" stroke="#000000" cx="149" cy="-41.7193" rx="41.9398" ry="41.9398"/>
<text text-anchor="middle" x="149" y="-39.5193" font-family="Times,serif" font-size="9.00" fill="#000000">ANG_VEL</text>
</g>
<!-- RF_R&#45;&gt;ANG_VEL -->
<g id="edge11" class="edge">
<title>RF_R&#45;&gt;ANG_VEL</title>
<path fill="none" stroke="#ff0000" stroke-width=".1456" d="M30.9971,-131.5218C48.2571,-118.3866 80.9452,-93.5103 107.5482,-73.2649"/>
<polygon fill="#ff0000" stroke="#ff0000" stroke-width=".1456" points="109.747,-75.9899 115.5851,-67.1487 105.5078,-70.4195 109.747,-75.9899"/>
</g>
<!-- RF_FR -->
<g id="node2" class="node">
<title>RF_FR</title>
<polygon fill="#d3d3d3" stroke="#000000" points="299,-215.865 255,-215.865 255,-197.865 299,-197.865 299,-215.865"/>
<text text-anchor="middle" x="277" y="-204.665" font-family="Times,serif" font-size="9.00" fill="#000000">RF_FR</text>
</g>
<!-- 164 -->
<g id="node13" class="node">
<title>164</title>
<ellipse fill="#ffffff" stroke="#000000" cx="339" cy="-140.6518" rx="21.4286" ry="21.4286"/>
<text text-anchor="middle" x="339" y="-138.4518" font-family="Times,serif" font-size="9.00" fill="#000000">164</text>
</g>
<!-- RF_FR&#45;&gt;164 -->
<g id="edge1" class="edge">
<title>RF_FR&#45;&gt;164</title>
<path fill="none" stroke="#ff0000" stroke-width=".1062" d="M285.6208,-197.6583C293.8638,-188.8553 306.6269,-175.2248 317.6061,-163.4995"/>
<polygon fill="#ff0000" stroke="#ff0000" stroke-width=".1062" points="320.2178,-165.8311 324.498,-156.1393 315.1081,-161.0465 320.2178,-165.8311"/>
</g>
<!-- RF_F -->
<g id="node3" class="node">
<title>RF_F</title>
<polygon fill="#d3d3d3" stroke="#000000" points="198,-149.6518 160,-149.6518 160,-131.6518 198,-131.6518 198,-149.6518"/>
<text text-anchor="middle" x="179" y="-138.4518" font-family="Times,serif" font-size="9.00" fill="#000000">RF_F</text>
</g>
<!-- RF_F&#45;&gt;ANG_VEL -->
<g id="edge17" class="edge">
<title>RF_F&#45;&gt;ANG_VEL</title>
<path fill="none" stroke="#ff0000" stroke-width=".2026" d="M176.2314,-131.5218C173.4233,-122.2612 168.8455,-107.1647 164.2377,-91.9696"/>
<polygon fill="#ff0000" stroke="#ff0000" stroke-width=".2026" points="167.4751,-90.5843 161.2238,-82.0303 160.7763,-92.6157 167.4751,-90.5843"/>
</g>
<!-- VEL -->
<g id="node12" class="node">
<title>VEL</title>
<ellipse fill="#add8e6" stroke="#000000" cx="290" cy="-41.7193" rx="24.0833" ry="24.0833"/>
<text text-anchor="middle" x="290" y="-39.5193" font-family="Times,serif" font-size="9.00" fill="#000000">VEL</text>
</g>
<!-- RF_F&#45;&gt;VEL -->
<g id="edge5" class="edge">
<title>RF_F&#45;&gt;VEL</title>
<path fill="none" stroke="#00ff00" stroke-width=".54" d="M189.2437,-131.5218C206.1203,-116.4799 240.2721,-86.0409 264.1136,-64.7914"/>
<polygon fill="#00ff00" stroke="#00ff00" stroke-width=".54" points="266.6274,-67.2394 271.7639,-57.9729 261.9698,-62.0137 266.6274,-67.2394"/>
</g>
<!-- RF_FL -->
<g id="node4" class="node">
<title>RF_FL</title>
<polygon fill="#d3d3d3" stroke="#000000" points="360.5,-215.865 317.5,-215.865 317.5,-197.865 360.5,-197.865 360.5,-215.865"/>
<text text-anchor="middle" x="339" y="-204.665" font-family="Times,serif" font-size="9.00" fill="#000000">RF_FL</text>
</g>
<!-- RF_FL&#45;&gt;164 -->
<g id="edge13" class="edge">
<title>RF_FL&#45;&gt;164</title>
<path fill="none" stroke="#ff0000" stroke-width=".2015" d="M339,-197.6583C339,-190.9973 339,-181.5724 339,-172.3003"/>
<polygon fill="#ff0000" stroke="#ff0000" stroke-width=".2015" points="342.5001,-172.0521 339,-162.0522 335.5001,-172.0522 342.5001,-172.0521"/>
</g>
<!-- RF_L -->
<g id="node5" class="node">
<title>RF_L</title>
<polygon fill="#d3d3d3" stroke="#000000" points="473,-215.865 435,-215.865 435,-197.865 473,-197.865 473,-215.865"/>
<text text-anchor="middle" x="454" y="-204.665" font-family="Times,serif" font-size="9.00" fill="#000000">RF_L</text>
</g>
<!-- RF_B -->
<g id="node6" class="node">
<title>RF_B</title>
<polygon fill="#d3d3d3" stroke="#000000" points="417,-215.865 379,-215.865 379,-197.865 417,-197.865 417,-215.865"/>
<text text-anchor="middle" x="398" y="-204.665" font-family="Times,serif" font-size="9.00" fill="#000000">RF_B</text>
</g>
<!-- RF_B&#45;&gt;VEL -->
<g id="edge2" class="edge">
<title>RF_B&#45;&gt;VEL</title>
<path fill="none" stroke="#ff0000" stroke-width=".4709" d="M396.4631,-197.833C393.3415,-181.2716 385.1448,-145.3666 369,-119.4386 355.3662,-97.5431 334.3467,-77.2662 317.4161,-62.9173"/>
<polygon fill="#ff0000" stroke="#ff0000" stroke-width=".4709" points="319.4233,-60.0358 309.4834,-56.3684 314.9668,-65.4339 319.4233,-60.0358"/>
</g>
<!-- RF_B&#45;&gt;164 -->
<g id="edge10" class="edge">
<title>RF_B&#45;&gt;164</title>
<path fill="none" stroke="#ff0000" stroke-width=".5378" d="M389.7963,-197.6583C382.1298,-189.0546 370.3545,-175.8396 360.071,-164.2988"/>
<polygon fill="#ff0000" stroke="#ff0000" stroke-width=".5378" points="362.5246,-161.7914 353.2587,-156.6538 357.2983,-166.4483 362.5246,-161.7914"/>
</g>
<!-- RAD_F -->
<g id="node7" class="node">
<title>RAD_F</title>
<polygon fill="#d3d3d3" stroke="#000000" points="237,-215.865 191,-215.865 191,-197.865 237,-197.865 237,-215.865"/>
<text text-anchor="middle" x="214" y="-204.665" font-family="Times,serif" font-size="9.00" fill="#000000">RAD_F</text>
</g>
<!-- RAD_F&#45;&gt;ANG_VEL -->
<g id="edge16" class="edge">
<title>RAD_F&#45;&gt;ANG_VEL</title>
<path fill="none" stroke="#00ff00" stroke-width=".2785" d="M190.7505,-202.1087C157.0977,-194.6989 97.4645,-179.4142 85,-161.865 65.7765,-134.7996 86.9181,-101.2628 109.9155,-76.5052"/>
<polygon fill="#00ff00" stroke="#00ff00" stroke-width=".2785" points="112.6253,-78.7383 117.0695,-69.1206 107.5976,-73.8676 112.6253,-78.7383"/>
</g>
<!-- RAD_F&#45;&gt;VEL -->
<g id="edge7" class="edge">
<title>RAD_F&#45;&gt;VEL</title>
<path fill="none" stroke="#ff0000" stroke-width=".3046" d="M231.646,-197.7192C244.7034,-189.983 261.7631,-177.6416 271,-161.865 286.2179,-135.8729 290.3766,-101.5504 291.0753,-76.2474"/>
<polygon fill="#ff0000" stroke="#ff0000" stroke-width=".3046" points="294.5776,-76.043 291.1852,-66.0061 287.578,-75.9679 294.5776,-76.043"/>
</g>
<!-- RAD_F&#45;&gt;164 -->
<g id="edge12" class="edge">
<title>RAD_F&#45;&gt;164</title>
<path fill="none" stroke="#ff0000" stroke-width=".1287" d="M233.1952,-197.8261C251.5772,-189.0395 279.9871,-175.1167 304,-161.865 306.7119,-160.3684 309.5152,-158.7664 312.3,-157.1382"/>
<polygon fill="#ff0000" stroke="#ff0000" stroke-width=".1287" points="314.2061,-160.0766 320.9984,-151.9454 310.618,-154.0661 314.2061,-160.0766"/>
</g>
<!-- RAD_L -->
<g id="node8" class="node">
<title>RAD_L</title>
<polygon fill="#d3d3d3" stroke="#000000" points="262,-149.6518 216,-149.6518 216,-131.6518 262,-131.6518 262,-149.6518"/>
<text text-anchor="middle" x="239" y="-138.4518" font-family="Times,serif" font-size="9.00" fill="#000000">RAD_L</text>
</g>
<!-- RAD_L&#45;&gt;ANG_VEL -->
<g id="edge15" class="edge">
<title>RAD_L&#45;&gt;ANG_VEL</title>
<path fill="none" stroke="#ff0000" stroke-width=".1904" d="M230.6943,-131.5218C220.1852,-119.9696 201.4144,-99.3359 184.5139,-80.7579"/>
<polygon fill="#ff0000" stroke="#ff0000" stroke-width=".1904" points="186.7331,-77.9961 177.4148,-72.9542 181.5551,-82.7066 186.7331,-77.9961"/>
</g>
<!-- RAD_L&#45;&gt;VEL -->
<g id="edge9" class="edge">
<title>RAD_L&#45;&gt;VEL</title>
<path fill="none" stroke="#ff0000" stroke-width=".2875" d="M243.7065,-131.5218C250.5922,-118.1646 263.7368,-92.6661 274.2652,-72.2425"/>
<polygon fill="#ff0000" stroke="#ff0000" stroke-width=".2875" points="277.4155,-73.7699 278.8866,-63.2777 271.1935,-70.5624 277.4155,-73.7699"/>
</g>
<!-- RAD_B -->
<g id="node9" class="node">
<title>RAD_B</title>
<polygon fill="#d3d3d3" stroke="#000000" points="141.5,-149.6518 94.5,-149.6518 94.5,-131.6518 141.5,-131.6518 141.5,-149.6518"/>
<text text-anchor="middle" x="118" y="-138.4518" font-family="Times,serif" font-size="9.00" fill="#000000">RAD_B</text>
</g>
<!-- RAD_B&#45;&gt;ANG_VEL -->
<g id="edge6" class="edge">
<title>RAD_B&#45;&gt;ANG_VEL</title>
<path fill="none" stroke="#ff0000" stroke-width=".5204" d="M120.8608,-131.5218C123.8151,-122.0938 128.6646,-106.617 133.5126,-91.1454"/>
<polygon fill="#ff0000" stroke="#ff0000" stroke-width=".5204" points="136.8637,-92.156 136.514,-81.5669 130.1839,-90.0629 136.8637,-92.156"/>
</g>
<!-- RAD_B&#45;&gt;VEL -->
<g id="edge8" class="edge">
<title>RAD_B&#45;&gt;VEL</title>
<path fill="none" stroke="#00ff00" stroke-width=".871" d="M131.6895,-131.5847C137.5802,-127.7529 144.5764,-123.2941 151,-119.4386 187.8458,-97.3235 231.1892,-73.4132 259.5578,-58.0398"/>
<polygon fill="#00ff00" stroke="#00ff00" stroke-width=".871" points="261.4394,-61.0014 268.5734,-53.1684 258.1117,-54.8429 261.4394,-61.0014"/>
</g>
<!-- RAD_R -->
<g id="node10" class="node">
<title>RAD_R</title>
<polygon fill="#d3d3d3" stroke="#000000" points="463.5,-149.6518 416.5,-149.6518 416.5,-131.6518 463.5,-131.6518 463.5,-149.6518"/>
<text text-anchor="middle" x="440" y="-138.4518" font-family="Times,serif" font-size="9.00" fill="#000000">RAD_R</text>
</g>
<!-- RAD_R&#45;&gt;VEL -->
<g id="edge14" class="edge">
<title>RAD_R&#45;&gt;VEL</title>
<path fill="none" stroke="#00ff00" stroke-width=".3894" d="M426.1572,-131.5218C401.8273,-115.475 350.9291,-81.9051 318.722,-60.6629"/>
<polygon fill="#00ff00" stroke="#00ff00" stroke-width=".3894" points="320.4461,-57.6074 310.1712,-55.0232 316.592,-63.4508 320.4461,-57.6074"/>
</g>
<!-- 164&#45;&gt;ANG_VEL -->
<g id="edge4" class="edge">
<title>164&#45;&gt;ANG_VEL</title>
<path fill="none" stroke="#00ff00" stroke-width=".4699" d="M320.0874,-130.8041C291.1767,-115.7503 235.1342,-86.5692 195.0664,-65.706"/>
<polygon fill="#00ff00" stroke="#00ff00" stroke-width=".4699" points="196.5005,-62.5067 186.0144,-60.9926 193.2675,-68.7154 196.5005,-62.5067"/>
</g>
<!-- 164&#45;&gt;VEL -->
<g id="edge3" class="edge">
<title>164&#45;&gt;VEL</title>
<path fill="none" stroke="#00ff00" stroke-width=".1054" d="M329.5523,-121.5766C322.671,-107.6831 313.2032,-88.5672 305.256,-72.5216"/>
<polygon fill="#00ff00" stroke="#00ff00" stroke-width=".1054" points="308.3583,-70.8993 300.7836,-63.4917 302.0856,-74.0062 308.3583,-70.8993"/>
</g>
</g>
</svg>
