<?xml version="1.0" encoding="UTF-8" standalone="no"?>
<!DOCTYPE svg PUBLIC "-//W3C//DTD SVG 1.1//EN"
 "http://www.w3.org/Graphics/SVG/1.1/DTD/svg11.dtd">
<!-- Generated by graphviz version 2.40.1 (20161225.0304)
 -->
<!-- Title: %3 Pages: 1 -->
<svg width="415pt" height="218pt"
 viewBox="0.00 0.00 415.45 218.21" xmlns="http://www.w3.org/2000/svg" xmlns:xlink="http://www.w3.org/1999/xlink">
<g id="graph0" class="graph" transform="scale(1 1) rotate(0) translate(4 214.2082)">
<title>%3</title>
<polygon fill="#ffffff" stroke="transparent" points="-4,4 -4,-214.2082 411.4515,-214.2082 411.4515,4 -4,4"/>
<!-- RF_R -->
<g id="node1" class="node">
<title>RF_R</title>
<polygon fill="#d3d3d3" stroke="#000000" points="182.4515,-146.8234 144.4515,-146.8234 144.4515,-128.8234 182.4515,-128.8234 182.4515,-146.8234"/>
<text text-anchor="middle" x="163.4515" y="-135.6234" font-family="Times,serif" font-size="9.00" fill="#000000">RF_R</text>
</g>
<!-- ANG_VEL -->
<g id="node11" class="node">
<title>ANG_VEL</title>
<ellipse fill="#add8e6" stroke="#000000" cx="102.4515" cy="-41.7193" rx="41.9398" ry="41.9398"/>
<text text-anchor="middle" x="102.4515" y="-39.5193" font-family="Times,serif" font-size="9.00" fill="#000000">ANG_VEL</text>
</g>
<!-- RF_R&#45;&gt;ANG_VEL -->
<g id="edge18" class="edge">
<title>RF_R&#45;&gt;ANG_VEL</title>
<path fill="none" stroke="#ff0000" stroke-width=".2412" d="M157.6026,-128.6085C151.2621,-118.6193 140.6764,-101.9418 130.465,-85.8539"/>
<polygon fill="#ff0000" stroke="#ff0000" stroke-width=".2412" points="133.1738,-83.5903 124.8598,-77.0231 127.2638,-87.3416 133.1738,-83.5903"/>
</g>
<!-- VEL -->
<g id="node12" class="node">
<title>VEL</title>
<ellipse fill="#add8e6" stroke="#000000" cx="222.4515" cy="-41.7193" rx="24.0833" ry="24.0833"/>
<text text-anchor="middle" x="222.4515" y="-39.5193" font-family="Times,serif" font-size="9.00" fill="#000000">VEL</text>
</g>
<!-- RF_R&#45;&gt;VEL -->
<g id="edge14" class="edge">
<title>RF_R&#45;&gt;VEL</title>
<path fill="none" stroke="#ff0000" stroke-width=".2841" d="M169.1087,-128.6085C177.1624,-115.4899 192.2977,-90.8363 204.3948,-71.1316"/>
<polygon fill="#ff0000" stroke="#ff0000" stroke-width=".2841" points="207.4535,-72.8389 209.7027,-62.4855 201.488,-69.1765 207.4535,-72.8389"/>
</g>
<!-- RF_FR -->
<g id="node2" class="node">
<title>RF_FR</title>
<polygon fill="#d3d3d3" stroke="#000000" points="360.4515,-146.8234 316.4515,-146.8234 316.4515,-128.8234 360.4515,-128.8234 360.4515,-146.8234"/>
<text text-anchor="middle" x="338.4515" y="-135.6234" font-family="Times,serif" font-size="9.00" fill="#000000">RF_FR</text>
</g>
<!-- RF_FR&#45;&gt;VEL -->
<g id="edge5" class="edge">
<title>RF_FR&#45;&gt;VEL</title>
<path fill="none" stroke="#00ff00" stroke-width=".1161" d="M327.3289,-128.6085C309.4973,-113.8353 274.0091,-84.4339 249.2785,-63.945"/>
<polygon fill="#00ff00" stroke="#00ff00" stroke-width=".1161" points="251.2786,-61.0569 241.3451,-57.3723 246.8127,-66.4473 251.2786,-61.0569"/>
</g>
<!-- RF_F -->
<g id="node3" class="node">
<title>RF_F</title>
<polygon fill="#d3d3d3" stroke="#000000" points="407.4515,-210.2082 369.4515,-210.2082 369.4515,-192.2082 407.4515,-192.2082 407.4515,-210.2082"/>
<text text-anchor="middle" x="388.4515" y="-199.0082" font-family="Times,serif" font-size="9.00" fill="#000000">RF_F</text>
</g>
<!-- RF_F&#45;&gt;VEL -->
<g id="edge16" class="edge">
<title>RF_F&#45;&gt;VEL</title>
<path fill="none" stroke="#00ff00" stroke-width=".5893" d="M388.6837,-192.0799C388.6309,-175.7921 386.3501,-141.3757 369.4515,-119.4386 340.9534,-82.4435 289.7748,-61.1698 255.9584,-50.5207"/>
<polygon fill="#00ff00" stroke="#00ff00" stroke-width=".5893" points="256.6494,-47.0739 246.0653,-47.5513 254.637,-53.7784 256.6494,-47.0739"/>
</g>
<!-- 19 -->
<g id="node13" class="node">
<title>19</title>
<ellipse fill="#ffffff" stroke="#000000" cx="280.4515" cy="-137.8234" rx="18.2703" ry="18.2703"/>
<text text-anchor="middle" x="280.4515" y="-135.6234" font-family="Times,serif" font-size="9.00" fill="#000000">19</text>
</g>
<!-- RF_F&#45;&gt;19 -->
<g id="edge13" class="edge">
<title>RF_F&#45;&gt;19</title>
<path fill="none" stroke="#ff0000" stroke-width=".1764" d="M371.1254,-192.1703C354.5451,-183.3844 328.9508,-169.4621 307.4515,-156.2082 306.3653,-155.5386 305.2615,-154.8446 304.1516,-154.1359"/>
<polygon fill="#ff0000" stroke="#ff0000" stroke-width=".1764" points="305.9877,-151.1541 295.7132,-148.5682 302.1325,-156.9969 305.9877,-151.1541"/>
</g>
<!-- RF_FL -->
<g id="node4" class="node">
<title>RF_FL</title>
<polygon fill="#d3d3d3" stroke="#000000" points="243.9515,-146.8234 200.9515,-146.8234 200.9515,-128.8234 243.9515,-128.8234 243.9515,-146.8234"/>
<text text-anchor="middle" x="222.4515" y="-135.6234" font-family="Times,serif" font-size="9.00" fill="#000000">RF_FL</text>
</g>
<!-- RF_FL&#45;&gt;ANG_VEL -->
<g id="edge1" class="edge">
<title>RF_FL&#45;&gt;ANG_VEL</title>
<path fill="none" stroke="#00ff00" stroke-width=".4858" d="M210.9454,-128.6085C195.3976,-116.1568 166.8739,-93.3131 142.9746,-74.173"/>
<polygon fill="#00ff00" stroke="#00ff00" stroke-width=".4858" points="145.0657,-71.3635 135.0724,-67.8443 140.6899,-76.8273 145.0657,-71.3635"/>
</g>
<!-- RF_FL&#45;&gt;VEL -->
<g id="edge6" class="edge">
<title>RF_FL&#45;&gt;VEL</title>
<path fill="none" stroke="#ff0000" stroke-width=".2606" d="M222.4515,-128.6085C222.4515,-116.558 222.4515,-94.7743 222.4515,-76.034"/>
<polygon fill="#ff0000" stroke="#ff0000" stroke-width=".2606" points="225.9516,-76.0169 222.4515,-66.017 218.9516,-76.017 225.9516,-76.0169"/>
</g>
<!-- RF_L -->
<g id="node5" class="node">
<title>RF_L</title>
<polygon fill="#d3d3d3" stroke="#000000" points="351.4515,-210.2082 313.4515,-210.2082 313.4515,-192.2082 351.4515,-192.2082 351.4515,-210.2082"/>
<text text-anchor="middle" x="332.4515" y="-199.0082" font-family="Times,serif" font-size="9.00" fill="#000000">RF_L</text>
</g>
<!-- RF_L&#45;&gt;19 -->
<g id="edge10" class="edge">
<title>RF_L&#45;&gt;19</title>
<path fill="none" stroke="#00ff00" stroke-width=".2935" d="M325.0012,-192.1267C318.1981,-183.8341 307.8595,-171.2321 298.8541,-160.255"/>
<polygon fill="#00ff00" stroke="#00ff00" stroke-width=".2935" points="301.3566,-157.7871 292.308,-152.2758 295.9447,-162.2269 301.3566,-157.7871"/>
</g>
<!-- RF_B -->
<g id="node6" class="node">
<title>RF_B</title>
<polygon fill="#d3d3d3" stroke="#000000" points="85.4515,-210.2082 47.4515,-210.2082 47.4515,-192.2082 85.4515,-192.2082 85.4515,-210.2082"/>
<text text-anchor="middle" x="66.4515" y="-199.0082" font-family="Times,serif" font-size="9.00" fill="#000000">RF_B</text>
</g>
<!-- RF_B&#45;&gt;ANG_VEL -->
<g id="edge8" class="edge">
<title>RF_B&#45;&gt;ANG_VEL</title>
<path fill="none" stroke="#ff0000" stroke-width=".1121" d="M47.4351,-193.073C32.9904,-185.7512 14.1714,-173.4768 5.4515,-156.2082 -1.9147,-141.6204 -1.6222,-134.1704 5.4515,-119.4386 16.1916,-97.071 36.8528,-79.1172 56.356,-66.1248"/>
<polygon fill="#ff0000" stroke="#ff0000" stroke-width=".1121" points="58.3459,-69.0071 64.9024,-60.6846 54.587,-63.102 58.3459,-69.0071"/>
</g>
<!-- RF_B&#45;&gt;19 -->
<g id="edge7" class="edge">
<title>RF_B&#45;&gt;19</title>
<path fill="none" stroke="#00ff00" stroke-width=".4496" d="M85.49,-198.9376C120.1388,-194.31 195.2901,-181.9709 253.4515,-156.2082 254.6473,-155.6785 255.8468,-155.095 257.0396,-154.4718"/>
<polygon fill="#00ff00" stroke="#00ff00" stroke-width=".4496" points="259.1194,-157.305 265.8801,-149.1475 255.508,-151.3085 259.1194,-157.305"/>
</g>
<!-- RAD_F -->
<g id="node7" class="node">
<title>RAD_F</title>
<polygon fill="#d3d3d3" stroke="#000000" points="229.4515,-210.2082 183.4515,-210.2082 183.4515,-192.2082 229.4515,-192.2082 229.4515,-210.2082"/>
<text text-anchor="middle" x="206.4515" y="-199.0082" font-family="Times,serif" font-size="9.00" fill="#000000">RAD_F</text>
</g>
<!-- RAD_F&#45;&gt;19 -->
<g id="edge17" class="edge">
<title>RAD_F&#45;&gt;19</title>
<path fill="none" stroke="#00ff00" stroke-width=".1058" d="M217.0539,-192.1267C227.8779,-182.8553 244.991,-168.1971 258.7105,-156.4456"/>
<polygon fill="#00ff00" stroke="#00ff00" stroke-width=".1058" points="261.0051,-159.0887 266.323,-149.9251 256.4513,-153.7723 261.0051,-159.0887"/>
</g>
<!-- RAD_L -->
<g id="node8" class="node">
<title>RAD_L</title>
<polygon fill="#d3d3d3" stroke="#000000" points="60.4515,-146.8234 14.4515,-146.8234 14.4515,-128.8234 60.4515,-128.8234 60.4515,-146.8234"/>
<text text-anchor="middle" x="37.4515" y="-135.6234" font-family="Times,serif" font-size="9.00" fill="#000000">RAD_L</text>
</g>
<!-- RAD_L&#45;&gt;ANG_VEL -->
<g id="edge15" class="edge">
<title>RAD_L&#45;&gt;ANG_VEL</title>
<path fill="none" stroke="#00ff00" stroke-width=".5464" d="M43.684,-128.6085C50.5569,-118.4468 62.1109,-101.3638 73.1644,-85.021"/>
<polygon fill="#00ff00" stroke="#00ff00" stroke-width=".5464" points="76.1683,-86.827 78.8716,-76.5828 70.3699,-82.9053 76.1683,-86.827"/>
</g>
<!-- RAD_L&#45;&gt;VEL -->
<g id="edge4" class="edge">
<title>RAD_L&#45;&gt;VEL</title>
<path fill="none" stroke="#ff0000" stroke-width=".3381" d="M52.6242,-128.6775C58.1354,-125.542 64.4776,-122.1448 70.4515,-119.4386 113.8604,-99.7745 129.9545,-106.8696 171.4515,-83.4386 180.2297,-78.4821 189.0078,-71.9943 196.7456,-65.6168"/>
<polygon fill="#ff0000" stroke="#ff0000" stroke-width=".3381" points="199.3661,-67.9807 204.6845,-58.8175 194.8126,-62.6641 199.3661,-67.9807"/>
</g>
<!-- RAD_B -->
<g id="node9" class="node">
<title>RAD_B</title>
<polygon fill="#d3d3d3" stroke="#000000" points="294.9515,-210.2082 247.9515,-210.2082 247.9515,-192.2082 294.9515,-192.2082 294.9515,-210.2082"/>
<text text-anchor="middle" x="271.4515" y="-199.0082" font-family="Times,serif" font-size="9.00" fill="#000000">RAD_B</text>
</g>
<!-- RAD_B&#45;&gt;19 -->
<g id="edge2" class="edge">
<title>RAD_B&#45;&gt;19</title>
<path fill="none" stroke="#ff0000" stroke-width=".494" d="M272.741,-192.1267C273.719,-185.2387 275.1192,-175.3774 276.4587,-165.9437"/>
<polygon fill="#ff0000" stroke="#ff0000" stroke-width=".494" points="279.9248,-166.4288 277.8655,-156.036 272.9944,-165.4446 279.9248,-166.4288"/>
</g>
<!-- RAD_R -->
<g id="node10" class="node">
<title>RAD_R</title>
<polygon fill="#d3d3d3" stroke="#000000" points="125.9515,-146.8234 78.9515,-146.8234 78.9515,-128.8234 125.9515,-128.8234 125.9515,-146.8234"/>
<text text-anchor="middle" x="102.4515" y="-135.6234" font-family="Times,serif" font-size="9.00" fill="#000000">RAD_R</text>
</g>
<!-- RAD_R&#45;&gt;ANG_VEL -->
<g id="edge3" class="edge">
<title>RAD_R&#45;&gt;ANG_VEL</title>
<path fill="none" stroke="#00ff00" stroke-width=".1715" d="M102.4515,-128.6085C102.4515,-120.2973 102.4515,-107.3563 102.4515,-93.9771"/>
<polygon fill="#00ff00" stroke="#00ff00" stroke-width=".1715" points="105.9516,-93.7299 102.4515,-83.73 98.9516,-93.73 105.9516,-93.7299"/>
</g>
<!-- RAD_R&#45;&gt;VEL -->
<g id="edge9" class="edge">
<title>RAD_R&#45;&gt;VEL</title>
<path fill="none" stroke="#00ff00" stroke-width=".2787" d="M114.2232,-128.65C127.9992,-117.8905 151.4712,-99.4827 171.4515,-83.4386 179.3118,-77.1268 187.804,-70.2168 195.5615,-63.8684"/>
<polygon fill="#00ff00" stroke="#00ff00" stroke-width=".2787" points="198.1131,-66.3023 203.6263,-57.255 193.6744,-60.8896 198.1131,-66.3023"/>
</g>
<!-- ANG_VEL&#45;&gt;ANG_VEL -->
<g id="edge11" class="edge">
<title>ANG_VEL&#45;&gt;ANG_VEL</title>
<path fill="none" stroke="#ff0000" stroke-width=".3412" d="M140.3574,-59.7149C152.5262,-59.5303 162.1708,-53.5318 162.1708,-41.7193 162.1708,-33.4136 157.4027,-27.9823 150.3415,-25.4253"/>
<polygon fill="#ff0000" stroke="#ff0000" stroke-width=".3412" points="150.8033,-21.9536 140.3574,-23.7237 149.6272,-28.8541 150.8033,-21.9536"/>
</g>
<!-- 19&#45;&gt;VEL -->
<g id="edge12" class="edge">
<title>19&#45;&gt;VEL</title>
<path fill="none" stroke="#00ff00" stroke-width=".2063" d="M270.874,-121.9537C262.5668,-108.189 250.3244,-87.9037 240.228,-71.1744"/>
<polygon fill="#00ff00" stroke="#00ff00" stroke-width=".2063" points="243.0421,-69.0634 234.8784,-62.3102 237.0489,-72.6804 243.0421,-69.0634"/>
</g>
</g>
</svg>
