<?xml version="1.0" encoding="UTF-8" standalone="no"?>
<!DOCTYPE svg PUBLIC "-//W3C//DTD SVG 1.1//EN"
 "http://www.w3.org/Graphics/SVG/1.1/DTD/svg11.dtd">
<!-- Generated by graphviz version 2.40.1 (20161225.0304)
 -->
<!-- Title: %3 Pages: 1 -->
<svg width="498pt" height="230pt"
 viewBox="0.00 0.00 497.50 229.52" xmlns="http://www.w3.org/2000/svg" xmlns:xlink="http://www.w3.org/1999/xlink">
<g id="graph0" class="graph" transform="scale(1 1) rotate(0) translate(4 225.5219)">
<title>%3</title>
<polygon fill="#ffffff" stroke="transparent" points="-4,4 -4,-225.5219 493.5,-225.5219 493.5,4 -4,4"/>
<!-- RF_R -->
<g id="node1" class="node">
<title>RF_R</title>
<polygon fill="#d3d3d3" stroke="#000000" points="220,-221.5219 182,-221.5219 182,-203.5219 220,-203.5219 220,-221.5219"/>
<text text-anchor="middle" x="201" y="-210.3219" font-family="Times,serif" font-size="9.00" fill="#000000">RF_R</text>
</g>
<!-- ANG_VEL -->
<g id="node11" class="node">
<title>ANG_VEL</title>
<ellipse fill="#add8e6" stroke="#000000" cx="182" cy="-125.8026" rx="41.9398" ry="41.9398"/>
<text text-anchor="middle" x="182" y="-123.6026" font-family="Times,serif" font-size="9.00" fill="#000000">ANG_VEL</text>
</g>
<!-- RF_R&#45;&gt;ANG_VEL -->
<g id="edge16" class="edge">
<title>RF_R&#45;&gt;ANG_VEL</title>
<path fill="none" stroke="#ff0000" stroke-width=".2433" d="M198.9667,-203.2414C197.5012,-196.5528 195.3954,-186.9415 193.1631,-176.7531"/>
<polygon fill="#ff0000" stroke="#ff0000" stroke-width=".2433" points="196.5602,-175.9037 191.001,-166.8845 189.7224,-177.4019 196.5602,-175.9037"/>
</g>
<!-- 11 -->
<g id="node13" class="node">
<title>11</title>
<ellipse fill="#ffffff" stroke="#000000" cx="260" cy="-125.8026" rx="18.2703" ry="18.2703"/>
<text text-anchor="middle" x="260" y="-123.6026" font-family="Times,serif" font-size="9.00" fill="#000000">11</text>
</g>
<!-- RF_R&#45;&gt;11 -->
<g id="edge13" class="edge">
<title>RF_R&#45;&gt;11</title>
<path fill="none" stroke="#ff0000" stroke-width=".2114" d="M207.7386,-203.2971C214.2984,-194.2587 224.4943,-180.0547 233,-167.5219 236.8153,-161.9002 240.8382,-155.7893 244.5801,-150.0222"/>
<polygon fill="#ff0000" stroke="#ff0000" stroke-width=".2114" points="247.6855,-151.6645 250.1584,-141.3623 241.8007,-147.8737 247.6855,-151.6645"/>
</g>
<!-- RF_FR -->
<g id="node2" class="node">
<title>RF_FR</title>
<polygon fill="#d3d3d3" stroke="#000000" points="84,-134.8026 40,-134.8026 40,-116.8026 84,-116.8026 84,-134.8026"/>
<text text-anchor="middle" x="62" y="-123.6026" font-family="Times,serif" font-size="9.00" fill="#000000">RF_FR</text>
</g>
<!-- VEL -->
<g id="node12" class="node">
<title>VEL</title>
<ellipse fill="#add8e6" stroke="#000000" cx="260" cy="-24.0416" rx="24.0833" ry="24.0833"/>
<text text-anchor="middle" x="260" y="-21.8416" font-family="Times,serif" font-size="9.00" fill="#000000">VEL</text>
</g>
<!-- RF_FR&#45;&gt;VEL -->
<g id="edge9" class="edge">
<title>RF_FR&#45;&gt;VEL</title>
<path fill="none" stroke="#00ff00" stroke-width=".2633" d="M67.8476,-116.6338C74.2348,-107.2809 85.2695,-92.9221 98,-84.0833 137.7446,-56.4884 191.7246,-39.83 226.2188,-31.2821"/>
<polygon fill="#00ff00" stroke="#00ff00" stroke-width=".2633" points="227.3461,-34.6114 236.261,-28.8865 225.7218,-27.8025 227.3461,-34.6114"/>
</g>
<!-- RF_F -->
<g id="node3" class="node">
<title>RF_F</title>
<polygon fill="#d3d3d3" stroke="#000000" points="424,-221.5219 386,-221.5219 386,-203.5219 424,-203.5219 424,-221.5219"/>
<text text-anchor="middle" x="405" y="-210.3219" font-family="Times,serif" font-size="9.00" fill="#000000">RF_F</text>
</g>
<!-- RF_F&#45;&gt;VEL -->
<g id="edge3" class="edge">
<title>RF_F&#45;&gt;VEL</title>
<path fill="none" stroke="#00ff00" stroke-width=".187" d="M408.5803,-203.4454C416.8057,-180.9662 434.4665,-121.8017 409,-84.0833 383.4329,-46.2158 329.5677,-32.2257 294.0942,-27.0604"/>
<polygon fill="#00ff00" stroke="#00ff00" stroke-width=".187" points="294.5387,-23.5888 284.1717,-25.7742 293.6388,-30.5307 294.5387,-23.5888"/>
</g>
<!-- RF_F&#45;&gt;11 -->
<g id="edge14" class="edge">
<title>RF_F&#45;&gt;11</title>
<path fill="none" stroke="#ff0000" stroke-width=".1513" d="M389.7565,-203.4053C364.7166,-188.4298 314.6588,-158.492 284.5656,-140.4944"/>
<polygon fill="#ff0000" stroke="#ff0000" stroke-width=".1513" points="286.2959,-137.451 275.9171,-135.322 282.7029,-143.4586 286.2959,-137.451"/>
</g>
<!-- RF_FL -->
<g id="node4" class="node">
<title>RF_FL</title>
<polygon fill="#d3d3d3" stroke="#000000" points="281.5,-221.5219 238.5,-221.5219 238.5,-203.5219 281.5,-203.5219 281.5,-221.5219"/>
<text text-anchor="middle" x="260" y="-210.3219" font-family="Times,serif" font-size="9.00" fill="#000000">RF_FL</text>
</g>
<!-- RF_FL&#45;&gt;ANG_VEL -->
<g id="edge8" class="edge">
<title>RF_FL&#45;&gt;ANG_VEL</title>
<path fill="none" stroke="#ff0000" stroke-width=".3002" d="M251.6526,-203.2414C243.2964,-193.951 229.8682,-179.0218 217.0219,-164.7394"/>
<polygon fill="#ff0000" stroke="#ff0000" stroke-width=".3002" points="219.2704,-162.0056 209.9808,-156.9112 214.0659,-166.6868 219.2704,-162.0056"/>
</g>
<!-- RF_FL&#45;&gt;11 -->
<g id="edge1" class="edge">
<title>RF_FL&#45;&gt;11</title>
<path fill="none" stroke="#00ff00" stroke-width=".4695" d="M260,-203.2414C260,-191.7718 260,-171.7077 260,-154.8767"/>
<polygon fill="#00ff00" stroke="#00ff00" stroke-width=".4695" points="263.5001,-154.406 260,-144.406 256.5001,-154.4061 263.5001,-154.406"/>
</g>
<!-- RF_L -->
<g id="node5" class="node">
<title>RF_L</title>
<polygon fill="#d3d3d3" stroke="#000000" points="38,-221.5219 0,-221.5219 0,-203.5219 38,-203.5219 38,-221.5219"/>
<text text-anchor="middle" x="19" y="-210.3219" font-family="Times,serif" font-size="9.00" fill="#000000">RF_L</text>
</g>
<!-- RF_L&#45;&gt;ANG_VEL -->
<g id="edge7" class="edge">
<title>RF_L&#45;&gt;ANG_VEL</title>
<path fill="none" stroke="#00ff00" stroke-width=".7105" d="M36.1358,-203.4053C59.5957,-190.9241 102.5908,-168.0498 135.847,-150.3569"/>
<polygon fill="#00ff00" stroke="#00ff00" stroke-width=".7105" points="137.7599,-153.3038 144.9443,-145.5169 134.472,-147.1239 137.7599,-153.3038"/>
</g>
<!-- RF_L&#45;&gt;VEL -->
<g id="edge10" class="edge">
<title>RF_L&#45;&gt;VEL</title>
<path fill="none" stroke="#ff0000" stroke-width=".1973" d="M16.7018,-203.428C11.468,-180.391 1.2914,-119.086 31,-84.0833 56.0377,-54.5837 168.1173,-35.9987 225.6613,-28.2304"/>
<polygon fill="#ff0000" stroke="#ff0000" stroke-width=".1973" points="226.2797,-31.6793 235.7381,-26.9055 225.3672,-24.739 226.2797,-31.6793"/>
</g>
<!-- RF_B -->
<g id="node6" class="node">
<title>RF_B</title>
<polygon fill="#d3d3d3" stroke="#000000" points="100,-221.5219 62,-221.5219 62,-203.5219 100,-203.5219 100,-221.5219"/>
<text text-anchor="middle" x="81" y="-210.3219" font-family="Times,serif" font-size="9.00" fill="#000000">RF_B</text>
</g>
<!-- RF_B&#45;&gt;ANG_VEL -->
<g id="edge12" class="edge">
<title>RF_B&#45;&gt;ANG_VEL</title>
<path fill="none" stroke="#ff0000" stroke-width=".1204" d="M91.8088,-203.2414C103.9204,-192.8423 124.2605,-175.3781 142.5621,-159.6642"/>
<polygon fill="#ff0000" stroke="#ff0000" stroke-width=".1204" points="144.9438,-162.2324 150.2509,-153.0626 140.3837,-156.9215 144.9438,-162.2324"/>
</g>
<!-- RF_B&#45;&gt;VEL -->
<g id="edge2" class="edge">
<title>RF_B&#45;&gt;VEL</title>
<path fill="none" stroke="#ff0000" stroke-width=".1146" d="M83.5984,-203.3466C91.1785,-177.098 113.815,-102.4118 131,-84.0833 156.8455,-56.518 197.8613,-40.4576 226.6908,-31.995"/>
<polygon fill="#ff0000" stroke="#ff0000" stroke-width=".1146" points="227.639,-35.3643 236.3351,-29.3122 225.7629,-28.6203 227.639,-35.3643"/>
</g>
<!-- RAD_F -->
<g id="node7" class="node">
<title>RAD_F</title>
<polygon fill="#d3d3d3" stroke="#000000" points="164,-221.5219 118,-221.5219 118,-203.5219 164,-203.5219 164,-221.5219"/>
<text text-anchor="middle" x="141" y="-210.3219" font-family="Times,serif" font-size="9.00" fill="#000000">RAD_F</text>
</g>
<!-- RAD_F&#45;&gt;ANG_VEL -->
<g id="edge6" class="edge">
<title>RAD_F&#45;&gt;ANG_VEL</title>
<path fill="none" stroke="#00ff00" stroke-width=".3387" d="M145.3877,-203.2414C148.9412,-195.7254 154.2396,-184.5188 159.7093,-172.9498"/>
<polygon fill="#00ff00" stroke="#00ff00" stroke-width=".3387" points="162.9924,-174.1941 164.1025,-163.6576 156.664,-171.2021 162.9924,-174.1941"/>
</g>
<!-- RAD_L -->
<g id="node8" class="node">
<title>RAD_L</title>
<polygon fill="#d3d3d3" stroke="#000000" points="346,-221.5219 300,-221.5219 300,-203.5219 346,-203.5219 346,-221.5219"/>
<text text-anchor="middle" x="323" y="-210.3219" font-family="Times,serif" font-size="9.00" fill="#000000">RAD_L</text>
</g>
<!-- RAD_L&#45;&gt;ANG_VEL -->
<g id="edge4" class="edge">
<title>RAD_L&#45;&gt;ANG_VEL</title>
<path fill="none" stroke="#00ff00" stroke-width=".2212" d="M301.5434,-203.4217C282.8379,-195.1126 255.2885,-181.9545 233,-167.5219 229.2252,-165.0776 225.4071,-162.4001 221.648,-159.6189"/>
<polygon fill="#00ff00" stroke="#00ff00" stroke-width=".2212" points="223.6187,-156.7195 213.5525,-153.4144 219.3605,-162.2754 223.6187,-156.7195"/>
</g>
<!-- RAD_L&#45;&gt;VEL -->
<g id="edge18" class="edge">
<title>RAD_L&#45;&gt;VEL</title>
<path fill="none" stroke="#00ff00" stroke-width=".1172" d="M323.2501,-203.4009C323.5236,-181.7901 322.3427,-126.13 305,-84.0833 299.8777,-71.6645 291.58,-59.5079 283.4963,-49.4175"/>
<polygon fill="#00ff00" stroke="#00ff00" stroke-width=".1172" points="285.9376,-46.8816 276.8308,-41.4671 280.5734,-51.3789 285.9376,-46.8816"/>
</g>
<!-- RAD_L&#45;&gt;11 -->
<g id="edge5" class="edge">
<title>RAD_L&#45;&gt;11</title>
<path fill="none" stroke="#ff0000" stroke-width=".4995" d="M316.2579,-203.2414C306.9285,-190.3995 289.772,-166.7836 276.8486,-148.9947"/>
<polygon fill="#ff0000" stroke="#ff0000" stroke-width=".4995" points="279.6066,-146.836 270.8973,-140.8027 273.9433,-150.9503 279.6066,-146.836"/>
</g>
<!-- RAD_B -->
<g id="node9" class="node">
<title>RAD_B</title>
<polygon fill="#d3d3d3" stroke="#000000" points="399.5,-134.8026 352.5,-134.8026 352.5,-116.8026 399.5,-116.8026 399.5,-134.8026"/>
<text text-anchor="middle" x="376" y="-123.6026" font-family="Times,serif" font-size="9.00" fill="#000000">RAD_B</text>
</g>
<!-- RAD_B&#45;&gt;VEL -->
<g id="edge11" class="edge">
<title>RAD_B&#45;&gt;VEL</title>
<path fill="none" stroke="#ff0000" stroke-width=".2539" d="M368.5644,-116.751C361.1947,-108.0014 349.389,-94.5668 338,-84.0833 322.4446,-69.7645 303.7069,-55.2625 288.4959,-44.0986"/>
<polygon fill="#ff0000" stroke="#ff0000" stroke-width=".2539" points="290.1486,-40.9738 279.9981,-37.9378 286.0399,-46.6411 290.1486,-40.9738"/>
</g>
<!-- RAD_R -->
<g id="node10" class="node">
<title>RAD_R</title>
<polygon fill="#d3d3d3" stroke="#000000" points="489.5,-221.5219 442.5,-221.5219 442.5,-203.5219 489.5,-203.5219 489.5,-221.5219"/>
<text text-anchor="middle" x="466" y="-210.3219" font-family="Times,serif" font-size="9.00" fill="#000000">RAD_R</text>
</g>
<!-- 11&#45;&gt;VEL -->
<g id="edge17" class="edge">
<title>11&#45;&gt;VEL</title>
<path fill="none" stroke="#ff0000" stroke-width=".1442" d="M260,-107.138C260,-93.5825 260,-74.8443 260,-58.5925"/>
<polygon fill="#ff0000" stroke="#ff0000" stroke-width=".1442" points="263.5001,-58.3512 260,-48.3512 256.5001,-58.3513 263.5001,-58.3512"/>
</g>
<!-- 11&#45;&gt;11 -->
<g id="edge15" class="edge">
<title>11&#45;&gt;11</title>
<path fill="none" stroke="#00ff00" stroke-width=".1421" d="M273.0565,-139.2663C284.3927,-145.4077 296.3848,-140.9197 296.3848,-125.8026 296.3848,-115.1733 290.4561,-109.799 282.9953,-109.6796"/>
<polygon fill="#00ff00" stroke="#00ff00" stroke-width=".1421" points="281.812,-106.373 273.0565,-112.3388 283.6214,-113.1351 281.812,-106.373"/>
</g>
</g>
</svg>
