<?xml version="1.0" encoding="UTF-8" standalone="no"?>
<!DOCTYPE svg PUBLIC "-//W3C//DTD SVG 1.1//EN"
 "http://www.w3.org/Graphics/SVG/1.1/DTD/svg11.dtd">
<!-- Generated by graphviz version 2.40.1 (20161225.0304)
 -->
<!-- Title: %3 Pages: 1 -->
<svg width="479pt" height="230pt"
 viewBox="0.00 0.00 478.50 229.52" xmlns="http://www.w3.org/2000/svg" xmlns:xlink="http://www.w3.org/1999/xlink">
<g id="graph0" class="graph" transform="scale(1 1) rotate(0) translate(4 225.5219)">
<title>%3</title>
<polygon fill="#ffffff" stroke="transparent" points="-4,4 -4,-225.5219 474.5,-225.5219 474.5,4 -4,4"/>
<!-- RF_R -->
<g id="node1" class="node">
<title>RF_R</title>
<polygon fill="#d3d3d3" stroke="#000000" points="284,-221.5219 246,-221.5219 246,-203.5219 284,-203.5219 284,-221.5219"/>
<text text-anchor="middle" x="265" y="-210.3219" font-family="Times,serif" font-size="9.00" fill="#000000">RF_R</text>
</g>
<!-- VEL -->
<g id="node12" class="node">
<title>VEL</title>
<ellipse fill="#add8e6" stroke="#000000" cx="217" cy="-143.4802" rx="24.0833" ry="24.0833"/>
<text text-anchor="middle" x="217" y="-141.2802" font-family="Times,serif" font-size="9.00" fill="#000000">VEL</text>
</g>
<!-- RF_R&#45;&gt;VEL -->
<g id="edge12" class="edge">
<title>RF_R&#45;&gt;VEL</title>
<path fill="none" stroke="#ff0000" stroke-width=".1859" d="M258.7248,-203.4959C253.0953,-195.3985 244.526,-183.0727 236.6147,-171.6934"/>
<polygon fill="#ff0000" stroke="#ff0000" stroke-width=".1859" points="239.335,-169.4747 230.7529,-163.2619 233.5875,-173.4705 239.335,-169.4747"/>
</g>
<!-- 222 -->
<g id="node13" class="node">
<title>222</title>
<ellipse fill="#ffffff" stroke="#000000" cx="318" cy="-143.4802" rx="21.4286" ry="21.4286"/>
<text text-anchor="middle" x="318" y="-141.2802" font-family="Times,serif" font-size="9.00" fill="#000000">222</text>
</g>
<!-- RF_R&#45;&gt;222 -->
<g id="edge16" class="edge">
<title>RF_R&#45;&gt;222</title>
<path fill="none" stroke="#ff0000" stroke-width=".1089" d="M271.9288,-203.4959C278.7226,-194.6458 289.394,-180.7445 298.7561,-168.5487"/>
<polygon fill="#ff0000" stroke="#ff0000" stroke-width=".1089" points="301.6518,-170.5245 304.9647,-160.4609 296.0992,-166.262 301.6518,-170.5245"/>
</g>
<!-- RF_FR -->
<g id="node2" class="node">
<title>RF_FR</title>
<polygon fill="#d3d3d3" stroke="#000000" points="108,-221.5219 64,-221.5219 64,-203.5219 108,-203.5219 108,-221.5219"/>
<text text-anchor="middle" x="86" y="-210.3219" font-family="Times,serif" font-size="9.00" fill="#000000">RF_FR</text>
</g>
<!-- RF_FR&#45;&gt;VEL -->
<g id="edge18" class="edge">
<title>RF_FR&#45;&gt;VEL</title>
<path fill="none" stroke="#00ff00" stroke-width=".1427" d="M108.0346,-203.8863C128.3181,-195.5949 158.9629,-182.1929 184,-167.5219 185.743,-166.5005 187.5069,-165.4086 189.2654,-164.2745"/>
<polygon fill="#00ff00" stroke="#00ff00" stroke-width=".1427" points="191.6075,-166.9134 197.8921,-158.3838 187.66,-161.1326 191.6075,-166.9134"/>
</g>
<!-- RF_F -->
<g id="node3" class="node">
<title>RF_F</title>
<polygon fill="#d3d3d3" stroke="#000000" points="164,-221.5219 126,-221.5219 126,-203.5219 164,-203.5219 164,-221.5219"/>
<text text-anchor="middle" x="145" y="-210.3219" font-family="Times,serif" font-size="9.00" fill="#000000">RF_F</text>
</g>
<!-- RF_F&#45;&gt;VEL -->
<g id="edge17" class="edge">
<title>RF_F&#45;&gt;VEL</title>
<path fill="none" stroke="#00ff00" stroke-width=".3234" d="M154.4127,-203.4959C163.972,-194.3294 179.1823,-179.7441 192.2144,-167.2475"/>
<polygon fill="#00ff00" stroke="#00ff00" stroke-width=".3234" points="194.7812,-169.6353 199.5765,-160.1878 189.9363,-164.5828 194.7812,-169.6353"/>
</g>
<!-- RF_FL -->
<g id="node4" class="node">
<title>RF_FL</title>
<polygon fill="#d3d3d3" stroke="#000000" points="118.5,-152.4802 75.5,-152.4802 75.5,-134.4802 118.5,-134.4802 118.5,-152.4802"/>
<text text-anchor="middle" x="97" y="-141.2802" font-family="Times,serif" font-size="9.00" fill="#000000">RF_FL</text>
</g>
<!-- ANG_VEL -->
<g id="node11" class="node">
<title>ANG_VEL</title>
<ellipse fill="#add8e6" stroke="#000000" cx="212" cy="-41.7193" rx="41.9398" ry="41.9398"/>
<text text-anchor="middle" x="212" y="-39.5193" font-family="Times,serif" font-size="9.00" fill="#000000">ANG_VEL</text>
</g>
<!-- RF_FL&#45;&gt;ANG_VEL -->
<g id="edge11" class="edge">
<title>RF_FL&#45;&gt;ANG_VEL</title>
<path fill="none" stroke="#ff0000" stroke-width=".1116" d="M107.2055,-134.4496C121.8242,-121.5139 149.5288,-96.9987 172.7815,-76.4229"/>
<polygon fill="#ff0000" stroke="#ff0000" stroke-width=".1116" points="175.3016,-78.8665 180.4712,-69.6184 170.6628,-73.6242 175.3016,-78.8665"/>
</g>
<!-- RF_L -->
<g id="node5" class="node">
<title>RF_L</title>
<polygon fill="#d3d3d3" stroke="#000000" points="175,-152.4802 137,-152.4802 137,-134.4802 175,-134.4802 175,-152.4802"/>
<text text-anchor="middle" x="156" y="-141.2802" font-family="Times,serif" font-size="9.00" fill="#000000">RF_L</text>
</g>
<!-- RF_L&#45;&gt;ANG_VEL -->
<g id="edge3" class="edge">
<title>RF_L&#45;&gt;ANG_VEL</title>
<path fill="none" stroke="#00ff00" stroke-width=".178" d="M160.9696,-134.4496C166.8507,-123.7628 177.0809,-105.1728 186.8449,-87.4301"/>
<polygon fill="#00ff00" stroke="#00ff00" stroke-width=".178" points="190.1279,-88.7239 191.8828,-78.2754 183.9952,-85.349 190.1279,-88.7239"/>
</g>
<!-- RF_B -->
<g id="node6" class="node">
<title>RF_B</title>
<polygon fill="#d3d3d3" stroke="#000000" points="340,-221.5219 302,-221.5219 302,-203.5219 340,-203.5219 340,-221.5219"/>
<text text-anchor="middle" x="321" y="-210.3219" font-family="Times,serif" font-size="9.00" fill="#000000">RF_B</text>
</g>
<!-- RF_B&#45;&gt;ANG_VEL -->
<g id="edge2" class="edge">
<title>RF_B&#45;&gt;ANG_VEL</title>
<path fill="none" stroke="#ff0000" stroke-width=".1251" d="M313.928,-203.3862C307.0721,-194.4139 296.4921,-180.2574 288,-167.5219 270.4751,-141.2398 252.1269,-110.9577 237.85,-86.6904"/>
<polygon fill="#ff0000" stroke="#ff0000" stroke-width=".1251" points="240.8576,-84.9002 232.7833,-78.0404 234.8175,-88.4382 240.8576,-84.9002"/>
</g>
<!-- RF_B&#45;&gt;VEL -->
<g id="edge7" class="edge">
<title>RF_B&#45;&gt;VEL</title>
<path fill="none" stroke="#00ff00" stroke-width=".227" d="M307.4038,-203.4959C291.8641,-193.1797 265.9861,-176.0002 245.8895,-162.6589"/>
<polygon fill="#00ff00" stroke="#00ff00" stroke-width=".227" points="247.6668,-159.6377 237.3997,-157.0228 243.7952,-165.4696 247.6668,-159.6377"/>
</g>
<!-- RF_B&#45;&gt;222 -->
<g id="edge13" class="edge">
<title>RF_B&#45;&gt;222</title>
<path fill="none" stroke="#00ff00" stroke-width=".3726" d="M320.6078,-203.4959C320.2886,-196.1489 319.8181,-185.321 319.3643,-174.8776"/>
<polygon fill="#00ff00" stroke="#00ff00" stroke-width=".3726" points="322.8532,-174.544 318.9223,-164.7054 315.8598,-174.8479 322.8532,-174.544"/>
</g>
<!-- RAD_F -->
<g id="node7" class="node">
<title>RAD_F</title>
<polygon fill="#d3d3d3" stroke="#000000" points="46,-221.5219 0,-221.5219 0,-203.5219 46,-203.5219 46,-221.5219"/>
<text text-anchor="middle" x="23" y="-210.3219" font-family="Times,serif" font-size="9.00" fill="#000000">RAD_F</text>
</g>
<!-- RAD_F&#45;&gt;ANG_VEL -->
<g id="edge4" class="edge">
<title>RAD_F&#45;&gt;ANG_VEL</title>
<path fill="none" stroke="#ff0000" stroke-width=".3336" d="M25.0995,-203.4825C29.6879,-185.4697 42.1567,-144.6666 66,-119.4386 92.6331,-91.2588 131.7902,-71.1837 162.8495,-58.5035"/>
<polygon fill="#ff0000" stroke="#ff0000" stroke-width=".3336" points="164.1928,-61.7362 172.2058,-54.805 161.6194,-55.2263 164.1928,-61.7362"/>
</g>
<!-- RAD_F&#45;&gt;VEL -->
<g id="edge10" class="edge">
<title>RAD_F&#45;&gt;VEL</title>
<path fill="none" stroke="#ff0000" stroke-width=".1054" d="M46.0705,-206.0273C49.0742,-205.1835 52.1103,-204.3314 55,-203.5219 112.3171,-187.4639 130.4246,-193.4601 184,-167.5219 185.8183,-166.6415 187.6407,-165.6593 189.4438,-164.6086"/>
<polygon fill="#ff0000" stroke="#ff0000" stroke-width=".1054" points="191.7009,-167.3167 198.1899,-158.9415 187.8944,-161.4421 191.7009,-167.3167"/>
</g>
<!-- RAD_L -->
<g id="node8" class="node">
<title>RAD_L</title>
<polygon fill="#d3d3d3" stroke="#000000" points="228,-221.5219 182,-221.5219 182,-203.5219 228,-203.5219 228,-221.5219"/>
<text text-anchor="middle" x="205" y="-210.3219" font-family="Times,serif" font-size="9.00" fill="#000000">RAD_L</text>
</g>
<!-- RAD_L&#45;&gt;VEL -->
<g id="edge15" class="edge">
<title>RAD_L&#45;&gt;VEL</title>
<path fill="none" stroke="#ff0000" stroke-width=".4188" d="M206.5688,-203.4959C207.7476,-196.7138 209.4419,-186.9654 211.1234,-177.2913"/>
<polygon fill="#ff0000" stroke="#ff0000" stroke-width=".4188" points="214.5846,-177.816 212.8487,-167.3643 207.688,-176.6172 214.5846,-177.816"/>
</g>
<!-- RAD_B -->
<g id="node9" class="node">
<title>RAD_B</title>
<polygon fill="#d3d3d3" stroke="#000000" points="405.5,-221.5219 358.5,-221.5219 358.5,-203.5219 405.5,-203.5219 405.5,-221.5219"/>
<text text-anchor="middle" x="382" y="-210.3219" font-family="Times,serif" font-size="9.00" fill="#000000">RAD_B</text>
</g>
<!-- RAD_B&#45;&gt;ANG_VEL -->
<g id="edge6" class="edge">
<title>RAD_B&#45;&gt;ANG_VEL</title>
<path fill="none" stroke="#00ff00" stroke-width=".17" d="M382.9677,-203.2875C384.3509,-185.2826 384.9161,-145.0141 366,-119.4386 341.0391,-85.6901 297.246,-65.5991 262.7252,-54.3271"/>
<polygon fill="#00ff00" stroke="#00ff00" stroke-width=".17" points="263.3887,-50.8682 252.8004,-51.2422 261.3109,-57.5527 263.3887,-50.8682"/>
</g>
<!-- RAD_B&#45;&gt;VEL -->
<g id="edge14" class="edge">
<title>RAD_B&#45;&gt;VEL</title>
<path fill="none" stroke="#00ff00" stroke-width=".1416" d="M360.4291,-203.4959C332.0091,-191.604 281.7935,-170.592 248.9572,-156.8522"/>
<polygon fill="#00ff00" stroke="#00ff00" stroke-width=".1416" points="249.944,-153.4711 239.368,-152.8397 247.2419,-159.9286 249.944,-153.4711"/>
</g>
<!-- RAD_B&#45;&gt;222 -->
<g id="edge5" class="edge">
<title>RAD_B&#45;&gt;222</title>
<path fill="none" stroke="#ff0000" stroke-width=".3869" d="M373.6331,-203.4959C364.9909,-194.1729 351.1527,-179.2445 339.4401,-166.6093"/>
<polygon fill="#ff0000" stroke="#ff0000" stroke-width=".3869" points="341.8527,-164.0635 332.4876,-159.1091 336.719,-168.8223 341.8527,-164.0635"/>
</g>
<!-- RAD_R -->
<g id="node10" class="node">
<title>RAD_R</title>
<polygon fill="#d3d3d3" stroke="#000000" points="470.5,-221.5219 423.5,-221.5219 423.5,-203.5219 470.5,-203.5219 470.5,-221.5219"/>
<text text-anchor="middle" x="447" y="-210.3219" font-family="Times,serif" font-size="9.00" fill="#000000">RAD_R</text>
</g>
<!-- RAD_R&#45;&gt;222 -->
<g id="edge8" class="edge">
<title>RAD_R&#45;&gt;222</title>
<path fill="none" stroke="#00ff00" stroke-width=".1186" d="M430.1355,-203.4959C408.7251,-192.0369 371.4925,-172.1098 345.8409,-158.3809"/>
<polygon fill="#00ff00" stroke="#00ff00" stroke-width=".1186" points="347.4333,-155.2634 336.9651,-153.6305 344.1302,-161.4351 347.4333,-155.2634"/>
</g>
<!-- 222&#45;&gt;ANG_VEL -->
<g id="edge1" class="edge">
<title>222&#45;&gt;ANG_VEL</title>
<path fill="none" stroke="#ff0000" stroke-width=".1897" d="M302.3593,-128.4651C288.5523,-115.2102 267.8629,-95.3482 249.764,-77.9731"/>
<polygon fill="#ff0000" stroke="#ff0000" stroke-width=".1897" points="251.8314,-75.106 242.1936,-70.7054 246.9836,-80.1557 251.8314,-75.106"/>
</g>
<!-- 222&#45;&gt;222 -->
<g id="edge9" class="edge">
<title>222&#45;&gt;222</title>
<path fill="none" stroke="#00ff00" stroke-width=".1785" d="M335.7443,-155.3306C346.7445,-158.1882 357.2132,-154.238 357.2132,-143.4802 357.2132,-136.2523 352.4875,-132.0975 346.0499,-131.0158"/>
<polygon fill="#00ff00" stroke="#00ff00" stroke-width=".1785" points="345.5184,-127.5412 335.7443,-131.6298 345.9348,-134.5288 345.5184,-127.5412"/>
</g>
</g>
</svg>
