<?xml version="1.0" encoding="UTF-8" standalone="no"?>
<!DOCTYPE svg PUBLIC "-//W3C//DTD SVG 1.1//EN"
 "http://www.w3.org/Graphics/SVG/1.1/DTD/svg11.dtd">
<!-- Generated by graphviz version 2.40.1 (20161225.0304)
 -->
<!-- Title: %3 Pages: 1 -->
<svg width="656pt" height="170pt"
 viewBox="0.00 0.00 655.50 169.87" xmlns="http://www.w3.org/2000/svg" xmlns:xlink="http://www.w3.org/1999/xlink">
<g id="graph0" class="graph" transform="scale(1 1) rotate(0) translate(4 165.865)">
<title>%3</title>
<polygon fill="#ffffff" stroke="transparent" points="-4,4 -4,-165.865 651.5,-165.865 651.5,4 -4,4"/>
<!-- RF_R -->
<g id="node1" class="node">
<title>RF_R</title>
<polygon fill="#d3d3d3" stroke="#000000" points="38,-149.6518 0,-149.6518 0,-131.6518 38,-131.6518 38,-149.6518"/>
<text text-anchor="middle" x="19" y="-138.4518" font-family="Times,serif" font-size="9.00" fill="#000000">RF_R</text>
</g>
<!-- ANG_VEL -->
<g id="node11" class="node">
<title>ANG_VEL</title>
<ellipse fill="#add8e6" stroke="#000000" cx="59" cy="-41.7193" rx="41.9398" ry="41.9398"/>
<text text-anchor="middle" x="59" y="-39.5193" font-family="Times,serif" font-size="9.00" fill="#000000">ANG_VEL</text>
</g>
<!-- RF_R&#45;&gt;ANG_VEL -->
<g id="edge4" class="edge">
<title>RF_R&#45;&gt;ANG_VEL</title>
<path fill="none" stroke="#00ff00" stroke-width=".2937" d="M22.6914,-131.5218C26.6039,-121.8449 33.0929,-105.7956 39.5116,-89.9202"/>
<polygon fill="#00ff00" stroke="#00ff00" stroke-width=".2937" points="42.7591,-91.2254 43.2627,-80.6425 36.2695,-88.6015 42.7591,-91.2254"/>
</g>
<!-- RF_FR -->
<g id="node2" class="node">
<title>RF_FR</title>
<polygon fill="#d3d3d3" stroke="#000000" points="456,-149.6518 412,-149.6518 412,-131.6518 456,-131.6518 456,-149.6518"/>
<text text-anchor="middle" x="434" y="-138.4518" font-family="Times,serif" font-size="9.00" fill="#000000">RF_FR</text>
</g>
<!-- RF_F -->
<g id="node3" class="node">
<title>RF_F</title>
<polygon fill="#d3d3d3" stroke="#000000" points="338,-149.6518 300,-149.6518 300,-131.6518 338,-131.6518 338,-149.6518"/>
<text text-anchor="middle" x="319" y="-138.4518" font-family="Times,serif" font-size="9.00" fill="#000000">RF_F</text>
</g>
<!-- VEL -->
<g id="node12" class="node">
<title>VEL</title>
<ellipse fill="#add8e6" stroke="#000000" cx="319" cy="-41.7193" rx="24.0833" ry="24.0833"/>
<text text-anchor="middle" x="319" y="-39.5193" font-family="Times,serif" font-size="9.00" fill="#000000">VEL</text>
</g>
<!-- RF_F&#45;&gt;VEL -->
<g id="edge2" class="edge">
<title>RF_F&#45;&gt;VEL</title>
<path fill="none" stroke="#00ff00" stroke-width=".4669" d="M319,-131.5218C319,-119.0331 319,-95.9307 319,-76.2861"/>
<polygon fill="#00ff00" stroke="#00ff00" stroke-width=".4669" points="322.5001,-76.111 319,-66.1111 315.5001,-76.1111 322.5001,-76.111"/>
</g>
<!-- RF_FL -->
<g id="node4" class="node">
<title>RF_FL</title>
<polygon fill="#d3d3d3" stroke="#000000" points="517.5,-149.6518 474.5,-149.6518 474.5,-131.6518 517.5,-131.6518 517.5,-149.6518"/>
<text text-anchor="middle" x="496" y="-138.4518" font-family="Times,serif" font-size="9.00" fill="#000000">RF_FL</text>
</g>
<!-- 953 -->
<g id="node15" class="node">
<title>953</title>
<ellipse fill="#ffffff" stroke="#000000" cx="496" cy="-41.7193" rx="21.4286" ry="21.4286"/>
<text text-anchor="middle" x="496" y="-39.5193" font-family="Times,serif" font-size="9.00" fill="#000000">953</text>
</g>
<!-- RF_FL&#45;&gt;953 -->
<g id="edge5" class="edge">
<title>RF_FL&#45;&gt;953</title>
<path fill="none" stroke="#00ff00" stroke-width=".2799" d="M496,-131.5218C496,-118.4053 496,-93.581 496,-73.3514"/>
<polygon fill="#00ff00" stroke="#00ff00" stroke-width=".2799" points="499.5001,-73.2776 496,-63.2777 492.5001,-73.2777 499.5001,-73.2776"/>
</g>
<!-- RF_L -->
<g id="node5" class="node">
<title>RF_L</title>
<polygon fill="#d3d3d3" stroke="#000000" points="394,-149.6518 356,-149.6518 356,-131.6518 394,-131.6518 394,-149.6518"/>
<text text-anchor="middle" x="375" y="-138.4518" font-family="Times,serif" font-size="9.00" fill="#000000">RF_L</text>
</g>
<!-- RF_L&#45;&gt;VEL -->
<g id="edge3" class="edge">
<title>RF_L&#45;&gt;VEL</title>
<path fill="none" stroke="#00ff00" stroke-width=".9199" d="M369.832,-131.5218C362.19,-118.0211 347.5271,-92.1168 335.9058,-71.586"/>
<polygon fill="#00ff00" stroke="#00ff00" stroke-width=".9199" points="338.951,-69.8605 330.979,-62.8821 332.8592,-73.3088 338.951,-69.8605"/>
</g>
<!-- RF_B -->
<g id="node6" class="node">
<title>RF_B</title>
<polygon fill="#d3d3d3" stroke="#000000" points="282,-149.6518 244,-149.6518 244,-131.6518 282,-131.6518 282,-149.6518"/>
<text text-anchor="middle" x="263" y="-138.4518" font-family="Times,serif" font-size="9.00" fill="#000000">RF_B</text>
</g>
<!-- RF_B&#45;&gt;VEL -->
<g id="edge1" class="edge">
<title>RF_B&#45;&gt;VEL</title>
<path fill="none" stroke="#ff0000" stroke-width=".8224" d="M268.168,-131.5218C275.81,-118.0211 290.4729,-92.1168 302.0942,-71.586"/>
<polygon fill="#ff0000" stroke="#ff0000" stroke-width=".8224" points="305.1408,-73.3088 307.021,-62.8821 299.049,-69.8605 305.1408,-73.3088"/>
</g>
<!-- 1078 -->
<g id="node14" class="node">
<title>1078</title>
<ellipse fill="#ffffff" stroke="#000000" cx="163" cy="-41.7193" rx="25" ry="25"/>
<text text-anchor="middle" x="163" y="-39.5193" font-family="Times,serif" font-size="9.00" fill="#000000">1078</text>
</g>
<!-- RF_B&#45;&gt;1078 -->
<g id="edge6" class="edge">
<title>RF_B&#45;&gt;1078</title>
<path fill="none" stroke="#ff0000" stroke-width=".5061" d="M253.7715,-131.5218C238.9794,-116.8876 209.4564,-87.6797 188.0876,-66.5391"/>
<polygon fill="#ff0000" stroke="#ff0000" stroke-width=".5061" points="190.4774,-63.9799 180.9068,-59.435 185.5542,-68.9562 190.4774,-63.9799"/>
</g>
<!-- RAD_F -->
<g id="node7" class="node">
<title>RAD_F</title>
<polygon fill="#d3d3d3" stroke="#000000" points="102,-149.6518 56,-149.6518 56,-131.6518 102,-131.6518 102,-149.6518"/>
<text text-anchor="middle" x="79" y="-138.4518" font-family="Times,serif" font-size="9.00" fill="#000000">RAD_F</text>
</g>
<!-- RAD_F&#45;&gt;ANG_VEL -->
<g id="edge10" class="edge">
<title>RAD_F&#45;&gt;ANG_VEL</title>
<path fill="none" stroke="#ff0000" stroke-width=".4088" d="M77.1543,-131.5218C75.3315,-122.5049 72.3901,-107.9551 69.4009,-93.1687"/>
<polygon fill="#ff0000" stroke="#ff0000" stroke-width=".4088" points="72.7492,-92.0674 67.337,-82.9592 65.8879,-93.4545 72.7492,-92.0674"/>
</g>
<!-- RAD_F&#45;&gt;1078 -->
<g id="edge8" class="edge">
<title>RAD_F&#45;&gt;1078</title>
<path fill="none" stroke="#00ff00" stroke-width=".2169" d="M86.752,-131.5218C98.7807,-117.3548 122.406,-89.5296 140.1871,-68.5876"/>
<polygon fill="#00ff00" stroke="#00ff00" stroke-width=".2169" points="142.8751,-70.8294 146.6794,-60.9412 137.539,-66.2988 142.8751,-70.8294"/>
</g>
<!-- RAD_L -->
<g id="node8" class="node">
<title>RAD_L</title>
<polygon fill="#d3d3d3" stroke="#000000" points="166,-149.6518 120,-149.6518 120,-131.6518 166,-131.6518 166,-149.6518"/>
<text text-anchor="middle" x="143" y="-138.4518" font-family="Times,serif" font-size="9.00" fill="#000000">RAD_L</text>
</g>
<!-- RAD_L&#45;&gt;1078 -->
<g id="edge7" class="edge">
<title>RAD_L&#45;&gt;1078</title>
<path fill="none" stroke="#00ff00" stroke-width=".529" d="M144.8457,-131.5218C147.382,-118.9755 152.0838,-95.7175 156.0669,-76.0147"/>
<polygon fill="#00ff00" stroke="#00ff00" stroke-width=".529" points="159.518,-76.6063 158.069,-66.1111 152.6568,-75.2192 159.518,-76.6063"/>
</g>
<!-- RAD_B -->
<g id="node9" class="node">
<title>RAD_B</title>
<polygon fill="#d3d3d3" stroke="#000000" points="582.5,-149.6518 535.5,-149.6518 535.5,-131.6518 582.5,-131.6518 582.5,-149.6518"/>
<text text-anchor="middle" x="559" y="-138.4518" font-family="Times,serif" font-size="9.00" fill="#000000">RAD_B</text>
</g>
<!-- RAD_R -->
<g id="node10" class="node">
<title>RAD_R</title>
<polygon fill="#d3d3d3" stroke="#000000" points="647.5,-149.6518 600.5,-149.6518 600.5,-131.6518 647.5,-131.6518 647.5,-149.6518"/>
<text text-anchor="middle" x="624" y="-138.4518" font-family="Times,serif" font-size="9.00" fill="#000000">RAD_R</text>
</g>
<!-- 811 -->
<g id="node13" class="node">
<title>811</title>
<ellipse fill="#ffffff" stroke="#000000" cx="205" cy="-140.6518" rx="21.4286" ry="21.4286"/>
<text text-anchor="middle" x="205" y="-138.4518" font-family="Times,serif" font-size="9.00" fill="#000000">811</text>
</g>
<!-- 811&#45;&gt;1078 -->
<g id="edge9" class="edge">
<title>811&#45;&gt;1078</title>
<path fill="none" stroke="#ff0000" stroke-width=".2435" d="M196.7022,-121.1059C191.0005,-107.6754 183.2977,-89.5313 176.6954,-73.9793"/>
<polygon fill="#ff0000" stroke="#ff0000" stroke-width=".2435" points="179.884,-72.5333 172.7544,-64.6962 173.4405,-75.2688 179.884,-72.5333"/>
</g>
</g>
</svg>
