<?xml version="1.0" encoding="UTF-8" standalone="no"?>
<!DOCTYPE svg PUBLIC "-//W3C//DTD SVG 1.1//EN"
 "http://www.w3.org/Graphics/SVG/1.1/DTD/svg11.dtd">
<!-- Generated by graphviz version 2.40.1 (20161225.0304)
 -->
<!-- Title: %3 Pages: 1 -->
<svg width="488pt" height="231pt"
 viewBox="0.00 0.00 488.49 230.94" xmlns="http://www.w3.org/2000/svg" xmlns:xlink="http://www.w3.org/1999/xlink">
<g id="graph0" class="graph" transform="scale(1 1) rotate(0) translate(4 226.9361)">
<title>%3</title>
<polygon fill="#ffffff" stroke="transparent" points="-4,4 -4,-226.9361 484.488,-226.9361 484.488,4 -4,4"/>
<!-- RF_R -->
<g id="node1" class="node">
<title>RF_R</title>
<polygon fill="#d3d3d3" stroke="#000000" points="248.488,-153.1873 210.488,-153.1873 210.488,-135.1873 248.488,-135.1873 248.488,-153.1873"/>
<text text-anchor="middle" x="229.488" y="-141.9873" font-family="Times,serif" font-size="9.00" fill="#000000">RF_R</text>
</g>
<!-- ANG_VEL -->
<g id="node11" class="node">
<title>ANG_VEL</title>
<ellipse fill="#add8e6" stroke="#000000" cx="169.488" cy="-41.7193" rx="41.9398" ry="41.9398"/>
<text text-anchor="middle" x="169.488" y="-39.5193" font-family="Times,serif" font-size="9.00" fill="#000000">ANG_VEL</text>
</g>
<!-- RF_R&#45;&gt;ANG_VEL -->
<g id="edge3" class="edge">
<title>RF_R&#45;&gt;ANG_VEL</title>
<path fill="none" stroke="#ff0000" stroke-width=".1204" stroke-dasharray="1,5" d="M224.1634,-135.094C217.7551,-124.15 206.5273,-104.9751 195.9069,-86.8375"/>
<polygon fill="#ff0000" stroke="#ff0000" stroke-width=".1204" points="198.8391,-84.9184 190.7658,-78.0575 192.7985,-88.4556 198.8391,-84.9184"/>
</g>
<!-- VEL -->
<g id="node12" class="node">
<title>VEL</title>
<ellipse fill="#add8e6" stroke="#000000" cx="345.488" cy="-41.7193" rx="24.0833" ry="24.0833"/>
<text text-anchor="middle" x="345.488" y="-39.5193" font-family="Times,serif" font-size="9.00" fill="#000000">VEL</text>
</g>
<!-- RF_R&#45;&gt;VEL -->
<g id="edge4" class="edge">
<title>RF_R&#45;&gt;VEL</title>
<path fill="none" stroke="#00ff00" stroke-width=".3059" d="M239.7822,-135.094C257.494,-119.4483 294.2498,-86.9803 319.393,-64.7702"/>
<polygon fill="#00ff00" stroke="#00ff00" stroke-width=".3059" points="321.9319,-67.1975 327.1094,-57.9539 317.2976,-61.9512 321.9319,-67.1975"/>
</g>
<!-- RF_FR -->
<g id="node2" class="node">
<title>RF_FR</title>
<polygon fill="#d3d3d3" stroke="#000000" points="60.488,-153.1873 16.488,-153.1873 16.488,-135.1873 60.488,-135.1873 60.488,-153.1873"/>
<text text-anchor="middle" x="38.488" y="-141.9873" font-family="Times,serif" font-size="9.00" fill="#000000">RF_FR</text>
</g>
<!-- RF_FR&#45;&gt;ANG_VEL -->
<g id="edge2" class="edge">
<title>RF_FR&#45;&gt;ANG_VEL</title>
<path fill="none" stroke="#00ff00" stroke-width=".3273" d="M49.9427,-134.9841C55.7788,-130.3099 62.9961,-124.5523 69.488,-119.4386 88.6606,-104.336 110.0074,-87.7187 128.0383,-73.7395"/>
<polygon fill="#00ff00" stroke="#00ff00" stroke-width=".3273" points="130.3081,-76.4085 136.0697,-67.5172 126.021,-70.8749 130.3081,-76.4085"/>
</g>
<!-- RF_F -->
<g id="node3" class="node">
<title>RF_F</title>
<polygon fill="#d3d3d3" stroke="#000000" points="480.488,-153.1873 442.488,-153.1873 442.488,-135.1873 480.488,-135.1873 480.488,-153.1873"/>
<text text-anchor="middle" x="461.488" y="-141.9873" font-family="Times,serif" font-size="9.00" fill="#000000">RF_F</text>
</g>
<!-- RF_F&#45;&gt;VEL -->
<g id="edge6" class="edge">
<title>RF_F&#45;&gt;VEL</title>
<path fill="none" stroke="#00ff00" stroke-width="1.2797" d="M451.1937,-135.094C433.4819,-119.4483 396.7261,-86.9803 371.583,-64.7702"/>
<polygon fill="#00ff00" stroke="#00ff00" stroke-width="1.2797" points="373.6784,-61.9512 363.8665,-57.9539 369.0441,-67.1975 373.6784,-61.9512"/>
</g>
<!-- RF_FL -->
<g id="node4" class="node">
<title>RF_FL</title>
<polygon fill="#d3d3d3" stroke="#000000" points="66.988,-222.9361 23.988,-222.9361 23.988,-204.9361 66.988,-204.9361 66.988,-222.9361"/>
<text text-anchor="middle" x="45.488" y="-211.7361" font-family="Times,serif" font-size="9.00" fill="#000000">RF_FL</text>
</g>
<!-- RF_FL&#45;&gt;ANG_VEL -->
<g id="edge10" class="edge">
<title>RF_FL&#45;&gt;ANG_VEL</title>
<path fill="none" stroke="#ff0000" stroke-width=".8229" stroke-dasharray="1,5" d="M34.4124,-204.9172C25.2221,-196.6603 12.8267,-183.533 7.488,-168.9361 -.0684,-148.2757 -4.23,-138.0569 7.488,-119.4386 31.6637,-81.0264 80.6887,-61.1723 118.5073,-51.1893"/>
<polygon fill="#ff0000" stroke="#ff0000" stroke-width=".8229" points="119.4908,-54.5514 128.3517,-48.7433 117.8028,-47.758 119.4908,-54.5514"/>
</g>
<!-- 2426 -->
<g id="node13" class="node">
<title>2426</title>
<ellipse fill="#ffffff" stroke="#000000" cx="103.488" cy="-144.1873" rx="25" ry="25"/>
<text text-anchor="middle" x="103.488" y="-141.9873" font-family="Times,serif" font-size="9.00" fill="#000000">2426</text>
</g>
<!-- RF_FL&#45;&gt;2426 -->
<g id="edge12" class="edge">
<title>RF_FL&#45;&gt;2426</title>
<path fill="none" stroke="#ff0000" stroke-width=".3964" d="M53.0704,-204.8176C60.1559,-196.2969 71.0954,-183.1415 80.9758,-171.2597"/>
<polygon fill="#ff0000" stroke="#ff0000" stroke-width=".3964" points="83.8838,-173.2367 87.5865,-163.3099 78.5015,-168.761 83.8838,-173.2367"/>
</g>
<!-- RF_L -->
<g id="node5" class="node">
<title>RF_L</title>
<polygon fill="#d3d3d3" stroke="#000000" points="304.488,-153.1873 266.488,-153.1873 266.488,-135.1873 304.488,-135.1873 304.488,-153.1873"/>
<text text-anchor="middle" x="285.488" y="-141.9873" font-family="Times,serif" font-size="9.00" fill="#000000">RF_L</text>
</g>
<!-- RF_L&#45;&gt;ANG_VEL -->
<g id="edge11" class="edge">
<title>RF_L&#45;&gt;ANG_VEL</title>
<path fill="none" stroke="#ff0000" stroke-width=".7141" d="M275.1937,-135.094C260.3483,-121.9803 232.1242,-97.0487 208.5727,-76.2446"/>
<polygon fill="#ff0000" stroke="#ff0000" stroke-width=".7141" points="210.6027,-73.3678 200.7909,-69.3706 205.9684,-78.6141 210.6027,-73.3678"/>
</g>
<!-- RF_L&#45;&gt;VEL -->
<g id="edge8" class="edge">
<title>RF_L&#45;&gt;VEL</title>
<path fill="none" stroke="#ff0000" stroke-width=".403" d="M290.8126,-135.094C299.094,-120.951 315.4244,-93.0619 328.0911,-71.4296"/>
<polygon fill="#ff0000" stroke="#ff0000" stroke-width=".403" points="331.2286,-72.998 333.2613,-62.6 325.188,-69.4609 331.2286,-72.998"/>
</g>
<!-- RF_B -->
<g id="node6" class="node">
<title>RF_B</title>
<polygon fill="#d3d3d3" stroke="#000000" points="424.488,-153.1873 386.488,-153.1873 386.488,-135.1873 424.488,-135.1873 424.488,-153.1873"/>
<text text-anchor="middle" x="405.488" y="-141.9873" font-family="Times,serif" font-size="9.00" fill="#000000">RF_B</text>
</g>
<!-- RF_B&#45;&gt;VEL -->
<g id="edge5" class="edge">
<title>RF_B&#45;&gt;VEL</title>
<path fill="none" stroke="#ff0000" stroke-width=".5986" d="M400.1634,-135.094C391.882,-120.951 375.5515,-93.0619 362.8848,-71.4296"/>
<polygon fill="#ff0000" stroke="#ff0000" stroke-width=".5986" points="365.7879,-69.4609 357.7146,-62.6 359.7473,-72.998 365.7879,-69.4609"/>
</g>
<!-- RAD_F -->
<g id="node7" class="node">
<title>RAD_F</title>
<polygon fill="#d3d3d3" stroke="#000000" points="368.488,-153.1873 322.488,-153.1873 322.488,-135.1873 368.488,-135.1873 368.488,-153.1873"/>
<text text-anchor="middle" x="345.488" y="-141.9873" font-family="Times,serif" font-size="9.00" fill="#000000">RAD_F</text>
</g>
<!-- RAD_F&#45;&gt;ANG_VEL -->
<g id="edge1" class="edge">
<title>RAD_F&#45;&gt;ANG_VEL</title>
<path fill="none" stroke="#00ff00" stroke-width=".3273" d="M334.5613,-135.0201C328.5246,-130.1414 320.7887,-124.1865 313.488,-119.4386 282.1129,-99.0343 244.8944,-79.0483 216.1559,-64.4538"/>
<polygon fill="#00ff00" stroke="#00ff00" stroke-width=".3273" points="217.6466,-61.2857 207.1413,-59.911 214.4964,-67.5369 217.6466,-61.2857"/>
</g>
<!-- RAD_F&#45;&gt;VEL -->
<g id="edge9" class="edge">
<title>RAD_F&#45;&gt;VEL</title>
<path fill="none" stroke="#00ff00" stroke-width=".2077" d="M345.488,-135.094C345.488,-121.9371 345.488,-96.8842 345.488,-76.0389"/>
<polygon fill="#00ff00" stroke="#00ff00" stroke-width=".2077" points="348.9881,-75.9115 345.488,-65.9115 341.9881,-75.9116 348.9881,-75.9115"/>
</g>
<!-- RAD_L -->
<g id="node8" class="node">
<title>RAD_L</title>
<polygon fill="#d3d3d3" stroke="#000000" points="192.488,-153.1873 146.488,-153.1873 146.488,-135.1873 192.488,-135.1873 192.488,-153.1873"/>
<text text-anchor="middle" x="169.488" y="-141.9873" font-family="Times,serif" font-size="9.00" fill="#000000">RAD_L</text>
</g>
<!-- RAD_L&#45;&gt;ANG_VEL -->
<g id="edge7" class="edge">
<title>RAD_L&#45;&gt;ANG_VEL</title>
<path fill="none" stroke="#00ff00" stroke-width=".7105" d="M169.488,-135.094C169.488,-125.6118 169.488,-109.9505 169.488,-94.1387"/>
<polygon fill="#00ff00" stroke="#00ff00" stroke-width=".7105" points="172.9881,-93.7897 169.488,-83.7897 165.9881,-93.7897 172.9881,-93.7897"/>
</g>
<!-- RAD_B -->
<g id="node9" class="node">
<title>RAD_B</title>
<polygon fill="#d3d3d3" stroke="#000000" points="131.988,-222.9361 84.988,-222.9361 84.988,-204.9361 131.988,-204.9361 131.988,-222.9361"/>
<text text-anchor="middle" x="108.488" y="-211.7361" font-family="Times,serif" font-size="9.00" fill="#000000">RAD_B</text>
</g>
<!-- RAD_R -->
<g id="node10" class="node">
<title>RAD_R</title>
<polygon fill="#d3d3d3" stroke="#000000" points="196.988,-222.9361 149.988,-222.9361 149.988,-204.9361 196.988,-204.9361 196.988,-222.9361"/>
<text text-anchor="middle" x="173.488" y="-211.7361" font-family="Times,serif" font-size="9.00" fill="#000000">RAD_R</text>
</g>
<!-- 2426&#45;&gt;ANG_VEL -->
<g id="edge13" class="edge">
<title>2426&#45;&gt;ANG_VEL</title>
<path fill="none" stroke="#ff0000" stroke-width=".8705" d="M117.1632,-122.9559C124.0964,-112.1918 132.7868,-98.6996 141.0821,-85.8206"/>
<polygon fill="#ff0000" stroke="#ff0000" stroke-width=".8705" points="144.263,-87.3458 146.7355,-77.0435 138.378,-83.5553 144.263,-87.3458"/>
</g>
</g>
</svg>
