<?xml version="1.0" encoding="UTF-8" standalone="no"?>
<!DOCTYPE svg PUBLIC "-//W3C//DTD SVG 1.1//EN"
 "http://www.w3.org/Graphics/SVG/1.1/DTD/svg11.dtd">
<!-- Generated by graphviz version 2.40.1 (20161225.0304)
 -->
<!-- Title: %3 Pages: 1 -->
<svg width="543pt" height="224pt"
 viewBox="0.00 0.00 543.00 223.87" xmlns="http://www.w3.org/2000/svg" xmlns:xlink="http://www.w3.org/1999/xlink">
<g id="graph0" class="graph" transform="scale(1 1) rotate(0) translate(4 219.865)">
<title>%3</title>
<polygon fill="#ffffff" stroke="transparent" points="-4,4 -4,-219.865 539,-219.865 539,4 -4,4"/>
<!-- RF_R -->
<g id="node1" class="node">
<title>RF_R</title>
<polygon fill="#d3d3d3" stroke="#000000" points="279.5,-215.865 241.5,-215.865 241.5,-197.865 279.5,-197.865 279.5,-215.865"/>
<text text-anchor="middle" x="260.5" y="-204.665" font-family="Times,serif" font-size="9.00" fill="#000000">RF_R</text>
</g>
<!-- ANG_VEL -->
<g id="node11" class="node">
<title>ANG_VEL</title>
<ellipse fill="#add8e6" stroke="#000000" cx="163.5" cy="-41.7193" rx="41.9398" ry="41.9398"/>
<text text-anchor="middle" x="163.5" y="-39.5193" font-family="Times,serif" font-size="9.00" fill="#000000">ANG_VEL</text>
</g>
<!-- RF_R&#45;&gt;ANG_VEL -->
<g id="edge16" class="edge">
<title>RF_R&#45;&gt;ANG_VEL</title>
<path fill="none" stroke="#00ff00" stroke-width=".1676" d="M251.0785,-197.854C242.3861,-189.1975 229.5018,-175.4615 220.5,-161.865 205.7238,-139.5466 192.6405,-112.8014 182.7475,-90.2165"/>
<polygon fill="#00ff00" stroke="#00ff00" stroke-width=".1676" points="185.8718,-88.6221 178.7072,-80.817 179.4407,-91.3864 185.8718,-88.6221"/>
</g>
<!-- VEL -->
<g id="node12" class="node">
<title>VEL</title>
<ellipse fill="#add8e6" stroke="#000000" cx="339.5" cy="-41.7193" rx="24.0833" ry="24.0833"/>
<text text-anchor="middle" x="339.5" y="-39.5193" font-family="Times,serif" font-size="9.00" fill="#000000">VEL</text>
</g>
<!-- RF_R&#45;&gt;VEL -->
<g id="edge13" class="edge">
<title>RF_R&#45;&gt;VEL</title>
<path fill="none" stroke="#ff0000" stroke-width=".5322" d="M276.8413,-197.7924C289.41,-189.9402 306.1583,-177.41 315.5,-161.865 331.1265,-135.8618 336.7905,-101.5405 338.7424,-76.2409"/>
<polygon fill="#ff0000" stroke="#ff0000" stroke-width=".5322" points="342.2516,-76.1964 339.3699,-66.001 335.2647,-75.7682 342.2516,-76.1964"/>
</g>
<!-- 501 -->
<g id="node13" class="node">
<title>501</title>
<ellipse fill="#ffffff" stroke="#000000" cx="114.5" cy="-140.6518" rx="21.4286" ry="21.4286"/>
<text text-anchor="middle" x="114.5" y="-138.4518" font-family="Times,serif" font-size="9.00" fill="#000000">501</text>
</g>
<!-- RF_R&#45;&gt;501 -->
<g id="edge1" class="edge">
<title>RF_R&#45;&gt;501</title>
<path fill="none" stroke="#00ff00" stroke-width=".3091" d="M241.413,-198.2088C216.413,-186.8709 172.3524,-166.8888 143.2896,-153.7083"/>
<polygon fill="#00ff00" stroke="#00ff00" stroke-width=".3091" points="144.6104,-150.4643 134.0576,-149.5215 141.7192,-156.8393 144.6104,-150.4643"/>
</g>
<!-- RF_FR -->
<g id="node2" class="node">
<title>RF_FR</title>
<polygon fill="#d3d3d3" stroke="#000000" points="273.5,-149.6518 229.5,-149.6518 229.5,-131.6518 273.5,-131.6518 273.5,-149.6518"/>
<text text-anchor="middle" x="251.5" y="-138.4518" font-family="Times,serif" font-size="9.00" fill="#000000">RF_FR</text>
</g>
<!-- RF_FR&#45;&gt;ANG_VEL -->
<g id="edge7" class="edge">
<title>RF_FR&#45;&gt;ANG_VEL</title>
<path fill="none" stroke="#00ff00" stroke-width=".1652" d="M243.3789,-131.5218C233.1033,-119.9696 214.7497,-99.3359 198.2247,-80.7579"/>
<polygon fill="#00ff00" stroke="#00ff00" stroke-width=".1652" points="200.5447,-78.0999 191.2833,-72.9542 195.3144,-82.7523 200.5447,-78.0999"/>
</g>
<!-- RF_FR&#45;&gt;VEL -->
<g id="edge9" class="edge">
<title>RF_FR&#45;&gt;VEL</title>
<path fill="none" stroke="#00ff00" stroke-width=".1386" d="M259.6211,-131.5218C272.449,-117.1003 297.8661,-88.5255 316.5987,-67.4657"/>
<polygon fill="#00ff00" stroke="#00ff00" stroke-width=".1386" points="319.3796,-69.6055 323.4106,-59.8075 314.1493,-64.9532 319.3796,-69.6055"/>
</g>
<!-- RF_F -->
<g id="node3" class="node">
<title>RF_F</title>
<polygon fill="#d3d3d3" stroke="#000000" points="223.5,-215.865 185.5,-215.865 185.5,-197.865 223.5,-197.865 223.5,-215.865"/>
<text text-anchor="middle" x="204.5" y="-204.665" font-family="Times,serif" font-size="9.00" fill="#000000">RF_F</text>
</g>
<!-- RF_F&#45;&gt;ANG_VEL -->
<g id="edge14" class="edge">
<title>RF_F&#45;&gt;ANG_VEL</title>
<path fill="none" stroke="#00ff00" stroke-width=".3382" d="M200.5322,-197.7068C196.7596,-188.7178 191.1362,-174.5493 187.5,-161.865 181.0989,-139.5357 175.7916,-114.3937 171.8098,-92.9021"/>
<polygon fill="#00ff00" stroke="#00ff00" stroke-width=".3382" points="175.2414,-92.2096 170.0186,-82.9915 168.353,-93.4546 175.2414,-92.2096"/>
</g>
<!-- RF_F&#45;&gt;VEL -->
<g id="edge15" class="edge">
<title>RF_F&#45;&gt;VEL</title>
<path fill="none" stroke="#ff0000" stroke-width=".1376" d="M223.6695,-199.6946C240.939,-192.4139 266.0668,-179.6737 282.5,-161.865 305.5824,-136.8505 320.9831,-100.8003 329.8944,-74.7215"/>
<polygon fill="#ff0000" stroke="#ff0000" stroke-width=".1376" points="333.3205,-75.505 333.1029,-64.9124 326.6674,-73.3288 333.3205,-75.505"/>
</g>
<!-- RF_F&#45;&gt;501 -->
<g id="edge5" class="edge">
<title>RF_F&#45;&gt;501</title>
<path fill="none" stroke="#ff0000" stroke-width=".1294" d="M191.9859,-197.6583C178.6596,-187.8542 157.1947,-172.0624 140.2324,-159.5832"/>
<polygon fill="#ff0000" stroke="#ff0000" stroke-width=".1294" points="141.9687,-156.5154 131.8396,-153.4086 137.8204,-162.1539 141.9687,-156.5154"/>
</g>
<!-- RF_FL -->
<g id="node4" class="node">
<title>RF_FL</title>
<polygon fill="#d3d3d3" stroke="#000000" points="341,-215.865 298,-215.865 298,-197.865 341,-197.865 341,-215.865"/>
<text text-anchor="middle" x="319.5" y="-204.665" font-family="Times,serif" font-size="9.00" fill="#000000">RF_FL</text>
</g>
<!-- RF_L -->
<g id="node5" class="node">
<title>RF_L</title>
<polygon fill="#d3d3d3" stroke="#000000" points="405.5,-149.6518 367.5,-149.6518 367.5,-131.6518 405.5,-131.6518 405.5,-149.6518"/>
<text text-anchor="middle" x="386.5" y="-138.4518" font-family="Times,serif" font-size="9.00" fill="#000000">RF_L</text>
</g>
<!-- RF_L&#45;&gt;VEL -->
<g id="edge8" class="edge">
<title>RF_L&#45;&gt;VEL</title>
<path fill="none" stroke="#ff0000" stroke-width=".3711" d="M382.1626,-131.5218C375.8848,-118.3073 363.9616,-93.2098 354.3126,-72.8991"/>
<polygon fill="#ff0000" stroke="#ff0000" stroke-width=".3711" points="357.3834,-71.2063 349.9308,-63.6756 351.0606,-74.2101 357.3834,-71.2063"/>
</g>
<!-- RF_B -->
<g id="node6" class="node">
<title>RF_B</title>
<polygon fill="#d3d3d3" stroke="#000000" points="103.5,-215.865 65.5,-215.865 65.5,-197.865 103.5,-197.865 103.5,-215.865"/>
<text text-anchor="middle" x="84.5" y="-204.665" font-family="Times,serif" font-size="9.00" fill="#000000">RF_B</text>
</g>
<!-- RF_B&#45;&gt;501 -->
<g id="edge4" class="edge">
<title>RF_B&#45;&gt;501</title>
<path fill="none" stroke="#ff0000" stroke-width=".1429" d="M88.6714,-197.6583C91.99,-190.3338 96.8227,-179.6674 101.4126,-169.537"/>
<polygon fill="#ff0000" stroke="#ff0000" stroke-width=".1429" points="104.7425,-170.6683 105.6815,-160.1152 98.3664,-167.7794 104.7425,-170.6683"/>
</g>
<!-- RAD_F -->
<g id="node7" class="node">
<title>RAD_F</title>
<polygon fill="#d3d3d3" stroke="#000000" points="469.5,-149.6518 423.5,-149.6518 423.5,-131.6518 469.5,-131.6518 469.5,-149.6518"/>
<text text-anchor="middle" x="446.5" y="-138.4518" font-family="Times,serif" font-size="9.00" fill="#000000">RAD_F</text>
</g>
<!-- RAD_F&#45;&gt;VEL -->
<g id="edge6" class="edge">
<title>RAD_F&#45;&gt;VEL</title>
<path fill="none" stroke="#ff0000" stroke-width=".2247" d="M436.6255,-131.5218C420.4499,-116.5658 387.8116,-86.3883 364.8485,-65.1566"/>
<polygon fill="#ff0000" stroke="#ff0000" stroke-width=".2247" points="367.1883,-62.5532 357.4697,-58.3341 362.4361,-67.6929 367.1883,-62.5532"/>
</g>
<!-- RAD_L -->
<g id="node8" class="node">
<title>RAD_L</title>
<polygon fill="#d3d3d3" stroke="#000000" points="167.5,-215.865 121.5,-215.865 121.5,-197.865 167.5,-197.865 167.5,-215.865"/>
<text text-anchor="middle" x="144.5" y="-204.665" font-family="Times,serif" font-size="9.00" fill="#000000">RAD_L</text>
</g>
<!-- RAD_L&#45;&gt;501 -->
<g id="edge11" class="edge">
<title>RAD_L&#45;&gt;501</title>
<path fill="none" stroke="#ff0000" stroke-width=".1608" d="M140.3286,-197.6583C137.01,-190.3338 132.1773,-179.6674 127.5874,-169.537"/>
<polygon fill="#ff0000" stroke="#ff0000" stroke-width=".1608" points="130.6336,-167.7794 123.3185,-160.1152 124.2575,-170.6683 130.6336,-167.7794"/>
</g>
<!-- RAD_B -->
<g id="node9" class="node">
<title>RAD_B</title>
<polygon fill="#d3d3d3" stroke="#000000" points="535,-149.6518 488,-149.6518 488,-131.6518 535,-131.6518 535,-149.6518"/>
<text text-anchor="middle" x="511.5" y="-138.4518" font-family="Times,serif" font-size="9.00" fill="#000000">RAD_B</text>
</g>
<!-- RAD_B&#45;&gt;VEL -->
<g id="edge2" class="edge">
<title>RAD_B&#45;&gt;VEL</title>
<path fill="none" stroke="#ff0000" stroke-width=".1232" d="M497.8105,-131.5847C491.9198,-127.7529 484.9236,-123.2941 478.5,-119.4386 441.6542,-97.3235 398.3108,-73.4132 369.9422,-58.0398"/>
<polygon fill="#ff0000" stroke="#ff0000" stroke-width=".1232" points="371.3883,-54.8429 360.9266,-53.1684 368.0606,-61.0014 371.3883,-54.8429"/>
</g>
<!-- RAD_R -->
<g id="node10" class="node">
<title>RAD_R</title>
<polygon fill="#d3d3d3" stroke="#000000" points="47,-215.865 0,-215.865 0,-197.865 47,-197.865 47,-215.865"/>
<text text-anchor="middle" x="23.5" y="-204.665" font-family="Times,serif" font-size="9.00" fill="#000000">RAD_R</text>
</g>
<!-- RAD_R&#45;&gt;ANG_VEL -->
<g id="edge3" class="edge">
<title>RAD_R&#45;&gt;ANG_VEL</title>
<path fill="none" stroke="#ff0000" stroke-width=".4529" d="M29.0483,-197.785C39.1987,-181.4484 61.8092,-146.3025 84.5,-119.4386 96.8606,-104.8047 111.556,-89.798 124.9004,-76.922"/>
<polygon fill="#ff0000" stroke="#ff0000" stroke-width=".4529" points="127.3324,-79.4392 132.1516,-70.0038 122.5003,-74.3745 127.3324,-79.4392"/>
</g>
<!-- RAD_R&#45;&gt;501 -->
<g id="edge17" class="edge">
<title>RAD_R&#45;&gt;501</title>
<path fill="none" stroke="#00ff00" stroke-width=".1581" d="M36.1532,-197.6583C49.7106,-187.7937 71.5992,-171.8672 88.7988,-159.3525"/>
<polygon fill="#00ff00" stroke="#00ff00" stroke-width=".1581" points="91.2699,-161.8829 97.2967,-153.1692 87.1514,-156.2227 91.2699,-161.8829"/>
</g>
<!-- VEL&#45;&gt;VEL -->
<g id="edge18" class="edge">
<title>VEL&#45;&gt;VEL</title>
<path fill="none" stroke="#ff0000" stroke-width=".4043" d="M357.2119,-58.2999C369.4711,-63.3243 381.5416,-57.7974 381.5416,-41.7193 381.5416,-30.1631 375.306,-24.0578 367.2465,-23.4033"/>
<polygon fill="#ff0000" stroke="#ff0000" stroke-width=".4043" points="366.4692,-19.9856 357.2119,-25.1387 367.6622,-26.8832 366.4692,-19.9856"/>
</g>
<!-- 501&#45;&gt;ANG_VEL -->
<g id="edge12" class="edge">
<title>501&#45;&gt;ANG_VEL</title>
<path fill="none" stroke="#ff0000" stroke-width=".163" d="M123.9477,-121.5766C128.6437,-112.0952 134.5443,-100.1817 140.3442,-88.4716"/>
<polygon fill="#ff0000" stroke="#ff0000" stroke-width=".163" points="143.647,-89.6889 144.949,-79.1743 137.3742,-86.582 143.647,-89.6889"/>
</g>
<!-- 501&#45;&gt;VEL -->
<g id="edge10" class="edge">
<title>501&#45;&gt;VEL</title>
<path fill="none" stroke="#ff0000" stroke-width=".2676" d="M134.0737,-132.0453C173.002,-114.9285 260.4507,-76.4773 307.724,-55.6912"/>
<polygon fill="#ff0000" stroke="#ff0000" stroke-width=".2676" points="309.4245,-58.767 317.1699,-51.5379 306.6069,-52.359 309.4245,-58.767"/>
</g>
</g>
</svg>
