<?xml version="1.0" encoding="UTF-8" standalone="no"?>
<!DOCTYPE svg PUBLIC "-//W3C//DTD SVG 1.1//EN"
 "http://www.w3.org/Graphics/SVG/1.1/DTD/svg11.dtd">
<!-- Generated by graphviz version 2.40.1 (20161225.0304)
 -->
<!-- Title: %3 Pages: 1 -->
<svg width="597pt" height="145pt"
 viewBox="0.00 0.00 596.50 145.44" xmlns="http://www.w3.org/2000/svg" xmlns:xlink="http://www.w3.org/1999/xlink">
<g id="graph0" class="graph" transform="scale(1 1) rotate(0) translate(4 141.4386)">
<title>%3</title>
<polygon fill="#ffffff" stroke="transparent" points="-4,4 -4,-141.4386 592.5,-141.4386 592.5,4 -4,4"/>
<!-- RF_R -->
<g id="node1" class="node">
<title>RF_R</title>
<polygon fill="#d3d3d3" stroke="#000000" points="38,-137.4386 0,-137.4386 0,-119.4386 38,-119.4386 38,-137.4386"/>
<text text-anchor="middle" x="19" y="-126.2386" font-family="Times,serif" font-size="9.00" fill="#000000">RF_R</text>
</g>
<!-- ANG_VEL -->
<g id="node11" class="node">
<title>ANG_VEL</title>
<ellipse fill="#add8e6" stroke="#000000" cx="203" cy="-41.7193" rx="41.9398" ry="41.9398"/>
<text text-anchor="middle" x="203" y="-39.5193" font-family="Times,serif" font-size="9.00" fill="#000000">ANG_VEL</text>
</g>
<!-- RF_R&#45;&gt;ANG_VEL -->
<g id="edge11" class="edge">
<title>RF_R&#45;&gt;ANG_VEL</title>
<path fill="none" stroke="#ff0000" stroke-width=".1144" d="M38.3435,-119.322C65.9879,-106.2932 117.6619,-81.9392 155.7762,-63.9759"/>
<polygon fill="#ff0000" stroke="#ff0000" stroke-width=".1144" points="157.5977,-66.9867 165.1513,-59.5574 154.6134,-60.6547 157.5977,-66.9867"/>
</g>
<!-- RF_FR -->
<g id="node2" class="node">
<title>RF_FR</title>
<polygon fill="#d3d3d3" stroke="#000000" points="100,-137.4386 56,-137.4386 56,-119.4386 100,-119.4386 100,-137.4386"/>
<text text-anchor="middle" x="78" y="-126.2386" font-family="Times,serif" font-size="9.00" fill="#000000">RF_FR</text>
</g>
<!-- RF_FR&#45;&gt;ANG_VEL -->
<g id="edge4" class="edge">
<title>RF_FR&#45;&gt;ANG_VEL</title>
<path fill="none" stroke="#00ff00" stroke-width=".1839" d="M91.3772,-119.1581C107.7155,-107.8233 136.1526,-88.095 160.2341,-71.3883"/>
<polygon fill="#00ff00" stroke="#00ff00" stroke-width=".1839" points="162.3221,-74.1996 168.5434,-65.6237 158.3319,-68.4482 162.3221,-74.1996"/>
</g>
<!-- RF_F -->
<g id="node3" class="node">
<title>RF_F</title>
<polygon fill="#d3d3d3" stroke="#000000" points="222,-137.4386 184,-137.4386 184,-119.4386 222,-119.4386 222,-137.4386"/>
<text text-anchor="middle" x="203" y="-126.2386" font-family="Times,serif" font-size="9.00" fill="#000000">RF_F</text>
</g>
<!-- RF_F&#45;&gt;ANG_VEL -->
<g id="edge14" class="edge">
<title>RF_F&#45;&gt;ANG_VEL</title>
<path fill="none" stroke="#ff0000" stroke-width=".3279" d="M203,-119.1581C203,-112.7372 203,-103.6227 203,-93.8899"/>
<polygon fill="#ff0000" stroke="#ff0000" stroke-width=".3279" points="206.5001,-93.6104 203,-83.6104 199.5001,-93.6104 206.5001,-93.6104"/>
</g>
<!-- 496 -->
<g id="node13" class="node">
<title>496</title>
<ellipse fill="#ffffff" stroke="#000000" cx="375" cy="-41.7193" rx="21.4286" ry="21.4286"/>
<text text-anchor="middle" x="375" y="-39.5193" font-family="Times,serif" font-size="9.00" fill="#000000">496</text>
</g>
<!-- RF_F&#45;&gt;496 -->
<g id="edge15" class="edge">
<title>RF_F&#45;&gt;496</title>
<path fill="none" stroke="#ff0000" stroke-width=".4321" d="M221.0819,-119.322C250.9617,-104.2572 310.873,-74.051 346.4965,-56.0903"/>
<polygon fill="#ff0000" stroke="#ff0000" stroke-width=".4321" points="348.5014,-58.9992 355.855,-51.3719 345.3499,-52.7487 348.5014,-58.9992"/>
</g>
<!-- RF_FL -->
<g id="node4" class="node">
<title>RF_FL</title>
<polygon fill="#d3d3d3" stroke="#000000" points="588.5,-137.4386 545.5,-137.4386 545.5,-119.4386 588.5,-119.4386 588.5,-137.4386"/>
<text text-anchor="middle" x="567" y="-126.2386" font-family="Times,serif" font-size="9.00" fill="#000000">RF_FL</text>
</g>
<!-- VEL -->
<g id="node12" class="node">
<title>VEL</title>
<ellipse fill="#add8e6" stroke="#000000" cx="480" cy="-41.7193" rx="24.0833" ry="24.0833"/>
<text text-anchor="middle" x="480" y="-39.5193" font-family="Times,serif" font-size="9.00" fill="#000000">VEL</text>
</g>
<!-- RF_FL&#45;&gt;VEL -->
<g id="edge12" class="edge">
<title>RF_FL&#45;&gt;VEL</title>
<path fill="none" stroke="#00ff00" stroke-width=".2278" d="M557.6895,-119.1581C545.1088,-106.618 522.2212,-83.8043 504.5347,-66.1749"/>
<polygon fill="#00ff00" stroke="#00ff00" stroke-width=".2278" points="506.8719,-63.5627 497.3185,-58.9819 501.9301,-68.5204 506.8719,-63.5627"/>
</g>
<!-- RF_L -->
<g id="node5" class="node">
<title>RF_L</title>
<polygon fill="#d3d3d3" stroke="#000000" points="278,-137.4386 240,-137.4386 240,-119.4386 278,-119.4386 278,-137.4386"/>
<text text-anchor="middle" x="259" y="-126.2386" font-family="Times,serif" font-size="9.00" fill="#000000">RF_L</text>
</g>
<!-- RF_L&#45;&gt;ANG_VEL -->
<g id="edge17" class="edge">
<title>RF_L&#45;&gt;ANG_VEL</title>
<path fill="none" stroke="#00ff00" stroke-width=".1486" d="M253.007,-119.1581C247.6883,-110.9218 239.5078,-98.2537 231.2935,-85.5335"/>
<polygon fill="#00ff00" stroke="#00ff00" stroke-width=".1486" points="234.0012,-83.2746 225.6361,-76.7726 228.1207,-87.072 234.0012,-83.2746"/>
</g>
<!-- RF_L&#45;&gt;496 -->
<g id="edge2" class="edge">
<title>RF_L&#45;&gt;496</title>
<path fill="none" stroke="#ff0000" stroke-width=".3402" d="M271.414,-119.1581C290.0266,-105.2437 325.559,-78.6804 349.7632,-60.5858"/>
<polygon fill="#ff0000" stroke="#ff0000" stroke-width=".3402" points="351.8921,-63.3643 357.8058,-54.5734 347.7008,-57.7577 351.8921,-63.3643"/>
</g>
<!-- RF_B -->
<g id="node6" class="node">
<title>RF_B</title>
<polygon fill="#d3d3d3" stroke="#000000" points="334,-137.4386 296,-137.4386 296,-119.4386 334,-119.4386 334,-137.4386"/>
<text text-anchor="middle" x="315" y="-126.2386" font-family="Times,serif" font-size="9.00" fill="#000000">RF_B</text>
</g>
<!-- RF_B&#45;&gt;ANG_VEL -->
<g id="edge1" class="edge">
<title>RF_B&#45;&gt;ANG_VEL</title>
<path fill="none" stroke="#ff0000" stroke-width=".1322" d="M303.014,-119.1581C289.0649,-108.3576 265.273,-89.936 244.3936,-73.7695"/>
<polygon fill="#ff0000" stroke="#ff0000" stroke-width=".1322" points="246.3123,-70.8286 236.2626,-67.4738 242.0268,-76.3635 246.3123,-70.8286"/>
</g>
<!-- RF_B&#45;&gt;VEL -->
<g id="edge16" class="edge">
<title>RF_B&#45;&gt;VEL</title>
<path fill="none" stroke="#ff0000" stroke-width=".4838" d="M334.3693,-121.9436C356.4937,-114.1708 393.4498,-100.0964 423,-83.4386 433.3056,-77.6292 443.9383,-70.2739 453.1883,-63.3628"/>
<polygon fill="#ff0000" stroke="#ff0000" stroke-width=".4838" points="455.4304,-66.0543 461.2453,-57.1978 451.1766,-60.495 455.4304,-66.0543"/>
</g>
<!-- RAD_F -->
<g id="node7" class="node">
<title>RAD_F</title>
<polygon fill="#d3d3d3" stroke="#000000" points="398,-137.4386 352,-137.4386 352,-119.4386 398,-119.4386 398,-137.4386"/>
<text text-anchor="middle" x="375" y="-126.2386" font-family="Times,serif" font-size="9.00" fill="#000000">RAD_F</text>
</g>
<!-- RAD_F&#45;&gt;ANG_VEL -->
<g id="edge6" class="edge">
<title>RAD_F&#45;&gt;ANG_VEL</title>
<path fill="none" stroke="#ff0000" stroke-width=".2237" d="M356.9181,-119.322C331.6611,-106.5879 284.9464,-83.0352 249.5808,-65.2045"/>
<polygon fill="#ff0000" stroke="#ff0000" stroke-width=".2237" points="250.9002,-61.95 240.3951,-60.5733 247.7487,-68.2006 250.9002,-61.95"/>
</g>
<!-- RAD_F&#45;&gt;VEL -->
<g id="edge9" class="edge">
<title>RAD_F&#45;&gt;VEL</title>
<path fill="none" stroke="#ff0000" stroke-width=".4052" d="M386.2368,-119.1581C402.1867,-105.9851 431.8632,-81.4754 453.5706,-63.5473"/>
<polygon fill="#ff0000" stroke="#ff0000" stroke-width=".4052" points="455.9732,-66.1024 461.4547,-57.0358 451.5156,-60.7052 455.9732,-66.1024"/>
</g>
<!-- RAD_F&#45;&gt;496 -->
<g id="edge5" class="edge">
<title>RAD_F&#45;&gt;496</title>
<path fill="none" stroke="#ff0000" stroke-width=".2937" d="M375,-119.1581C375,-108.262 375,-89.6093 375,-73.3409"/>
<polygon fill="#ff0000" stroke="#ff0000" stroke-width=".2937" points="378.5001,-73.0999 375,-63.0999 371.5001,-73.0999 378.5001,-73.0999"/>
</g>
<!-- RAD_L -->
<g id="node8" class="node">
<title>RAD_L</title>
<polygon fill="#d3d3d3" stroke="#000000" points="462,-137.4386 416,-137.4386 416,-119.4386 462,-119.4386 462,-137.4386"/>
<text text-anchor="middle" x="439" y="-126.2386" font-family="Times,serif" font-size="9.00" fill="#000000">RAD_L</text>
</g>
<!-- RAD_L&#45;&gt;496 -->
<g id="edge8" class="edge">
<title>RAD_L&#45;&gt;496</title>
<path fill="none" stroke="#00ff00" stroke-width=".3792" d="M432.1509,-119.1581C423.0614,-106.8419 406.6582,-84.6158 393.7491,-67.1242"/>
<polygon fill="#00ff00" stroke="#00ff00" stroke-width=".3792" points="396.4943,-64.9496 387.74,-58.9819 390.862,-69.1063 396.4943,-64.9496"/>
</g>
<!-- RAD_B -->
<g id="node9" class="node">
<title>RAD_B</title>
<polygon fill="#d3d3d3" stroke="#000000" points="165.5,-137.4386 118.5,-137.4386 118.5,-119.4386 165.5,-119.4386 165.5,-137.4386"/>
<text text-anchor="middle" x="142" y="-126.2386" font-family="Times,serif" font-size="9.00" fill="#000000">RAD_B</text>
</g>
<!-- RAD_B&#45;&gt;ANG_VEL -->
<g id="edge3" class="edge">
<title>RAD_B&#45;&gt;ANG_VEL</title>
<path fill="none" stroke="#00ff00" stroke-width=".1438" d="M148.5281,-119.1581C154.4782,-110.6993 163.7165,-97.5659 172.9057,-84.5022"/>
<polygon fill="#00ff00" stroke="#00ff00" stroke-width=".1438" points="176.0114,-86.1704 178.9021,-75.9775 170.286,-82.143 176.0114,-86.1704"/>
</g>
<!-- RAD_R -->
<g id="node10" class="node">
<title>RAD_R</title>
<polygon fill="#d3d3d3" stroke="#000000" points="527.5,-137.4386 480.5,-137.4386 480.5,-119.4386 527.5,-119.4386 527.5,-137.4386"/>
<text text-anchor="middle" x="504" y="-126.2386" font-family="Times,serif" font-size="9.00" fill="#000000">RAD_R</text>
</g>
<!-- RAD_R&#45;&gt;VEL -->
<g id="edge13" class="edge">
<title>RAD_R&#45;&gt;VEL</title>
<path fill="none" stroke="#00ff00" stroke-width=".2457" d="M501.4316,-119.1581C498.5152,-108.6204 493.5911,-90.8281 489.1978,-74.9537"/>
<polygon fill="#00ff00" stroke="#00ff00" stroke-width=".2457" points="492.4544,-73.5985 486.4138,-64.8944 485.708,-75.4657 492.4544,-73.5985"/>
</g>
<!-- RAD_R&#45;&gt;496 -->
<g id="edge7" class="edge">
<title>RAD_R&#45;&gt;496</title>
<path fill="none" stroke="#00ff00" stroke-width=".5383" d="M490.1947,-119.1581C469.0555,-104.9474 428.2904,-77.5434 401.363,-59.4416"/>
<polygon fill="#00ff00" stroke="#00ff00" stroke-width=".5383" points="403.0617,-56.3662 392.8099,-53.6919 399.1563,-62.1756 403.0617,-56.3662"/>
</g>
<!-- ANG_VEL&#45;&gt;ANG_VEL -->
<g id="edge10" class="edge">
<title>ANG_VEL&#45;&gt;ANG_VEL</title>
<path fill="none" stroke="#ff0000" stroke-width=".2728" d="M241.7707,-57.8197C253.5285,-57.4162 262.7193,-52.0494 262.7193,-41.7193 262.7193,-34.6174 258.3752,-29.8614 251.8394,-27.4513"/>
<polygon fill="#ff0000" stroke="#ff0000" stroke-width=".2728" points="252.2358,-23.966 241.7707,-25.6189 250.9824,-30.8529 252.2358,-23.966"/>
</g>
<!-- 496&#45;&gt;496 -->
<g id="edge18" class="edge">
<title>496&#45;&gt;496</title>
<path fill="none" stroke="#ff0000" stroke-width=".3085" d="M391.1119,-56.1082C402.6851,-60.7929 414.2132,-55.9966 414.2132,-41.7193 414.2132,-31.6805 408.5139,-26.3291 401.1069,-25.6649"/>
<polygon fill="#ff0000" stroke="#ff0000" stroke-width=".3085" points="400.4006,-22.2342 391.1119,-27.3304 401.5512,-29.139 400.4006,-22.2342"/>
</g>
</g>
</svg>
