<?xml version="1.0" encoding="UTF-8" standalone="no"?>
<!DOCTYPE svg PUBLIC "-//W3C//DTD SVG 1.1//EN"
 "http://www.w3.org/Graphics/SVG/1.1/DTD/svg11.dtd">
<!-- Generated by graphviz version 2.40.1 (20161225.0304)
 -->
<!-- Title: %3 Pages: 1 -->
<svg width="597pt" height="145pt"
 viewBox="0.00 0.00 597.00 145.44" xmlns="http://www.w3.org/2000/svg" xmlns:xlink="http://www.w3.org/1999/xlink">
<g id="graph0" class="graph" transform="scale(1 1) rotate(0) translate(4 141.4386)">
<title>%3</title>
<polygon fill="#ffffff" stroke="transparent" points="-4,4 -4,-141.4386 593,-141.4386 593,4 -4,4"/>
<!-- RF_R -->
<g id="node1" class="node">
<title>RF_R</title>
<polygon fill="#d3d3d3" stroke="#000000" points="161.5,-137.4386 123.5,-137.4386 123.5,-119.4386 161.5,-119.4386 161.5,-137.4386"/>
<text text-anchor="middle" x="142.5" y="-126.2386" font-family="Times,serif" font-size="9.00" fill="#000000">RF_R</text>
</g>
<!-- ANG_VEL -->
<g id="node11" class="node">
<title>ANG_VEL</title>
<ellipse fill="#add8e6" stroke="#000000" cx="142.5" cy="-41.7193" rx="41.9398" ry="41.9398"/>
<text text-anchor="middle" x="142.5" y="-39.5193" font-family="Times,serif" font-size="9.00" fill="#000000">ANG_VEL</text>
</g>
<!-- RF_R&#45;&gt;ANG_VEL -->
<g id="edge18" class="edge">
<title>RF_R&#45;&gt;ANG_VEL</title>
<path fill="none" stroke="#ff0000" stroke-width=".3492" d="M142.5,-119.1581C142.5,-112.7372 142.5,-103.6227 142.5,-93.8899"/>
<polygon fill="#ff0000" stroke="#ff0000" stroke-width=".3492" points="146.0001,-93.6104 142.5,-83.6104 139.0001,-93.6104 146.0001,-93.6104"/>
</g>
<!-- VEL -->
<g id="node12" class="node">
<title>VEL</title>
<ellipse fill="#add8e6" stroke="#000000" cx="316.5" cy="-41.7193" rx="24.0833" ry="24.0833"/>
<text text-anchor="middle" x="316.5" y="-39.5193" font-family="Times,serif" font-size="9.00" fill="#000000">VEL</text>
</g>
<!-- RF_R&#45;&gt;VEL -->
<g id="edge4" class="edge">
<title>RF_R&#45;&gt;VEL</title>
<path fill="none" stroke="#00ff00" stroke-width=".112" d="M161.6925,-122.176C198.3576,-110.1937 274.9722,-85.0603 277.5,-83.4386 283.811,-79.3898 289.7967,-74.0924 295.0987,-68.6374"/>
<polygon fill="#00ff00" stroke="#00ff00" stroke-width=".112" points="297.7238,-70.953 301.871,-61.2035 292.5492,-66.2388 297.7238,-70.953"/>
</g>
<!-- 26 -->
<g id="node13" class="node">
<title>26</title>
<ellipse fill="#ffffff" stroke="#000000" cx="232.5" cy="-41.7193" rx="18.2703" ry="18.2703"/>
<text text-anchor="middle" x="232.5" y="-39.5193" font-family="Times,serif" font-size="9.00" fill="#000000">26</text>
</g>
<!-- RF_R&#45;&gt;26 -->
<g id="edge15" class="edge">
<title>RF_R&#45;&gt;26</title>
<path fill="none" stroke="#ff0000" stroke-width=".4435" d="M153.3167,-119.4198C163.8285,-110.5342 180.1194,-96.44 193.5,-83.4386 200.1442,-76.9826 207.1338,-69.6817 213.3315,-63.0125"/>
<polygon fill="#ff0000" stroke="#ff0000" stroke-width=".4435" points="215.9878,-65.2946 220.1751,-55.5623 210.8326,-60.5591 215.9878,-65.2946"/>
</g>
<!-- RF_FR -->
<g id="node2" class="node">
<title>RF_FR</title>
<polygon fill="#d3d3d3" stroke="#000000" points="105.5,-137.4386 61.5,-137.4386 61.5,-119.4386 105.5,-119.4386 105.5,-137.4386"/>
<text text-anchor="middle" x="83.5" y="-126.2386" font-family="Times,serif" font-size="9.00" fill="#000000">RF_FR</text>
</g>
<!-- RF_FR&#45;&gt;ANG_VEL -->
<g id="edge11" class="edge">
<title>RF_FR&#45;&gt;ANG_VEL</title>
<path fill="none" stroke="#ff0000" stroke-width=".5562" d="M89.814,-119.1581C95.5203,-110.771 104.3532,-97.7881 113.1664,-84.8344"/>
<polygon fill="#ff0000" stroke="#ff0000" stroke-width=".5562" points="116.1906,-86.6114 118.922,-76.3747 110.403,-82.6738 116.1906,-86.6114"/>
</g>
<!-- RF_FR&#45;&gt;26 -->
<g id="edge6" class="edge">
<title>RF_FR&#45;&gt;26</title>
<path fill="none" stroke="#00ff00" stroke-width=".1231" d="M105.5792,-120.682C133.2155,-110.7559 178.7219,-93.6292 193.5,-83.4386 201.1267,-78.1794 208.3815,-71.2016 214.52,-64.4603"/>
<polygon fill="#00ff00" stroke="#00ff00" stroke-width=".1231" points="217.2746,-66.6257 221.1685,-56.7724 211.9799,-62.0468 217.2746,-66.6257"/>
</g>
<!-- RF_F -->
<g id="node3" class="node">
<title>RF_F</title>
<polygon fill="#d3d3d3" stroke="#000000" points="281.5,-137.4386 243.5,-137.4386 243.5,-119.4386 281.5,-119.4386 281.5,-137.4386"/>
<text text-anchor="middle" x="262.5" y="-126.2386" font-family="Times,serif" font-size="9.00" fill="#000000">RF_F</text>
</g>
<!-- RF_F&#45;&gt;ANG_VEL -->
<g id="edge10" class="edge">
<title>RF_F&#45;&gt;ANG_VEL</title>
<path fill="none" stroke="#00ff00" stroke-width=".2668" d="M249.6579,-119.1581C234.2032,-107.9896 207.4718,-88.6719 184.5751,-72.1253"/>
<polygon fill="#00ff00" stroke="#00ff00" stroke-width=".2668" points="186.4962,-69.1954 176.341,-66.1749 182.3961,-74.8689 186.4962,-69.1954"/>
</g>
<!-- RF_F&#45;&gt;VEL -->
<g id="edge8" class="edge">
<title>RF_F&#45;&gt;VEL</title>
<path fill="none" stroke="#00ff00" stroke-width=".1436" d="M268.2789,-119.1581C275.3496,-107.8032 287.6656,-88.0248 298.0806,-71.2993"/>
<polygon fill="#00ff00" stroke="#00ff00" stroke-width=".1436" points="301.3108,-72.7332 303.6257,-62.3943 295.3686,-69.033 301.3108,-72.7332"/>
</g>
<!-- RF_FL -->
<g id="node4" class="node">
<title>RF_FL</title>
<polygon fill="#d3d3d3" stroke="#000000" points="43,-137.4386 0,-137.4386 0,-119.4386 43,-119.4386 43,-137.4386"/>
<text text-anchor="middle" x="21.5" y="-126.2386" font-family="Times,serif" font-size="9.00" fill="#000000">RF_FL</text>
</g>
<!-- RF_FL&#45;&gt;ANG_VEL -->
<g id="edge9" class="edge">
<title>RF_FL&#45;&gt;ANG_VEL</title>
<path fill="none" stroke="#ff0000" stroke-width=".1344" d="M34.4491,-119.1581C50.0327,-107.9896 76.9868,-88.6719 100.0743,-72.1253"/>
<polygon fill="#ff0000" stroke="#ff0000" stroke-width=".1344" points="102.2878,-74.845 108.377,-66.1749 98.21,-69.1554 102.2878,-74.845"/>
</g>
<!-- RF_L -->
<g id="node5" class="node">
<title>RF_L</title>
<polygon fill="#d3d3d3" stroke="#000000" points="403.5,-137.4386 365.5,-137.4386 365.5,-119.4386 403.5,-119.4386 403.5,-137.4386"/>
<text text-anchor="middle" x="384.5" y="-126.2386" font-family="Times,serif" font-size="9.00" fill="#000000">RF_L</text>
</g>
<!-- RF_L&#45;&gt;VEL -->
<g id="edge17" class="edge">
<title>RF_L&#45;&gt;VEL</title>
<path fill="none" stroke="#00ff00" stroke-width=".3316" d="M377.2228,-119.1581C367.8596,-107.2174 351.1923,-85.9618 337.6855,-68.7368"/>
<polygon fill="#00ff00" stroke="#00ff00" stroke-width=".3316" points="340.2794,-66.3727 331.3546,-60.6631 334.771,-70.6921 340.2794,-66.3727"/>
</g>
<!-- RF_L&#45;&gt;26 -->
<g id="edge5" class="edge">
<title>RF_L&#45;&gt;26</title>
<path fill="none" stroke="#ff0000" stroke-width=".2227" d="M365.1266,-121.581C344.2128,-113.7799 310.2999,-99.958 283.5,-83.4386 273.0622,-77.0047 262.4241,-68.6448 253.5835,-61.0995"/>
<polygon fill="#ff0000" stroke="#ff0000" stroke-width=".2227" points="255.8547,-58.4362 246.027,-54.4779 251.2413,-63.7009 255.8547,-58.4362"/>
</g>
<!-- RF_B -->
<g id="node6" class="node">
<title>RF_B</title>
<polygon fill="#d3d3d3" stroke="#000000" points="523.5,-137.4386 485.5,-137.4386 485.5,-119.4386 523.5,-119.4386 523.5,-137.4386"/>
<text text-anchor="middle" x="504.5" y="-126.2386" font-family="Times,serif" font-size="9.00" fill="#000000">RF_B</text>
</g>
<!-- RAD_F -->
<g id="node7" class="node">
<title>RAD_F</title>
<polygon fill="#d3d3d3" stroke="#000000" points="225.5,-137.4386 179.5,-137.4386 179.5,-119.4386 225.5,-119.4386 225.5,-137.4386"/>
<text text-anchor="middle" x="202.5" y="-126.2386" font-family="Times,serif" font-size="9.00" fill="#000000">RAD_F</text>
</g>
<!-- RAD_F&#45;&gt;ANG_VEL -->
<g id="edge7" class="edge">
<title>RAD_F&#45;&gt;ANG_VEL</title>
<path fill="none" stroke="#ff0000" stroke-width=".104" d="M196.0789,-119.1581C190.276,-110.771 181.2933,-97.7881 172.3308,-84.8344"/>
<polygon fill="#ff0000" stroke="#ff0000" stroke-width=".104" points="175.0457,-82.6068 166.4777,-76.3747 169.2892,-86.5897 175.0457,-82.6068"/>
</g>
<!-- RAD_F&#45;&gt;VEL -->
<g id="edge13" class="edge">
<title>RAD_F&#45;&gt;VEL</title>
<path fill="none" stroke="#ff0000" stroke-width=".1695" d="M220.689,-119.376C236.4746,-111.091 259.5493,-97.9471 277.5,-83.4386 283.3315,-78.7253 289.1211,-73.156 294.3846,-67.6478"/>
<polygon fill="#ff0000" stroke="#ff0000" stroke-width=".1695" points="296.9888,-69.9866 301.1905,-60.2605 291.8406,-65.2435 296.9888,-69.9866"/>
</g>
<!-- RAD_F&#45;&gt;26 -->
<g id="edge16" class="edge">
<title>RAD_F&#45;&gt;26</title>
<path fill="none" stroke="#ff0000" stroke-width=".1561" d="M205.7105,-119.1581C209.8298,-107.2509 217.1534,-86.0808 223.1034,-68.8817"/>
<polygon fill="#ff0000" stroke="#ff0000" stroke-width=".1561" points="226.4515,-69.9087 226.4132,-59.3139 219.8362,-67.6201 226.4515,-69.9087"/>
</g>
<!-- RAD_L -->
<g id="node8" class="node">
<title>RAD_L</title>
<polygon fill="#d3d3d3" stroke="#000000" points="467.5,-137.4386 421.5,-137.4386 421.5,-119.4386 467.5,-119.4386 467.5,-137.4386"/>
<text text-anchor="middle" x="444.5" y="-126.2386" font-family="Times,serif" font-size="9.00" fill="#000000">RAD_L</text>
</g>
<!-- RAD_L&#45;&gt;VEL -->
<g id="edge14" class="edge">
<title>RAD_L&#45;&gt;VEL</title>
<path fill="none" stroke="#00ff00" stroke-width=".136" d="M430.8018,-119.1581C410.5217,-105.4185 372.0376,-79.3457 345.3598,-61.2717"/>
<polygon fill="#00ff00" stroke="#00ff00" stroke-width=".136" points="347.0505,-58.1895 336.8085,-55.4782 343.1243,-63.9848 347.0505,-58.1895"/>
</g>
<!-- RAD_L&#45;&gt;26 -->
<g id="edge12" class="edge">
<title>RAD_L&#45;&gt;26</title>
<path fill="none" stroke="#00ff00" stroke-width=".1672" d="M421.4295,-121.944C418.4258,-121.1002 415.3897,-120.2482 412.5,-119.4386 355.1829,-103.3807 336.328,-110.867 283.5,-83.4386 272.6179,-77.7886 261.9076,-69.5561 253.1331,-61.8942"/>
<polygon fill="#00ff00" stroke="#00ff00" stroke-width=".1672" points="255.4232,-59.246 245.6696,-55.1086 250.7142,-64.4253 255.4232,-59.246"/>
</g>
<!-- RAD_B -->
<g id="node9" class="node">
<title>RAD_B</title>
<polygon fill="#d3d3d3" stroke="#000000" points="347,-137.4386 300,-137.4386 300,-119.4386 347,-119.4386 347,-137.4386"/>
<text text-anchor="middle" x="323.5" y="-126.2386" font-family="Times,serif" font-size="9.00" fill="#000000">RAD_B</text>
</g>
<!-- RAD_B&#45;&gt;VEL -->
<g id="edge3" class="edge">
<title>RAD_B&#45;&gt;VEL</title>
<path fill="none" stroke="#00ff00" stroke-width=".1499" d="M322.7509,-119.1581C321.9256,-108.9338 320.549,-91.8799 319.2974,-76.3747"/>
<polygon fill="#00ff00" stroke="#00ff00" stroke-width=".1499" points="322.7525,-75.6767 318.4592,-65.9908 315.7752,-76.24 322.7525,-75.6767"/>
</g>
<!-- RAD_B&#45;&gt;26 -->
<g id="edge2" class="edge">
<title>RAD_B&#45;&gt;26</title>
<path fill="none" stroke="#00ff00" stroke-width=".1968" d="M313.7614,-119.1581C299.4152,-105.4867 272.2554,-79.6045 253.3009,-61.5417"/>
<polygon fill="#00ff00" stroke="#00ff00" stroke-width=".1968" points="255.6425,-58.9384 245.9886,-54.5734 250.8133,-64.0059 255.6425,-58.9384"/>
</g>
<!-- RAD_R -->
<g id="node10" class="node">
<title>RAD_R</title>
<polygon fill="#d3d3d3" stroke="#000000" points="589,-137.4386 542,-137.4386 542,-119.4386 589,-119.4386 589,-137.4386"/>
<text text-anchor="middle" x="565.5" y="-126.2386" font-family="Times,serif" font-size="9.00" fill="#000000">RAD_R</text>
</g>
<!-- 26&#45;&gt;26 -->
<g id="edge1" class="edge">
<title>26&#45;&gt;26</title>
<path fill="none" stroke="#00ff00" stroke-width=".1389" d="M245.5565,-55.183C256.8927,-61.3244 268.8848,-56.8365 268.8848,-41.7193 268.8848,-31.09 262.9561,-25.7157 255.4953,-25.5963"/>
<polygon fill="#00ff00" stroke="#00ff00" stroke-width=".1389" points="254.312,-22.2897 245.5565,-28.2556 256.1214,-29.0519 254.312,-22.2897"/>
</g>
</g>
</svg>
