<?xml version="1.0" encoding="utf-8" standalone="no"?>
<!DOCTYPE svg PUBLIC "-//W3C//DTD SVG 1.1//EN"
  "http://www.w3.org/Graphics/SVG/1.1/DTD/svg11.dtd">
<!-- Created with matplotlib (https://matplotlib.org/) -->
<svg height="345.6pt" version="1.1" viewBox="0 0 460.8 345.6" width="460.8pt" xmlns="http://www.w3.org/2000/svg" xmlns:xlink="http://www.w3.org/1999/xlink">
 <defs>
  <style type="text/css">
*{stroke-linecap:butt;stroke-linejoin:round;}
  </style>
 </defs>
 <g id="figure_1">
  <g id="patch_1">
   <path d="M 0 345.6 
L 460.8 345.6 
L 460.8 0 
L 0 0 
z
" style="fill:#ffffff;"/>
  </g>
  <g id="axes_1">
   <g id="patch_2">
    <path d="M 57.6 307.584 
L 414.72 307.584 
L 414.72 41.472 
L 57.6 41.472 
z
" style="fill:#ffffff;"/>
   </g>
   <g id="matplotlib.axis_1">
    <g id="xtick_1">
     <g id="line2d_1">
      <path clip-path="url(#p49124cbde6)" d="M 73.832727 307.584 
L 73.832727 41.472 
" style="fill:none;stroke:#b0b0b0;stroke-linecap:square;stroke-width:0.8;"/>
     </g>
     <g id="line2d_2">
      <defs>
       <path d="M 0 0 
L 0 3.5 
" id="m07b12f7ff2" style="stroke:#000000;stroke-width:0.8;"/>
      </defs>
      <g>
       <use style="stroke:#000000;stroke-width:0.8;" x="73.832727" xlink:href="#m07b12f7ff2" y="307.584"/>
      </g>
     </g>
     <g id="text_1">
      <!-- 0 -->
      <defs>
       <path d="M 31.78125 66.40625 
Q 24.171875 66.40625 20.328125 58.90625 
Q 16.5 51.421875 16.5 36.375 
Q 16.5 21.390625 20.328125 13.890625 
Q 24.171875 6.390625 31.78125 6.390625 
Q 39.453125 6.390625 43.28125 13.890625 
Q 47.125 21.390625 47.125 36.375 
Q 47.125 51.421875 43.28125 58.90625 
Q 39.453125 66.40625 31.78125 66.40625 
z
M 31.78125 74.21875 
Q 44.046875 74.21875 50.515625 64.515625 
Q 56.984375 54.828125 56.984375 36.375 
Q 56.984375 17.96875 50.515625 8.265625 
Q 44.046875 -1.421875 31.78125 -1.421875 
Q 19.53125 -1.421875 13.0625 8.265625 
Q 6.59375 17.96875 6.59375 36.375 
Q 6.59375 54.828125 13.0625 64.515625 
Q 19.53125 74.21875 31.78125 74.21875 
z
" id="DejaVuSans-48"/>
      </defs>
      <g transform="translate(70.651477 322.182437)scale(0.1 -0.1)">
       <use xlink:href="#DejaVuSans-48"/>
      </g>
     </g>
    </g>
    <g id="xtick_2">
     <g id="line2d_3">
      <path clip-path="url(#p49124cbde6)" d="M 114.516254 307.584 
L 114.516254 41.472 
" style="fill:none;stroke:#b0b0b0;stroke-linecap:square;stroke-width:0.8;"/>
     </g>
     <g id="line2d_4">
      <g>
       <use style="stroke:#000000;stroke-width:0.8;" x="114.516254" xlink:href="#m07b12f7ff2" y="307.584"/>
      </g>
     </g>
     <g id="text_2">
      <!-- 50 -->
      <defs>
       <path d="M 10.796875 72.90625 
L 49.515625 72.90625 
L 49.515625 64.59375 
L 19.828125 64.59375 
L 19.828125 46.734375 
Q 21.96875 47.46875 24.109375 47.828125 
Q 26.265625 48.1875 28.421875 48.1875 
Q 40.625 48.1875 47.75 41.5 
Q 54.890625 34.8125 54.890625 23.390625 
Q 54.890625 11.625 47.5625 5.09375 
Q 40.234375 -1.421875 26.90625 -1.421875 
Q 22.3125 -1.421875 17.546875 -0.640625 
Q 12.796875 0.140625 7.71875 1.703125 
L 7.71875 11.625 
Q 12.109375 9.234375 16.796875 8.0625 
Q 21.484375 6.890625 26.703125 6.890625 
Q 35.15625 6.890625 40.078125 11.328125 
Q 45.015625 15.765625 45.015625 23.390625 
Q 45.015625 31 40.078125 35.4375 
Q 35.15625 39.890625 26.703125 39.890625 
Q 22.75 39.890625 18.8125 39.015625 
Q 14.890625 38.140625 10.796875 36.28125 
z
" id="DejaVuSans-53"/>
      </defs>
      <g transform="translate(108.153754 322.182437)scale(0.1 -0.1)">
       <use xlink:href="#DejaVuSans-53"/>
       <use x="63.623047" xlink:href="#DejaVuSans-48"/>
      </g>
     </g>
    </g>
    <g id="xtick_3">
     <g id="line2d_5">
      <path clip-path="url(#p49124cbde6)" d="M 155.199781 307.584 
L 155.199781 41.472 
" style="fill:none;stroke:#b0b0b0;stroke-linecap:square;stroke-width:0.8;"/>
     </g>
     <g id="line2d_6">
      <g>
       <use style="stroke:#000000;stroke-width:0.8;" x="155.199781" xlink:href="#m07b12f7ff2" y="307.584"/>
      </g>
     </g>
     <g id="text_3">
      <!-- 100 -->
      <defs>
       <path d="M 12.40625 8.296875 
L 28.515625 8.296875 
L 28.515625 63.921875 
L 10.984375 60.40625 
L 10.984375 69.390625 
L 28.421875 72.90625 
L 38.28125 72.90625 
L 38.28125 8.296875 
L 54.390625 8.296875 
L 54.390625 0 
L 12.40625 0 
z
" id="DejaVuSans-49"/>
      </defs>
      <g transform="translate(145.656031 322.182437)scale(0.1 -0.1)">
       <use xlink:href="#DejaVuSans-49"/>
       <use x="63.623047" xlink:href="#DejaVuSans-48"/>
       <use x="127.246094" xlink:href="#DejaVuSans-48"/>
      </g>
     </g>
    </g>
    <g id="xtick_4">
     <g id="line2d_7">
      <path clip-path="url(#p49124cbde6)" d="M 195.883308 307.584 
L 195.883308 41.472 
" style="fill:none;stroke:#b0b0b0;stroke-linecap:square;stroke-width:0.8;"/>
     </g>
     <g id="line2d_8">
      <g>
       <use style="stroke:#000000;stroke-width:0.8;" x="195.883308" xlink:href="#m07b12f7ff2" y="307.584"/>
      </g>
     </g>
     <g id="text_4">
      <!-- 150 -->
      <g transform="translate(186.339558 322.182437)scale(0.1 -0.1)">
       <use xlink:href="#DejaVuSans-49"/>
       <use x="63.623047" xlink:href="#DejaVuSans-53"/>
       <use x="127.246094" xlink:href="#DejaVuSans-48"/>
      </g>
     </g>
    </g>
    <g id="xtick_5">
     <g id="line2d_9">
      <path clip-path="url(#p49124cbde6)" d="M 236.566835 307.584 
L 236.566835 41.472 
" style="fill:none;stroke:#b0b0b0;stroke-linecap:square;stroke-width:0.8;"/>
     </g>
     <g id="line2d_10">
      <g>
       <use style="stroke:#000000;stroke-width:0.8;" x="236.566835" xlink:href="#m07b12f7ff2" y="307.584"/>
      </g>
     </g>
     <g id="text_5">
      <!-- 200 -->
      <defs>
       <path d="M 19.1875 8.296875 
L 53.609375 8.296875 
L 53.609375 0 
L 7.328125 0 
L 7.328125 8.296875 
Q 12.9375 14.109375 22.625 23.890625 
Q 32.328125 33.6875 34.8125 36.53125 
Q 39.546875 41.84375 41.421875 45.53125 
Q 43.3125 49.21875 43.3125 52.78125 
Q 43.3125 58.59375 39.234375 62.25 
Q 35.15625 65.921875 28.609375 65.921875 
Q 23.96875 65.921875 18.8125 64.3125 
Q 13.671875 62.703125 7.8125 59.421875 
L 7.8125 69.390625 
Q 13.765625 71.78125 18.9375 73 
Q 24.125 74.21875 28.421875 74.21875 
Q 39.75 74.21875 46.484375 68.546875 
Q 53.21875 62.890625 53.21875 53.421875 
Q 53.21875 48.921875 51.53125 44.890625 
Q 49.859375 40.875 45.40625 35.40625 
Q 44.1875 33.984375 37.640625 27.21875 
Q 31.109375 20.453125 19.1875 8.296875 
z
" id="DejaVuSans-50"/>
      </defs>
      <g transform="translate(227.023085 322.182437)scale(0.1 -0.1)">
       <use xlink:href="#DejaVuSans-50"/>
       <use x="63.623047" xlink:href="#DejaVuSans-48"/>
       <use x="127.246094" xlink:href="#DejaVuSans-48"/>
      </g>
     </g>
    </g>
    <g id="xtick_6">
     <g id="line2d_11">
      <path clip-path="url(#p49124cbde6)" d="M 277.250362 307.584 
L 277.250362 41.472 
" style="fill:none;stroke:#b0b0b0;stroke-linecap:square;stroke-width:0.8;"/>
     </g>
     <g id="line2d_12">
      <g>
       <use style="stroke:#000000;stroke-width:0.8;" x="277.250362" xlink:href="#m07b12f7ff2" y="307.584"/>
      </g>
     </g>
     <g id="text_6">
      <!-- 250 -->
      <g transform="translate(267.706612 322.182437)scale(0.1 -0.1)">
       <use xlink:href="#DejaVuSans-50"/>
       <use x="63.623047" xlink:href="#DejaVuSans-53"/>
       <use x="127.246094" xlink:href="#DejaVuSans-48"/>
      </g>
     </g>
    </g>
    <g id="xtick_7">
     <g id="line2d_13">
      <path clip-path="url(#p49124cbde6)" d="M 317.933889 307.584 
L 317.933889 41.472 
" style="fill:none;stroke:#b0b0b0;stroke-linecap:square;stroke-width:0.8;"/>
     </g>
     <g id="line2d_14">
      <g>
       <use style="stroke:#000000;stroke-width:0.8;" x="317.933889" xlink:href="#m07b12f7ff2" y="307.584"/>
      </g>
     </g>
     <g id="text_7">
      <!-- 300 -->
      <defs>
       <path d="M 40.578125 39.3125 
Q 47.65625 37.796875 51.625 33 
Q 55.609375 28.21875 55.609375 21.1875 
Q 55.609375 10.40625 48.1875 4.484375 
Q 40.765625 -1.421875 27.09375 -1.421875 
Q 22.515625 -1.421875 17.65625 -0.515625 
Q 12.796875 0.390625 7.625 2.203125 
L 7.625 11.71875 
Q 11.71875 9.328125 16.59375 8.109375 
Q 21.484375 6.890625 26.8125 6.890625 
Q 36.078125 6.890625 40.9375 10.546875 
Q 45.796875 14.203125 45.796875 21.1875 
Q 45.796875 27.640625 41.28125 31.265625 
Q 36.765625 34.90625 28.71875 34.90625 
L 20.21875 34.90625 
L 20.21875 43.015625 
L 29.109375 43.015625 
Q 36.375 43.015625 40.234375 45.921875 
Q 44.09375 48.828125 44.09375 54.296875 
Q 44.09375 59.90625 40.109375 62.90625 
Q 36.140625 65.921875 28.71875 65.921875 
Q 24.65625 65.921875 20.015625 65.03125 
Q 15.375 64.15625 9.8125 62.3125 
L 9.8125 71.09375 
Q 15.4375 72.65625 20.34375 73.4375 
Q 25.25 74.21875 29.59375 74.21875 
Q 40.828125 74.21875 47.359375 69.109375 
Q 53.90625 64.015625 53.90625 55.328125 
Q 53.90625 49.265625 50.4375 45.09375 
Q 46.96875 40.921875 40.578125 39.3125 
z
" id="DejaVuSans-51"/>
      </defs>
      <g transform="translate(308.390139 322.182437)scale(0.1 -0.1)">
       <use xlink:href="#DejaVuSans-51"/>
       <use x="63.623047" xlink:href="#DejaVuSans-48"/>
       <use x="127.246094" xlink:href="#DejaVuSans-48"/>
      </g>
     </g>
    </g>
    <g id="xtick_8">
     <g id="line2d_15">
      <path clip-path="url(#p49124cbde6)" d="M 358.617416 307.584 
L 358.617416 41.472 
" style="fill:none;stroke:#b0b0b0;stroke-linecap:square;stroke-width:0.8;"/>
     </g>
     <g id="line2d_16">
      <g>
       <use style="stroke:#000000;stroke-width:0.8;" x="358.617416" xlink:href="#m07b12f7ff2" y="307.584"/>
      </g>
     </g>
     <g id="text_8">
      <!-- 350 -->
      <g transform="translate(349.073666 322.182437)scale(0.1 -0.1)">
       <use xlink:href="#DejaVuSans-51"/>
       <use x="63.623047" xlink:href="#DejaVuSans-53"/>
       <use x="127.246094" xlink:href="#DejaVuSans-48"/>
      </g>
     </g>
    </g>
    <g id="xtick_9">
     <g id="line2d_17">
      <path clip-path="url(#p49124cbde6)" d="M 399.300943 307.584 
L 399.300943 41.472 
" style="fill:none;stroke:#b0b0b0;stroke-linecap:square;stroke-width:0.8;"/>
     </g>
     <g id="line2d_18">
      <g>
       <use style="stroke:#000000;stroke-width:0.8;" x="399.300943" xlink:href="#m07b12f7ff2" y="307.584"/>
      </g>
     </g>
     <g id="text_9">
      <!-- 400 -->
      <defs>
       <path d="M 37.796875 64.3125 
L 12.890625 25.390625 
L 37.796875 25.390625 
z
M 35.203125 72.90625 
L 47.609375 72.90625 
L 47.609375 25.390625 
L 58.015625 25.390625 
L 58.015625 17.1875 
L 47.609375 17.1875 
L 47.609375 0 
L 37.796875 0 
L 37.796875 17.1875 
L 4.890625 17.1875 
L 4.890625 26.703125 
z
" id="DejaVuSans-52"/>
      </defs>
      <g transform="translate(389.757193 322.182437)scale(0.1 -0.1)">
       <use xlink:href="#DejaVuSans-52"/>
       <use x="63.623047" xlink:href="#DejaVuSans-48"/>
       <use x="127.246094" xlink:href="#DejaVuSans-48"/>
      </g>
     </g>
    </g>
    <g id="text_10">
     <!-- Generations -->
     <defs>
      <path d="M 59.515625 10.40625 
L 59.515625 29.984375 
L 43.40625 29.984375 
L 43.40625 38.09375 
L 69.28125 38.09375 
L 69.28125 6.78125 
Q 63.578125 2.734375 56.6875 0.65625 
Q 49.8125 -1.421875 42 -1.421875 
Q 24.90625 -1.421875 15.25 8.5625 
Q 5.609375 18.5625 5.609375 36.375 
Q 5.609375 54.25 15.25 64.234375 
Q 24.90625 74.21875 42 74.21875 
Q 49.125 74.21875 55.546875 72.453125 
Q 61.96875 70.703125 67.390625 67.28125 
L 67.390625 56.78125 
Q 61.921875 61.421875 55.765625 63.765625 
Q 49.609375 66.109375 42.828125 66.109375 
Q 29.4375 66.109375 22.71875 58.640625 
Q 16.015625 51.171875 16.015625 36.375 
Q 16.015625 21.625 22.71875 14.15625 
Q 29.4375 6.6875 42.828125 6.6875 
Q 48.046875 6.6875 52.140625 7.59375 
Q 56.25 8.5 59.515625 10.40625 
z
" id="DejaVuSans-71"/>
      <path d="M 56.203125 29.59375 
L 56.203125 25.203125 
L 14.890625 25.203125 
Q 15.484375 15.921875 20.484375 11.0625 
Q 25.484375 6.203125 34.421875 6.203125 
Q 39.59375 6.203125 44.453125 7.46875 
Q 49.3125 8.734375 54.109375 11.28125 
L 54.109375 2.78125 
Q 49.265625 0.734375 44.1875 -0.34375 
Q 39.109375 -1.421875 33.890625 -1.421875 
Q 20.796875 -1.421875 13.15625 6.1875 
Q 5.515625 13.8125 5.515625 26.8125 
Q 5.515625 40.234375 12.765625 48.109375 
Q 20.015625 56 32.328125 56 
Q 43.359375 56 49.78125 48.890625 
Q 56.203125 41.796875 56.203125 29.59375 
z
M 47.21875 32.234375 
Q 47.125 39.59375 43.09375 43.984375 
Q 39.0625 48.390625 32.421875 48.390625 
Q 24.90625 48.390625 20.390625 44.140625 
Q 15.875 39.890625 15.1875 32.171875 
z
" id="DejaVuSans-101"/>
      <path d="M 54.890625 33.015625 
L 54.890625 0 
L 45.90625 0 
L 45.90625 32.71875 
Q 45.90625 40.484375 42.875 44.328125 
Q 39.84375 48.1875 33.796875 48.1875 
Q 26.515625 48.1875 22.3125 43.546875 
Q 18.109375 38.921875 18.109375 30.90625 
L 18.109375 0 
L 9.078125 0 
L 9.078125 54.6875 
L 18.109375 54.6875 
L 18.109375 46.1875 
Q 21.34375 51.125 25.703125 53.5625 
Q 30.078125 56 35.796875 56 
Q 45.21875 56 50.046875 50.171875 
Q 54.890625 44.34375 54.890625 33.015625 
z
" id="DejaVuSans-110"/>
      <path d="M 41.109375 46.296875 
Q 39.59375 47.171875 37.8125 47.578125 
Q 36.03125 48 33.890625 48 
Q 26.265625 48 22.1875 43.046875 
Q 18.109375 38.09375 18.109375 28.8125 
L 18.109375 0 
L 9.078125 0 
L 9.078125 54.6875 
L 18.109375 54.6875 
L 18.109375 46.1875 
Q 20.953125 51.171875 25.484375 53.578125 
Q 30.03125 56 36.53125 56 
Q 37.453125 56 38.578125 55.875 
Q 39.703125 55.765625 41.0625 55.515625 
z
" id="DejaVuSans-114"/>
      <path d="M 34.28125 27.484375 
Q 23.390625 27.484375 19.1875 25 
Q 14.984375 22.515625 14.984375 16.5 
Q 14.984375 11.71875 18.140625 8.90625 
Q 21.296875 6.109375 26.703125 6.109375 
Q 34.1875 6.109375 38.703125 11.40625 
Q 43.21875 16.703125 43.21875 25.484375 
L 43.21875 27.484375 
z
M 52.203125 31.203125 
L 52.203125 0 
L 43.21875 0 
L 43.21875 8.296875 
Q 40.140625 3.328125 35.546875 0.953125 
Q 30.953125 -1.421875 24.3125 -1.421875 
Q 15.921875 -1.421875 10.953125 3.296875 
Q 6 8.015625 6 15.921875 
Q 6 25.140625 12.171875 29.828125 
Q 18.359375 34.515625 30.609375 34.515625 
L 43.21875 34.515625 
L 43.21875 35.40625 
Q 43.21875 41.609375 39.140625 45 
Q 35.0625 48.390625 27.6875 48.390625 
Q 23 48.390625 18.546875 47.265625 
Q 14.109375 46.140625 10.015625 43.890625 
L 10.015625 52.203125 
Q 14.9375 54.109375 19.578125 55.046875 
Q 24.21875 56 28.609375 56 
Q 40.484375 56 46.34375 49.84375 
Q 52.203125 43.703125 52.203125 31.203125 
z
" id="DejaVuSans-97"/>
      <path d="M 18.3125 70.21875 
L 18.3125 54.6875 
L 36.8125 54.6875 
L 36.8125 47.703125 
L 18.3125 47.703125 
L 18.3125 18.015625 
Q 18.3125 11.328125 20.140625 9.421875 
Q 21.96875 7.515625 27.59375 7.515625 
L 36.8125 7.515625 
L 36.8125 0 
L 27.59375 0 
Q 17.1875 0 13.234375 3.875 
Q 9.28125 7.765625 9.28125 18.015625 
L 9.28125 47.703125 
L 2.6875 47.703125 
L 2.6875 54.6875 
L 9.28125 54.6875 
L 9.28125 70.21875 
z
" id="DejaVuSans-116"/>
      <path d="M 9.421875 54.6875 
L 18.40625 54.6875 
L 18.40625 0 
L 9.421875 0 
z
M 9.421875 75.984375 
L 18.40625 75.984375 
L 18.40625 64.59375 
L 9.421875 64.59375 
z
" id="DejaVuSans-105"/>
      <path d="M 30.609375 48.390625 
Q 23.390625 48.390625 19.1875 42.75 
Q 14.984375 37.109375 14.984375 27.296875 
Q 14.984375 17.484375 19.15625 11.84375 
Q 23.34375 6.203125 30.609375 6.203125 
Q 37.796875 6.203125 41.984375 11.859375 
Q 46.1875 17.53125 46.1875 27.296875 
Q 46.1875 37.015625 41.984375 42.703125 
Q 37.796875 48.390625 30.609375 48.390625 
z
M 30.609375 56 
Q 42.328125 56 49.015625 48.375 
Q 55.71875 40.765625 55.71875 27.296875 
Q 55.71875 13.875 49.015625 6.21875 
Q 42.328125 -1.421875 30.609375 -1.421875 
Q 18.84375 -1.421875 12.171875 6.21875 
Q 5.515625 13.875 5.515625 27.296875 
Q 5.515625 40.765625 12.171875 48.375 
Q 18.84375 56 30.609375 56 
z
" id="DejaVuSans-111"/>
      <path d="M 44.28125 53.078125 
L 44.28125 44.578125 
Q 40.484375 46.53125 36.375 47.5 
Q 32.28125 48.484375 27.875 48.484375 
Q 21.1875 48.484375 17.84375 46.4375 
Q 14.5 44.390625 14.5 40.28125 
Q 14.5 37.15625 16.890625 35.375 
Q 19.28125 33.59375 26.515625 31.984375 
L 29.59375 31.296875 
Q 39.15625 29.25 43.1875 25.515625 
Q 47.21875 21.78125 47.21875 15.09375 
Q 47.21875 7.46875 41.1875 3.015625 
Q 35.15625 -1.421875 24.609375 -1.421875 
Q 20.21875 -1.421875 15.453125 -0.5625 
Q 10.6875 0.296875 5.421875 2 
L 5.421875 11.28125 
Q 10.40625 8.6875 15.234375 7.390625 
Q 20.0625 6.109375 24.8125 6.109375 
Q 31.15625 6.109375 34.5625 8.28125 
Q 37.984375 10.453125 37.984375 14.40625 
Q 37.984375 18.0625 35.515625 20.015625 
Q 33.0625 21.96875 24.703125 23.78125 
L 21.578125 24.515625 
Q 13.234375 26.265625 9.515625 29.90625 
Q 5.8125 33.546875 5.8125 39.890625 
Q 5.8125 47.609375 11.28125 51.796875 
Q 16.75 56 26.8125 56 
Q 31.78125 56 36.171875 55.265625 
Q 40.578125 54.546875 44.28125 53.078125 
z
" id="DejaVuSans-115"/>
     </defs>
     <g transform="translate(205.662344 335.860562)scale(0.1 -0.1)">
      <use xlink:href="#DejaVuSans-71"/>
      <use x="77.490234" xlink:href="#DejaVuSans-101"/>
      <use x="139.013672" xlink:href="#DejaVuSans-110"/>
      <use x="202.392578" xlink:href="#DejaVuSans-101"/>
      <use x="263.916016" xlink:href="#DejaVuSans-114"/>
      <use x="305.029297" xlink:href="#DejaVuSans-97"/>
      <use x="366.308594" xlink:href="#DejaVuSans-116"/>
      <use x="405.517578" xlink:href="#DejaVuSans-105"/>
      <use x="433.300781" xlink:href="#DejaVuSans-111"/>
      <use x="494.482422" xlink:href="#DejaVuSans-110"/>
      <use x="557.861328" xlink:href="#DejaVuSans-115"/>
     </g>
    </g>
   </g>
   <g id="matplotlib.axis_2">
    <g id="ytick_1">
     <g id="line2d_19">
      <path clip-path="url(#p49124cbde6)" d="M 57.6 302.848344 
L 414.72 302.848344 
" style="fill:none;stroke:#b0b0b0;stroke-linecap:square;stroke-width:0.8;"/>
     </g>
     <g id="line2d_20">
      <defs>
       <path d="M 0 0 
L -3.5 0 
" id="m76e7733c3c" style="stroke:#000000;stroke-width:0.8;"/>
      </defs>
      <g>
       <use style="stroke:#000000;stroke-width:0.8;" x="57.6" xlink:href="#m76e7733c3c" y="302.848344"/>
      </g>
     </g>
     <g id="text_11">
      <!-- 0.0 -->
      <defs>
       <path d="M 10.6875 12.40625 
L 21 12.40625 
L 21 0 
L 10.6875 0 
z
" id="DejaVuSans-46"/>
      </defs>
      <g transform="translate(34.696875 306.647563)scale(0.1 -0.1)">
       <use xlink:href="#DejaVuSans-48"/>
       <use x="63.623047" xlink:href="#DejaVuSans-46"/>
       <use x="95.410156" xlink:href="#DejaVuSans-48"/>
      </g>
     </g>
    </g>
    <g id="ytick_2">
     <g id="line2d_21">
      <path clip-path="url(#p49124cbde6)" d="M 57.6 264.047538 
L 414.72 264.047538 
" style="fill:none;stroke:#b0b0b0;stroke-linecap:square;stroke-width:0.8;"/>
     </g>
     <g id="line2d_22">
      <g>
       <use style="stroke:#000000;stroke-width:0.8;" x="57.6" xlink:href="#m76e7733c3c" y="264.047538"/>
      </g>
     </g>
     <g id="text_12">
      <!-- 0.1 -->
      <g transform="translate(34.696875 267.846757)scale(0.1 -0.1)">
       <use xlink:href="#DejaVuSans-48"/>
       <use x="63.623047" xlink:href="#DejaVuSans-46"/>
       <use x="95.410156" xlink:href="#DejaVuSans-49"/>
      </g>
     </g>
    </g>
    <g id="ytick_3">
     <g id="line2d_23">
      <path clip-path="url(#p49124cbde6)" d="M 57.6 225.246733 
L 414.72 225.246733 
" style="fill:none;stroke:#b0b0b0;stroke-linecap:square;stroke-width:0.8;"/>
     </g>
     <g id="line2d_24">
      <g>
       <use style="stroke:#000000;stroke-width:0.8;" x="57.6" xlink:href="#m76e7733c3c" y="225.246733"/>
      </g>
     </g>
     <g id="text_13">
      <!-- 0.2 -->
      <g transform="translate(34.696875 229.045951)scale(0.1 -0.1)">
       <use xlink:href="#DejaVuSans-48"/>
       <use x="63.623047" xlink:href="#DejaVuSans-46"/>
       <use x="95.410156" xlink:href="#DejaVuSans-50"/>
      </g>
     </g>
    </g>
    <g id="ytick_4">
     <g id="line2d_25">
      <path clip-path="url(#p49124cbde6)" d="M 57.6 186.445927 
L 414.72 186.445927 
" style="fill:none;stroke:#b0b0b0;stroke-linecap:square;stroke-width:0.8;"/>
     </g>
     <g id="line2d_26">
      <g>
       <use style="stroke:#000000;stroke-width:0.8;" x="57.6" xlink:href="#m76e7733c3c" y="186.445927"/>
      </g>
     </g>
     <g id="text_14">
      <!-- 0.3 -->
      <g transform="translate(34.696875 190.245146)scale(0.1 -0.1)">
       <use xlink:href="#DejaVuSans-48"/>
       <use x="63.623047" xlink:href="#DejaVuSans-46"/>
       <use x="95.410156" xlink:href="#DejaVuSans-51"/>
      </g>
     </g>
    </g>
    <g id="ytick_5">
     <g id="line2d_27">
      <path clip-path="url(#p49124cbde6)" d="M 57.6 147.645121 
L 414.72 147.645121 
" style="fill:none;stroke:#b0b0b0;stroke-linecap:square;stroke-width:0.8;"/>
     </g>
     <g id="line2d_28">
      <g>
       <use style="stroke:#000000;stroke-width:0.8;" x="57.6" xlink:href="#m76e7733c3c" y="147.645121"/>
      </g>
     </g>
     <g id="text_15">
      <!-- 0.4 -->
      <g transform="translate(34.696875 151.44434)scale(0.1 -0.1)">
       <use xlink:href="#DejaVuSans-48"/>
       <use x="63.623047" xlink:href="#DejaVuSans-46"/>
       <use x="95.410156" xlink:href="#DejaVuSans-52"/>
      </g>
     </g>
    </g>
    <g id="ytick_6">
     <g id="line2d_29">
      <path clip-path="url(#p49124cbde6)" d="M 57.6 108.844315 
L 414.72 108.844315 
" style="fill:none;stroke:#b0b0b0;stroke-linecap:square;stroke-width:0.8;"/>
     </g>
     <g id="line2d_30">
      <g>
       <use style="stroke:#000000;stroke-width:0.8;" x="57.6" xlink:href="#m76e7733c3c" y="108.844315"/>
      </g>
     </g>
     <g id="text_16">
      <!-- 0.5 -->
      <g transform="translate(34.696875 112.643534)scale(0.1 -0.1)">
       <use xlink:href="#DejaVuSans-48"/>
       <use x="63.623047" xlink:href="#DejaVuSans-46"/>
       <use x="95.410156" xlink:href="#DejaVuSans-53"/>
      </g>
     </g>
    </g>
    <g id="ytick_7">
     <g id="line2d_31">
      <path clip-path="url(#p49124cbde6)" d="M 57.6 70.043509 
L 414.72 70.043509 
" style="fill:none;stroke:#b0b0b0;stroke-linecap:square;stroke-width:0.8;"/>
     </g>
     <g id="line2d_32">
      <g>
       <use style="stroke:#000000;stroke-width:0.8;" x="57.6" xlink:href="#m76e7733c3c" y="70.043509"/>
      </g>
     </g>
     <g id="text_17">
      <!-- 0.6 -->
      <defs>
       <path d="M 33.015625 40.375 
Q 26.375 40.375 22.484375 35.828125 
Q 18.609375 31.296875 18.609375 23.390625 
Q 18.609375 15.53125 22.484375 10.953125 
Q 26.375 6.390625 33.015625 6.390625 
Q 39.65625 6.390625 43.53125 10.953125 
Q 47.40625 15.53125 47.40625 23.390625 
Q 47.40625 31.296875 43.53125 35.828125 
Q 39.65625 40.375 33.015625 40.375 
z
M 52.59375 71.296875 
L 52.59375 62.3125 
Q 48.875 64.0625 45.09375 64.984375 
Q 41.3125 65.921875 37.59375 65.921875 
Q 27.828125 65.921875 22.671875 59.328125 
Q 17.53125 52.734375 16.796875 39.40625 
Q 19.671875 43.65625 24.015625 45.921875 
Q 28.375 48.1875 33.59375 48.1875 
Q 44.578125 48.1875 50.953125 41.515625 
Q 57.328125 34.859375 57.328125 23.390625 
Q 57.328125 12.15625 50.6875 5.359375 
Q 44.046875 -1.421875 33.015625 -1.421875 
Q 20.359375 -1.421875 13.671875 8.265625 
Q 6.984375 17.96875 6.984375 36.375 
Q 6.984375 53.65625 15.1875 63.9375 
Q 23.390625 74.21875 37.203125 74.21875 
Q 40.921875 74.21875 44.703125 73.484375 
Q 48.484375 72.75 52.59375 71.296875 
z
" id="DejaVuSans-54"/>
      </defs>
      <g transform="translate(34.696875 73.842728)scale(0.1 -0.1)">
       <use xlink:href="#DejaVuSans-48"/>
       <use x="63.623047" xlink:href="#DejaVuSans-46"/>
       <use x="95.410156" xlink:href="#DejaVuSans-54"/>
      </g>
     </g>
    </g>
    <g id="text_18">
     <!-- Fitness -->
     <defs>
      <path d="M 9.8125 72.90625 
L 51.703125 72.90625 
L 51.703125 64.59375 
L 19.671875 64.59375 
L 19.671875 43.109375 
L 48.578125 43.109375 
L 48.578125 34.8125 
L 19.671875 34.8125 
L 19.671875 0 
L 9.8125 0 
z
" id="DejaVuSans-70"/>
     </defs>
     <g transform="translate(28.617187 192.202219)rotate(-90)scale(0.1 -0.1)">
      <use xlink:href="#DejaVuSans-70"/>
      <use x="57.410156" xlink:href="#DejaVuSans-105"/>
      <use x="85.193359" xlink:href="#DejaVuSans-116"/>
      <use x="124.402344" xlink:href="#DejaVuSans-110"/>
      <use x="187.78125" xlink:href="#DejaVuSans-101"/>
      <use x="249.304688" xlink:href="#DejaVuSans-115"/>
      <use x="301.404297" xlink:href="#DejaVuSans-115"/>
     </g>
    </g>
   </g>
   <g id="line2d_33">
    <path clip-path="url(#p49124cbde6)" d="M 73.832727 208.291604 
L 74.646398 184.559988 
L 75.460068 180.171476 
L 76.273739 170.418275 
L 77.087409 168.263953 
L 77.90108 165.594907 
L 78.714751 173.049203 
L 79.528421 169.734932 
L 80.342092 162.928468 
L 81.155762 161.322208 
L 81.969433 176.688303 
L 82.783103 166.568024 
L 83.596774 180.073908 
L 85.224115 171.216054 
L 86.037785 172.998207 
L 86.851456 169.331674 
L 87.665126 162.01214 
L 88.478797 174.73241 
L 89.292468 166.828468 
L 90.106138 165.417835 
L 90.919809 173.133654 
L 91.733479 157.258471 
L 92.54715 166.26786 
L 93.36082 162.031616 
L 94.174491 172.137921 
L 94.988161 178.192396 
L 95.801832 194.088095 
L 96.615502 173.938326 
L 97.429173 176.12285 
L 98.242843 182.599647 
L 99.056514 177.758737 
L 99.870185 174.530397 
L 100.683855 167.956152 
L 101.497526 174.889297 
L 102.311196 165.86565 
L 103.124867 166.706271 
L 103.938537 164.466238 
L 104.752208 154.51789 
L 105.565878 169.450523 
L 106.379549 160.464195 
L 107.193219 160.271547 
L 108.00689 165.269675 
L 108.82056 156.235479 
L 109.634231 176.381673 
L 110.447902 180.208986 
L 111.261572 191.165386 
L 112.075243 195.818854 
L 112.888913 194.303307 
L 113.702584 181.970373 
L 114.516254 193.258695 
L 115.329925 192.280278 
L 116.143595 171.108754 
L 116.957266 165.736117 
L 117.770936 179.939291 
L 118.584607 184.210417 
L 119.398278 171.828429 
L 120.211948 179.160264 
L 121.025619 177.748616 
L 121.839289 181.500468 
L 122.65296 179.637682 
L 123.46663 184.559349 
L 125.093971 174.022946 
L 126.721312 189.263601 
L 127.534983 171.936847 
L 128.348653 170.679859 
L 129.162324 182.292891 
L 129.975995 186.502475 
L 130.789665 177.349076 
L 131.603336 172.673381 
L 132.417006 184.172272 
L 133.230677 179.619037 
L 134.044347 172.325061 
L 134.858018 177.651146 
L 135.671688 176.389327 
L 136.485359 184.468536 
L 137.299029 184.222422 
L 138.1127 192.164335 
L 138.92637 186.73105 
L 139.740041 193.897852 
L 140.553712 192.187867 
L 141.367382 192.064748 
L 142.181053 180.270961 
L 142.994723 172.425759 
L 143.808394 185.180107 
L 144.622064 183.007515 
L 145.435735 193.938075 
L 147.063076 168.468772 
L 147.876746 169.946004 
L 148.690417 170.498088 
L 149.504087 169.598946 
L 150.317758 167.095991 
L 151.131429 166.362527 
L 151.945099 166.174369 
L 152.75877 157.7333 
L 153.57244 169.557971 
L 154.386111 162.467707 
L 155.199781 167.754291 
L 156.013452 170.967797 
L 156.827122 161.951722 
L 157.640793 171.132795 
L 158.454463 150.064388 
L 159.268134 156.268444 
L 160.081805 169.092801 
L 160.895475 172.01058 
L 161.709146 169.919877 
L 162.522816 172.337286 
L 163.336487 163.242851 
L 164.150157 173.91226 
L 164.963828 186.425894 
L 165.777498 175.009009 
L 166.591169 171.138486 
L 167.404839 180.464578 
L 168.21851 173.56086 
L 169.03218 178.211205 
L 169.845851 189.792631 
L 170.659522 181.298151 
L 171.473192 193.251616 
L 172.286863 179.84062 
L 173.100533 188.579769 
L 173.914204 180.282643 
L 174.727874 181.175465 
L 175.541545 166.215708 
L 176.355215 174.436103 
L 177.168886 170.085074 
L 177.982556 168.663727 
L 178.796227 173.837401 
L 179.609897 162.293297 
L 180.423568 166.391906 
L 181.237239 172.228897 
L 182.050909 159.474947 
L 182.86458 170.799301 
L 183.67825 167.293086 
L 184.491921 177.044526 
L 185.305591 169.945766 
L 186.119262 175.622127 
L 186.932932 162.654547 
L 187.746603 178.374867 
L 188.560273 177.131012 
L 189.373944 180.890673 
L 190.187614 164.67046 
L 191.001285 162.679086 
L 191.814956 173.152994 
L 192.628626 166.877835 
L 193.442297 174.493933 
L 194.255967 172.392436 
L 195.069638 163.675207 
L 195.883308 169.060188 
L 196.696979 163.285717 
L 197.510649 177.317979 
L 198.32432 165.887111 
L 199.13799 169.560326 
L 199.951661 175.507346 
L 200.765332 179.560669 
L 201.579002 180.379965 
L 202.392673 166.547866 
L 203.206343 183.753538 
L 204.020014 188.831157 
L 204.833684 182.977728 
L 205.647355 182.288674 
L 206.461025 176.300797 
L 207.274696 177.705167 
L 208.088366 190.322144 
L 208.902037 177.982644 
L 209.715707 176.237653 
L 210.529378 173.792529 
L 211.343049 176.758666 
L 212.156719 182.580556 
L 212.97039 179.307481 
L 213.78406 179.018736 
L 214.597731 177.835091 
L 215.411401 177.22456 
L 216.225072 178.591459 
L 217.038742 173.612551 
L 217.852413 171.414899 
L 218.666083 176.8159 
L 219.479754 177.265793 
L 220.293424 175.174232 
L 221.107095 180.99992 
L 221.920766 178.137506 
L 222.734436 173.608718 
L 223.548107 184.503399 
L 224.361777 172.200256 
L 225.175448 178.204619 
L 225.989118 168.855446 
L 226.802789 184.172878 
L 227.616459 174.545984 
L 228.43013 166.931788 
L 229.2438 176.256845 
L 230.057471 173.151988 
L 230.871141 167.98486 
L 231.684812 167.179662 
L 232.498483 176.949575 
L 233.312153 176.630926 
L 234.125824 175.420804 
L 234.939494 181.034973 
L 235.753165 175.715353 
L 236.566835 164.021218 
L 237.380506 169.061321 
L 238.194176 166.949547 
L 239.007847 167.213519 
L 239.821517 165.071459 
L 240.635188 152.305283 
L 241.448859 167.634037 
L 242.262529 174.209156 
L 243.0762 176.597334 
L 243.88987 166.501293 
L 244.703541 167.265469 
L 245.517211 156.082802 
L 246.330882 158.254854 
L 247.144552 156.894974 
L 247.958223 152.395297 
L 248.771893 157.906987 
L 249.585564 143.28547 
L 250.399234 162.876752 
L 251.212905 162.423126 
L 252.026576 165.763942 
L 252.840246 150.760758 
L 253.653917 151.339328 
L 254.467587 155.523477 
L 255.281258 147.268149 
L 256.094928 146.661293 
L 256.908599 153.146925 
L 257.722269 150.610624 
L 258.53594 152.483804 
L 259.34961 163.737318 
L 260.163281 152.623727 
L 260.976951 149.947317 
L 261.790622 165.853435 
L 262.604293 164.28674 
L 263.417963 148.971584 
L 264.231634 148.708347 
L 265.858975 162.013035 
L 266.672645 153.304027 
L 267.486316 140.498216 
L 268.299986 142.58875 
L 269.113657 139.121058 
L 269.927327 159.433969 
L 270.740998 153.0955 
L 271.554668 147.641074 
L 272.368339 144.42415 
L 273.18201 149.777055 
L 273.99568 143.445666 
L 274.809351 141.557278 
L 275.623021 136.174381 
L 276.436692 144.553637 
L 277.250362 131.061916 
L 278.064033 136.786588 
L 278.877703 141.598089 
L 279.691374 125.138314 
L 280.505044 132.737067 
L 281.318715 128.103373 
L 282.132386 138.80943 
L 282.946056 138.308421 
L 283.759727 133.978642 
L 284.573397 143.852781 
L 285.387068 140.294098 
L 286.200738 146.00636 
L 287.014409 139.089662 
L 287.828079 139.159893 
L 288.64175 125.890374 
L 289.45542 135.758164 
L 290.269091 138.350171 
L 291.082761 147.236005 
L 291.896432 138.186862 
L 292.710103 131.048639 
L 293.523773 132.950367 
L 294.337444 139.046261 
L 295.151114 143.259577 
L 295.964785 156.517523 
L 296.778455 151.395041 
L 297.592126 153.006238 
L 298.405796 142.477997 
L 299.219467 142.30924 
L 300.033137 147.754141 
L 300.846808 146.536919 
L 301.660478 145.012527 
L 302.474149 136.518103 
L 304.10149 136.558969 
L 304.915161 139.488601 
L 305.728831 154.317025 
L 306.542502 141.321749 
L 307.356172 134.889065 
L 308.169843 138.940215 
L 308.983513 141.193127 
L 309.797184 149.685789 
L 310.610854 145.46346 
L 311.424525 152.188997 
L 312.238195 134.989799 
L 313.051866 152.686636 
L 313.865537 142.389982 
L 314.679207 140.074771 
L 315.492878 153.550882 
L 316.306548 138.144313 
L 317.120219 134.995427 
L 318.74756 139.970671 
L 319.56123 148.408749 
L 320.374901 150.641523 
L 321.188571 134.425845 
L 322.002242 147.368253 
L 322.815913 145.297278 
L 323.629583 142.138657 
L 324.443254 141.464429 
L 325.256924 151.384219 
L 326.070595 140.57795 
L 326.884265 147.768279 
L 327.697936 136.168372 
L 328.511606 148.947734 
L 329.325277 151.069272 
L 330.138947 147.452043 
L 330.952618 157.852138 
L 331.766288 154.954614 
L 332.579959 165.902154 
L 333.39363 146.167531 
L 334.2073 157.389939 
L 335.020971 156.845442 
L 335.834641 161.539553 
L 336.648312 157.695778 
L 337.461982 147.264074 
L 338.275653 147.257811 
L 339.089323 148.396971 
L 339.902994 153.829415 
L 340.716664 161.170474 
L 341.530335 160.396405 
L 342.344005 149.281547 
L 343.157676 151.155769 
L 343.971347 148.779882 
L 344.785017 149.955247 
L 345.598688 150.563995 
L 346.412358 148.506297 
L 347.226029 139.575005 
L 348.039699 143.664626 
L 348.85337 145.665906 
L 349.66704 142.579762 
L 350.480711 137.569992 
L 351.294381 141.941913 
L 352.108052 156.174289 
L 352.921722 154.022635 
L 353.735393 147.359099 
L 354.549064 148.749259 
L 355.362734 149.843197 
L 356.176405 154.63939 
L 356.990075 158.681968 
L 357.803746 148.17112 
L 358.617416 151.667833 
L 359.431087 137.842847 
L 360.244757 135.709136 
L 361.058428 148.828051 
L 361.872098 155.414561 
L 362.685769 134.674138 
L 363.49944 141.04108 
L 364.31311 143.110261 
L 365.126781 147.312562 
L 365.940451 149.518493 
L 366.754122 148.334912 
L 367.567792 144.12417 
L 368.381463 141.100505 
L 369.195133 140.79183 
L 370.008804 135.863538 
L 370.822474 145.813708 
L 371.636145 145.298535 
L 372.449815 138.849997 
L 373.263486 137.950239 
L 374.077157 140.102505 
L 374.890827 141.397653 
L 375.704498 137.129099 
L 376.518168 127.670598 
L 377.331839 132.478523 
L 378.145509 133.367693 
L 378.95918 128.440088 
L 379.77285 140.84287 
L 380.586521 141.401927 
L 381.400191 138.135225 
L 382.213862 141.255539 
L 383.027532 141.398151 
L 384.654874 134.8232 
L 386.282215 151.81233 
L 387.095885 133.454834 
L 387.909556 131.289821 
L 388.723226 140.73032 
L 389.536897 139.0779 
L 390.350567 145.192406 
L 391.164238 137.811458 
L 391.977908 138.838678 
L 392.791579 141.041928 
L 393.605249 142.676269 
L 394.41892 147.845955 
L 395.232591 145.36685 
L 396.046261 149.452608 
L 396.859932 154.54368 
L 397.673602 139.593294 
L 398.487273 145.78987 
L 398.487273 145.78987 
" style="fill:none;stroke:#0000ff;stroke-linecap:square;stroke-width:1.5;"/>
   </g>
   <g id="line2d_34">
    <path clip-path="url(#p49124cbde6)" d="M 73.832727 263.602919 
L 74.646398 255.357443 
L 75.460068 257.238521 
L 76.273739 252.436134 
L 77.087409 252.684853 
L 77.90108 246.328334 
L 78.714751 256.455769 
L 79.528421 255.443925 
L 80.342092 246.808061 
L 81.155762 244.767114 
L 81.969433 264.087694 
L 82.783103 252.249062 
L 83.596774 266.892582 
L 84.410444 263.924541 
L 85.224115 259.626865 
L 86.037785 261.638689 
L 86.851456 258.911253 
L 87.665126 242.802746 
L 88.478797 260.532432 
L 89.292468 252.257137 
L 90.106138 252.235411 
L 90.919809 262.455106 
L 91.733479 242.858476 
L 92.54715 252.991556 
L 93.36082 249.794979 
L 94.174491 263.961049 
L 94.988161 270.257438 
L 95.801832 286.402487 
L 96.615502 264.114439 
L 97.429173 268.337291 
L 98.242843 274.188781 
L 99.056514 267.653186 
L 99.870185 264.083026 
L 100.683855 257.122721 
L 101.497526 265.445792 
L 102.311196 258.472245 
L 103.124867 256.557324 
L 103.938537 253.644177 
L 104.752208 240.419573 
L 105.565878 261.191781 
L 106.379549 247.896575 
L 107.193219 249.33253 
L 108.00689 252.71696 
L 108.82056 242.879473 
L 109.634231 268.928982 
L 110.447902 277.447469 
L 111.261572 284.044502 
L 112.075243 287.489921 
L 112.888913 285.720599 
L 113.702584 271.616769 
L 114.516254 282.192629 
L 115.329925 280.193706 
L 116.143595 258.793124 
L 116.957266 254.341711 
L 117.770936 268.822996 
L 118.584607 272.795425 
L 119.398278 258.208437 
L 120.211948 269.031528 
L 121.025619 267.181207 
L 121.839289 269.49666 
L 122.65296 268.982325 
L 123.46663 274.75097 
L 124.280301 267.252926 
L 125.093971 262.388031 
L 125.907642 273.628327 
L 126.721312 279.375819 
L 127.534983 261.544288 
L 128.348653 261.259629 
L 129.162324 276.956811 
L 129.975995 280.587227 
L 130.789665 273.033929 
L 131.603336 267.079217 
L 132.417006 280.446713 
L 133.230677 269.408475 
L 134.044347 260.241248 
L 134.858018 267.996162 
L 135.671688 268.165675 
L 136.485359 281.493649 
L 137.299029 282.839313 
L 138.1127 288.081496 
L 138.92637 284.487777 
L 139.740041 295.488 
L 140.553712 289.625305 
L 141.367382 287.609037 
L 142.181053 278.824341 
L 142.994723 268.166292 
L 143.808394 283.882064 
L 144.622064 283.125985 
L 145.435735 290.117608 
L 146.249405 278.442955 
L 147.063076 263.215508 
L 147.876746 265.467279 
L 148.690417 268.289566 
L 149.504087 264.538305 
L 150.317758 263.132568 
L 151.945099 258.212051 
L 152.75877 248.093516 
L 153.57244 266.494627 
L 154.386111 253.557448 
L 156.013452 265.665824 
L 156.827122 256.799251 
L 157.640793 266.756078 
L 158.454463 238.459852 
L 159.268134 245.117844 
L 160.081805 262.70974 
L 160.895475 266.51754 
L 161.709146 263.657803 
L 162.522816 268.674297 
L 163.336487 255.000842 
L 164.150157 267.923307 
L 164.963828 279.045513 
L 165.777498 270.135047 
L 166.591169 266.495678 
L 167.404839 275.775237 
L 168.21851 264.63974 
L 169.03218 272.564181 
L 169.845851 288.230816 
L 170.659522 271.431576 
L 171.473192 287.424293 
L 172.286863 273.663068 
L 173.100533 283.431432 
L 173.914204 271.587482 
L 174.727874 277.207572 
L 175.541545 257.271711 
L 176.355215 269.717318 
L 177.168886 262.377257 
L 177.982556 262.497917 
L 178.796227 265.576091 
L 179.609897 253.095849 
L 180.423568 252.042115 
L 181.237239 262.269052 
L 182.050909 249.217725 
L 182.86458 263.786338 
L 183.67825 259.730962 
L 184.491921 269.951446 
L 185.305591 261.831352 
L 186.119262 270.996317 
L 186.932932 249.90329 
L 187.746603 274.572094 
L 188.560273 270.022937 
L 189.373944 273.913091 
L 190.187614 254.449043 
L 191.001285 249.179019 
L 191.814956 264.438759 
L 192.628626 256.459256 
L 193.442297 269.720083 
L 194.255967 265.584468 
L 195.069638 250.966121 
L 195.883308 260.797346 
L 196.696979 254.479614 
L 197.510649 268.401687 
L 198.32432 257.429847 
L 199.13799 259.631505 
L 199.951661 265.753665 
L 200.765332 270.589092 
L 201.579002 269.206607 
L 202.392673 256.892518 
L 203.206343 273.385374 
L 204.020014 282.349318 
L 204.833684 273.924126 
L 205.647355 268.03908 
L 206.461025 265.704092 
L 207.274696 266.347489 
L 208.088366 283.363615 
L 208.902037 266.616795 
L 209.715707 267.099042 
L 210.529378 258.918336 
L 211.343049 267.815992 
L 212.156719 270.987134 
L 212.97039 268.83293 
L 213.78406 271.842927 
L 214.597731 266.783071 
L 215.411401 269.088836 
L 216.225072 266.504839 
L 217.038742 264.52576 
L 217.852413 262.12261 
L 218.666083 269.67644 
L 219.479754 271.432342 
L 220.293424 268.650771 
L 221.107095 275.26745 
L 221.920766 271.146004 
L 222.734436 262.327307 
L 223.548107 273.271579 
L 224.361777 260.888688 
L 225.175448 269.610671 
L 225.989118 258.452538 
L 226.802789 275.786641 
L 227.616459 263.206066 
L 228.43013 252.411855 
L 229.2438 262.985311 
L 230.057471 261.172075 
L 230.871141 256.395644 
L 231.684812 253.079266 
L 232.498483 265.132985 
L 233.312153 263.851912 
L 234.125824 267.477118 
L 234.939494 269.419111 
L 235.753165 266.756907 
L 236.566835 255.360395 
L 237.380506 258.113419 
L 238.194176 253.298816 
L 239.007847 256.303512 
L 239.821517 256.773478 
L 240.635188 239.438077 
L 241.448859 260.040217 
L 242.262529 268.327141 
L 243.0762 271.53504 
L 243.88987 257.280058 
L 244.703541 259.251484 
L 245.517211 247.633178 
L 246.330882 246.247893 
L 247.144552 245.272297 
L 247.958223 238.457889 
L 248.771893 245.591805 
L 249.585564 224.573977 
L 250.399234 253.406154 
L 251.212905 253.245039 
L 252.026576 255.766983 
L 252.840246 238.438366 
L 253.653917 241.179285 
L 254.467587 247.209918 
L 255.281258 232.149293 
L 256.094928 232.449401 
L 256.908599 241.122106 
L 257.722269 237.34295 
L 258.53594 239.478387 
L 259.34961 255.734767 
L 260.163281 243.964521 
L 260.976951 237.699889 
L 261.790622 258.388019 
L 262.604293 254.347448 
L 263.417963 232.321025 
L 264.231634 233.089906 
L 265.858975 253.60007 
L 266.672645 240.60835 
L 267.486316 222.235627 
L 268.299986 226.008338 
L 269.113657 222.09489 
L 269.927327 249.014335 
L 270.740998 241.278419 
L 271.554668 234.823621 
L 272.368339 229.326059 
L 273.18201 234.164968 
L 273.99568 225.574963 
L 274.809351 220.056112 
L 275.623021 209.810126 
L 276.436692 223.092091 
L 277.250362 200.576797 
L 278.064033 208.379461 
L 278.877703 219.035742 
L 279.691374 191.681195 
L 280.505044 203.819907 
L 281.318715 198.645881 
L 282.132386 216.674136 
L 282.946056 217.691292 
L 283.759727 211.48308 
L 284.573397 223.341209 
L 285.387068 220.43936 
L 286.200738 226.467601 
L 287.014409 219.071758 
L 287.828079 216.823035 
L 288.64175 193.554944 
L 289.45542 214.400688 
L 290.269091 217.230087 
L 291.082761 229.930424 
L 291.896432 215.681809 
L 292.710103 207.800623 
L 293.523773 208.063782 
L 294.337444 218.437293 
L 295.151114 225.363535 
L 295.964785 242.864328 
L 296.778455 239.016815 
L 297.592126 241.106554 
L 298.405796 223.734138 
L 299.219467 227.052278 
L 300.033137 233.54328 
L 300.846808 232.12401 
L 301.660478 229.78112 
L 302.474149 218.187789 
L 303.28782 216.94966 
L 304.10149 215.175643 
L 304.915161 219.598459 
L 305.728831 242.985816 
L 306.542502 224.617411 
L 307.356172 214.829755 
L 308.169843 220.498626 
L 308.983513 224.564518 
L 309.797184 238.616428 
L 310.610854 229.883392 
L 311.424525 240.888389 
L 312.238195 213.869537 
L 313.051866 241.741703 
L 313.865537 227.124206 
L 314.679207 223.447549 
L 315.492878 244.823259 
L 316.306548 219.224561 
L 317.120219 211.235947 
L 317.933889 216.693811 
L 318.74756 224.03676 
L 319.56123 236.735339 
L 320.374901 237.924078 
L 321.188571 213.088883 
L 322.002242 232.410315 
L 322.815913 232.24513 
L 323.629583 225.347135 
L 324.443254 225.000003 
L 325.256924 242.429137 
L 326.070595 224.85822 
L 326.884265 236.022384 
L 327.697936 217.005836 
L 328.511606 238.449145 
L 329.325277 239.444695 
L 330.138947 235.061921 
L 330.952618 251.627744 
L 331.766288 244.653946 
L 332.579959 254.719766 
L 333.39363 234.9223 
L 334.2073 249.225459 
L 335.020971 248.074865 
L 335.834641 252.374983 
L 336.648312 246.441569 
L 337.461982 232.470626 
L 338.275653 233.679892 
L 339.089323 236.201262 
L 339.902994 243.008594 
L 340.716664 252.181468 
L 341.530335 252.32474 
L 342.344005 235.589701 
L 343.157676 238.625306 
L 343.971347 237.430342 
L 344.785017 234.65203 
L 345.598688 236.858958 
L 346.412358 235.216997 
L 347.226029 219.548309 
L 348.039699 226.178123 
L 348.85337 230.997003 
L 349.66704 220.941458 
L 350.480711 217.936845 
L 351.294381 224.536321 
L 352.108052 246.316258 
L 352.921722 241.645156 
L 353.735393 235.008867 
L 354.549064 237.193485 
L 355.362734 235.367814 
L 356.176405 242.270331 
L 356.990075 247.711745 
L 357.803746 233.521606 
L 358.617416 237.483997 
L 359.431087 221.039301 
L 360.244757 212.767935 
L 361.058428 236.803552 
L 361.872098 244.63089 
L 362.685769 213.247758 
L 363.49944 224.041686 
L 365.126781 231.944789 
L 365.940451 234.438519 
L 366.754122 229.425412 
L 367.567792 227.557698 
L 368.381463 226.13049 
L 369.195133 222.298166 
L 370.008804 216.354135 
L 370.822474 231.837071 
L 371.636145 230.62315 
L 372.449815 219.472503 
L 374.077157 220.314905 
L 374.890827 225.913543 
L 375.704498 218.68962 
L 376.518168 201.773196 
L 377.331839 208.224964 
L 378.145509 209.957017 
L 378.95918 202.541876 
L 379.77285 223.975442 
L 380.586521 222.894155 
L 381.400191 220.842593 
L 382.213862 221.551662 
L 383.027532 220.936876 
L 383.841203 218.639365 
L 384.654874 211.220774 
L 386.282215 237.621233 
L 387.095885 208.952037 
L 387.909556 206.485251 
L 388.723226 220.317823 
L 389.536897 216.410078 
L 390.350567 223.52507 
L 391.164238 217.403801 
L 391.977908 217.646639 
L 392.791579 220.327876 
L 393.605249 220.280822 
L 394.41892 231.086308 
L 395.232591 226.247693 
L 396.859932 243.701685 
L 397.673602 217.987687 
L 398.487273 224.056703 
L 398.487273 224.056703 
" style="fill:none;stroke:#008000;stroke-dasharray:9.6,2.4,1.5,2.4;stroke-dashoffset:0;stroke-width:1.5;"/>
   </g>
   <g id="line2d_35">
    <path clip-path="url(#p49124cbde6)" d="M 73.832727 152.980289 
L 74.646398 113.762532 
L 75.460068 103.104432 
L 76.273739 88.400417 
L 77.087409 83.843052 
L 77.90108 84.86148 
L 78.714751 89.642637 
L 80.342092 79.048876 
L 81.155762 77.877302 
L 81.969433 89.288912 
L 82.783103 80.886986 
L 83.596774 93.255234 
L 84.410444 86.755776 
L 85.224115 82.805242 
L 86.037785 84.357725 
L 86.851456 79.752094 
L 87.665126 81.221534 
L 88.478797 88.932388 
L 89.292468 81.399799 
L 90.106138 78.600259 
L 90.919809 83.812202 
L 91.733479 71.658467 
L 92.54715 79.544163 
L 93.36082 74.268254 
L 94.988161 86.127354 
L 95.801832 101.773703 
L 96.615502 83.762214 
L 97.429173 83.90841 
L 98.242843 91.010514 
L 99.870185 84.977768 
L 100.683855 78.789584 
L 101.497526 84.332802 
L 102.311196 73.259054 
L 103.124867 76.855218 
L 103.938537 75.2883 
L 104.752208 68.616206 
L 105.565878 77.709265 
L 106.379549 73.031815 
L 107.193219 71.210565 
L 108.00689 77.822389 
L 108.82056 69.591486 
L 109.634231 83.834364 
L 110.447902 82.970502 
L 111.261572 98.28627 
L 112.075243 104.147788 
L 112.888913 102.886016 
L 113.702584 92.323978 
L 114.516254 104.324761 
L 115.329925 104.366849 
L 116.143595 83.424384 
L 116.957266 77.130523 
L 117.770936 91.055585 
L 118.584607 95.62541 
L 119.398278 85.448421 
L 120.211948 89.288999 
L 121.025619 88.316025 
L 121.839289 93.504275 
L 122.65296 90.293038 
L 123.46663 94.367729 
L 124.280301 90.605824 
L 125.093971 85.657861 
L 125.907642 89.896102 
L 126.721312 99.151383 
L 127.534983 82.329406 
L 128.348653 80.10009 
L 129.162324 87.628972 
L 129.975995 92.417723 
L 130.789665 81.664223 
L 131.603336 78.267545 
L 132.417006 87.897831 
L 133.230677 89.829599 
L 134.044347 84.408873 
L 134.858018 87.30613 
L 135.671688 84.61298 
L 136.485359 87.443424 
L 137.299029 85.605531 
L 138.1127 96.247175 
L 138.92637 88.974322 
L 139.740041 92.307705 
L 140.553712 94.750429 
L 141.367382 96.52046 
L 142.181053 81.717581 
L 142.994723 76.685226 
L 143.808394 86.47815 
L 144.622064 82.889045 
L 145.435735 97.758542 
L 146.249405 84.731038 
L 147.063076 73.722035 
L 147.876746 74.424729 
L 148.690417 72.706611 
L 149.504087 74.659586 
L 150.317758 71.059414 
L 151.131429 71.915837 
L 151.945099 74.136687 
L 152.75877 67.373084 
L 153.57244 72.621315 
L 154.386111 71.377966 
L 155.199781 76.267597 
L 156.013452 76.269771 
L 156.827122 67.104194 
L 157.640793 75.509512 
L 158.454463 61.668923 
L 159.268134 67.419044 
L 160.081805 75.475863 
L 160.895475 77.50362 
L 161.709146 76.181951 
L 162.522816 76.000275 
L 163.336487 71.484861 
L 164.150157 79.901214 
L 164.963828 93.806276 
L 165.777498 79.882971 
L 166.591169 75.781294 
L 167.404839 85.153919 
L 168.21851 82.481979 
L 169.03218 83.858228 
L 169.845851 91.354445 
L 170.659522 91.164726 
L 171.473192 99.078939 
L 172.286863 86.018171 
L 173.100533 93.728106 
L 173.914204 88.977803 
L 174.727874 85.143357 
L 175.541545 75.159704 
L 176.355215 79.154887 
L 177.168886 77.792891 
L 177.982556 74.829537 
L 178.796227 82.09871 
L 179.609897 71.490745 
L 180.423568 80.741697 
L 181.237239 82.188741 
L 182.050909 69.73217 
L 182.86458 77.812264 
L 183.67825 74.855209 
L 184.491921 84.137605 
L 185.305591 78.06018 
L 186.119262 80.247938 
L 186.932932 75.405805 
L 187.746603 82.17764 
L 188.560273 84.239086 
L 189.373944 87.868255 
L 190.187614 74.891878 
L 191.001285 76.179152 
L 191.814956 81.867228 
L 192.628626 77.296414 
L 193.442297 79.267782 
L 194.255967 79.200403 
L 195.069638 76.384292 
L 195.883308 77.323031 
L 196.696979 72.091821 
L 197.510649 86.23427 
L 198.32432 74.344374 
L 199.951661 85.261028 
L 201.579002 91.553323 
L 202.392673 76.203215 
L 203.206343 94.121701 
L 204.020014 95.312996 
L 204.833684 92.031329 
L 205.647355 96.538268 
L 206.461025 86.897502 
L 207.274696 89.062846 
L 208.088366 97.280673 
L 208.902037 89.348492 
L 209.715707 85.376265 
L 210.529378 88.666722 
L 211.343049 85.701339 
L 212.156719 94.173978 
L 212.97039 89.782032 
L 213.78406 86.194545 
L 214.597731 88.887111 
L 215.411401 85.360285 
L 216.225072 90.678079 
L 217.038742 82.699342 
L 217.852413 80.707189 
L 218.666083 83.955361 
L 219.479754 83.099243 
L 220.293424 81.697692 
L 221.107095 86.732389 
L 221.920766 85.129009 
L 222.734436 84.890129 
L 223.548107 95.735219 
L 224.361777 83.511825 
L 225.175448 86.798567 
L 225.989118 79.258353 
L 226.802789 92.559115 
L 227.616459 85.885901 
L 228.43013 81.45172 
L 229.2438 89.52838 
L 230.057471 85.131902 
L 230.871141 79.574077 
L 231.684812 81.280059 
L 232.498483 88.766165 
L 233.312153 89.40994 
L 234.125824 83.364489 
L 234.939494 92.650834 
L 235.753165 84.6738 
L 236.566835 72.68204 
L 237.380506 80.009223 
L 238.194176 80.600278 
L 239.007847 78.123526 
L 239.821517 73.36944 
L 240.635188 65.172488 
L 241.448859 75.227857 
L 242.262529 80.091172 
L 243.0762 81.659628 
L 243.88987 75.722528 
L 244.703541 75.279454 
L 245.517211 64.532427 
L 246.330882 70.261815 
L 247.144552 68.517651 
L 247.958223 66.332704 
L 248.771893 70.222168 
L 249.585564 61.996963 
L 250.399234 72.34735 
L 251.212905 71.601213 
L 252.026576 75.760902 
L 252.840246 63.083149 
L 253.653917 61.499372 
L 254.467587 63.837035 
L 256.094928 60.873185 
L 256.908599 65.171745 
L 257.722269 63.878298 
L 258.53594 65.489221 
L 259.34961 71.739869 
L 260.163281 61.282933 
L 260.976951 62.194745 
L 261.790622 73.318852 
L 262.604293 74.226031 
L 263.417963 65.622142 
L 264.231634 64.326788 
L 265.045304 68.156214 
L 265.858975 70.426001 
L 266.672645 65.999704 
L 267.486316 58.760804 
L 268.299986 59.169162 
L 269.113657 56.147226 
L 269.927327 69.853602 
L 271.554668 60.458527 
L 272.368339 59.52224 
L 273.18201 65.389141 
L 273.99568 61.316368 
L 274.809351 63.058444 
L 275.623021 62.538635 
L 276.436692 66.015183 
L 277.250362 61.547036 
L 278.064033 65.193715 
L 278.877703 64.160436 
L 279.691374 58.595432 
L 280.505044 61.654228 
L 281.318715 57.560866 
L 282.132386 60.944725 
L 282.946056 58.92555 
L 283.759727 56.474204 
L 284.573397 64.364352 
L 285.387068 60.148835 
L 286.200738 65.545119 
L 287.014409 59.107566 
L 287.828079 61.496751 
L 288.64175 58.225805 
L 289.45542 57.115641 
L 290.269091 59.470255 
L 291.082761 64.541587 
L 291.896432 60.691915 
L 292.710103 54.296655 
L 293.523773 57.836952 
L 294.337444 59.655229 
L 295.151114 61.155619 
L 295.964785 70.170719 
L 296.778455 63.773267 
L 297.592126 64.905922 
L 299.219467 57.566202 
L 300.033137 61.965002 
L 300.846808 60.949828 
L 301.660478 60.243933 
L 302.474149 54.848418 
L 303.28782 56.048751 
L 304.10149 57.942295 
L 304.915161 59.378742 
L 305.728831 65.648234 
L 306.542502 58.026087 
L 307.356172 54.948376 
L 308.169843 57.381804 
L 308.983513 57.821736 
L 309.797184 60.75515 
L 310.610854 61.043528 
L 311.424525 63.489605 
L 312.238195 56.110062 
L 313.051866 63.63157 
L 313.865537 57.655757 
L 314.679207 56.701993 
L 315.492878 62.278504 
L 316.306548 57.064064 
L 317.120219 58.754907 
L 317.933889 58.38 
L 318.74756 55.904581 
L 319.56123 60.082159 
L 320.374901 63.358967 
L 321.188571 55.762806 
L 322.002242 62.32619 
L 322.815913 58.349427 
L 323.629583 58.93018 
L 324.443254 57.928855 
L 325.256924 60.339301 
L 326.070595 56.29768 
L 326.884265 59.514174 
L 327.697936 55.330908 
L 328.511606 59.446323 
L 329.325277 62.693849 
L 330.138947 59.842165 
L 330.952618 64.076532 
L 331.766288 65.255281 
L 332.579959 77.084541 
L 333.39363 57.412761 
L 334.2073 65.554419 
L 335.020971 65.616019 
L 335.834641 70.704124 
L 336.648312 68.949988 
L 337.461982 62.057521 
L 338.275653 60.835729 
L 339.089323 60.592679 
L 339.902994 64.650236 
L 340.716664 70.159481 
L 341.530335 68.468071 
L 342.344005 62.973393 
L 343.157676 63.686232 
L 343.971347 60.129422 
L 344.785017 65.258464 
L 345.598688 64.269031 
L 347.226029 59.6017 
L 348.039699 61.15113 
L 348.85337 60.334809 
L 349.66704 64.218066 
L 350.480711 57.203138 
L 351.294381 59.347505 
L 352.108052 66.03232 
L 352.921722 66.400114 
L 353.735393 59.70933 
L 354.549064 60.305033 
L 355.362734 64.318581 
L 356.990075 69.65219 
L 357.803746 62.820635 
L 358.617416 65.851669 
L 359.431087 54.646393 
L 360.244757 58.650338 
L 361.058428 60.85255 
L 361.872098 66.198232 
L 362.685769 56.100518 
L 363.49944 58.040473 
L 364.31311 57.944151 
L 365.126781 62.680335 
L 365.940451 64.598467 
L 366.754122 67.244412 
L 367.567792 60.690642 
L 368.381463 56.070519 
L 369.195133 59.285494 
L 370.008804 55.372942 
L 370.822474 59.790345 
L 371.636145 59.973919 
L 372.449815 58.227492 
L 373.263486 55.994142 
L 374.077157 59.890106 
L 374.890827 56.881762 
L 375.704498 55.568579 
L 376.518168 53.568 
L 377.331839 56.732082 
L 378.145509 56.77837 
L 378.95918 54.338301 
L 379.77285 57.710297 
L 380.586521 59.909699 
L 381.400191 55.427856 
L 382.213862 60.959416 
L 383.027532 61.859427 
L 383.841203 57.675005 
L 384.654874 58.425626 
L 385.468544 61.763956 
L 386.282215 66.003426 
L 387.095885 57.957632 
L 387.909556 56.094392 
L 388.723226 61.142817 
L 389.536897 61.745723 
L 390.350567 66.859743 
L 391.164238 58.219114 
L 392.791579 61.755979 
L 393.605249 65.071716 
L 394.41892 64.605601 
L 396.046261 64.457437 
L 396.859932 65.385675 
L 397.673602 61.198902 
L 398.487273 67.523036 
L 398.487273 67.523036 
" style="fill:none;stroke:#008000;stroke-dasharray:9.6,2.4,1.5,2.4;stroke-dashoffset:0;stroke-width:1.5;"/>
   </g>
   <g id="line2d_36">
    <path clip-path="url(#p49124cbde6)" d="M 73.832727 82.540674 
L 74.646398 81.922053 
L 80.342092 81.75239 
L 398.487273 81.751057 
L 398.487273 81.751057 
" style="fill:none;stroke:#ff0000;stroke-linecap:square;stroke-width:1.5;"/>
   </g>
   <g id="patch_3">
    <path d="M 57.6 307.584 
L 57.6 41.472 
" style="fill:none;stroke:#000000;stroke-linecap:square;stroke-linejoin:miter;stroke-width:0.8;"/>
   </g>
   <g id="patch_4">
    <path d="M 414.72 307.584 
L 414.72 41.472 
" style="fill:none;stroke:#000000;stroke-linecap:square;stroke-linejoin:miter;stroke-width:0.8;"/>
   </g>
   <g id="patch_5">
    <path d="M 57.6 307.584 
L 414.72 307.584 
" style="fill:none;stroke:#000000;stroke-linecap:square;stroke-linejoin:miter;stroke-width:0.8;"/>
   </g>
   <g id="patch_6">
    <path d="M 57.6 41.472 
L 414.72 41.472 
" style="fill:none;stroke:#000000;stroke-linecap:square;stroke-linejoin:miter;stroke-width:0.8;"/>
   </g>
   <g id="text_19">
    <!-- Population's average and best fitness -->
    <defs>
     <path d="M 19.671875 64.796875 
L 19.671875 37.40625 
L 32.078125 37.40625 
Q 38.96875 37.40625 42.71875 40.96875 
Q 46.484375 44.53125 46.484375 51.125 
Q 46.484375 57.671875 42.71875 61.234375 
Q 38.96875 64.796875 32.078125 64.796875 
z
M 9.8125 72.90625 
L 32.078125 72.90625 
Q 44.34375 72.90625 50.609375 67.359375 
Q 56.890625 61.8125 56.890625 51.125 
Q 56.890625 40.328125 50.609375 34.8125 
Q 44.34375 29.296875 32.078125 29.296875 
L 19.671875 29.296875 
L 19.671875 0 
L 9.8125 0 
z
" id="DejaVuSans-80"/>
     <path d="M 18.109375 8.203125 
L 18.109375 -20.796875 
L 9.078125 -20.796875 
L 9.078125 54.6875 
L 18.109375 54.6875 
L 18.109375 46.390625 
Q 20.953125 51.265625 25.265625 53.625 
Q 29.59375 56 35.59375 56 
Q 45.5625 56 51.78125 48.09375 
Q 58.015625 40.1875 58.015625 27.296875 
Q 58.015625 14.40625 51.78125 6.484375 
Q 45.5625 -1.421875 35.59375 -1.421875 
Q 29.59375 -1.421875 25.265625 0.953125 
Q 20.953125 3.328125 18.109375 8.203125 
z
M 48.6875 27.296875 
Q 48.6875 37.203125 44.609375 42.84375 
Q 40.53125 48.484375 33.40625 48.484375 
Q 26.265625 48.484375 22.1875 42.84375 
Q 18.109375 37.203125 18.109375 27.296875 
Q 18.109375 17.390625 22.1875 11.75 
Q 26.265625 6.109375 33.40625 6.109375 
Q 40.53125 6.109375 44.609375 11.75 
Q 48.6875 17.390625 48.6875 27.296875 
z
" id="DejaVuSans-112"/>
     <path d="M 8.5 21.578125 
L 8.5 54.6875 
L 17.484375 54.6875 
L 17.484375 21.921875 
Q 17.484375 14.15625 20.5 10.265625 
Q 23.53125 6.390625 29.59375 6.390625 
Q 36.859375 6.390625 41.078125 11.03125 
Q 45.3125 15.671875 45.3125 23.6875 
L 45.3125 54.6875 
L 54.296875 54.6875 
L 54.296875 0 
L 45.3125 0 
L 45.3125 8.40625 
Q 42.046875 3.421875 37.71875 1 
Q 33.40625 -1.421875 27.6875 -1.421875 
Q 18.265625 -1.421875 13.375 4.4375 
Q 8.5 10.296875 8.5 21.578125 
z
M 31.109375 56 
z
" id="DejaVuSans-117"/>
     <path d="M 9.421875 75.984375 
L 18.40625 75.984375 
L 18.40625 0 
L 9.421875 0 
z
" id="DejaVuSans-108"/>
     <path d="M 17.921875 72.90625 
L 17.921875 45.796875 
L 9.625 45.796875 
L 9.625 72.90625 
z
" id="DejaVuSans-39"/>
     <path id="DejaVuSans-32"/>
     <path d="M 2.984375 54.6875 
L 12.5 54.6875 
L 29.59375 8.796875 
L 46.6875 54.6875 
L 56.203125 54.6875 
L 35.6875 0 
L 23.484375 0 
z
" id="DejaVuSans-118"/>
     <path d="M 45.40625 27.984375 
Q 45.40625 37.75 41.375 43.109375 
Q 37.359375 48.484375 30.078125 48.484375 
Q 22.859375 48.484375 18.828125 43.109375 
Q 14.796875 37.75 14.796875 27.984375 
Q 14.796875 18.265625 18.828125 12.890625 
Q 22.859375 7.515625 30.078125 7.515625 
Q 37.359375 7.515625 41.375 12.890625 
Q 45.40625 18.265625 45.40625 27.984375 
z
M 54.390625 6.78125 
Q 54.390625 -7.171875 48.1875 -13.984375 
Q 42 -20.796875 29.203125 -20.796875 
Q 24.46875 -20.796875 20.265625 -20.09375 
Q 16.0625 -19.390625 12.109375 -17.921875 
L 12.109375 -9.1875 
Q 16.0625 -11.328125 19.921875 -12.34375 
Q 23.78125 -13.375 27.78125 -13.375 
Q 36.625 -13.375 41.015625 -8.765625 
Q 45.40625 -4.15625 45.40625 5.171875 
L 45.40625 9.625 
Q 42.625 4.78125 38.28125 2.390625 
Q 33.9375 0 27.875 0 
Q 17.828125 0 11.671875 7.65625 
Q 5.515625 15.328125 5.515625 27.984375 
Q 5.515625 40.671875 11.671875 48.328125 
Q 17.828125 56 27.875 56 
Q 33.9375 56 38.28125 53.609375 
Q 42.625 51.21875 45.40625 46.390625 
L 45.40625 54.6875 
L 54.390625 54.6875 
z
" id="DejaVuSans-103"/>
     <path d="M 45.40625 46.390625 
L 45.40625 75.984375 
L 54.390625 75.984375 
L 54.390625 0 
L 45.40625 0 
L 45.40625 8.203125 
Q 42.578125 3.328125 38.25 0.953125 
Q 33.9375 -1.421875 27.875 -1.421875 
Q 17.96875 -1.421875 11.734375 6.484375 
Q 5.515625 14.40625 5.515625 27.296875 
Q 5.515625 40.1875 11.734375 48.09375 
Q 17.96875 56 27.875 56 
Q 33.9375 56 38.25 53.625 
Q 42.578125 51.265625 45.40625 46.390625 
z
M 14.796875 27.296875 
Q 14.796875 17.390625 18.875 11.75 
Q 22.953125 6.109375 30.078125 6.109375 
Q 37.203125 6.109375 41.296875 11.75 
Q 45.40625 17.390625 45.40625 27.296875 
Q 45.40625 37.203125 41.296875 42.84375 
Q 37.203125 48.484375 30.078125 48.484375 
Q 22.953125 48.484375 18.875 42.84375 
Q 14.796875 37.203125 14.796875 27.296875 
z
" id="DejaVuSans-100"/>
     <path d="M 48.6875 27.296875 
Q 48.6875 37.203125 44.609375 42.84375 
Q 40.53125 48.484375 33.40625 48.484375 
Q 26.265625 48.484375 22.1875 42.84375 
Q 18.109375 37.203125 18.109375 27.296875 
Q 18.109375 17.390625 22.1875 11.75 
Q 26.265625 6.109375 33.40625 6.109375 
Q 40.53125 6.109375 44.609375 11.75 
Q 48.6875 17.390625 48.6875 27.296875 
z
M 18.109375 46.390625 
Q 20.953125 51.265625 25.265625 53.625 
Q 29.59375 56 35.59375 56 
Q 45.5625 56 51.78125 48.09375 
Q 58.015625 40.1875 58.015625 27.296875 
Q 58.015625 14.40625 51.78125 6.484375 
Q 45.5625 -1.421875 35.59375 -1.421875 
Q 29.59375 -1.421875 25.265625 0.953125 
Q 20.953125 3.328125 18.109375 8.203125 
L 18.109375 0 
L 9.078125 0 
L 9.078125 75.984375 
L 18.109375 75.984375 
z
" id="DejaVuSans-98"/>
     <path d="M 37.109375 75.984375 
L 37.109375 68.5 
L 28.515625 68.5 
Q 23.6875 68.5 21.796875 66.546875 
Q 19.921875 64.59375 19.921875 59.515625 
L 19.921875 54.6875 
L 34.71875 54.6875 
L 34.71875 47.703125 
L 19.921875 47.703125 
L 19.921875 0 
L 10.890625 0 
L 10.890625 47.703125 
L 2.296875 47.703125 
L 2.296875 54.6875 
L 10.890625 54.6875 
L 10.890625 58.5 
Q 10.890625 67.625 15.140625 71.796875 
Q 19.390625 75.984375 28.609375 75.984375 
z
" id="DejaVuSans-102"/>
    </defs>
    <g transform="translate(123.315 35.472)scale(0.12 -0.12)">
     <use xlink:href="#DejaVuSans-80"/>
     <use x="60.255859" xlink:href="#DejaVuSans-111"/>
     <use x="121.4375" xlink:href="#DejaVuSans-112"/>
     <use x="184.914062" xlink:href="#DejaVuSans-117"/>
     <use x="248.292969" xlink:href="#DejaVuSans-108"/>
     <use x="276.076172" xlink:href="#DejaVuSans-97"/>
     <use x="337.355469" xlink:href="#DejaVuSans-116"/>
     <use x="376.564453" xlink:href="#DejaVuSans-105"/>
     <use x="404.347656" xlink:href="#DejaVuSans-111"/>
     <use x="465.529297" xlink:href="#DejaVuSans-110"/>
     <use x="528.908203" xlink:href="#DejaVuSans-39"/>
     <use x="556.398438" xlink:href="#DejaVuSans-115"/>
     <use x="608.498047" xlink:href="#DejaVuSans-32"/>
     <use x="640.285156" xlink:href="#DejaVuSans-97"/>
     <use x="701.564453" xlink:href="#DejaVuSans-118"/>
     <use x="760.744141" xlink:href="#DejaVuSans-101"/>
     <use x="822.267578" xlink:href="#DejaVuSans-114"/>
     <use x="863.380859" xlink:href="#DejaVuSans-97"/>
     <use x="924.660156" xlink:href="#DejaVuSans-103"/>
     <use x="988.136719" xlink:href="#DejaVuSans-101"/>
     <use x="1049.660156" xlink:href="#DejaVuSans-32"/>
     <use x="1081.447266" xlink:href="#DejaVuSans-97"/>
     <use x="1142.726562" xlink:href="#DejaVuSans-110"/>
     <use x="1206.105469" xlink:href="#DejaVuSans-100"/>
     <use x="1269.582031" xlink:href="#DejaVuSans-32"/>
     <use x="1301.369141" xlink:href="#DejaVuSans-98"/>
     <use x="1364.845703" xlink:href="#DejaVuSans-101"/>
     <use x="1426.369141" xlink:href="#DejaVuSans-115"/>
     <use x="1478.46875" xlink:href="#DejaVuSans-116"/>
     <use x="1517.677734" xlink:href="#DejaVuSans-32"/>
     <use x="1549.464844" xlink:href="#DejaVuSans-102"/>
     <use x="1584.669922" xlink:href="#DejaVuSans-105"/>
     <use x="1612.453125" xlink:href="#DejaVuSans-116"/>
     <use x="1651.662109" xlink:href="#DejaVuSans-110"/>
     <use x="1715.041016" xlink:href="#DejaVuSans-101"/>
     <use x="1776.564453" xlink:href="#DejaVuSans-115"/>
     <use x="1828.664062" xlink:href="#DejaVuSans-115"/>
    </g>
   </g>
   <g id="legend_1">
    <g id="patch_7">
     <path d="M 334.779375 302.584 
L 407.72 302.584 
Q 409.72 302.584 409.72 300.584 
L 409.72 242.8715 
Q 409.72 240.8715 407.72 240.8715 
L 334.779375 240.8715 
Q 332.779375 240.8715 332.779375 242.8715 
L 332.779375 300.584 
Q 332.779375 302.584 334.779375 302.584 
z
" style="fill:#ffffff;opacity:0.8;stroke:#cccccc;stroke-linejoin:miter;"/>
    </g>
    <g id="line2d_37">
     <path d="M 336.779375 248.969937 
L 356.779375 248.969937 
" style="fill:none;stroke:#0000ff;stroke-linecap:square;stroke-width:1.5;"/>
    </g>
    <g id="line2d_38"/>
    <g id="text_20">
     <!-- average -->
     <g transform="translate(364.779375 252.469937)scale(0.1 -0.1)">
      <use xlink:href="#DejaVuSans-97"/>
      <use x="61.279297" xlink:href="#DejaVuSans-118"/>
      <use x="120.458984" xlink:href="#DejaVuSans-101"/>
      <use x="181.982422" xlink:href="#DejaVuSans-114"/>
      <use x="223.095703" xlink:href="#DejaVuSans-97"/>
      <use x="284.375" xlink:href="#DejaVuSans-103"/>
      <use x="347.851562" xlink:href="#DejaVuSans-101"/>
     </g>
    </g>
    <g id="line2d_39">
     <path d="M 336.779375 263.648062 
L 356.779375 263.648062 
" style="fill:none;stroke:#008000;stroke-dasharray:9.6,2.4,1.5,2.4;stroke-dashoffset:0;stroke-width:1.5;"/>
    </g>
    <g id="line2d_40"/>
    <g id="text_21">
     <!-- -1 sd -->
     <defs>
      <path d="M 4.890625 31.390625 
L 31.203125 31.390625 
L 31.203125 23.390625 
L 4.890625 23.390625 
z
" id="DejaVuSans-45"/>
     </defs>
     <g transform="translate(364.779375 267.148062)scale(0.1 -0.1)">
      <use xlink:href="#DejaVuSans-45"/>
      <use x="36.083984" xlink:href="#DejaVuSans-49"/>
      <use x="99.707031" xlink:href="#DejaVuSans-32"/>
      <use x="131.494141" xlink:href="#DejaVuSans-115"/>
      <use x="183.59375" xlink:href="#DejaVuSans-100"/>
     </g>
    </g>
    <g id="line2d_41">
     <path d="M 336.779375 278.326187 
L 356.779375 278.326187 
" style="fill:none;stroke:#008000;stroke-dasharray:9.6,2.4,1.5,2.4;stroke-dashoffset:0;stroke-width:1.5;"/>
    </g>
    <g id="line2d_42"/>
    <g id="text_22">
     <!-- +1 sd -->
     <defs>
      <path d="M 46 62.703125 
L 46 35.5 
L 73.1875 35.5 
L 73.1875 27.203125 
L 46 27.203125 
L 46 0 
L 37.796875 0 
L 37.796875 27.203125 
L 10.59375 27.203125 
L 10.59375 35.5 
L 37.796875 35.5 
L 37.796875 62.703125 
z
" id="DejaVuSans-43"/>
     </defs>
     <g transform="translate(364.779375 281.826187)scale(0.1 -0.1)">
      <use xlink:href="#DejaVuSans-43"/>
      <use x="83.789062" xlink:href="#DejaVuSans-49"/>
      <use x="147.412109" xlink:href="#DejaVuSans-32"/>
      <use x="179.199219" xlink:href="#DejaVuSans-115"/>
      <use x="231.298828" xlink:href="#DejaVuSans-100"/>
     </g>
    </g>
    <g id="line2d_43">
     <path d="M 336.779375 293.004312 
L 356.779375 293.004312 
" style="fill:none;stroke:#ff0000;stroke-linecap:square;stroke-width:1.5;"/>
    </g>
    <g id="line2d_44"/>
    <g id="text_23">
     <!-- best -->
     <g transform="translate(364.779375 296.504312)scale(0.1 -0.1)">
      <use xlink:href="#DejaVuSans-98"/>
      <use x="63.476562" xlink:href="#DejaVuSans-101"/>
      <use x="125" xlink:href="#DejaVuSans-115"/>
      <use x="177.099609" xlink:href="#DejaVuSans-116"/>
     </g>
    </g>
   </g>
  </g>
 </g>
 <defs>
  <clipPath id="p49124cbde6">
   <rect height="266.112" width="357.12" x="57.6" y="41.472"/>
  </clipPath>
 </defs>
</svg>
