<?xml version="1.0" encoding="UTF-8" standalone="no"?>
<!DOCTYPE svg PUBLIC "-//W3C//DTD SVG 1.1//EN"
 "http://www.w3.org/Graphics/SVG/1.1/DTD/svg11.dtd">
<!-- Generated by graphviz version 2.40.1 (20161225.0304)
 -->
<!-- Title: %3 Pages: 1 -->
<svg width="405pt" height="218pt"
 viewBox="0.00 0.00 404.50 218.21" xmlns="http://www.w3.org/2000/svg" xmlns:xlink="http://www.w3.org/1999/xlink">
<g id="graph0" class="graph" transform="scale(1 1) rotate(0) translate(4 214.2082)">
<title>%3</title>
<polygon fill="#ffffff" stroke="transparent" points="-4,4 -4,-214.2082 400.5,-214.2082 400.5,4 -4,4"/>
<!-- RF_R -->
<g id="node1" class="node">
<title>RF_R</title>
<polygon fill="#d3d3d3" stroke="#000000" points="215,-146.8234 177,-146.8234 177,-128.8234 215,-128.8234 215,-146.8234"/>
<text text-anchor="middle" x="196" y="-135.6234" font-family="Times,serif" font-size="9.00" fill="#000000">RF_R</text>
</g>
<!-- ANG_VEL -->
<g id="node11" class="node">
<title>ANG_VEL</title>
<ellipse fill="#add8e6" stroke="#000000" cx="152" cy="-41.7193" rx="41.9398" ry="41.9398"/>
<text text-anchor="middle" x="152" y="-39.5193" font-family="Times,serif" font-size="9.00" fill="#000000">ANG_VEL</text>
</g>
<!-- RF_R&#45;&gt;ANG_VEL -->
<g id="edge12" class="edge">
<title>RF_R&#45;&gt;ANG_VEL</title>
<path fill="none" stroke="#00ff00" stroke-width=".8118" d="M191.7811,-128.6085C187.5061,-119.2711 180.5556,-104.0899 173.6509,-89.0089"/>
<polygon fill="#00ff00" stroke="#00ff00" stroke-width=".8118" points="176.7273,-87.3203 169.3821,-79.6849 170.3626,-90.2343 176.7273,-87.3203"/>
</g>
<!-- VEL -->
<g id="node12" class="node">
<title>VEL</title>
<ellipse fill="#add8e6" stroke="#000000" cx="252" cy="-41.7193" rx="24.0833" ry="24.0833"/>
<text text-anchor="middle" x="252" y="-39.5193" font-family="Times,serif" font-size="9.00" fill="#000000">VEL</text>
</g>
<!-- RF_R&#45;&gt;VEL -->
<g id="edge9" class="edge">
<title>RF_R&#45;&gt;VEL</title>
<path fill="none" stroke="#00ff00" stroke-width=".5917" stroke-dasharray="1,5" d="M201.3695,-128.6085C208.932,-115.6301 223.0731,-91.362 234.4923,-71.7651"/>
<polygon fill="#00ff00" stroke="#00ff00" stroke-width=".5917" points="237.6653,-73.2715 239.6759,-62.8692 231.6172,-69.7472 237.6653,-73.2715"/>
</g>
<!-- RF_FR -->
<g id="node2" class="node">
<title>RF_FR</title>
<polygon fill="#d3d3d3" stroke="#000000" points="164,-210.2082 120,-210.2082 120,-192.2082 164,-192.2082 164,-210.2082"/>
<text text-anchor="middle" x="142" y="-199.0082" font-family="Times,serif" font-size="9.00" fill="#000000">RF_FR</text>
</g>
<!-- RF_F -->
<g id="node3" class="node">
<title>RF_F</title>
<polygon fill="#d3d3d3" stroke="#000000" points="102,-210.2082 64,-210.2082 64,-192.2082 102,-192.2082 102,-210.2082"/>
<text text-anchor="middle" x="83" y="-199.0082" font-family="Times,serif" font-size="9.00" fill="#000000">RF_F</text>
</g>
<!-- RF_F&#45;&gt;ANG_VEL -->
<g id="edge1" class="edge">
<title>RF_F&#45;&gt;ANG_VEL</title>
<path fill="none" stroke="#00ff00" stroke-width=".3819" d="M84.2872,-191.8235C86.6367,-176.2895 92.3843,-144.4631 103,-119.4386 108.0627,-107.5043 114.8495,-95.3143 121.7555,-84.2339"/>
<polygon fill="#00ff00" stroke="#00ff00" stroke-width=".3819" points="124.8335,-85.918 127.2889,-75.6116 118.9422,-82.1373 124.8335,-85.918"/>
</g>
<!-- 73 -->
<g id="node13" class="node">
<title>73</title>
<ellipse fill="#ffffff" stroke="#000000" cx="37" cy="-137.8234" rx="18.2703" ry="18.2703"/>
<text text-anchor="middle" x="37" y="-135.6234" font-family="Times,serif" font-size="9.00" fill="#000000">73</text>
</g>
<!-- RF_F&#45;&gt;73 -->
<g id="edge14" class="edge">
<title>RF_F&#45;&gt;73</title>
<path fill="none" stroke="#00ff00" stroke-width=".1964" d="M76.4093,-192.1267C70.5286,-184.0235 61.6616,-171.8053 53.8267,-161.0094"/>
<polygon fill="#00ff00" stroke="#00ff00" stroke-width=".1964" points="56.5475,-158.7995 47.8413,-152.7619 50.8822,-162.911 56.5475,-158.7995"/>
</g>
<!-- RF_FL -->
<g id="node4" class="node">
<title>RF_FL</title>
<polygon fill="#d3d3d3" stroke="#000000" points="396.5,-146.8234 353.5,-146.8234 353.5,-128.8234 396.5,-128.8234 396.5,-146.8234"/>
<text text-anchor="middle" x="375" y="-135.6234" font-family="Times,serif" font-size="9.00" fill="#000000">RF_FL</text>
</g>
<!-- RF_FL&#45;&gt;VEL -->
<g id="edge5" class="edge">
<title>RF_FL&#45;&gt;VEL</title>
<path fill="none" stroke="#ff0000" stroke-width=".1376" d="M363.2062,-128.6085C343.9993,-113.6015 305.473,-83.4996 279.2095,-62.979"/>
<polygon fill="#ff0000" stroke="#ff0000" stroke-width=".1376" points="281.1882,-60.0834 271.1533,-56.6845 276.8784,-65.5993 281.1882,-60.0834"/>
</g>
<!-- RF_L -->
<g id="node5" class="node">
<title>RF_L</title>
<polygon fill="#d3d3d3" stroke="#000000" points="271,-146.8234 233,-146.8234 233,-128.8234 271,-128.8234 271,-146.8234"/>
<text text-anchor="middle" x="252" y="-135.6234" font-family="Times,serif" font-size="9.00" fill="#000000">RF_L</text>
</g>
<!-- RF_L&#45;&gt;ANG_VEL -->
<g id="edge7" class="edge">
<title>RF_L&#45;&gt;ANG_VEL</title>
<path fill="none" stroke="#ff0000" stroke-width=".5793" d="M242.4116,-128.6085C230.3278,-116.9955 208.8383,-96.3432 189.8416,-78.0866"/>
<polygon fill="#ff0000" stroke="#ff0000" stroke-width=".5793" points="192.0715,-75.3753 182.4361,-70.9696 187.221,-80.4224 192.0715,-75.3753"/>
</g>
<!-- RF_L&#45;&gt;VEL -->
<g id="edge10" class="edge">
<title>RF_L&#45;&gt;VEL</title>
<path fill="none" stroke="#ff0000" stroke-width=".3513" d="M252,-128.6085C252,-116.558 252,-94.7743 252,-76.034"/>
<polygon fill="#ff0000" stroke="#ff0000" stroke-width=".3513" points="255.5001,-76.0169 252,-66.017 248.5001,-76.017 255.5001,-76.0169"/>
</g>
<!-- RF_B -->
<g id="node6" class="node">
<title>RF_B</title>
<polygon fill="#d3d3d3" stroke="#000000" points="220,-210.2082 182,-210.2082 182,-192.2082 220,-192.2082 220,-210.2082"/>
<text text-anchor="middle" x="201" y="-199.0082" font-family="Times,serif" font-size="9.00" fill="#000000">RF_B</text>
</g>
<!-- RAD_F -->
<g id="node7" class="node">
<title>RAD_F</title>
<polygon fill="#d3d3d3" stroke="#000000" points="335,-146.8234 289,-146.8234 289,-128.8234 335,-128.8234 335,-146.8234"/>
<text text-anchor="middle" x="312" y="-135.6234" font-family="Times,serif" font-size="9.00" fill="#000000">RAD_F</text>
</g>
<!-- RAD_F&#45;&gt;ANG_VEL -->
<g id="edge8" class="edge">
<title>RAD_F&#45;&gt;ANG_VEL</title>
<path fill="none" stroke="#ff0000" stroke-width=".1679" d="M296.1239,-128.7185C277.547,-118.0233 245.9021,-99.6759 219,-83.4386 211.5799,-78.96 203.7364,-74.1478 196.1318,-69.4402"/>
<polygon fill="#ff0000" stroke="#ff0000" stroke-width=".1679" points="197.6954,-66.2912 187.3539,-63.9882 194.002,-72.2376 197.6954,-66.2912"/>
</g>
<!-- RAD_F&#45;&gt;VEL -->
<g id="edge13" class="edge">
<title>RAD_F&#45;&gt;VEL</title>
<path fill="none" stroke="#ff0000" stroke-width=".2638" d="M306.2469,-128.6085C298.0567,-115.4899 282.6649,-90.8363 270.3628,-71.1316"/>
<polygon fill="#ff0000" stroke="#ff0000" stroke-width=".2638" points="273.2297,-69.1146 264.9648,-62.4855 267.2918,-72.8217 273.2297,-69.1146"/>
</g>
<!-- RAD_L -->
<g id="node8" class="node">
<title>RAD_L</title>
<polygon fill="#d3d3d3" stroke="#000000" points="46,-210.2082 0,-210.2082 0,-192.2082 46,-192.2082 46,-210.2082"/>
<text text-anchor="middle" x="23" y="-199.0082" font-family="Times,serif" font-size="9.00" fill="#000000">RAD_L</text>
</g>
<!-- RAD_L&#45;&gt;73 -->
<g id="edge11" class="edge">
<title>RAD_L&#45;&gt;73</title>
<path fill="none" stroke="#ff0000" stroke-width=".4328" d="M25.0059,-192.1267C26.5383,-185.1884 28.7372,-175.2333 30.8346,-165.7372"/>
<polygon fill="#ff0000" stroke="#ff0000" stroke-width=".4328" points="34.2952,-166.2972 33.0344,-155.7777 27.4599,-164.7875 34.2952,-166.2972"/>
</g>
<!-- RAD_B -->
<g id="node9" class="node">
<title>RAD_B</title>
<polygon fill="#d3d3d3" stroke="#000000" points="285.5,-210.2082 238.5,-210.2082 238.5,-192.2082 285.5,-192.2082 285.5,-210.2082"/>
<text text-anchor="middle" x="262" y="-199.0082" font-family="Times,serif" font-size="9.00" fill="#000000">RAD_B</text>
</g>
<!-- RAD_R -->
<g id="node10" class="node">
<title>RAD_R</title>
<polygon fill="#d3d3d3" stroke="#000000" points="158.5,-146.8234 111.5,-146.8234 111.5,-128.8234 158.5,-128.8234 158.5,-146.8234"/>
<text text-anchor="middle" x="135" y="-135.6234" font-family="Times,serif" font-size="9.00" fill="#000000">RAD_R</text>
</g>
<!-- RAD_R&#45;&gt;ANG_VEL -->
<g id="edge4" class="edge">
<title>RAD_R&#45;&gt;ANG_VEL</title>
<path fill="none" stroke="#ff0000" stroke-width=".3968" d="M136.63,-128.6085C138.1414,-120.0646 140.5182,-106.6281 142.955,-92.8524"/>
<polygon fill="#ff0000" stroke="#ff0000" stroke-width=".3968" points="146.433,-93.2836 144.7284,-82.8267 139.54,-92.0642 146.433,-93.2836"/>
</g>
<!-- RAD_R&#45;&gt;VEL -->
<g id="edge2" class="edge">
<title>RAD_R&#45;&gt;VEL</title>
<path fill="none" stroke="#ff0000" stroke-width=".397" d="M146.6377,-128.6928C160.2485,-117.9735 183.4126,-99.6035 203,-83.4386 210.4673,-77.2761 218.4938,-70.5053 225.8453,-64.2441"/>
<polygon fill="#ff0000" stroke="#ff0000" stroke-width=".397" points="228.1709,-66.8606 233.4991,-57.703 223.6231,-61.5392 228.1709,-66.8606"/>
</g>
<!-- VEL&#45;&gt;VEL -->
<g id="edge3" class="edge">
<title>VEL&#45;&gt;VEL</title>
<path fill="none" stroke="#ff0000" stroke-width=".3891" d="M270.1497,-58.1329C282.2568,-62.753 294.0416,-57.2818 294.0416,-41.7193 294.0416,-30.6553 288.0852,-24.6918 280.2912,-23.8288"/>
<polygon fill="#ff0000" stroke="#ff0000" stroke-width=".3891" points="279.5409,-20.4011 270.1497,-25.3057 280.5497,-27.328 279.5409,-20.4011"/>
</g>
<!-- 73&#45;&gt;ANG_VEL -->
<g id="edge6" class="edge">
<title>73&#45;&gt;ANG_VEL</title>
<path fill="none" stroke="#ff0000" stroke-width=".29" d="M51.5648,-125.6517C66.6779,-113.0219 90.985,-92.7088 111.9008,-75.2297"/>
<polygon fill="#ff0000" stroke="#ff0000" stroke-width=".29" points="114.2957,-77.7896 119.7247,-68.6914 109.8069,-72.4183 114.2957,-77.7896"/>
</g>
</g>
</svg>
