<?xml version="1.0" encoding="utf-8" standalone="no"?>
<!DOCTYPE svg PUBLIC "-//W3C//DTD SVG 1.1//EN"
  "http://www.w3.org/Graphics/SVG/1.1/DTD/svg11.dtd">
<!-- Created with matplotlib (https://matplotlib.org/) -->
<svg height="345.6pt" version="1.1" viewBox="0 0 460.8 345.6" width="460.8pt" xmlns="http://www.w3.org/2000/svg" xmlns:xlink="http://www.w3.org/1999/xlink">
 <defs>
  <style type="text/css">
*{stroke-linecap:butt;stroke-linejoin:round;}
  </style>
 </defs>
 <g id="figure_1">
  <g id="patch_1">
   <path d="M 0 345.6 
L 460.8 345.6 
L 460.8 0 
L 0 0 
z
" style="fill:#ffffff;"/>
  </g>
  <g id="axes_1">
   <g id="patch_2">
    <path d="M 57.6 307.584 
L 414.72 307.584 
L 414.72 41.472 
L 57.6 41.472 
z
" style="fill:#ffffff;"/>
   </g>
   <g id="matplotlib.axis_1">
    <g id="xtick_1">
     <g id="line2d_1">
      <path clip-path="url(#p5cd30ec70a)" d="M 73.832727 307.584 
L 73.832727 41.472 
" style="fill:none;stroke:#b0b0b0;stroke-linecap:square;stroke-width:0.8;"/>
     </g>
     <g id="line2d_2">
      <defs>
       <path d="M 0 0 
L 0 3.5 
" id="mb258cb86f6" style="stroke:#000000;stroke-width:0.8;"/>
      </defs>
      <g>
       <use style="stroke:#000000;stroke-width:0.8;" x="73.832727" xlink:href="#mb258cb86f6" y="307.584"/>
      </g>
     </g>
     <g id="text_1">
      <!-- 0 -->
      <defs>
       <path d="M 31.78125 66.40625 
Q 24.171875 66.40625 20.328125 58.90625 
Q 16.5 51.421875 16.5 36.375 
Q 16.5 21.390625 20.328125 13.890625 
Q 24.171875 6.390625 31.78125 6.390625 
Q 39.453125 6.390625 43.28125 13.890625 
Q 47.125 21.390625 47.125 36.375 
Q 47.125 51.421875 43.28125 58.90625 
Q 39.453125 66.40625 31.78125 66.40625 
z
M 31.78125 74.21875 
Q 44.046875 74.21875 50.515625 64.515625 
Q 56.984375 54.828125 56.984375 36.375 
Q 56.984375 17.96875 50.515625 8.265625 
Q 44.046875 -1.421875 31.78125 -1.421875 
Q 19.53125 -1.421875 13.0625 8.265625 
Q 6.59375 17.96875 6.59375 36.375 
Q 6.59375 54.828125 13.0625 64.515625 
Q 19.53125 74.21875 31.78125 74.21875 
z
" id="DejaVuSans-48"/>
      </defs>
      <g transform="translate(70.651477 322.182437)scale(0.1 -0.1)">
       <use xlink:href="#DejaVuSans-48"/>
      </g>
     </g>
    </g>
    <g id="xtick_2">
     <g id="line2d_3">
      <path clip-path="url(#p5cd30ec70a)" d="M 114.516254 307.584 
L 114.516254 41.472 
" style="fill:none;stroke:#b0b0b0;stroke-linecap:square;stroke-width:0.8;"/>
     </g>
     <g id="line2d_4">
      <g>
       <use style="stroke:#000000;stroke-width:0.8;" x="114.516254" xlink:href="#mb258cb86f6" y="307.584"/>
      </g>
     </g>
     <g id="text_2">
      <!-- 50 -->
      <defs>
       <path d="M 10.796875 72.90625 
L 49.515625 72.90625 
L 49.515625 64.59375 
L 19.828125 64.59375 
L 19.828125 46.734375 
Q 21.96875 47.46875 24.109375 47.828125 
Q 26.265625 48.1875 28.421875 48.1875 
Q 40.625 48.1875 47.75 41.5 
Q 54.890625 34.8125 54.890625 23.390625 
Q 54.890625 11.625 47.5625 5.09375 
Q 40.234375 -1.421875 26.90625 -1.421875 
Q 22.3125 -1.421875 17.546875 -0.640625 
Q 12.796875 0.140625 7.71875 1.703125 
L 7.71875 11.625 
Q 12.109375 9.234375 16.796875 8.0625 
Q 21.484375 6.890625 26.703125 6.890625 
Q 35.15625 6.890625 40.078125 11.328125 
Q 45.015625 15.765625 45.015625 23.390625 
Q 45.015625 31 40.078125 35.4375 
Q 35.15625 39.890625 26.703125 39.890625 
Q 22.75 39.890625 18.8125 39.015625 
Q 14.890625 38.140625 10.796875 36.28125 
z
" id="DejaVuSans-53"/>
      </defs>
      <g transform="translate(108.153754 322.182437)scale(0.1 -0.1)">
       <use xlink:href="#DejaVuSans-53"/>
       <use x="63.623047" xlink:href="#DejaVuSans-48"/>
      </g>
     </g>
    </g>
    <g id="xtick_3">
     <g id="line2d_5">
      <path clip-path="url(#p5cd30ec70a)" d="M 155.199781 307.584 
L 155.199781 41.472 
" style="fill:none;stroke:#b0b0b0;stroke-linecap:square;stroke-width:0.8;"/>
     </g>
     <g id="line2d_6">
      <g>
       <use style="stroke:#000000;stroke-width:0.8;" x="155.199781" xlink:href="#mb258cb86f6" y="307.584"/>
      </g>
     </g>
     <g id="text_3">
      <!-- 100 -->
      <defs>
       <path d="M 12.40625 8.296875 
L 28.515625 8.296875 
L 28.515625 63.921875 
L 10.984375 60.40625 
L 10.984375 69.390625 
L 28.421875 72.90625 
L 38.28125 72.90625 
L 38.28125 8.296875 
L 54.390625 8.296875 
L 54.390625 0 
L 12.40625 0 
z
" id="DejaVuSans-49"/>
      </defs>
      <g transform="translate(145.656031 322.182437)scale(0.1 -0.1)">
       <use xlink:href="#DejaVuSans-49"/>
       <use x="63.623047" xlink:href="#DejaVuSans-48"/>
       <use x="127.246094" xlink:href="#DejaVuSans-48"/>
      </g>
     </g>
    </g>
    <g id="xtick_4">
     <g id="line2d_7">
      <path clip-path="url(#p5cd30ec70a)" d="M 195.883308 307.584 
L 195.883308 41.472 
" style="fill:none;stroke:#b0b0b0;stroke-linecap:square;stroke-width:0.8;"/>
     </g>
     <g id="line2d_8">
      <g>
       <use style="stroke:#000000;stroke-width:0.8;" x="195.883308" xlink:href="#mb258cb86f6" y="307.584"/>
      </g>
     </g>
     <g id="text_4">
      <!-- 150 -->
      <g transform="translate(186.339558 322.182437)scale(0.1 -0.1)">
       <use xlink:href="#DejaVuSans-49"/>
       <use x="63.623047" xlink:href="#DejaVuSans-53"/>
       <use x="127.246094" xlink:href="#DejaVuSans-48"/>
      </g>
     </g>
    </g>
    <g id="xtick_5">
     <g id="line2d_9">
      <path clip-path="url(#p5cd30ec70a)" d="M 236.566835 307.584 
L 236.566835 41.472 
" style="fill:none;stroke:#b0b0b0;stroke-linecap:square;stroke-width:0.8;"/>
     </g>
     <g id="line2d_10">
      <g>
       <use style="stroke:#000000;stroke-width:0.8;" x="236.566835" xlink:href="#mb258cb86f6" y="307.584"/>
      </g>
     </g>
     <g id="text_5">
      <!-- 200 -->
      <defs>
       <path d="M 19.1875 8.296875 
L 53.609375 8.296875 
L 53.609375 0 
L 7.328125 0 
L 7.328125 8.296875 
Q 12.9375 14.109375 22.625 23.890625 
Q 32.328125 33.6875 34.8125 36.53125 
Q 39.546875 41.84375 41.421875 45.53125 
Q 43.3125 49.21875 43.3125 52.78125 
Q 43.3125 58.59375 39.234375 62.25 
Q 35.15625 65.921875 28.609375 65.921875 
Q 23.96875 65.921875 18.8125 64.3125 
Q 13.671875 62.703125 7.8125 59.421875 
L 7.8125 69.390625 
Q 13.765625 71.78125 18.9375 73 
Q 24.125 74.21875 28.421875 74.21875 
Q 39.75 74.21875 46.484375 68.546875 
Q 53.21875 62.890625 53.21875 53.421875 
Q 53.21875 48.921875 51.53125 44.890625 
Q 49.859375 40.875 45.40625 35.40625 
Q 44.1875 33.984375 37.640625 27.21875 
Q 31.109375 20.453125 19.1875 8.296875 
z
" id="DejaVuSans-50"/>
      </defs>
      <g transform="translate(227.023085 322.182437)scale(0.1 -0.1)">
       <use xlink:href="#DejaVuSans-50"/>
       <use x="63.623047" xlink:href="#DejaVuSans-48"/>
       <use x="127.246094" xlink:href="#DejaVuSans-48"/>
      </g>
     </g>
    </g>
    <g id="xtick_6">
     <g id="line2d_11">
      <path clip-path="url(#p5cd30ec70a)" d="M 277.250362 307.584 
L 277.250362 41.472 
" style="fill:none;stroke:#b0b0b0;stroke-linecap:square;stroke-width:0.8;"/>
     </g>
     <g id="line2d_12">
      <g>
       <use style="stroke:#000000;stroke-width:0.8;" x="277.250362" xlink:href="#mb258cb86f6" y="307.584"/>
      </g>
     </g>
     <g id="text_6">
      <!-- 250 -->
      <g transform="translate(267.706612 322.182437)scale(0.1 -0.1)">
       <use xlink:href="#DejaVuSans-50"/>
       <use x="63.623047" xlink:href="#DejaVuSans-53"/>
       <use x="127.246094" xlink:href="#DejaVuSans-48"/>
      </g>
     </g>
    </g>
    <g id="xtick_7">
     <g id="line2d_13">
      <path clip-path="url(#p5cd30ec70a)" d="M 317.933889 307.584 
L 317.933889 41.472 
" style="fill:none;stroke:#b0b0b0;stroke-linecap:square;stroke-width:0.8;"/>
     </g>
     <g id="line2d_14">
      <g>
       <use style="stroke:#000000;stroke-width:0.8;" x="317.933889" xlink:href="#mb258cb86f6" y="307.584"/>
      </g>
     </g>
     <g id="text_7">
      <!-- 300 -->
      <defs>
       <path d="M 40.578125 39.3125 
Q 47.65625 37.796875 51.625 33 
Q 55.609375 28.21875 55.609375 21.1875 
Q 55.609375 10.40625 48.1875 4.484375 
Q 40.765625 -1.421875 27.09375 -1.421875 
Q 22.515625 -1.421875 17.65625 -0.515625 
Q 12.796875 0.390625 7.625 2.203125 
L 7.625 11.71875 
Q 11.71875 9.328125 16.59375 8.109375 
Q 21.484375 6.890625 26.8125 6.890625 
Q 36.078125 6.890625 40.9375 10.546875 
Q 45.796875 14.203125 45.796875 21.1875 
Q 45.796875 27.640625 41.28125 31.265625 
Q 36.765625 34.90625 28.71875 34.90625 
L 20.21875 34.90625 
L 20.21875 43.015625 
L 29.109375 43.015625 
Q 36.375 43.015625 40.234375 45.921875 
Q 44.09375 48.828125 44.09375 54.296875 
Q 44.09375 59.90625 40.109375 62.90625 
Q 36.140625 65.921875 28.71875 65.921875 
Q 24.65625 65.921875 20.015625 65.03125 
Q 15.375 64.15625 9.8125 62.3125 
L 9.8125 71.09375 
Q 15.4375 72.65625 20.34375 73.4375 
Q 25.25 74.21875 29.59375 74.21875 
Q 40.828125 74.21875 47.359375 69.109375 
Q 53.90625 64.015625 53.90625 55.328125 
Q 53.90625 49.265625 50.4375 45.09375 
Q 46.96875 40.921875 40.578125 39.3125 
z
" id="DejaVuSans-51"/>
      </defs>
      <g transform="translate(308.390139 322.182437)scale(0.1 -0.1)">
       <use xlink:href="#DejaVuSans-51"/>
       <use x="63.623047" xlink:href="#DejaVuSans-48"/>
       <use x="127.246094" xlink:href="#DejaVuSans-48"/>
      </g>
     </g>
    </g>
    <g id="xtick_8">
     <g id="line2d_15">
      <path clip-path="url(#p5cd30ec70a)" d="M 358.617416 307.584 
L 358.617416 41.472 
" style="fill:none;stroke:#b0b0b0;stroke-linecap:square;stroke-width:0.8;"/>
     </g>
     <g id="line2d_16">
      <g>
       <use style="stroke:#000000;stroke-width:0.8;" x="358.617416" xlink:href="#mb258cb86f6" y="307.584"/>
      </g>
     </g>
     <g id="text_8">
      <!-- 350 -->
      <g transform="translate(349.073666 322.182437)scale(0.1 -0.1)">
       <use xlink:href="#DejaVuSans-51"/>
       <use x="63.623047" xlink:href="#DejaVuSans-53"/>
       <use x="127.246094" xlink:href="#DejaVuSans-48"/>
      </g>
     </g>
    </g>
    <g id="xtick_9">
     <g id="line2d_17">
      <path clip-path="url(#p5cd30ec70a)" d="M 399.300943 307.584 
L 399.300943 41.472 
" style="fill:none;stroke:#b0b0b0;stroke-linecap:square;stroke-width:0.8;"/>
     </g>
     <g id="line2d_18">
      <g>
       <use style="stroke:#000000;stroke-width:0.8;" x="399.300943" xlink:href="#mb258cb86f6" y="307.584"/>
      </g>
     </g>
     <g id="text_9">
      <!-- 400 -->
      <defs>
       <path d="M 37.796875 64.3125 
L 12.890625 25.390625 
L 37.796875 25.390625 
z
M 35.203125 72.90625 
L 47.609375 72.90625 
L 47.609375 25.390625 
L 58.015625 25.390625 
L 58.015625 17.1875 
L 47.609375 17.1875 
L 47.609375 0 
L 37.796875 0 
L 37.796875 17.1875 
L 4.890625 17.1875 
L 4.890625 26.703125 
z
" id="DejaVuSans-52"/>
      </defs>
      <g transform="translate(389.757193 322.182437)scale(0.1 -0.1)">
       <use xlink:href="#DejaVuSans-52"/>
       <use x="63.623047" xlink:href="#DejaVuSans-48"/>
       <use x="127.246094" xlink:href="#DejaVuSans-48"/>
      </g>
     </g>
    </g>
    <g id="text_10">
     <!-- Generations -->
     <defs>
      <path d="M 59.515625 10.40625 
L 59.515625 29.984375 
L 43.40625 29.984375 
L 43.40625 38.09375 
L 69.28125 38.09375 
L 69.28125 6.78125 
Q 63.578125 2.734375 56.6875 0.65625 
Q 49.8125 -1.421875 42 -1.421875 
Q 24.90625 -1.421875 15.25 8.5625 
Q 5.609375 18.5625 5.609375 36.375 
Q 5.609375 54.25 15.25 64.234375 
Q 24.90625 74.21875 42 74.21875 
Q 49.125 74.21875 55.546875 72.453125 
Q 61.96875 70.703125 67.390625 67.28125 
L 67.390625 56.78125 
Q 61.921875 61.421875 55.765625 63.765625 
Q 49.609375 66.109375 42.828125 66.109375 
Q 29.4375 66.109375 22.71875 58.640625 
Q 16.015625 51.171875 16.015625 36.375 
Q 16.015625 21.625 22.71875 14.15625 
Q 29.4375 6.6875 42.828125 6.6875 
Q 48.046875 6.6875 52.140625 7.59375 
Q 56.25 8.5 59.515625 10.40625 
z
" id="DejaVuSans-71"/>
      <path d="M 56.203125 29.59375 
L 56.203125 25.203125 
L 14.890625 25.203125 
Q 15.484375 15.921875 20.484375 11.0625 
Q 25.484375 6.203125 34.421875 6.203125 
Q 39.59375 6.203125 44.453125 7.46875 
Q 49.3125 8.734375 54.109375 11.28125 
L 54.109375 2.78125 
Q 49.265625 0.734375 44.1875 -0.34375 
Q 39.109375 -1.421875 33.890625 -1.421875 
Q 20.796875 -1.421875 13.15625 6.1875 
Q 5.515625 13.8125 5.515625 26.8125 
Q 5.515625 40.234375 12.765625 48.109375 
Q 20.015625 56 32.328125 56 
Q 43.359375 56 49.78125 48.890625 
Q 56.203125 41.796875 56.203125 29.59375 
z
M 47.21875 32.234375 
Q 47.125 39.59375 43.09375 43.984375 
Q 39.0625 48.390625 32.421875 48.390625 
Q 24.90625 48.390625 20.390625 44.140625 
Q 15.875 39.890625 15.1875 32.171875 
z
" id="DejaVuSans-101"/>
      <path d="M 54.890625 33.015625 
L 54.890625 0 
L 45.90625 0 
L 45.90625 32.71875 
Q 45.90625 40.484375 42.875 44.328125 
Q 39.84375 48.1875 33.796875 48.1875 
Q 26.515625 48.1875 22.3125 43.546875 
Q 18.109375 38.921875 18.109375 30.90625 
L 18.109375 0 
L 9.078125 0 
L 9.078125 54.6875 
L 18.109375 54.6875 
L 18.109375 46.1875 
Q 21.34375 51.125 25.703125 53.5625 
Q 30.078125 56 35.796875 56 
Q 45.21875 56 50.046875 50.171875 
Q 54.890625 44.34375 54.890625 33.015625 
z
" id="DejaVuSans-110"/>
      <path d="M 41.109375 46.296875 
Q 39.59375 47.171875 37.8125 47.578125 
Q 36.03125 48 33.890625 48 
Q 26.265625 48 22.1875 43.046875 
Q 18.109375 38.09375 18.109375 28.8125 
L 18.109375 0 
L 9.078125 0 
L 9.078125 54.6875 
L 18.109375 54.6875 
L 18.109375 46.1875 
Q 20.953125 51.171875 25.484375 53.578125 
Q 30.03125 56 36.53125 56 
Q 37.453125 56 38.578125 55.875 
Q 39.703125 55.765625 41.0625 55.515625 
z
" id="DejaVuSans-114"/>
      <path d="M 34.28125 27.484375 
Q 23.390625 27.484375 19.1875 25 
Q 14.984375 22.515625 14.984375 16.5 
Q 14.984375 11.71875 18.140625 8.90625 
Q 21.296875 6.109375 26.703125 6.109375 
Q 34.1875 6.109375 38.703125 11.40625 
Q 43.21875 16.703125 43.21875 25.484375 
L 43.21875 27.484375 
z
M 52.203125 31.203125 
L 52.203125 0 
L 43.21875 0 
L 43.21875 8.296875 
Q 40.140625 3.328125 35.546875 0.953125 
Q 30.953125 -1.421875 24.3125 -1.421875 
Q 15.921875 -1.421875 10.953125 3.296875 
Q 6 8.015625 6 15.921875 
Q 6 25.140625 12.171875 29.828125 
Q 18.359375 34.515625 30.609375 34.515625 
L 43.21875 34.515625 
L 43.21875 35.40625 
Q 43.21875 41.609375 39.140625 45 
Q 35.0625 48.390625 27.6875 48.390625 
Q 23 48.390625 18.546875 47.265625 
Q 14.109375 46.140625 10.015625 43.890625 
L 10.015625 52.203125 
Q 14.9375 54.109375 19.578125 55.046875 
Q 24.21875 56 28.609375 56 
Q 40.484375 56 46.34375 49.84375 
Q 52.203125 43.703125 52.203125 31.203125 
z
" id="DejaVuSans-97"/>
      <path d="M 18.3125 70.21875 
L 18.3125 54.6875 
L 36.8125 54.6875 
L 36.8125 47.703125 
L 18.3125 47.703125 
L 18.3125 18.015625 
Q 18.3125 11.328125 20.140625 9.421875 
Q 21.96875 7.515625 27.59375 7.515625 
L 36.8125 7.515625 
L 36.8125 0 
L 27.59375 0 
Q 17.1875 0 13.234375 3.875 
Q 9.28125 7.765625 9.28125 18.015625 
L 9.28125 47.703125 
L 2.6875 47.703125 
L 2.6875 54.6875 
L 9.28125 54.6875 
L 9.28125 70.21875 
z
" id="DejaVuSans-116"/>
      <path d="M 9.421875 54.6875 
L 18.40625 54.6875 
L 18.40625 0 
L 9.421875 0 
z
M 9.421875 75.984375 
L 18.40625 75.984375 
L 18.40625 64.59375 
L 9.421875 64.59375 
z
" id="DejaVuSans-105"/>
      <path d="M 30.609375 48.390625 
Q 23.390625 48.390625 19.1875 42.75 
Q 14.984375 37.109375 14.984375 27.296875 
Q 14.984375 17.484375 19.15625 11.84375 
Q 23.34375 6.203125 30.609375 6.203125 
Q 37.796875 6.203125 41.984375 11.859375 
Q 46.1875 17.53125 46.1875 27.296875 
Q 46.1875 37.015625 41.984375 42.703125 
Q 37.796875 48.390625 30.609375 48.390625 
z
M 30.609375 56 
Q 42.328125 56 49.015625 48.375 
Q 55.71875 40.765625 55.71875 27.296875 
Q 55.71875 13.875 49.015625 6.21875 
Q 42.328125 -1.421875 30.609375 -1.421875 
Q 18.84375 -1.421875 12.171875 6.21875 
Q 5.515625 13.875 5.515625 27.296875 
Q 5.515625 40.765625 12.171875 48.375 
Q 18.84375 56 30.609375 56 
z
" id="DejaVuSans-111"/>
      <path d="M 44.28125 53.078125 
L 44.28125 44.578125 
Q 40.484375 46.53125 36.375 47.5 
Q 32.28125 48.484375 27.875 48.484375 
Q 21.1875 48.484375 17.84375 46.4375 
Q 14.5 44.390625 14.5 40.28125 
Q 14.5 37.15625 16.890625 35.375 
Q 19.28125 33.59375 26.515625 31.984375 
L 29.59375 31.296875 
Q 39.15625 29.25 43.1875 25.515625 
Q 47.21875 21.78125 47.21875 15.09375 
Q 47.21875 7.46875 41.1875 3.015625 
Q 35.15625 -1.421875 24.609375 -1.421875 
Q 20.21875 -1.421875 15.453125 -0.5625 
Q 10.6875 0.296875 5.421875 2 
L 5.421875 11.28125 
Q 10.40625 8.6875 15.234375 7.390625 
Q 20.0625 6.109375 24.8125 6.109375 
Q 31.15625 6.109375 34.5625 8.28125 
Q 37.984375 10.453125 37.984375 14.40625 
Q 37.984375 18.0625 35.515625 20.015625 
Q 33.0625 21.96875 24.703125 23.78125 
L 21.578125 24.515625 
Q 13.234375 26.265625 9.515625 29.90625 
Q 5.8125 33.546875 5.8125 39.890625 
Q 5.8125 47.609375 11.28125 51.796875 
Q 16.75 56 26.8125 56 
Q 31.78125 56 36.171875 55.265625 
Q 40.578125 54.546875 44.28125 53.078125 
z
" id="DejaVuSans-115"/>
     </defs>
     <g transform="translate(205.662344 335.860562)scale(0.1 -0.1)">
      <use xlink:href="#DejaVuSans-71"/>
      <use x="77.490234" xlink:href="#DejaVuSans-101"/>
      <use x="139.013672" xlink:href="#DejaVuSans-110"/>
      <use x="202.392578" xlink:href="#DejaVuSans-101"/>
      <use x="263.916016" xlink:href="#DejaVuSans-114"/>
      <use x="305.029297" xlink:href="#DejaVuSans-97"/>
      <use x="366.308594" xlink:href="#DejaVuSans-116"/>
      <use x="405.517578" xlink:href="#DejaVuSans-105"/>
      <use x="433.300781" xlink:href="#DejaVuSans-111"/>
      <use x="494.482422" xlink:href="#DejaVuSans-110"/>
      <use x="557.861328" xlink:href="#DejaVuSans-115"/>
     </g>
    </g>
   </g>
   <g id="matplotlib.axis_2">
    <g id="ytick_1">
     <g id="line2d_19">
      <path clip-path="url(#p5cd30ec70a)" d="M 57.6 286.590883 
L 414.72 286.590883 
" style="fill:none;stroke:#b0b0b0;stroke-linecap:square;stroke-width:0.8;"/>
     </g>
     <g id="line2d_20">
      <defs>
       <path d="M 0 0 
L -3.5 0 
" id="mee324a25d2" style="stroke:#000000;stroke-width:0.8;"/>
      </defs>
      <g>
       <use style="stroke:#000000;stroke-width:0.8;" x="57.6" xlink:href="#mee324a25d2" y="286.590883"/>
      </g>
     </g>
     <g id="text_11">
      <!-- 0.0 -->
      <defs>
       <path d="M 10.6875 12.40625 
L 21 12.40625 
L 21 0 
L 10.6875 0 
z
" id="DejaVuSans-46"/>
      </defs>
      <g transform="translate(34.696875 290.390102)scale(0.1 -0.1)">
       <use xlink:href="#DejaVuSans-48"/>
       <use x="63.623047" xlink:href="#DejaVuSans-46"/>
       <use x="95.410156" xlink:href="#DejaVuSans-48"/>
      </g>
     </g>
    </g>
    <g id="ytick_2">
     <g id="line2d_21">
      <path clip-path="url(#p5cd30ec70a)" d="M 57.6 228.765966 
L 414.72 228.765966 
" style="fill:none;stroke:#b0b0b0;stroke-linecap:square;stroke-width:0.8;"/>
     </g>
     <g id="line2d_22">
      <g>
       <use style="stroke:#000000;stroke-width:0.8;" x="57.6" xlink:href="#mee324a25d2" y="228.765966"/>
      </g>
     </g>
     <g id="text_12">
      <!-- 0.2 -->
      <g transform="translate(34.696875 232.565185)scale(0.1 -0.1)">
       <use xlink:href="#DejaVuSans-48"/>
       <use x="63.623047" xlink:href="#DejaVuSans-46"/>
       <use x="95.410156" xlink:href="#DejaVuSans-50"/>
      </g>
     </g>
    </g>
    <g id="ytick_3">
     <g id="line2d_23">
      <path clip-path="url(#p5cd30ec70a)" d="M 57.6 170.94105 
L 414.72 170.94105 
" style="fill:none;stroke:#b0b0b0;stroke-linecap:square;stroke-width:0.8;"/>
     </g>
     <g id="line2d_24">
      <g>
       <use style="stroke:#000000;stroke-width:0.8;" x="57.6" xlink:href="#mee324a25d2" y="170.94105"/>
      </g>
     </g>
     <g id="text_13">
      <!-- 0.4 -->
      <g transform="translate(34.696875 174.740269)scale(0.1 -0.1)">
       <use xlink:href="#DejaVuSans-48"/>
       <use x="63.623047" xlink:href="#DejaVuSans-46"/>
       <use x="95.410156" xlink:href="#DejaVuSans-52"/>
      </g>
     </g>
    </g>
    <g id="ytick_4">
     <g id="line2d_25">
      <path clip-path="url(#p5cd30ec70a)" d="M 57.6 113.116133 
L 414.72 113.116133 
" style="fill:none;stroke:#b0b0b0;stroke-linecap:square;stroke-width:0.8;"/>
     </g>
     <g id="line2d_26">
      <g>
       <use style="stroke:#000000;stroke-width:0.8;" x="57.6" xlink:href="#mee324a25d2" y="113.116133"/>
      </g>
     </g>
     <g id="text_14">
      <!-- 0.6 -->
      <defs>
       <path d="M 33.015625 40.375 
Q 26.375 40.375 22.484375 35.828125 
Q 18.609375 31.296875 18.609375 23.390625 
Q 18.609375 15.53125 22.484375 10.953125 
Q 26.375 6.390625 33.015625 6.390625 
Q 39.65625 6.390625 43.53125 10.953125 
Q 47.40625 15.53125 47.40625 23.390625 
Q 47.40625 31.296875 43.53125 35.828125 
Q 39.65625 40.375 33.015625 40.375 
z
M 52.59375 71.296875 
L 52.59375 62.3125 
Q 48.875 64.0625 45.09375 64.984375 
Q 41.3125 65.921875 37.59375 65.921875 
Q 27.828125 65.921875 22.671875 59.328125 
Q 17.53125 52.734375 16.796875 39.40625 
Q 19.671875 43.65625 24.015625 45.921875 
Q 28.375 48.1875 33.59375 48.1875 
Q 44.578125 48.1875 50.953125 41.515625 
Q 57.328125 34.859375 57.328125 23.390625 
Q 57.328125 12.15625 50.6875 5.359375 
Q 44.046875 -1.421875 33.015625 -1.421875 
Q 20.359375 -1.421875 13.671875 8.265625 
Q 6.984375 17.96875 6.984375 36.375 
Q 6.984375 53.65625 15.1875 63.9375 
Q 23.390625 74.21875 37.203125 74.21875 
Q 40.921875 74.21875 44.703125 73.484375 
Q 48.484375 72.75 52.59375 71.296875 
z
" id="DejaVuSans-54"/>
      </defs>
      <g transform="translate(34.696875 116.915352)scale(0.1 -0.1)">
       <use xlink:href="#DejaVuSans-48"/>
       <use x="63.623047" xlink:href="#DejaVuSans-46"/>
       <use x="95.410156" xlink:href="#DejaVuSans-54"/>
      </g>
     </g>
    </g>
    <g id="ytick_5">
     <g id="line2d_27">
      <path clip-path="url(#p5cd30ec70a)" d="M 57.6 55.291217 
L 414.72 55.291217 
" style="fill:none;stroke:#b0b0b0;stroke-linecap:square;stroke-width:0.8;"/>
     </g>
     <g id="line2d_28">
      <g>
       <use style="stroke:#000000;stroke-width:0.8;" x="57.6" xlink:href="#mee324a25d2" y="55.291217"/>
      </g>
     </g>
     <g id="text_15">
      <!-- 0.8 -->
      <defs>
       <path d="M 31.78125 34.625 
Q 24.75 34.625 20.71875 30.859375 
Q 16.703125 27.09375 16.703125 20.515625 
Q 16.703125 13.921875 20.71875 10.15625 
Q 24.75 6.390625 31.78125 6.390625 
Q 38.8125 6.390625 42.859375 10.171875 
Q 46.921875 13.96875 46.921875 20.515625 
Q 46.921875 27.09375 42.890625 30.859375 
Q 38.875 34.625 31.78125 34.625 
z
M 21.921875 38.8125 
Q 15.578125 40.375 12.03125 44.71875 
Q 8.5 49.078125 8.5 55.328125 
Q 8.5 64.0625 14.71875 69.140625 
Q 20.953125 74.21875 31.78125 74.21875 
Q 42.671875 74.21875 48.875 69.140625 
Q 55.078125 64.0625 55.078125 55.328125 
Q 55.078125 49.078125 51.53125 44.71875 
Q 48 40.375 41.703125 38.8125 
Q 48.828125 37.15625 52.796875 32.3125 
Q 56.78125 27.484375 56.78125 20.515625 
Q 56.78125 9.90625 50.3125 4.234375 
Q 43.84375 -1.421875 31.78125 -1.421875 
Q 19.734375 -1.421875 13.25 4.234375 
Q 6.78125 9.90625 6.78125 20.515625 
Q 6.78125 27.484375 10.78125 32.3125 
Q 14.796875 37.15625 21.921875 38.8125 
z
M 18.3125 54.390625 
Q 18.3125 48.734375 21.84375 45.5625 
Q 25.390625 42.390625 31.78125 42.390625 
Q 38.140625 42.390625 41.71875 45.5625 
Q 45.3125 48.734375 45.3125 54.390625 
Q 45.3125 60.0625 41.71875 63.234375 
Q 38.140625 66.40625 31.78125 66.40625 
Q 25.390625 66.40625 21.84375 63.234375 
Q 18.3125 60.0625 18.3125 54.390625 
z
" id="DejaVuSans-56"/>
      </defs>
      <g transform="translate(34.696875 59.090436)scale(0.1 -0.1)">
       <use xlink:href="#DejaVuSans-48"/>
       <use x="63.623047" xlink:href="#DejaVuSans-46"/>
       <use x="95.410156" xlink:href="#DejaVuSans-56"/>
      </g>
     </g>
    </g>
    <g id="text_16">
     <!-- Fitness -->
     <defs>
      <path d="M 9.8125 72.90625 
L 51.703125 72.90625 
L 51.703125 64.59375 
L 19.671875 64.59375 
L 19.671875 43.109375 
L 48.578125 43.109375 
L 48.578125 34.8125 
L 19.671875 34.8125 
L 19.671875 0 
L 9.8125 0 
z
" id="DejaVuSans-70"/>
     </defs>
     <g transform="translate(28.617187 192.202219)rotate(-90)scale(0.1 -0.1)">
      <use xlink:href="#DejaVuSans-70"/>
      <use x="57.410156" xlink:href="#DejaVuSans-105"/>
      <use x="85.193359" xlink:href="#DejaVuSans-116"/>
      <use x="124.402344" xlink:href="#DejaVuSans-110"/>
      <use x="187.78125" xlink:href="#DejaVuSans-101"/>
      <use x="249.304688" xlink:href="#DejaVuSans-115"/>
      <use x="301.404297" xlink:href="#DejaVuSans-115"/>
     </g>
    </g>
   </g>
   <g id="line2d_29">
    <path clip-path="url(#p5cd30ec70a)" d="M 73.832727 250.591942 
L 74.646398 240.52506 
L 75.460068 236.214516 
L 76.273739 237.707366 
L 77.087409 234.609778 
L 77.90108 229.2866 
L 78.714751 228.169304 
L 79.528421 225.548079 
L 80.342092 226.890075 
L 81.155762 222.75864 
L 81.969433 226.90188 
L 82.783103 230.397785 
L 83.596774 232.311709 
L 84.410444 231.509904 
L 85.224115 228.374339 
L 86.037785 222.652989 
L 86.851456 221.669598 
L 87.665126 219.136079 
L 88.478797 214.975044 
L 89.292468 224.548385 
L 90.919809 205.630152 
L 91.733479 216.997121 
L 92.54715 218.120575 
L 93.36082 203.519487 
L 94.988161 184.461592 
L 95.801832 196.616096 
L 96.615502 181.554494 
L 97.429173 196.520507 
L 98.242843 194.466849 
L 99.056514 187.476725 
L 99.870185 189.445429 
L 100.683855 192.442046 
L 101.497526 190.844099 
L 102.311196 195.127575 
L 103.124867 191.316159 
L 103.938537 192.197859 
L 104.752208 184.53243 
L 105.565878 178.836287 
L 106.379549 187.353507 
L 107.193219 191.908232 
L 108.00689 188.657193 
L 109.634231 195.889509 
L 110.447902 188.2891 
L 111.261572 189.687949 
L 112.075243 184.497466 
L 112.888913 188.689229 
L 113.702584 180.296947 
L 115.329925 194.703993 
L 116.143595 185.431948 
L 116.957266 174.123046 
L 117.770936 186.423385 
L 118.584607 186.363573 
L 119.398278 187.296532 
L 120.211948 187.991538 
L 121.025619 187.804249 
L 121.839289 187.278448 
L 122.65296 188.935541 
L 123.46663 190.8486 
L 124.280301 185.293628 
L 125.093971 194.064868 
L 125.907642 184.558678 
L 126.721312 195.731883 
L 127.534983 177.7521 
L 128.348653 178.976556 
L 129.162324 169.753281 
L 129.975995 170.484994 
L 130.789665 173.83674 
L 131.603336 159.667513 
L 132.417006 161.394444 
L 133.230677 175.308353 
L 134.044347 174.321615 
L 134.858018 163.121228 
L 135.671688 171.514222 
L 136.485359 171.417456 
L 137.299029 169.927944 
L 138.1127 153.717657 
L 138.92637 172.522125 
L 139.740041 172.564583 
L 140.553712 168.297893 
L 141.367382 168.099245 
L 142.181053 162.800724 
L 142.994723 176.934709 
L 143.808394 154.641163 
L 145.435735 169.859475 
L 146.249405 165.229877 
L 147.876746 150.657861 
L 148.690417 162.014154 
L 149.504087 154.589608 
L 150.317758 161.530736 
L 151.131429 175.054302 
L 151.945099 158.469488 
L 152.75877 159.393702 
L 153.57244 169.338942 
L 154.386111 158.768527 
L 155.199781 169.846154 
L 156.013452 171.062997 
L 156.827122 167.129005 
L 157.640793 173.928576 
L 158.454463 163.219491 
L 159.268134 175.509469 
L 160.081805 175.335563 
L 160.895475 162.306539 
L 161.709146 169.515938 
L 162.522816 160.325998 
L 163.336487 157.110714 
L 164.150157 166.876779 
L 164.963828 158.963586 
L 165.777498 157.732265 
L 166.591169 153.083598 
L 167.404839 150.876537 
L 168.21851 169.569496 
L 169.03218 165.195402 
L 169.845851 155.54749 
L 170.659522 165.445425 
L 171.473192 166.306584 
L 172.286863 151.706098 
L 173.100533 161.458571 
L 173.914204 162.511038 
L 174.727874 168.638408 
L 176.355215 160.745746 
L 177.168886 164.155063 
L 177.982556 163.656802 
L 178.796227 164.983424 
L 179.609897 175.317262 
L 180.423568 171.27897 
L 181.237239 168.074339 
L 182.050909 163.705742 
L 182.86458 173.358609 
L 183.67825 154.578137 
L 184.491921 164.909318 
L 185.305591 156.229064 
L 186.119262 157.867102 
L 186.932932 156.943483 
L 187.746603 157.205322 
L 188.560273 164.596659 
L 189.373944 163.855706 
L 190.187614 163.474995 
L 191.001285 154.04744 
L 191.814956 161.021791 
L 192.628626 170.878007 
L 193.442297 155.048535 
L 194.255967 169.435102 
L 195.069638 158.14121 
L 195.883308 159.805325 
L 196.696979 174.396163 
L 197.510649 160.970039 
L 198.32432 163.229061 
L 199.13799 166.156537 
L 199.951661 163.651093 
L 200.765332 151.851915 
L 201.579002 151.503306 
L 202.392673 167.333774 
L 203.206343 170.701907 
L 204.020014 163.134045 
L 204.833684 156.78161 
L 205.647355 168.212705 
L 206.461025 152.327656 
L 207.274696 172.553133 
L 208.088366 173.367866 
L 208.902037 152.86629 
L 209.715707 160.409725 
L 210.529378 170.562073 
L 211.343049 166.029345 
L 212.156719 175.042563 
L 212.97039 167.464253 
L 213.78406 171.073846 
L 214.597731 169.75676 
L 215.411401 168.694658 
L 216.225072 170.171879 
L 217.038742 162.245523 
L 217.852413 164.194495 
L 218.666083 158.749276 
L 219.479754 154.571522 
L 220.293424 164.513295 
L 221.107095 155.158548 
L 221.920766 152.472467 
L 222.734436 158.705611 
L 223.548107 156.967237 
L 224.361777 160.05669 
L 225.175448 165.74866 
L 225.989118 167.841861 
L 226.802789 163.106015 
L 227.616459 164.635657 
L 228.43013 167.570816 
L 229.2438 164.932782 
L 230.057471 160.340441 
L 230.871141 154.979849 
L 232.498483 168.169695 
L 233.312153 163.611344 
L 234.125824 160.317482 
L 234.939494 154.480039 
L 235.753165 166.022736 
L 236.566835 164.44684 
L 238.194176 160.334716 
L 239.007847 158.818927 
L 239.821517 161.082755 
L 240.635188 170.907859 
L 241.448859 169.12376 
L 242.262529 169.854898 
L 243.0762 155.819563 
L 243.88987 153.536833 
L 244.703541 161.110598 
L 245.517211 167.485606 
L 246.330882 155.916917 
L 247.144552 170.762811 
L 247.958223 160.531719 
L 248.771893 169.684096 
L 249.585564 159.783012 
L 250.399234 170.540479 
L 251.212905 166.869134 
L 252.840246 153.435671 
L 253.653917 165.973617 
L 254.467587 173.288396 
L 255.281258 157.61673 
L 256.094928 167.366256 
L 256.908599 158.909112 
L 257.722269 162.136429 
L 258.53594 163.943671 
L 259.34961 162.195006 
L 260.163281 161.115452 
L 260.976951 177.184662 
L 261.790622 160.494355 
L 262.604293 159.117656 
L 263.417963 168.166259 
L 264.231634 163.890779 
L 265.045304 149.048544 
L 265.858975 151.139236 
L 266.672645 164.365089 
L 267.486316 170.789697 
L 268.299986 167.771465 
L 269.113657 165.287279 
L 269.927327 166.946276 
L 270.740998 170.927391 
L 271.554668 164.879451 
L 272.368339 168.196826 
L 273.18201 165.545661 
L 273.99568 152.081904 
L 274.809351 161.67557 
L 275.623021 173.523273 
L 276.436692 171.713513 
L 277.250362 153.682631 
L 278.064033 167.570586 
L 278.877703 174.745638 
L 279.691374 165.323347 
L 280.505044 172.74486 
L 281.318715 175.421815 
L 282.132386 152.95292 
L 282.946056 161.884914 
L 283.759727 164.07083 
L 284.573397 176.816276 
L 285.387068 171.011226 
L 286.200738 168.212862 
L 287.014409 168.168985 
L 287.828079 160.637562 
L 288.64175 160.218227 
L 289.45542 163.403314 
L 290.269091 162.306527 
L 291.082761 151.097355 
L 291.896432 158.809247 
L 292.710103 163.915607 
L 293.523773 161.759233 
L 294.337444 158.172816 
L 295.151114 159.660081 
L 295.964785 158.653121 
L 296.778455 159.74351 
L 297.592126 155.751336 
L 298.405796 152.742158 
L 299.219467 145.631135 
L 300.033137 161.930836 
L 300.846808 154.457148 
L 301.660478 164.06286 
L 302.474149 155.749555 
L 303.28782 163.546815 
L 304.10149 150.538818 
L 304.915161 166.625345 
L 305.728831 157.36287 
L 306.542502 157.895722 
L 307.356172 152.450061 
L 308.169843 166.694569 
L 308.983513 167.56701 
L 309.797184 163.460193 
L 310.610854 163.046468 
L 311.424525 171.817019 
L 312.238195 174.544814 
L 313.865537 158.95929 
L 314.679207 170.517106 
L 315.492878 167.993799 
L 316.306548 168.057369 
L 317.120219 166.13976 
L 317.933889 157.369227 
L 318.74756 164.093338 
L 319.56123 160.183845 
L 320.374901 166.891232 
L 321.188571 166.340004 
L 322.002242 157.64961 
L 322.815913 152.912281 
L 324.443254 161.848676 
L 325.256924 158.787153 
L 326.070595 170.485535 
L 326.884265 169.046115 
L 327.697936 162.433967 
L 328.511606 170.852932 
L 329.325277 175.611951 
L 330.138947 160.566266 
L 330.952618 169.435927 
L 331.766288 165.9454 
L 332.579959 168.858001 
L 333.39363 164.981574 
L 334.2073 169.770647 
L 335.020971 164.636708 
L 335.834641 167.801402 
L 336.648312 159.351464 
L 337.461982 161.357035 
L 338.275653 169.739953 
L 339.089323 164.619159 
L 339.902994 161.857192 
L 340.716664 156.521111 
L 341.530335 162.360606 
L 342.344005 155.6695 
L 343.157676 159.121394 
L 343.971347 164.174684 
L 344.785017 163.842155 
L 345.598688 153.573398 
L 346.412358 150.11923 
L 347.226029 163.243007 
L 348.039699 156.971324 
L 348.85337 153.891954 
L 349.66704 144.111951 
L 350.480711 163.4188 
L 351.294381 159.70747 
L 352.108052 157.66091 
L 352.921722 160.640457 
L 353.735393 157.56221 
L 354.549064 157.337837 
L 355.362734 162.841747 
L 356.176405 166.995698 
L 356.990075 155.243985 
L 357.803746 155.647862 
L 358.617416 153.022982 
L 359.431087 159.250234 
L 360.244757 162.804983 
L 361.058428 144.042732 
L 361.872098 155.021193 
L 362.685769 158.045267 
L 363.49944 156.267305 
L 364.31311 160.196654 
L 365.126781 165.03354 
L 365.940451 151.891712 
L 366.754122 166.265746 
L 367.567792 173.645122 
L 368.381463 161.370751 
L 369.195133 182.547211 
L 370.008804 165.750662 
L 370.822474 160.76472 
L 371.636145 163.116482 
L 372.449815 175.283834 
L 373.263486 182.962468 
L 374.077157 182.586978 
L 374.890827 172.788772 
L 375.704498 177.500907 
L 376.518168 169.151764 
L 377.331839 171.25049 
L 378.145509 176.450992 
L 378.95918 176.360182 
L 379.77285 170.94985 
L 380.586521 169.251136 
L 381.400191 152.99123 
L 382.213862 169.251684 
L 383.027532 168.740227 
L 383.841203 166.891568 
L 385.468544 174.925764 
L 386.282215 174.719541 
L 387.095885 171.096412 
L 387.909556 164.110491 
L 388.723226 169.930152 
L 389.536897 173.221525 
L 390.350567 174.203108 
L 391.164238 167.34365 
L 391.977908 169.895317 
L 392.791579 175.888602 
L 393.605249 175.706561 
L 394.41892 173.648364 
L 395.232591 159.939448 
L 396.046261 170.182437 
L 396.859932 159.566859 
L 397.673602 161.639293 
L 398.487273 157.943635 
L 398.487273 157.943635 
" style="fill:none;stroke:#0000ff;stroke-linecap:square;stroke-width:1.5;"/>
   </g>
   <g id="line2d_30">
    <path clip-path="url(#p5cd30ec70a)" d="M 73.832727 273.294307 
L 74.646398 277.327427 
L 75.460068 275.985529 
L 76.273739 279.349197 
L 77.087409 277.929546 
L 77.90108 274.489107 
L 78.714751 274.273602 
L 79.528421 271.298496 
L 80.342092 277.403881 
L 81.155762 272.16088 
L 81.969433 278.459834 
L 82.783103 285.77608 
L 83.596774 290.560598 
L 84.410444 292.457968 
L 85.224115 291.45102 
L 86.037785 293.229174 
L 86.851456 292.591978 
L 87.665126 292.272536 
L 88.478797 290.260909 
L 89.292468 295.488 
L 90.106138 288.154055 
L 90.919809 282.591361 
L 91.733479 289.091095 
L 92.54715 288.733826 
L 93.36082 279.404726 
L 94.174491 276.589786 
L 94.988161 268.770528 
L 95.801832 279.965821 
L 96.615502 266.872923 
L 97.429173 281.881953 
L 99.056514 272.620378 
L 99.870185 272.526431 
L 100.683855 277.835425 
L 101.497526 275.912884 
L 102.311196 281.040758 
L 103.124867 276.791965 
L 103.938537 274.461897 
L 105.565878 265.599262 
L 106.379549 274.127004 
L 107.193219 275.88933 
L 108.00689 271.555954 
L 108.82056 277.960795 
L 109.634231 280.852241 
L 110.447902 271.846133 
L 111.261572 280.637151 
L 112.075243 275.517743 
L 112.888913 278.442186 
L 113.702584 270.728624 
L 114.516254 278.474739 
L 115.329925 282.939572 
L 116.143595 275.006284 
L 116.957266 268.697556 
L 117.770936 278.676609 
L 118.584607 274.656346 
L 119.398278 278.087404 
L 120.211948 278.352277 
L 121.025619 278.85299 
L 121.839289 278.461129 
L 122.65296 281.380464 
L 123.46663 280.807491 
L 124.280301 276.57888 
L 125.093971 284.190283 
L 125.907642 276.699014 
L 126.721312 284.524464 
L 127.534983 269.322978 
L 128.348653 270.200957 
L 129.162324 262.074813 
L 129.975995 261.24528 
L 130.789665 266.590872 
L 131.603336 251.210049 
L 132.417006 256.297556 
L 133.230677 268.7177 
L 134.044347 265.183249 
L 134.858018 256.40249 
L 135.671688 261.628283 
L 136.485359 264.107601 
L 137.299029 260.647437 
L 138.1127 244.111562 
L 138.92637 266.899103 
L 139.740041 266.960488 
L 140.553712 260.446042 
L 141.367382 261.035785 
L 142.181053 255.888236 
L 142.994723 269.952678 
L 143.808394 248.725847 
L 145.435735 263.448261 
L 147.063076 252.107178 
L 147.876746 242.759529 
L 148.690417 256.436167 
L 149.504087 247.293136 
L 150.317758 254.623281 
L 151.131429 271.12985 
L 151.945099 252.912403 
L 152.75877 253.227581 
L 153.57244 265.323594 
L 154.386111 252.978899 
L 155.199781 266.16222 
L 156.013452 263.841973 
L 156.827122 263.623312 
L 157.640793 268.949421 
L 158.454463 256.174517 
L 159.268134 271.252021 
L 160.081805 270.722475 
L 160.895475 255.290914 
L 161.709146 262.931419 
L 162.522816 253.451388 
L 163.336487 249.662862 
L 164.150157 260.455184 
L 164.963828 251.590075 
L 165.777498 250.600969 
L 166.591169 246.154696 
L 167.404839 239.821101 
L 168.21851 259.570928 
L 169.03218 257.363071 
L 169.845851 247.968589 
L 170.659522 258.922935 
L 171.473192 260.46737 
L 172.286863 244.372562 
L 173.100533 255.302621 
L 173.914204 256.553066 
L 174.727874 261.161412 
L 175.541545 258.721089 
L 176.355215 253.785923 
L 177.168886 257.067648 
L 177.982556 256.067986 
L 178.796227 257.299858 
L 179.609897 268.090532 
L 180.423568 261.93483 
L 181.237239 263.280752 
L 182.050909 256.286758 
L 182.86458 265.166701 
L 183.67825 246.11883 
L 184.491921 255.674048 
L 185.305591 247.863905 
L 186.119262 249.232973 
L 186.932932 249.160805 
L 187.746603 250.051366 
L 188.560273 256.451749 
L 189.373944 256.188008 
L 190.187614 256.982852 
L 191.001285 247.357743 
L 191.814956 254.673777 
L 192.628626 265.371148 
L 193.442297 248.115865 
L 194.255967 263.410255 
L 195.069638 249.250412 
L 195.883308 252.024063 
L 196.696979 267.181154 
L 197.510649 254.305847 
L 198.32432 256.706708 
L 199.13799 260.052455 
L 199.951661 255.718696 
L 200.765332 241.502591 
L 201.579002 242.977618 
L 202.392673 260.667866 
L 203.206343 263.750935 
L 204.020014 255.802997 
L 204.833684 250.063372 
L 205.647355 260.074344 
L 206.461025 243.995923 
L 207.274696 266.345823 
L 208.088366 266.593461 
L 208.902037 244.402562 
L 209.715707 253.201676 
L 210.529378 264.006321 
L 211.343049 258.660708 
L 212.156719 266.147953 
L 212.97039 260.501234 
L 213.78406 263.91085 
L 215.411401 261.00834 
L 216.225072 263.337537 
L 217.038742 254.161578 
L 217.852413 256.209311 
L 218.666083 252.861815 
L 219.479754 246.986284 
L 220.293424 257.639844 
L 221.107095 247.56143 
L 221.920766 244.622931 
L 222.734436 251.360633 
L 223.548107 249.893921 
L 224.361777 253.025093 
L 225.175448 259.480899 
L 225.989118 260.726995 
L 226.802789 255.442921 
L 227.616459 257.555444 
L 228.43013 260.504856 
L 229.2438 258.131039 
L 230.057471 253.530769 
L 230.871141 247.777435 
L 232.498483 261.698744 
L 234.939494 246.363963 
L 235.753165 258.147166 
L 236.566835 257.709757 
L 237.380506 256.3623 
L 239.007847 250.30284 
L 239.821517 254.237531 
L 240.635188 264.803481 
L 241.448859 262.02645 
L 242.262529 261.169889 
L 243.0762 247.488448 
L 243.88987 244.331103 
L 244.703541 252.488226 
L 245.517211 261.873982 
L 246.330882 248.795191 
L 247.144552 263.172094 
L 247.958223 251.855716 
L 248.771893 261.981434 
L 249.585564 252.428513 
L 250.399234 263.683227 
L 251.212905 259.106689 
L 252.026576 253.136469 
L 252.840246 244.860984 
L 253.653917 258.579179 
L 254.467587 266.125859 
L 255.281258 248.074552 
L 256.094928 260.670763 
L 256.908599 251.58088 
L 257.722269 254.389955 
L 258.53594 254.641617 
L 259.34961 252.375708 
L 260.163281 253.269201 
L 260.976951 269.393391 
L 261.790622 253.379769 
L 262.604293 252.040199 
L 263.417963 261.016865 
L 264.231634 257.019487 
L 265.045304 241.337879 
L 265.858975 240.902454 
L 266.672645 256.248639 
L 267.486316 262.342273 
L 268.299986 258.961452 
L 269.113657 255.025304 
L 269.927327 258.029107 
L 270.740998 261.534656 
L 271.554668 255.923653 
L 272.368339 257.469556 
L 273.18201 256.606444 
L 273.99568 241.992178 
L 275.623021 263.767268 
L 276.436692 262.955533 
L 277.250362 245.131576 
L 278.064033 260.081417 
L 278.877703 266.094619 
L 279.691374 255.826944 
L 280.505044 263.558945 
L 281.318715 266.929351 
L 282.132386 245.366123 
L 282.946056 253.194555 
L 283.759727 257.215974 
L 284.573397 265.784143 
L 285.387068 262.506683 
L 286.200738 259.76963 
L 287.014409 260.79516 
L 287.828079 253.142869 
L 288.64175 250.720969 
L 289.45542 254.684522 
L 290.269091 254.926435 
L 291.082761 242.985762 
L 291.896432 250.757788 
L 292.710103 256.54746 
L 294.337444 248.786519 
L 295.151114 250.948068 
L 295.964785 249.377689 
L 296.778455 250.332625 
L 297.592126 247.853674 
L 298.405796 243.564418 
L 299.219467 235.492483 
L 300.033137 253.306247 
L 300.846808 244.917624 
L 301.660478 256.382802 
L 302.474149 247.10494 
L 303.28782 254.860526 
L 304.10149 241.892885 
L 304.915161 258.897986 
L 305.728831 248.451806 
L 306.542502 248.619033 
L 307.356172 243.071019 
L 308.169843 258.202735 
L 308.983513 259.946214 
L 309.797184 253.340608 
L 310.610854 252.851707 
L 311.424525 263.859839 
L 312.238195 264.705772 
L 313.051866 258.923561 
L 313.865537 249.8254 
L 314.679207 260.674472 
L 315.492878 257.290261 
L 316.306548 262.098853 
L 317.120219 256.821782 
L 317.933889 248.626369 
L 318.74756 256.052714 
L 319.56123 251.986648 
L 320.374901 257.210866 
L 321.188571 257.451623 
L 322.002242 248.731724 
L 322.815913 243.477301 
L 323.629583 249.971079 
L 324.443254 253.893387 
L 325.256924 251.279422 
L 326.070595 260.324379 
L 326.884265 260.803853 
L 327.697936 252.537159 
L 328.511606 262.899978 
L 329.325277 267.718732 
L 330.138947 252.627988 
L 330.952618 262.671086 
L 333.39363 255.741309 
L 334.2073 261.786429 
L 335.020971 257.771769 
L 335.834641 259.314968 
L 336.648312 251.518314 
L 337.461982 251.753429 
L 338.275653 261.027968 
L 339.089323 254.889767 
L 339.902994 251.878876 
L 340.716664 248.185485 
L 341.530335 254.714582 
L 342.344005 248.563497 
L 343.157676 252.0831 
L 343.971347 254.019338 
L 344.785017 256.708939 
L 345.598688 244.8691 
L 346.412358 241.163443 
L 347.226029 255.337045 
L 348.039699 247.120137 
L 348.85337 247.929069 
L 349.66704 233.67969 
L 350.480711 255.561643 
L 352.108052 248.952286 
L 352.921722 251.611869 
L 353.735393 249.794768 
L 354.549064 248.716895 
L 355.362734 255.142238 
L 356.176405 260.245128 
L 356.990075 245.938962 
L 357.803746 247.277052 
L 358.617416 245.253355 
L 359.431087 249.906349 
L 360.244757 256.240142 
L 361.058428 234.517464 
L 361.872098 247.728955 
L 362.685769 250.077819 
L 363.49944 247.76188 
L 364.31311 253.331042 
L 365.126781 256.067776 
L 365.940451 243.776032 
L 366.754122 260.113445 
L 367.567792 265.263918 
L 368.381463 253.544276 
L 369.195133 273.192672 
L 370.008804 256.164062 
L 370.822474 253.281275 
L 371.636145 253.078954 
L 372.449815 266.695272 
L 373.263486 269.448094 
L 374.077157 270.795419 
L 374.890827 262.164753 
L 375.704498 265.00384 
L 376.518168 259.180064 
L 377.331839 260.719951 
L 378.145509 265.991974 
L 378.95918 266.283499 
L 379.77285 260.645433 
L 380.586521 260.593036 
L 381.400191 244.566629 
L 382.213862 261.295379 
L 383.027532 260.397177 
L 383.841203 257.733547 
L 384.654874 263.30965 
L 385.468544 266.563856 
L 386.282215 265.300183 
L 387.095885 261.381287 
L 387.909556 256.10988 
L 388.723226 262.318306 
L 389.536897 266.283273 
L 390.350567 266.382303 
L 391.164238 258.718867 
L 391.977908 260.923587 
L 392.791579 264.824871 
L 393.605249 267.146961 
L 394.41892 263.423286 
L 395.232591 248.790418 
L 396.046261 259.47053 
L 396.859932 252.223745 
L 397.673602 254.097339 
L 398.487273 248.865035 
L 398.487273 248.865035 
" style="fill:none;stroke:#008000;stroke-dasharray:9.6,2.4,1.5,2.4;stroke-dashoffset:0;stroke-width:1.5;"/>
   </g>
   <g id="line2d_31">
    <path clip-path="url(#p5cd30ec70a)" d="M 73.832727 227.889578 
L 74.646398 203.722692 
L 75.460068 196.443504 
L 76.273739 196.065535 
L 77.087409 191.290009 
L 77.90108 184.084092 
L 79.528421 179.797663 
L 81.155762 173.356401 
L 81.969433 175.343927 
L 82.783103 175.01949 
L 83.596774 174.062819 
L 84.410444 170.561841 
L 85.224115 165.297659 
L 86.037785 152.076804 
L 86.851456 150.747218 
L 87.665126 145.999621 
L 88.478797 139.68918 
L 89.292468 153.60877 
L 90.106138 142.18262 
L 90.919809 128.668944 
L 91.733479 144.903146 
L 92.54715 147.507324 
L 93.36082 127.634248 
L 94.174491 111.92791 
L 94.988161 100.152657 
L 95.801832 113.266371 
L 96.615502 96.236064 
L 97.429173 111.15906 
L 98.242843 111.723097 
L 99.056514 102.333073 
L 99.870185 106.364426 
L 100.683855 107.048667 
L 101.497526 105.775313 
L 102.311196 109.214393 
L 103.124867 105.840354 
L 103.938537 109.933821 
L 104.752208 99.082777 
L 105.565878 92.073311 
L 107.193219 107.927133 
L 108.00689 105.758432 
L 108.82056 106.395143 
L 109.634231 110.926777 
L 111.261572 98.738746 
L 112.075243 93.477189 
L 112.888913 98.936272 
L 113.702584 89.86527 
L 114.516254 96.813707 
L 115.329925 106.468414 
L 116.143595 95.857611 
L 116.957266 79.548536 
L 117.770936 94.170161 
L 118.584607 98.0708 
L 119.398278 96.50566 
L 120.211948 97.6308 
L 121.025619 96.755509 
L 121.839289 96.095766 
L 122.65296 96.490618 
L 123.46663 100.889709 
L 124.280301 94.008376 
L 125.093971 103.939453 
L 125.907642 92.418342 
L 126.721312 106.939302 
L 127.534983 86.181223 
L 128.348653 87.752155 
L 129.162324 77.431749 
L 129.975995 79.724708 
L 130.789665 81.082608 
L 131.603336 68.124977 
L 132.417006 66.491333 
L 133.230677 81.899007 
L 134.044347 83.459982 
L 134.858018 69.839966 
L 135.671688 81.400161 
L 136.485359 78.727311 
L 137.299029 79.208451 
L 138.1127 63.323752 
L 138.92637 78.145147 
L 139.740041 78.168677 
L 140.553712 76.149744 
L 141.367382 75.162706 
L 142.181053 69.713212 
L 142.994723 83.91674 
L 143.808394 60.556479 
L 145.435735 76.270689 
L 146.249405 72.727623 
L 147.063076 64.635517 
L 147.876746 58.556194 
L 148.690417 67.59214 
L 149.504087 61.88608 
L 150.317758 68.438192 
L 151.131429 78.978754 
L 151.945099 64.026574 
L 152.75877 65.559822 
L 153.57244 73.354289 
L 154.386111 64.558156 
L 155.199781 73.530087 
L 156.013452 78.284021 
L 156.827122 70.634697 
L 157.640793 78.907732 
L 158.454463 70.264464 
L 159.268134 79.766917 
L 160.081805 79.948651 
L 160.895475 69.322164 
L 161.709146 76.100456 
L 162.522816 67.200609 
L 163.336487 64.558566 
L 164.150157 73.298374 
L 164.963828 66.337096 
L 165.777498 64.863562 
L 166.591169 60.012499 
L 167.404839 61.931973 
L 168.21851 79.568064 
L 169.03218 73.027734 
L 169.845851 63.12639 
L 170.659522 71.967915 
L 171.473192 72.145798 
L 172.286863 59.039634 
L 173.100533 67.614522 
L 173.914204 68.46901 
L 174.727874 76.115404 
L 175.541545 70.881353 
L 176.355215 67.705569 
L 177.168886 71.242478 
L 177.982556 71.245619 
L 178.796227 72.666989 
L 179.609897 82.543991 
L 180.423568 80.62311 
L 181.237239 72.867926 
L 182.050909 71.124726 
L 182.86458 81.550516 
L 183.67825 63.037443 
L 184.491921 74.144589 
L 185.305591 64.594224 
L 186.119262 66.501232 
L 186.932932 64.726161 
L 187.746603 64.359278 
L 188.560273 72.741568 
L 189.373944 71.523404 
L 190.187614 69.967138 
L 191.001285 60.737137 
L 191.814956 67.369805 
L 192.628626 76.384865 
L 193.442297 61.981205 
L 194.255967 75.459948 
L 195.069638 67.032008 
L 195.883308 67.586586 
L 196.696979 81.611173 
L 197.510649 67.63423 
L 198.32432 69.751414 
L 199.13799 72.26062 
L 199.951661 71.583489 
L 200.765332 62.20124 
L 201.579002 60.028993 
L 202.392673 73.999681 
L 203.206343 77.652878 
L 204.833684 63.499848 
L 205.647355 76.351066 
L 206.461025 60.659389 
L 207.274696 78.760444 
L 208.088366 80.14227 
L 208.902037 61.330018 
L 209.715707 67.617774 
L 210.529378 77.117825 
L 211.343049 73.397981 
L 212.156719 83.937174 
L 212.97039 74.427273 
L 213.78406 78.236842 
L 214.597731 77.005699 
L 215.411401 76.380976 
L 216.225072 77.006221 
L 217.038742 70.329468 
L 217.852413 72.179679 
L 218.666083 64.636737 
L 219.479754 62.15676 
L 220.293424 71.386745 
L 221.107095 62.755666 
L 221.920766 60.322003 
L 222.734436 66.050589 
L 223.548107 64.040552 
L 224.361777 67.088287 
L 225.175448 72.016421 
L 225.989118 74.956726 
L 226.802789 70.76911 
L 227.616459 71.715869 
L 228.43013 74.636777 
L 229.2438 71.734525 
L 230.871141 62.182263 
L 232.498483 74.640646 
L 233.312153 70.529943 
L 234.125824 68.549232 
L 234.939494 62.596115 
L 235.753165 73.898306 
L 237.380506 68.483238 
L 238.194176 67.230503 
L 239.007847 67.335015 
L 239.821517 67.927979 
L 240.635188 77.012236 
L 241.448859 76.221069 
L 242.262529 78.539906 
L 243.0762 64.150678 
L 243.88987 62.742564 
L 244.703541 69.73297 
L 245.517211 73.09723 
L 246.330882 63.038644 
L 247.144552 78.353528 
L 247.958223 69.207721 
L 248.771893 77.386759 
L 249.585564 67.13751 
L 250.399234 77.397732 
L 251.212905 74.631579 
L 252.026576 67.191829 
L 252.840246 62.010359 
L 253.653917 73.368055 
L 254.467587 80.450933 
L 255.281258 67.158908 
L 256.094928 74.061749 
L 256.908599 66.237344 
L 258.53594 73.245726 
L 259.34961 72.014305 
L 260.163281 68.961703 
L 260.976951 84.975934 
L 261.790622 67.608941 
L 262.604293 66.195112 
L 263.417963 75.315654 
L 264.231634 70.762071 
L 265.045304 56.759208 
L 265.858975 61.376018 
L 266.672645 72.481539 
L 267.486316 79.237121 
L 268.299986 76.581478 
L 269.113657 75.549255 
L 269.927327 75.863446 
L 270.740998 80.320126 
L 271.554668 73.83525 
L 272.368339 78.924096 
L 273.18201 74.484878 
L 273.99568 62.171631 
L 274.809351 70.476151 
L 275.623021 83.279277 
L 276.436692 80.471494 
L 277.250362 62.233686 
L 278.064033 75.059755 
L 278.877703 83.396658 
L 279.691374 74.81975 
L 280.505044 81.930774 
L 281.318715 83.914279 
L 282.132386 60.539716 
L 282.946056 70.575274 
L 283.759727 70.925685 
L 284.573397 87.84841 
L 285.387068 79.515769 
L 286.200738 76.656093 
L 287.014409 75.542809 
L 287.828079 68.132254 
L 288.64175 69.715484 
L 289.45542 72.122106 
L 290.269091 69.686619 
L 291.082761 59.208947 
L 291.896432 66.860705 
L 292.710103 71.283754 
L 293.523773 70.625589 
L 294.337444 67.559112 
L 295.151114 68.372095 
L 295.964785 67.928553 
L 296.778455 69.154395 
L 297.592126 63.648997 
L 298.405796 61.919897 
L 299.219467 55.769786 
L 300.033137 70.555424 
L 300.846808 63.996672 
L 301.660478 71.742918 
L 302.474149 64.394171 
L 303.28782 72.233104 
L 304.10149 59.18475 
L 304.915161 74.352704 
L 305.728831 66.273934 
L 306.542502 67.172411 
L 307.356172 61.829102 
L 308.169843 75.186403 
L 308.983513 75.187807 
L 309.797184 73.579777 
L 310.610854 73.241228 
L 311.424525 79.774199 
L 312.238195 84.383855 
L 313.051866 73.85523 
L 313.865537 68.09318 
L 314.679207 80.35974 
L 315.492878 78.697336 
L 316.306548 74.015884 
L 317.120219 75.457737 
L 317.933889 66.112086 
L 318.74756 72.133962 
L 319.56123 68.381041 
L 320.374901 76.571598 
L 321.188571 75.228384 
L 322.002242 66.567496 
L 322.815913 62.347262 
L 323.629583 65.040989 
L 324.443254 69.803965 
L 325.256924 66.294885 
L 326.070595 80.646691 
L 326.884265 77.288378 
L 327.697936 72.330775 
L 328.511606 78.805885 
L 329.325277 83.505169 
L 330.138947 68.504544 
L 330.952618 76.200768 
L 331.766288 71.454918 
L 332.579959 79.408203 
L 333.39363 74.221838 
L 334.2073 77.754865 
L 335.020971 71.501646 
L 335.834641 76.287835 
L 336.648312 67.184613 
L 337.461982 70.960641 
L 338.275653 78.451938 
L 339.089323 74.34855 
L 339.902994 71.835508 
L 340.716664 64.856737 
L 341.530335 70.006631 
L 342.344005 62.775502 
L 343.157676 66.159688 
L 343.971347 74.330031 
L 344.785017 70.975372 
L 345.598688 62.277696 
L 346.412358 59.075018 
L 347.226029 71.148969 
L 348.039699 66.822512 
L 348.85337 59.854838 
L 349.66704 54.544212 
L 350.480711 71.275956 
L 351.294381 66.978408 
L 352.108052 66.369534 
L 352.921722 69.669045 
L 353.735393 65.329652 
L 354.549064 65.958779 
L 355.362734 70.541256 
L 356.176405 73.746269 
L 356.990075 64.549007 
L 357.803746 64.018672 
L 358.617416 60.792609 
L 359.431087 68.594119 
L 360.244757 69.369824 
L 361.058428 53.568 
L 361.872098 62.313431 
L 362.685769 66.012715 
L 363.49944 64.772729 
L 364.31311 67.062266 
L 365.126781 73.999305 
L 365.940451 60.007392 
L 366.754122 72.418047 
L 367.567792 82.026326 
L 368.381463 69.197226 
L 369.195133 91.901751 
L 370.008804 75.337262 
L 370.822474 68.248165 
L 371.636145 73.15401 
L 372.449815 83.872396 
L 373.263486 96.476842 
L 374.077157 94.378537 
L 374.890827 83.412791 
L 375.704498 89.997974 
L 376.518168 79.123463 
L 377.331839 81.781029 
L 378.145509 86.91001 
L 378.95918 86.436865 
L 379.77285 81.254268 
L 380.586521 77.909236 
L 381.400191 61.415832 
L 382.213862 77.20799 
L 383.027532 77.083278 
L 383.841203 76.049589 
L 384.654874 78.963753 
L 385.468544 83.287672 
L 386.282215 84.138899 
L 387.095885 80.811538 
L 387.909556 72.111103 
L 388.723226 77.541997 
L 389.536897 80.159777 
L 390.350567 82.023913 
L 391.164238 75.968434 
L 391.977908 78.867047 
L 392.791579 86.952333 
L 393.605249 84.266161 
L 394.41892 83.873441 
L 395.232591 71.088478 
L 396.046261 80.894344 
L 396.859932 66.909972 
L 397.673602 69.181247 
L 398.487273 67.022234 
L 398.487273 67.022234 
" style="fill:none;stroke:#008000;stroke-dasharray:9.6,2.4,1.5,2.4;stroke-dashoffset:0;stroke-width:1.5;"/>
   </g>
   <g id="line2d_32">
    <path clip-path="url(#p5cd30ec70a)" d="M 73.832727 186.31389 
L 74.646398 125.228631 
L 75.460068 76.619564 
L 79.528421 76.619564 
L 80.342092 69.037561 
L 81.969433 69.037561 
L 82.783103 68.822718 
L 83.596774 68.822718 
L 84.410444 68.486278 
L 85.224115 68.486278 
L 86.037785 68.356226 
L 86.851456 68.356226 
L 87.665126 68.137442 
L 94.174491 67.973382 
L 94.988161 67.732745 
L 398.487273 67.666921 
L 398.487273 67.666921 
" style="fill:none;stroke:#ff0000;stroke-linecap:square;stroke-width:1.5;"/>
   </g>
   <g id="patch_3">
    <path d="M 57.6 307.584 
L 57.6 41.472 
" style="fill:none;stroke:#000000;stroke-linecap:square;stroke-linejoin:miter;stroke-width:0.8;"/>
   </g>
   <g id="patch_4">
    <path d="M 414.72 307.584 
L 414.72 41.472 
" style="fill:none;stroke:#000000;stroke-linecap:square;stroke-linejoin:miter;stroke-width:0.8;"/>
   </g>
   <g id="patch_5">
    <path d="M 57.6 307.584 
L 414.72 307.584 
" style="fill:none;stroke:#000000;stroke-linecap:square;stroke-linejoin:miter;stroke-width:0.8;"/>
   </g>
   <g id="patch_6">
    <path d="M 57.6 41.472 
L 414.72 41.472 
" style="fill:none;stroke:#000000;stroke-linecap:square;stroke-linejoin:miter;stroke-width:0.8;"/>
   </g>
   <g id="text_17">
    <!-- Population's average and best fitness -->
    <defs>
     <path d="M 19.671875 64.796875 
L 19.671875 37.40625 
L 32.078125 37.40625 
Q 38.96875 37.40625 42.71875 40.96875 
Q 46.484375 44.53125 46.484375 51.125 
Q 46.484375 57.671875 42.71875 61.234375 
Q 38.96875 64.796875 32.078125 64.796875 
z
M 9.8125 72.90625 
L 32.078125 72.90625 
Q 44.34375 72.90625 50.609375 67.359375 
Q 56.890625 61.8125 56.890625 51.125 
Q 56.890625 40.328125 50.609375 34.8125 
Q 44.34375 29.296875 32.078125 29.296875 
L 19.671875 29.296875 
L 19.671875 0 
L 9.8125 0 
z
" id="DejaVuSans-80"/>
     <path d="M 18.109375 8.203125 
L 18.109375 -20.796875 
L 9.078125 -20.796875 
L 9.078125 54.6875 
L 18.109375 54.6875 
L 18.109375 46.390625 
Q 20.953125 51.265625 25.265625 53.625 
Q 29.59375 56 35.59375 56 
Q 45.5625 56 51.78125 48.09375 
Q 58.015625 40.1875 58.015625 27.296875 
Q 58.015625 14.40625 51.78125 6.484375 
Q 45.5625 -1.421875 35.59375 -1.421875 
Q 29.59375 -1.421875 25.265625 0.953125 
Q 20.953125 3.328125 18.109375 8.203125 
z
M 48.6875 27.296875 
Q 48.6875 37.203125 44.609375 42.84375 
Q 40.53125 48.484375 33.40625 48.484375 
Q 26.265625 48.484375 22.1875 42.84375 
Q 18.109375 37.203125 18.109375 27.296875 
Q 18.109375 17.390625 22.1875 11.75 
Q 26.265625 6.109375 33.40625 6.109375 
Q 40.53125 6.109375 44.609375 11.75 
Q 48.6875 17.390625 48.6875 27.296875 
z
" id="DejaVuSans-112"/>
     <path d="M 8.5 21.578125 
L 8.5 54.6875 
L 17.484375 54.6875 
L 17.484375 21.921875 
Q 17.484375 14.15625 20.5 10.265625 
Q 23.53125 6.390625 29.59375 6.390625 
Q 36.859375 6.390625 41.078125 11.03125 
Q 45.3125 15.671875 45.3125 23.6875 
L 45.3125 54.6875 
L 54.296875 54.6875 
L 54.296875 0 
L 45.3125 0 
L 45.3125 8.40625 
Q 42.046875 3.421875 37.71875 1 
Q 33.40625 -1.421875 27.6875 -1.421875 
Q 18.265625 -1.421875 13.375 4.4375 
Q 8.5 10.296875 8.5 21.578125 
z
M 31.109375 56 
z
" id="DejaVuSans-117"/>
     <path d="M 9.421875 75.984375 
L 18.40625 75.984375 
L 18.40625 0 
L 9.421875 0 
z
" id="DejaVuSans-108"/>
     <path d="M 17.921875 72.90625 
L 17.921875 45.796875 
L 9.625 45.796875 
L 9.625 72.90625 
z
" id="DejaVuSans-39"/>
     <path id="DejaVuSans-32"/>
     <path d="M 2.984375 54.6875 
L 12.5 54.6875 
L 29.59375 8.796875 
L 46.6875 54.6875 
L 56.203125 54.6875 
L 35.6875 0 
L 23.484375 0 
z
" id="DejaVuSans-118"/>
     <path d="M 45.40625 27.984375 
Q 45.40625 37.75 41.375 43.109375 
Q 37.359375 48.484375 30.078125 48.484375 
Q 22.859375 48.484375 18.828125 43.109375 
Q 14.796875 37.75 14.796875 27.984375 
Q 14.796875 18.265625 18.828125 12.890625 
Q 22.859375 7.515625 30.078125 7.515625 
Q 37.359375 7.515625 41.375 12.890625 
Q 45.40625 18.265625 45.40625 27.984375 
z
M 54.390625 6.78125 
Q 54.390625 -7.171875 48.1875 -13.984375 
Q 42 -20.796875 29.203125 -20.796875 
Q 24.46875 -20.796875 20.265625 -20.09375 
Q 16.0625 -19.390625 12.109375 -17.921875 
L 12.109375 -9.1875 
Q 16.0625 -11.328125 19.921875 -12.34375 
Q 23.78125 -13.375 27.78125 -13.375 
Q 36.625 -13.375 41.015625 -8.765625 
Q 45.40625 -4.15625 45.40625 5.171875 
L 45.40625 9.625 
Q 42.625 4.78125 38.28125 2.390625 
Q 33.9375 0 27.875 0 
Q 17.828125 0 11.671875 7.65625 
Q 5.515625 15.328125 5.515625 27.984375 
Q 5.515625 40.671875 11.671875 48.328125 
Q 17.828125 56 27.875 56 
Q 33.9375 56 38.28125 53.609375 
Q 42.625 51.21875 45.40625 46.390625 
L 45.40625 54.6875 
L 54.390625 54.6875 
z
" id="DejaVuSans-103"/>
     <path d="M 45.40625 46.390625 
L 45.40625 75.984375 
L 54.390625 75.984375 
L 54.390625 0 
L 45.40625 0 
L 45.40625 8.203125 
Q 42.578125 3.328125 38.25 0.953125 
Q 33.9375 -1.421875 27.875 -1.421875 
Q 17.96875 -1.421875 11.734375 6.484375 
Q 5.515625 14.40625 5.515625 27.296875 
Q 5.515625 40.1875 11.734375 48.09375 
Q 17.96875 56 27.875 56 
Q 33.9375 56 38.25 53.625 
Q 42.578125 51.265625 45.40625 46.390625 
z
M 14.796875 27.296875 
Q 14.796875 17.390625 18.875 11.75 
Q 22.953125 6.109375 30.078125 6.109375 
Q 37.203125 6.109375 41.296875 11.75 
Q 45.40625 17.390625 45.40625 27.296875 
Q 45.40625 37.203125 41.296875 42.84375 
Q 37.203125 48.484375 30.078125 48.484375 
Q 22.953125 48.484375 18.875 42.84375 
Q 14.796875 37.203125 14.796875 27.296875 
z
" id="DejaVuSans-100"/>
     <path d="M 48.6875 27.296875 
Q 48.6875 37.203125 44.609375 42.84375 
Q 40.53125 48.484375 33.40625 48.484375 
Q 26.265625 48.484375 22.1875 42.84375 
Q 18.109375 37.203125 18.109375 27.296875 
Q 18.109375 17.390625 22.1875 11.75 
Q 26.265625 6.109375 33.40625 6.109375 
Q 40.53125 6.109375 44.609375 11.75 
Q 48.6875 17.390625 48.6875 27.296875 
z
M 18.109375 46.390625 
Q 20.953125 51.265625 25.265625 53.625 
Q 29.59375 56 35.59375 56 
Q 45.5625 56 51.78125 48.09375 
Q 58.015625 40.1875 58.015625 27.296875 
Q 58.015625 14.40625 51.78125 6.484375 
Q 45.5625 -1.421875 35.59375 -1.421875 
Q 29.59375 -1.421875 25.265625 0.953125 
Q 20.953125 3.328125 18.109375 8.203125 
L 18.109375 0 
L 9.078125 0 
L 9.078125 75.984375 
L 18.109375 75.984375 
z
" id="DejaVuSans-98"/>
     <path d="M 37.109375 75.984375 
L 37.109375 68.5 
L 28.515625 68.5 
Q 23.6875 68.5 21.796875 66.546875 
Q 19.921875 64.59375 19.921875 59.515625 
L 19.921875 54.6875 
L 34.71875 54.6875 
L 34.71875 47.703125 
L 19.921875 47.703125 
L 19.921875 0 
L 10.890625 0 
L 10.890625 47.703125 
L 2.296875 47.703125 
L 2.296875 54.6875 
L 10.890625 54.6875 
L 10.890625 58.5 
Q 10.890625 67.625 15.140625 71.796875 
Q 19.390625 75.984375 28.609375 75.984375 
z
" id="DejaVuSans-102"/>
    </defs>
    <g transform="translate(123.315 35.472)scale(0.12 -0.12)">
     <use xlink:href="#DejaVuSans-80"/>
     <use x="60.255859" xlink:href="#DejaVuSans-111"/>
     <use x="121.4375" xlink:href="#DejaVuSans-112"/>
     <use x="184.914062" xlink:href="#DejaVuSans-117"/>
     <use x="248.292969" xlink:href="#DejaVuSans-108"/>
     <use x="276.076172" xlink:href="#DejaVuSans-97"/>
     <use x="337.355469" xlink:href="#DejaVuSans-116"/>
     <use x="376.564453" xlink:href="#DejaVuSans-105"/>
     <use x="404.347656" xlink:href="#DejaVuSans-111"/>
     <use x="465.529297" xlink:href="#DejaVuSans-110"/>
     <use x="528.908203" xlink:href="#DejaVuSans-39"/>
     <use x="556.398438" xlink:href="#DejaVuSans-115"/>
     <use x="608.498047" xlink:href="#DejaVuSans-32"/>
     <use x="640.285156" xlink:href="#DejaVuSans-97"/>
     <use x="701.564453" xlink:href="#DejaVuSans-118"/>
     <use x="760.744141" xlink:href="#DejaVuSans-101"/>
     <use x="822.267578" xlink:href="#DejaVuSans-114"/>
     <use x="863.380859" xlink:href="#DejaVuSans-97"/>
     <use x="924.660156" xlink:href="#DejaVuSans-103"/>
     <use x="988.136719" xlink:href="#DejaVuSans-101"/>
     <use x="1049.660156" xlink:href="#DejaVuSans-32"/>
     <use x="1081.447266" xlink:href="#DejaVuSans-97"/>
     <use x="1142.726562" xlink:href="#DejaVuSans-110"/>
     <use x="1206.105469" xlink:href="#DejaVuSans-100"/>
     <use x="1269.582031" xlink:href="#DejaVuSans-32"/>
     <use x="1301.369141" xlink:href="#DejaVuSans-98"/>
     <use x="1364.845703" xlink:href="#DejaVuSans-101"/>
     <use x="1426.369141" xlink:href="#DejaVuSans-115"/>
     <use x="1478.46875" xlink:href="#DejaVuSans-116"/>
     <use x="1517.677734" xlink:href="#DejaVuSans-32"/>
     <use x="1549.464844" xlink:href="#DejaVuSans-102"/>
     <use x="1584.669922" xlink:href="#DejaVuSans-105"/>
     <use x="1612.453125" xlink:href="#DejaVuSans-116"/>
     <use x="1651.662109" xlink:href="#DejaVuSans-110"/>
     <use x="1715.041016" xlink:href="#DejaVuSans-101"/>
     <use x="1776.564453" xlink:href="#DejaVuSans-115"/>
     <use x="1828.664062" xlink:href="#DejaVuSans-115"/>
    </g>
   </g>
   <g id="legend_1">
    <g id="patch_7">
     <path d="M 334.779375 302.584 
L 407.72 302.584 
Q 409.72 302.584 409.72 300.584 
L 409.72 242.8715 
Q 409.72 240.8715 407.72 240.8715 
L 334.779375 240.8715 
Q 332.779375 240.8715 332.779375 242.8715 
L 332.779375 300.584 
Q 332.779375 302.584 334.779375 302.584 
z
" style="fill:#ffffff;opacity:0.8;stroke:#cccccc;stroke-linejoin:miter;"/>
    </g>
    <g id="line2d_33">
     <path d="M 336.779375 248.969937 
L 356.779375 248.969937 
" style="fill:none;stroke:#0000ff;stroke-linecap:square;stroke-width:1.5;"/>
    </g>
    <g id="line2d_34"/>
    <g id="text_18">
     <!-- average -->
     <g transform="translate(364.779375 252.469937)scale(0.1 -0.1)">
      <use xlink:href="#DejaVuSans-97"/>
      <use x="61.279297" xlink:href="#DejaVuSans-118"/>
      <use x="120.458984" xlink:href="#DejaVuSans-101"/>
      <use x="181.982422" xlink:href="#DejaVuSans-114"/>
      <use x="223.095703" xlink:href="#DejaVuSans-97"/>
      <use x="284.375" xlink:href="#DejaVuSans-103"/>
      <use x="347.851562" xlink:href="#DejaVuSans-101"/>
     </g>
    </g>
    <g id="line2d_35">
     <path d="M 336.779375 263.648062 
L 356.779375 263.648062 
" style="fill:none;stroke:#008000;stroke-dasharray:9.6,2.4,1.5,2.4;stroke-dashoffset:0;stroke-width:1.5;"/>
    </g>
    <g id="line2d_36"/>
    <g id="text_19">
     <!-- -1 sd -->
     <defs>
      <path d="M 4.890625 31.390625 
L 31.203125 31.390625 
L 31.203125 23.390625 
L 4.890625 23.390625 
z
" id="DejaVuSans-45"/>
     </defs>
     <g transform="translate(364.779375 267.148062)scale(0.1 -0.1)">
      <use xlink:href="#DejaVuSans-45"/>
      <use x="36.083984" xlink:href="#DejaVuSans-49"/>
      <use x="99.707031" xlink:href="#DejaVuSans-32"/>
      <use x="131.494141" xlink:href="#DejaVuSans-115"/>
      <use x="183.59375" xlink:href="#DejaVuSans-100"/>
     </g>
    </g>
    <g id="line2d_37">
     <path d="M 336.779375 278.326187 
L 356.779375 278.326187 
" style="fill:none;stroke:#008000;stroke-dasharray:9.6,2.4,1.5,2.4;stroke-dashoffset:0;stroke-width:1.5;"/>
    </g>
    <g id="line2d_38"/>
    <g id="text_20">
     <!-- +1 sd -->
     <defs>
      <path d="M 46 62.703125 
L 46 35.5 
L 73.1875 35.5 
L 73.1875 27.203125 
L 46 27.203125 
L 46 0 
L 37.796875 0 
L 37.796875 27.203125 
L 10.59375 27.203125 
L 10.59375 35.5 
L 37.796875 35.5 
L 37.796875 62.703125 
z
" id="DejaVuSans-43"/>
     </defs>
     <g transform="translate(364.779375 281.826187)scale(0.1 -0.1)">
      <use xlink:href="#DejaVuSans-43"/>
      <use x="83.789062" xlink:href="#DejaVuSans-49"/>
      <use x="147.412109" xlink:href="#DejaVuSans-32"/>
      <use x="179.199219" xlink:href="#DejaVuSans-115"/>
      <use x="231.298828" xlink:href="#DejaVuSans-100"/>
     </g>
    </g>
    <g id="line2d_39">
     <path d="M 336.779375 293.004312 
L 356.779375 293.004312 
" style="fill:none;stroke:#ff0000;stroke-linecap:square;stroke-width:1.5;"/>
    </g>
    <g id="line2d_40"/>
    <g id="text_21">
     <!-- best -->
     <g transform="translate(364.779375 296.504312)scale(0.1 -0.1)">
      <use xlink:href="#DejaVuSans-98"/>
      <use x="63.476562" xlink:href="#DejaVuSans-101"/>
      <use x="125" xlink:href="#DejaVuSans-115"/>
      <use x="177.099609" xlink:href="#DejaVuSans-116"/>
     </g>
    </g>
   </g>
  </g>
 </g>
 <defs>
  <clipPath id="p5cd30ec70a">
   <rect height="266.112" width="357.12" x="57.6" y="41.472"/>
  </clipPath>
 </defs>
</svg>
