<?xml version="1.0" encoding="UTF-8" standalone="no"?>
<!DOCTYPE svg PUBLIC "-//W3C//DTD SVG 1.1//EN"
 "http://www.w3.org/Graphics/SVG/1.1/DTD/svg11.dtd">
<!-- Generated by graphviz version 2.40.1 (20161225.0304)
 -->
<!-- Title: %3 Pages: 1 -->
<svg width="701pt" height="145pt"
 viewBox="0.00 0.00 700.50 145.44" xmlns="http://www.w3.org/2000/svg" xmlns:xlink="http://www.w3.org/1999/xlink">
<g id="graph0" class="graph" transform="scale(1 1) rotate(0) translate(4 141.4386)">
<title>%3</title>
<polygon fill="#ffffff" stroke="transparent" points="-4,4 -4,-141.4386 696.5,-141.4386 696.5,4 -4,4"/>
<!-- RF_R -->
<g id="node1" class="node">
<title>RF_R</title>
<polygon fill="#d3d3d3" stroke="#000000" points="38,-137.4386 0,-137.4386 0,-119.4386 38,-119.4386 38,-137.4386"/>
<text text-anchor="middle" x="19" y="-126.2386" font-family="Times,serif" font-size="9.00" fill="#000000">RF_R</text>
</g>
<!-- RF_FR -->
<g id="node2" class="node">
<title>RF_FR</title>
<polygon fill="#d3d3d3" stroke="#000000" points="168,-137.4386 124,-137.4386 124,-119.4386 168,-119.4386 168,-137.4386"/>
<text text-anchor="middle" x="146" y="-126.2386" font-family="Times,serif" font-size="9.00" fill="#000000">RF_FR</text>
</g>
<!-- ANG_VEL -->
<g id="node11" class="node">
<title>ANG_VEL</title>
<ellipse fill="#add8e6" stroke="#000000" cx="146" cy="-41.7193" rx="41.9398" ry="41.9398"/>
<text text-anchor="middle" x="146" y="-39.5193" font-family="Times,serif" font-size="9.00" fill="#000000">ANG_VEL</text>
</g>
<!-- RF_FR&#45;&gt;ANG_VEL -->
<g id="edge3" class="edge">
<title>RF_FR&#45;&gt;ANG_VEL</title>
<path fill="none" stroke="#00ff00" stroke-width=".2882" stroke-dasharray="1,5" d="M146,-119.1581C146,-112.7372 146,-103.6227 146,-93.8899"/>
<polygon fill="#00ff00" stroke="#00ff00" stroke-width=".2882" points="149.5001,-93.6104 146,-83.6104 142.5001,-93.6104 149.5001,-93.6104"/>
</g>
<!-- VEL -->
<g id="node12" class="node">
<title>VEL</title>
<ellipse fill="#add8e6" stroke="#000000" cx="62" cy="-41.7193" rx="24.0833" ry="24.0833"/>
<text text-anchor="middle" x="62" y="-39.5193" font-family="Times,serif" font-size="9.00" fill="#000000">VEL</text>
</g>
<!-- RF_FR&#45;&gt;VEL -->
<g id="edge1" class="edge">
<title>RF_FR&#45;&gt;VEL</title>
<path fill="none" stroke="#00ff00" stroke-width="1.3547" d="M134.5339,-119.3243C123.8372,-110.5946 107.6706,-96.8093 95,-83.4386 90.8492,-79.0585 86.6674,-74.1963 82.7408,-69.3836"/>
<polygon fill="#00ff00" stroke="#00ff00" stroke-width="1.3547" points="85.3822,-67.0816 76.4241,-61.4245 79.8992,-71.4332 85.3822,-67.0816"/>
</g>
<!-- 3982 -->
<g id="node14" class="node">
<title>3982</title>
<ellipse fill="#ffffff" stroke="#000000" cx="230" cy="-41.7193" rx="25" ry="25"/>
<text text-anchor="middle" x="230" y="-39.5193" font-family="Times,serif" font-size="9.00" fill="#000000">3982</text>
</g>
<!-- RF_FR&#45;&gt;3982 -->
<g id="edge7" class="edge">
<title>RF_FR&#45;&gt;3982</title>
<path fill="none" stroke="#00ff00" stroke-width=".4487" d="M157.4661,-119.3243C168.1628,-110.5946 184.3294,-96.8093 197,-83.4386 200.9701,-79.2491 204.9687,-74.6186 208.7451,-70.0121"/>
<polygon fill="#00ff00" stroke="#00ff00" stroke-width=".4487" points="211.7562,-71.8496 215.2488,-61.8469 206.2808,-67.4884 211.7562,-71.8496"/>
</g>
<!-- RF_F -->
<g id="node3" class="node">
<title>RF_F</title>
<polygon fill="#d3d3d3" stroke="#000000" points="316,-137.4386 278,-137.4386 278,-119.4386 316,-119.4386 316,-137.4386"/>
<text text-anchor="middle" x="297" y="-126.2386" font-family="Times,serif" font-size="9.00" fill="#000000">RF_F</text>
</g>
<!-- 3451 -->
<g id="node13" class="node">
<title>3451</title>
<ellipse fill="#ffffff" stroke="#000000" cx="297" cy="-41.7193" rx="25" ry="25"/>
<text text-anchor="middle" x="297" y="-39.5193" font-family="Times,serif" font-size="9.00" fill="#000000">3451</text>
</g>
<!-- RF_F&#45;&gt;3451 -->
<g id="edge4" class="edge">
<title>RF_F&#45;&gt;3451</title>
<path fill="none" stroke="#00ff00" stroke-width=".2752" d="M297,-119.1581C297,-109.0758 297,-92.3523 297,-77.0216"/>
<polygon fill="#00ff00" stroke="#00ff00" stroke-width=".2752" points="300.5001,-76.7293 297,-66.7294 293.5001,-76.7294 300.5001,-76.7293"/>
</g>
<!-- RF_FL -->
<g id="node4" class="node">
<title>RF_FL</title>
<polygon fill="#d3d3d3" stroke="#000000" points="377.5,-137.4386 334.5,-137.4386 334.5,-119.4386 377.5,-119.4386 377.5,-137.4386"/>
<text text-anchor="middle" x="356" y="-126.2386" font-family="Times,serif" font-size="9.00" fill="#000000">RF_FL</text>
</g>
<!-- RF_L -->
<g id="node5" class="node">
<title>RF_L</title>
<polygon fill="#d3d3d3" stroke="#000000" points="434,-137.4386 396,-137.4386 396,-119.4386 434,-119.4386 434,-137.4386"/>
<text text-anchor="middle" x="415" y="-126.2386" font-family="Times,serif" font-size="9.00" fill="#000000">RF_L</text>
</g>
<!-- RF_B -->
<g id="node6" class="node">
<title>RF_B</title>
<polygon fill="#d3d3d3" stroke="#000000" points="94,-137.4386 56,-137.4386 56,-119.4386 94,-119.4386 94,-137.4386"/>
<text text-anchor="middle" x="75" y="-126.2386" font-family="Times,serif" font-size="9.00" fill="#000000">RF_B</text>
</g>
<!-- RF_B&#45;&gt;ANG_VEL -->
<g id="edge6" class="edge">
<title>RF_B&#45;&gt;ANG_VEL</title>
<path fill="none" stroke="#00ff00" stroke-width=".1645" d="M82.5982,-119.1581C89.9547,-110.1729 101.6296,-95.9132 112.9673,-82.0654"/>
<polygon fill="#00ff00" stroke="#00ff00" stroke-width=".1645" points="115.9417,-83.9574 119.5685,-74.0027 110.5254,-79.5229 115.9417,-83.9574"/>
</g>
<!-- RF_B&#45;&gt;VEL -->
<g id="edge2" class="edge">
<title>RF_B&#45;&gt;VEL</title>
<path fill="none" stroke="#ff0000" stroke-width=".7623" d="M73.6088,-119.1581C72.0506,-108.7638 69.4342,-91.3109 67.0794,-75.6027"/>
<polygon fill="#ff0000" stroke="#ff0000" stroke-width=".7623" points="70.5274,-74.9943 65.5835,-65.6237 63.6048,-76.0322 70.5274,-74.9943"/>
</g>
<!-- RAD_F -->
<g id="node7" class="node">
<title>RAD_F</title>
<polygon fill="#d3d3d3" stroke="#000000" points="498,-137.4386 452,-137.4386 452,-119.4386 498,-119.4386 498,-137.4386"/>
<text text-anchor="middle" x="475" y="-126.2386" font-family="Times,serif" font-size="9.00" fill="#000000">RAD_F</text>
</g>
<!-- RAD_L -->
<g id="node8" class="node">
<title>RAD_L</title>
<polygon fill="#d3d3d3" stroke="#000000" points="562,-137.4386 516,-137.4386 516,-119.4386 562,-119.4386 562,-137.4386"/>
<text text-anchor="middle" x="539" y="-126.2386" font-family="Times,serif" font-size="9.00" fill="#000000">RAD_L</text>
</g>
<!-- RAD_B -->
<g id="node9" class="node">
<title>RAD_B</title>
<polygon fill="#d3d3d3" stroke="#000000" points="627.5,-137.4386 580.5,-137.4386 580.5,-119.4386 627.5,-119.4386 627.5,-137.4386"/>
<text text-anchor="middle" x="604" y="-126.2386" font-family="Times,serif" font-size="9.00" fill="#000000">RAD_B</text>
</g>
<!-- RAD_R -->
<g id="node10" class="node">
<title>RAD_R</title>
<polygon fill="#d3d3d3" stroke="#000000" points="692.5,-137.4386 645.5,-137.4386 645.5,-119.4386 692.5,-119.4386 692.5,-137.4386"/>
<text text-anchor="middle" x="669" y="-126.2386" font-family="Times,serif" font-size="9.00" fill="#000000">RAD_R</text>
</g>
<!-- 3451&#45;&gt;3451 -->
<g id="edge5" class="edge">
<title>3451&#45;&gt;3451</title>
<path fill="none" stroke="#ff0000" stroke-width=".4193" d="M316.788,-56.8365C328.6163,-60.1959 339.7487,-55.1568 339.7487,-41.7193 339.7487,-32.2711 334.245,-26.9749 326.8655,-25.8308"/>
<polygon fill="#ff0000" stroke="#ff0000" stroke-width=".4193" points="326.4917,-22.349 316.788,-26.6021 327.026,-29.3286 326.4917,-22.349"/>
</g>
</g>
</svg>
