<?xml version="1.0" encoding="UTF-8" standalone="no"?>
<!DOCTYPE svg PUBLIC "-//W3C//DTD SVG 1.1//EN"
 "http://www.w3.org/Graphics/SVG/1.1/DTD/svg11.dtd">
<!-- Generated by graphviz version 2.40.1 (20161225.0304)
 -->
<!-- Title: %3 Pages: 1 -->
<svg width="597pt" height="145pt"
 viewBox="0.00 0.00 597.00 145.44" xmlns="http://www.w3.org/2000/svg" xmlns:xlink="http://www.w3.org/1999/xlink">
<g id="graph0" class="graph" transform="scale(1 1) rotate(0) translate(4 141.4386)">
<title>%3</title>
<polygon fill="#ffffff" stroke="transparent" points="-4,4 -4,-141.4386 593,-141.4386 593,4 -4,4"/>
<!-- RF_R -->
<g id="node1" class="node">
<title>RF_R</title>
<polygon fill="#d3d3d3" stroke="#000000" points="100,-137.4386 62,-137.4386 62,-119.4386 100,-119.4386 100,-137.4386"/>
<text text-anchor="middle" x="81" y="-126.2386" font-family="Times,serif" font-size="9.00" fill="#000000">RF_R</text>
</g>
<!-- ANG_VEL -->
<g id="node11" class="node">
<title>ANG_VEL</title>
<ellipse fill="#add8e6" stroke="#000000" cx="149" cy="-41.7193" rx="41.9398" ry="41.9398"/>
<text text-anchor="middle" x="149" y="-39.5193" font-family="Times,serif" font-size="9.00" fill="#000000">ANG_VEL</text>
</g>
<!-- RF_R&#45;&gt;ANG_VEL -->
<g id="edge8" class="edge">
<title>RF_R&#45;&gt;ANG_VEL</title>
<path fill="none" stroke="#00ff00" stroke-width=".4485" d="M88.2772,-119.1581C95.2083,-110.319 106.1419,-96.3756 116.8331,-82.7412"/>
<polygon fill="#00ff00" stroke="#00ff00" stroke-width=".4485" points="119.6514,-84.8191 123.0678,-74.7902 114.143,-80.4997 119.6514,-84.8191"/>
</g>
<!-- VEL -->
<g id="node12" class="node">
<title>VEL</title>
<ellipse fill="#add8e6" stroke="#000000" cx="262" cy="-41.7193" rx="24.0833" ry="24.0833"/>
<text text-anchor="middle" x="262" y="-39.5193" font-family="Times,serif" font-size="9.00" fill="#000000">VEL</text>
</g>
<!-- RF_R&#45;&gt;VEL -->
<g id="edge1" class="edge">
<title>RF_R&#45;&gt;VEL</title>
<path fill="none" stroke="#ff0000" stroke-width=".2135" stroke-dasharray="1,5" d="M100.1825,-122.2575C137.2619,-110.2935 215.38,-85.0023 218,-83.4386 225.2455,-79.1143 232.2674,-73.4079 238.4954,-67.6088"/>
<polygon fill="#ff0000" stroke="#ff0000" stroke-width=".2135" points="241.2407,-69.818 245.9167,-60.3108 236.3325,-64.8269 241.2407,-69.818"/>
</g>
<!-- RF_FR -->
<g id="node2" class="node">
<title>RF_FR</title>
<polygon fill="#d3d3d3" stroke="#000000" points="44,-137.4386 0,-137.4386 0,-119.4386 44,-119.4386 44,-137.4386"/>
<text text-anchor="middle" x="22" y="-126.2386" font-family="Times,serif" font-size="9.00" fill="#000000">RF_FR</text>
</g>
<!-- RF_FR&#45;&gt;ANG_VEL -->
<g id="edge9" class="edge">
<title>RF_FR&#45;&gt;ANG_VEL</title>
<path fill="none" stroke="#ff0000" stroke-width=".1374" d="M35.5912,-119.1581C52.3054,-107.7452 81.4821,-87.8225 106.0554,-71.0431"/>
<polygon fill="#ff0000" stroke="#ff0000" stroke-width=".1374" points="108.2426,-73.7878 114.5273,-65.2583 104.2952,-68.0069 108.2426,-73.7878"/>
</g>
<!-- RF_F -->
<g id="node3" class="node">
<title>RF_F</title>
<polygon fill="#d3d3d3" stroke="#000000" points="407,-137.4386 369,-137.4386 369,-119.4386 407,-119.4386 407,-137.4386"/>
<text text-anchor="middle" x="388" y="-126.2386" font-family="Times,serif" font-size="9.00" fill="#000000">RF_F</text>
</g>
<!-- RF_F&#45;&gt;VEL -->
<g id="edge5" class="edge">
<title>RF_F&#45;&gt;VEL</title>
<path fill="none" stroke="#00ff00" stroke-width=".3254" d="M374.5158,-119.1581C354.5526,-105.4185 316.6699,-79.3457 290.4089,-61.2717"/>
<polygon fill="#00ff00" stroke="#00ff00" stroke-width=".3254" points="292.2131,-58.2646 281.9912,-55.4782 288.2444,-64.0309 292.2131,-58.2646"/>
</g>
<!-- RF_FL -->
<g id="node4" class="node">
<title>RF_FL</title>
<polygon fill="#d3d3d3" stroke="#000000" points="468.5,-137.4386 425.5,-137.4386 425.5,-119.4386 468.5,-119.4386 468.5,-137.4386"/>
<text text-anchor="middle" x="447" y="-126.2386" font-family="Times,serif" font-size="9.00" fill="#000000">RF_FL</text>
</g>
<!-- RF_FL&#45;&gt;VEL -->
<g id="edge6" class="edge">
<title>RF_FL&#45;&gt;VEL</title>
<path fill="none" stroke="#00ff00" stroke-width=".1433" d="M427.5514,-119.322C395.5662,-104.3289 331.5863,-74.3381 293.2066,-56.3475"/>
<polygon fill="#00ff00" stroke="#00ff00" stroke-width=".1433" points="294.5758,-53.1239 284.0356,-52.0486 291.6047,-59.4621 294.5758,-53.1239"/>
</g>
<!-- RF_L -->
<g id="node5" class="node">
<title>RF_L</title>
<polygon fill="#d3d3d3" stroke="#000000" points="525,-137.4386 487,-137.4386 487,-119.4386 525,-119.4386 525,-137.4386"/>
<text text-anchor="middle" x="506" y="-126.2386" font-family="Times,serif" font-size="9.00" fill="#000000">RF_L</text>
</g>
<!-- RF_B -->
<g id="node6" class="node">
<title>RF_B</title>
<polygon fill="#d3d3d3" stroke="#000000" points="156,-137.4386 118,-137.4386 118,-119.4386 156,-119.4386 156,-137.4386"/>
<text text-anchor="middle" x="137" y="-126.2386" font-family="Times,serif" font-size="9.00" fill="#000000">RF_B</text>
</g>
<!-- RF_B&#45;&gt;ANG_VEL -->
<g id="edge3" class="edge">
<title>RF_B&#45;&gt;ANG_VEL</title>
<path fill="none" stroke="#00ff00" stroke-width=".3915" d="M138.2842,-119.1581C139.1911,-112.604 140.4864,-103.2436 141.8646,-93.2837"/>
<polygon fill="#00ff00" stroke="#00ff00" stroke-width=".3915" points="145.3554,-93.5912 143.2592,-83.2058 138.4214,-92.6316 145.3554,-93.5912"/>
</g>
<!-- RF_B&#45;&gt;VEL -->
<g id="edge10" class="edge">
<title>RF_B&#45;&gt;VEL</title>
<path fill="none" stroke="#ff0000" stroke-width=".4564" d="M156.148,-119.5171C173.0982,-111.2279 198.1549,-97.9978 218,-83.4386 224.8033,-78.4474 231.66,-72.4917 237.8695,-66.6648"/>
<polygon fill="#ff0000" stroke="#ff0000" stroke-width=".4564" points="240.5865,-68.9059 245.3362,-59.4353 235.7173,-63.8769 240.5865,-68.9059"/>
</g>
<!-- RAD_F -->
<g id="node7" class="node">
<title>RAD_F</title>
<polygon fill="#d3d3d3" stroke="#000000" points="589,-137.4386 543,-137.4386 543,-119.4386 589,-119.4386 589,-137.4386"/>
<text text-anchor="middle" x="566" y="-126.2386" font-family="Times,serif" font-size="9.00" fill="#000000">RAD_F</text>
</g>
<!-- RAD_L -->
<g id="node8" class="node">
<title>RAD_L</title>
<polygon fill="#d3d3d3" stroke="#000000" points="220,-137.4386 174,-137.4386 174,-119.4386 220,-119.4386 220,-137.4386"/>
<text text-anchor="middle" x="197" y="-126.2386" font-family="Times,serif" font-size="9.00" fill="#000000">RAD_L</text>
</g>
<!-- RAD_L&#45;&gt;ANG_VEL -->
<g id="edge12" class="edge">
<title>RAD_L&#45;&gt;ANG_VEL</title>
<path fill="none" stroke="#00ff00" stroke-width=".3687" d="M191.8632,-119.1581C187.5038,-111.2823 180.9015,-99.3541 174.1757,-87.203"/>
<polygon fill="#00ff00" stroke="#00ff00" stroke-width=".3687" points="177.1918,-85.4246 169.2867,-78.3704 171.0673,-88.8145 177.1918,-85.4246"/>
</g>
<!-- RAD_L&#45;&gt;VEL -->
<g id="edge7" class="edge">
<title>RAD_L&#45;&gt;VEL</title>
<path fill="none" stroke="#00ff00" stroke-width=".2939" d="M203.9561,-119.1581C212.8499,-107.2925 228.6381,-86.2288 241.5052,-69.0623"/>
<polygon fill="#00ff00" stroke="#00ff00" stroke-width=".2939" points="244.347,-71.1065 247.5441,-61.0055 238.7458,-66.9081 244.347,-71.1065"/>
</g>
<!-- RAD_B -->
<g id="node9" class="node">
<title>RAD_B</title>
<polygon fill="#d3d3d3" stroke="#000000" points="285.5,-137.4386 238.5,-137.4386 238.5,-119.4386 285.5,-119.4386 285.5,-137.4386"/>
<text text-anchor="middle" x="262" y="-126.2386" font-family="Times,serif" font-size="9.00" fill="#000000">RAD_B</text>
</g>
<!-- RAD_B&#45;&gt;ANG_VEL -->
<g id="edge14" class="edge">
<title>RAD_B&#45;&gt;ANG_VEL</title>
<path fill="none" stroke="#00ff00" stroke-width=".3966" d="M249.907,-119.1581C235.8333,-108.3576 211.829,-89.936 190.7632,-73.7695"/>
<polygon fill="#00ff00" stroke="#00ff00" stroke-width=".3966" points="192.6236,-70.7854 182.5596,-67.4738 188.3619,-76.3386 192.6236,-70.7854"/>
</g>
<!-- RAD_B&#45;&gt;VEL -->
<g id="edge13" class="edge">
<title>RAD_B&#45;&gt;VEL</title>
<path fill="none" stroke="#00ff00" stroke-width=".3805" d="M262,-119.1581C262,-108.9338 262,-91.8799 262,-76.3747"/>
<polygon fill="#00ff00" stroke="#00ff00" stroke-width=".3805" points="265.5001,-75.9907 262,-65.9908 258.5001,-75.9908 265.5001,-75.9907"/>
</g>
<!-- RAD_R -->
<g id="node10" class="node">
<title>RAD_R</title>
<polygon fill="#d3d3d3" stroke="#000000" points="350.5,-137.4386 303.5,-137.4386 303.5,-119.4386 350.5,-119.4386 350.5,-137.4386"/>
<text text-anchor="middle" x="327" y="-126.2386" font-family="Times,serif" font-size="9.00" fill="#000000">RAD_R</text>
</g>
<!-- RAD_R&#45;&gt;ANG_VEL -->
<g id="edge11" class="edge">
<title>RAD_R&#45;&gt;ANG_VEL</title>
<path fill="none" stroke="#00ff00" stroke-width=".2221" d="M306.5894,-119.4257C286.6679,-110.5445 255.5635,-96.4535 229,-83.4386 217.9007,-78.0005 206.0433,-71.9512 194.9496,-66.1842"/>
<polygon fill="#00ff00" stroke="#00ff00" stroke-width=".2221" points="196.3278,-62.9553 185.8439,-61.4259 193.0858,-69.1593 196.3278,-62.9553"/>
</g>
<!-- RAD_R&#45;&gt;VEL -->
<g id="edge2" class="edge">
<title>RAD_R&#45;&gt;VEL</title>
<path fill="none" stroke="#00ff00" stroke-width=".3152" d="M320.0439,-119.1581C311.1501,-107.2925 295.3619,-86.2288 282.4948,-69.0623"/>
<polygon fill="#00ff00" stroke="#00ff00" stroke-width=".3152" points="285.2542,-66.9081 276.4559,-61.0055 279.653,-71.1065 285.2542,-66.9081"/>
</g>
<!-- ANG_VEL&#45;&gt;ANG_VEL -->
<g id="edge4" class="edge">
<title>ANG_VEL&#45;&gt;ANG_VEL</title>
<path fill="none" stroke="#ff0000" stroke-width=".439" d="M187.7707,-57.8197C199.5285,-57.4162 208.7193,-52.0494 208.7193,-41.7193 208.7193,-34.6174 204.3752,-29.8614 197.8394,-27.4513"/>
<polygon fill="#ff0000" stroke="#ff0000" stroke-width=".439" points="198.2358,-23.966 187.7707,-25.6189 196.9824,-30.8529 198.2358,-23.966"/>
</g>
</g>
</svg>
