<?xml version="1.0" encoding="UTF-8" standalone="no"?>
<!DOCTYPE svg PUBLIC "-//W3C//DTD SVG 1.1//EN"
 "http://www.w3.org/Graphics/SVG/1.1/DTD/svg11.dtd">
<!-- Generated by graphviz version 2.40.1 (20161225.0304)
 -->
<!-- Title: %3 Pages: 1 -->
<svg width="598pt" height="224pt"
 viewBox="0.00 0.00 597.50 223.87" xmlns="http://www.w3.org/2000/svg" xmlns:xlink="http://www.w3.org/1999/xlink">
<g id="graph0" class="graph" transform="scale(1 1) rotate(0) translate(4 219.865)">
<title>%3</title>
<polygon fill="#ffffff" stroke="transparent" points="-4,4 -4,-219.865 593.5,-219.865 593.5,4 -4,4"/>
<!-- RF_R -->
<g id="node1" class="node">
<title>RF_R</title>
<polygon fill="#d3d3d3" stroke="#000000" points="38,-215.865 0,-215.865 0,-197.865 38,-197.865 38,-215.865"/>
<text text-anchor="middle" x="19" y="-204.665" font-family="Times,serif" font-size="9.00" fill="#000000">RF_R</text>
</g>
<!-- RF_FR -->
<g id="node2" class="node">
<title>RF_FR</title>
<polygon fill="#d3d3d3" stroke="#000000" points="350,-215.865 306,-215.865 306,-197.865 350,-197.865 350,-215.865"/>
<text text-anchor="middle" x="328" y="-204.665" font-family="Times,serif" font-size="9.00" fill="#000000">RF_FR</text>
</g>
<!-- 116 -->
<g id="node13" class="node">
<title>116</title>
<ellipse fill="#ffffff" stroke="#000000" cx="283" cy="-140.6518" rx="21.4286" ry="21.4286"/>
<text text-anchor="middle" x="283" y="-138.4518" font-family="Times,serif" font-size="9.00" fill="#000000">116</text>
</g>
<!-- RF_FR&#45;&gt;116 -->
<g id="edge12" class="edge">
<title>RF_FR&#45;&gt;116</title>
<path fill="none" stroke="#ff0000" stroke-width=".3289" d="M321.7429,-197.6583C316.293,-189.6392 308.1206,-177.6143 300.6844,-166.6728"/>
<polygon fill="#ff0000" stroke="#ff0000" stroke-width=".3289" points="303.4605,-164.5307 294.9447,-158.2273 297.671,-168.4654 303.4605,-164.5307"/>
</g>
<!-- RF_F -->
<g id="node3" class="node">
<title>RF_F</title>
<polygon fill="#d3d3d3" stroke="#000000" points="524,-215.865 486,-215.865 486,-197.865 524,-197.865 524,-215.865"/>
<text text-anchor="middle" x="505" y="-204.665" font-family="Times,serif" font-size="9.00" fill="#000000">RF_F</text>
</g>
<!-- VEL -->
<g id="node12" class="node">
<title>VEL</title>
<ellipse fill="#add8e6" stroke="#000000" cx="419" cy="-41.7193" rx="24.0833" ry="24.0833"/>
<text text-anchor="middle" x="419" y="-39.5193" font-family="Times,serif" font-size="9.00" fill="#000000">VEL</text>
</g>
<!-- RF_F&#45;&gt;VEL -->
<g id="edge1" class="edge">
<title>RF_F&#45;&gt;VEL</title>
<path fill="none" stroke="#00ff00" stroke-width=".3284" d="M500.1299,-197.5129C487.7806,-173.7986 454.8143,-110.4935 434.911,-72.2732"/>
<polygon fill="#00ff00" stroke="#00ff00" stroke-width=".3284" points="437.8759,-70.3888 430.1528,-63.136 431.6673,-73.622 437.8759,-70.3888"/>
</g>
<!-- RF_F&#45;&gt;116 -->
<g id="edge6" class="edge">
<title>RF_F&#45;&gt;116</title>
<path fill="none" stroke="#00ff00" stroke-width=".1685" d="M485.7397,-200.6066C482.8152,-199.6759 479.8302,-198.7371 477,-197.865 419.333,-180.0966 351.6699,-160.4027 313.4154,-149.3748"/>
<polygon fill="#00ff00" stroke="#00ff00" stroke-width=".1685" points="314.0162,-145.9057 303.4382,-146.5029 312.0799,-152.6325 314.0162,-145.9057"/>
</g>
<!-- RF_FL -->
<g id="node4" class="node">
<title>RF_FL</title>
<polygon fill="#d3d3d3" stroke="#000000" points="411.5,-215.865 368.5,-215.865 368.5,-197.865 411.5,-197.865 411.5,-215.865"/>
<text text-anchor="middle" x="390" y="-204.665" font-family="Times,serif" font-size="9.00" fill="#000000">RF_FL</text>
</g>
<!-- ANG_VEL -->
<g id="node11" class="node">
<title>ANG_VEL</title>
<ellipse fill="#add8e6" stroke="#000000" cx="209" cy="-41.7193" rx="41.9398" ry="41.9398"/>
<text text-anchor="middle" x="209" y="-39.5193" font-family="Times,serif" font-size="9.00" fill="#000000">ANG_VEL</text>
</g>
<!-- RF_FL&#45;&gt;ANG_VEL -->
<g id="edge3" class="edge">
<title>RF_FL&#45;&gt;ANG_VEL</title>
<path fill="none" stroke="#ff0000" stroke-width=".3017" d="M382.9166,-197.6249C369.9773,-181.0344 341.2422,-145.4994 313,-119.4386 294.2411,-102.1287 271.7281,-84.9252 252.4528,-71.121"/>
<polygon fill="#ff0000" stroke="#ff0000" stroke-width=".3017" points="254.3144,-68.1506 244.131,-65.2267 250.2684,-73.8629 254.3144,-68.1506"/>
</g>
<!-- RF_FL&#45;&gt;VEL -->
<g id="edge8" class="edge">
<title>RF_FL&#45;&gt;VEL</title>
<path fill="none" stroke="#00ff00" stroke-width=".4675" d="M391.6423,-197.5129C395.6836,-174.4985 406.2729,-114.1959 413.0292,-75.7213"/>
<polygon fill="#00ff00" stroke="#00ff00" stroke-width=".4675" points="416.5421,-75.9521 414.8245,-65.4974 409.6476,-74.7413 416.5421,-75.9521"/>
</g>
<!-- RF_FL&#45;&gt;116 -->
<g id="edge13" class="edge">
<title>RF_FL&#45;&gt;116</title>
<path fill="none" stroke="#ff0000" stroke-width=".11" d="M375.1221,-197.6583C358.3151,-187.2579 330.6191,-170.1192 309.9761,-157.345"/>
<polygon fill="#ff0000" stroke="#ff0000" stroke-width=".11" points="311.6784,-154.2825 301.3331,-151.9966 307.9949,-160.235 311.6784,-154.2825"/>
</g>
<!-- RF_L -->
<g id="node5" class="node">
<title>RF_L</title>
<polygon fill="#d3d3d3" stroke="#000000" points="288,-215.865 250,-215.865 250,-197.865 288,-197.865 288,-215.865"/>
<text text-anchor="middle" x="269" y="-204.665" font-family="Times,serif" font-size="9.00" fill="#000000">RF_L</text>
</g>
<!-- RF_L&#45;&gt;116 -->
<g id="edge16" class="edge">
<title>RF_L&#45;&gt;116</title>
<path fill="none" stroke="#00ff00" stroke-width=".3075" d="M270.9466,-197.6583C272.3922,-190.8213 274.4535,-181.0724 276.4636,-171.5657"/>
<polygon fill="#00ff00" stroke="#00ff00" stroke-width=".3075" points="279.9487,-172.0019 278.5931,-161.4942 273.1001,-170.5538 279.9487,-172.0019"/>
</g>
<!-- RF_B -->
<g id="node6" class="node">
<title>RF_B</title>
<polygon fill="#d3d3d3" stroke="#000000" points="468,-215.865 430,-215.865 430,-197.865 468,-197.865 468,-215.865"/>
<text text-anchor="middle" x="449" y="-204.665" font-family="Times,serif" font-size="9.00" fill="#000000">RF_B</text>
</g>
<!-- RF_B&#45;&gt;VEL -->
<g id="edge11" class="edge">
<title>RF_B&#45;&gt;VEL</title>
<path fill="none" stroke="#ff0000" stroke-width=".2694" d="M447.3011,-197.5129C443.1204,-174.4985 432.1659,-114.1959 425.1767,-75.7213"/>
<polygon fill="#ff0000" stroke="#ff0000" stroke-width=".2694" points="428.5505,-74.7108 423.3195,-65.4974 421.6632,-75.962 428.5505,-74.7108"/>
</g>
<!-- RF_B&#45;&gt;116 -->
<g id="edge5" class="edge">
<title>RF_B&#45;&gt;116</title>
<path fill="none" stroke="#ff0000" stroke-width=".6215" d="M429.9577,-199.2695C401.1238,-187.7684 346.1604,-165.8449 312.2346,-152.3128"/>
<polygon fill="#ff0000" stroke="#ff0000" stroke-width=".6215" points="313.4334,-149.0228 302.8483,-148.5688 310.8399,-155.5247 313.4334,-149.0228"/>
</g>
<!-- RAD_F -->
<g id="node7" class="node">
<title>RAD_F</title>
<polygon fill="#d3d3d3" stroke="#000000" points="168,-215.865 122,-215.865 122,-197.865 168,-197.865 168,-215.865"/>
<text text-anchor="middle" x="145" y="-204.665" font-family="Times,serif" font-size="9.00" fill="#000000">RAD_F</text>
</g>
<!-- RAD_F&#45;&gt;ANG_VEL -->
<g id="edge9" class="edge">
<title>RAD_F&#45;&gt;ANG_VEL</title>
<path fill="none" stroke="#00ff00" stroke-width=".2763" d="M148.6243,-197.5129C156.4981,-177.1953 175.6342,-127.8163 190.2698,-90.0506"/>
<polygon fill="#00ff00" stroke="#00ff00" stroke-width=".2763" points="193.5341,-91.3132 193.8842,-80.7242 187.0071,-88.7837 193.5341,-91.3132"/>
</g>
<!-- RAD_F&#45;&gt;116 -->
<g id="edge2" class="edge">
<title>RAD_F&#45;&gt;116</title>
<path fill="none" stroke="#00ff00" stroke-width=".3672" d="M163.899,-197.7972C187.1723,-186.6305 226.9449,-167.5474 254.0717,-154.5318"/>
<polygon fill="#00ff00" stroke="#00ff00" stroke-width=".3672" points="255.9378,-157.5185 263.4396,-150.037 252.9096,-151.2073 255.9378,-157.5185"/>
</g>
<!-- RAD_L -->
<g id="node8" class="node">
<title>RAD_L</title>
<polygon fill="#d3d3d3" stroke="#000000" points="232,-215.865 186,-215.865 186,-197.865 232,-197.865 232,-215.865"/>
<text text-anchor="middle" x="209" y="-204.665" font-family="Times,serif" font-size="9.00" fill="#000000">RAD_L</text>
</g>
<!-- RAD_L&#45;&gt;ANG_VEL -->
<g id="edge7" class="edge">
<title>RAD_L&#45;&gt;ANG_VEL</title>
<path fill="none" stroke="#ff0000" stroke-width=".2606" d="M209,-197.5129C209,-177.8664 209,-131.0469 209,-93.8297"/>
<polygon fill="#ff0000" stroke="#ff0000" stroke-width=".2606" points="212.5001,-93.6177 209,-83.6177 205.5001,-93.6177 212.5001,-93.6177"/>
</g>
<!-- RAD_L&#45;&gt;116 -->
<g id="edge18" class="edge">
<title>RAD_L&#45;&gt;116</title>
<path fill="none" stroke="#ff0000" stroke-width=".2029" d="M219.2894,-197.6583C229.6471,-188.3905 245.9845,-173.7723 259.5218,-161.6595"/>
<polygon fill="#ff0000" stroke="#ff0000" stroke-width=".2029" points="261.984,-164.153 267.1024,-154.8765 257.3163,-158.9363 261.984,-164.153"/>
</g>
<!-- RAD_B -->
<g id="node9" class="node">
<title>RAD_B</title>
<polygon fill="#d3d3d3" stroke="#000000" points="103.5,-215.865 56.5,-215.865 56.5,-197.865 103.5,-197.865 103.5,-215.865"/>
<text text-anchor="middle" x="80" y="-204.665" font-family="Times,serif" font-size="9.00" fill="#000000">RAD_B</text>
</g>
<!-- RAD_B&#45;&gt;ANG_VEL -->
<g id="edge15" class="edge">
<title>RAD_B&#45;&gt;ANG_VEL</title>
<path fill="none" stroke="#00ff00" stroke-width=".264" d="M87.3052,-197.5129C104.2235,-175.8541 146.9384,-121.1705 176.9614,-82.7351"/>
<polygon fill="#00ff00" stroke="#00ff00" stroke-width=".264" points="179.7638,-84.8331 183.1614,-74.7978 174.2473,-80.524 179.7638,-84.8331"/>
</g>
<!-- RAD_B&#45;&gt;116 -->
<g id="edge17" class="edge">
<title>RAD_B&#45;&gt;116</title>
<path fill="none" stroke="#00ff00" stroke-width=".3975" d="M103.684,-199.1399C140.8046,-187.0322 212.6284,-163.6051 253.2047,-150.3702"/>
<polygon fill="#00ff00" stroke="#00ff00" stroke-width=".3975" points="254.3856,-153.6666 262.8073,-147.2381 252.2149,-147.0117 254.3856,-153.6666"/>
</g>
<!-- RAD_R -->
<g id="node10" class="node">
<title>RAD_R</title>
<polygon fill="#d3d3d3" stroke="#000000" points="589.5,-215.865 542.5,-215.865 542.5,-197.865 589.5,-197.865 589.5,-215.865"/>
<text text-anchor="middle" x="566" y="-204.665" font-family="Times,serif" font-size="9.00" fill="#000000">RAD_R</text>
</g>
<!-- ANG_VEL&#45;&gt;ANG_VEL -->
<g id="edge4" class="edge">
<title>ANG_VEL&#45;&gt;ANG_VEL</title>
<path fill="none" stroke="#ff0000" stroke-width=".1519" d="M246.6157,-60.0932C258.921,-59.9982 268.7193,-53.8736 268.7193,-41.7193 268.7193,-33.1733 263.8752,-27.6083 256.7215,-25.0243"/>
<polygon fill="#ff0000" stroke="#ff0000" stroke-width=".1519" points="257.0541,-21.5316 246.6157,-23.3454 255.9069,-28.437 257.0541,-21.5316"/>
</g>
<!-- 116&#45;&gt;ANG_VEL -->
<g id="edge10" class="edge">
<title>116&#45;&gt;ANG_VEL</title>
<path fill="none" stroke="#ff0000" stroke-width=".1006" d="M270.1102,-123.4191C261.8025,-112.3123 250.6224,-97.3654 240.0966,-83.2931"/>
<polygon fill="#ff0000" stroke="#ff0000" stroke-width=".1006" points="242.7939,-81.0557 234.0014,-75.1444 237.1884,-85.2485 242.7939,-81.0557"/>
</g>
<!-- 116&#45;&gt;VEL -->
<g id="edge14" class="edge">
<title>116&#45;&gt;VEL</title>
<path fill="none" stroke="#ff0000" stroke-width=".3784" d="M300.2245,-128.1219C323.056,-111.5132 363.6305,-81.9976 390.9219,-62.1446"/>
<polygon fill="#ff0000" stroke="#ff0000" stroke-width=".3784" points="393.2489,-64.7799 399.2767,-56.0669 389.131,-59.1192 393.2489,-64.7799"/>
</g>
</g>
</svg>
