<?xml version="1.0" encoding="UTF-8" standalone="no"?>
<!DOCTYPE svg PUBLIC "-//W3C//DTD SVG 1.1//EN"
 "http://www.w3.org/Graphics/SVG/1.1/DTD/svg11.dtd">
<!-- Generated by graphviz version 2.40.1 (20161225.0304)
 -->
<!-- Title: %3 Pages: 1 -->
<svg width="542pt" height="230pt"
 viewBox="0.00 0.00 541.50 229.52" xmlns="http://www.w3.org/2000/svg" xmlns:xlink="http://www.w3.org/1999/xlink">
<g id="graph0" class="graph" transform="scale(1 1) rotate(0) translate(4 225.5219)">
<title>%3</title>
<polygon fill="#ffffff" stroke="transparent" points="-4,4 -4,-225.5219 537.5,-225.5219 537.5,4 -4,4"/>
<!-- RF_R -->
<g id="node1" class="node">
<title>RF_R</title>
<polygon fill="#d3d3d3" stroke="#000000" points="103.5,-221.5219 65.5,-221.5219 65.5,-203.5219 103.5,-203.5219 103.5,-221.5219"/>
<text text-anchor="middle" x="84.5" y="-210.3219" font-family="Times,serif" font-size="9.00" fill="#000000">RF_R</text>
</g>
<!-- VEL -->
<g id="node12" class="node">
<title>VEL</title>
<ellipse fill="#add8e6" stroke="#000000" cx="209.5" cy="-143.4802" rx="24.0833" ry="24.0833"/>
<text text-anchor="middle" x="209.5" y="-141.2802" font-family="Times,serif" font-size="9.00" fill="#000000">VEL</text>
</g>
<!-- RF_R&#45;&gt;VEL -->
<g id="edge6" class="edge">
<title>RF_R&#45;&gt;VEL</title>
<path fill="none" stroke="#00ff00" stroke-width=".138" d="M100.8416,-203.4959C120.6756,-192.5409 154.5221,-173.8464 179.1796,-160.2272"/>
<polygon fill="#00ff00" stroke="#00ff00" stroke-width=".138" points="181.0703,-163.1814 188.1316,-155.2827 177.6858,-157.0539 181.0703,-163.1814"/>
</g>
<!-- RF_FR -->
<g id="node2" class="node">
<title>RF_FR</title>
<polygon fill="#d3d3d3" stroke="#000000" points="413.5,-221.5219 369.5,-221.5219 369.5,-203.5219 413.5,-203.5219 413.5,-221.5219"/>
<text text-anchor="middle" x="391.5" y="-210.3219" font-family="Times,serif" font-size="9.00" fill="#000000">RF_FR</text>
</g>
<!-- RF_FR&#45;&gt;VEL -->
<g id="edge11" class="edge">
<title>RF_FR&#45;&gt;VEL</title>
<path fill="none" stroke="#ff0000" stroke-width=".2011" d="M369.1832,-204.056C337.2544,-191.9438 278.3555,-169.6005 241.7056,-155.6974"/>
<polygon fill="#ff0000" stroke="#ff0000" stroke-width=".2011" points="242.5906,-152.2898 231.9993,-152.0153 240.1077,-158.8347 242.5906,-152.2898"/>
</g>
<!-- 22 -->
<g id="node13" class="node">
<title>22</title>
<ellipse fill="#ffffff" stroke="#000000" cx="360.5" cy="-143.4802" rx="18.2703" ry="18.2703"/>
<text text-anchor="middle" x="360.5" y="-141.2802" font-family="Times,serif" font-size="9.00" fill="#000000">22</text>
</g>
<!-- RF_FR&#45;&gt;22 -->
<g id="edge1" class="edge">
<title>RF_FR&#45;&gt;22</title>
<path fill="none" stroke="#00ff00" stroke-width=".1338" d="M387.4473,-203.4959C383.5882,-194.901 377.59,-181.5423 372.2316,-169.6082"/>
<polygon fill="#00ff00" stroke="#00ff00" stroke-width=".1338" points="375.4135,-168.1499 368.1244,-160.4609 369.0276,-171.0172 375.4135,-168.1499"/>
</g>
<!-- RF_F -->
<g id="node3" class="node">
<title>RF_F</title>
<polygon fill="#d3d3d3" stroke="#000000" points="472.5,-152.4802 434.5,-152.4802 434.5,-134.4802 472.5,-134.4802 472.5,-152.4802"/>
<text text-anchor="middle" x="453.5" y="-141.2802" font-family="Times,serif" font-size="9.00" fill="#000000">RF_F</text>
</g>
<!-- ANG_VEL -->
<g id="node11" class="node">
<title>ANG_VEL</title>
<ellipse fill="#add8e6" stroke="#000000" cx="360.5" cy="-41.7193" rx="41.9398" ry="41.9398"/>
<text text-anchor="middle" x="360.5" y="-39.5193" font-family="Times,serif" font-size="9.00" fill="#000000">ANG_VEL</text>
</g>
<!-- RF_F&#45;&gt;ANG_VEL -->
<g id="edge12" class="edge">
<title>RF_F&#45;&gt;ANG_VEL</title>
<path fill="none" stroke="#ff0000" stroke-width=".2758" d="M445.2469,-134.4496C434.1309,-122.2865 413.6586,-99.8857 395.6206,-80.1483"/>
<polygon fill="#ff0000" stroke="#ff0000" stroke-width=".2758" points="398.1808,-77.7616 388.851,-72.7411 393.0136,-82.484 398.1808,-77.7616"/>
</g>
<!-- RF_FL -->
<g id="node4" class="node">
<title>RF_FL</title>
<polygon fill="#d3d3d3" stroke="#000000" points="351,-221.5219 308,-221.5219 308,-203.5219 351,-203.5219 351,-221.5219"/>
<text text-anchor="middle" x="329.5" y="-210.3219" font-family="Times,serif" font-size="9.00" fill="#000000">RF_FL</text>
</g>
<!-- RF_FL&#45;&gt;VEL -->
<g id="edge9" class="edge">
<title>RF_FL&#45;&gt;VEL</title>
<path fill="none" stroke="#ff0000" stroke-width=".2543" d="M313.8121,-203.4959C294.9675,-192.6537 262.9465,-174.2305 239.3415,-160.6495"/>
<polygon fill="#ff0000" stroke="#ff0000" stroke-width=".2543" points="240.8499,-157.4794 230.4367,-155.5261 237.359,-163.5468 240.8499,-157.4794"/>
</g>
<!-- RF_FL&#45;&gt;22 -->
<g id="edge2" class="edge">
<title>RF_FL&#45;&gt;22</title>
<path fill="none" stroke="#ff0000" stroke-width=".1736" d="M333.5527,-203.4959C337.4118,-194.901 343.41,-181.5423 348.7684,-169.6082"/>
<polygon fill="#ff0000" stroke="#ff0000" stroke-width=".1736" points="351.9724,-171.0172 352.8756,-160.4609 345.5865,-168.1499 351.9724,-171.0172"/>
</g>
<!-- RF_L -->
<g id="node5" class="node">
<title>RF_L</title>
<polygon fill="#d3d3d3" stroke="#000000" points="469.5,-221.5219 431.5,-221.5219 431.5,-203.5219 469.5,-203.5219 469.5,-221.5219"/>
<text text-anchor="middle" x="450.5" y="-210.3219" font-family="Times,serif" font-size="9.00" fill="#000000">RF_L</text>
</g>
<!-- RF_L&#45;&gt;22 -->
<g id="edge5" class="edge">
<title>RF_L&#45;&gt;22</title>
<path fill="none" stroke="#00ff00" stroke-width=".4708" d="M438.7341,-203.4959C424.7301,-192.7531 401.0243,-174.5676 383.3695,-161.0241"/>
<polygon fill="#00ff00" stroke="#00ff00" stroke-width=".4708" points="385.3224,-158.111 375.2577,-154.8013 381.0617,-163.665 385.3224,-158.111"/>
</g>
<!-- RF_B -->
<g id="node6" class="node">
<title>RF_B</title>
<polygon fill="#d3d3d3" stroke="#000000" points="289.5,-221.5219 251.5,-221.5219 251.5,-203.5219 289.5,-203.5219 289.5,-221.5219"/>
<text text-anchor="middle" x="270.5" y="-210.3219" font-family="Times,serif" font-size="9.00" fill="#000000">RF_B</text>
</g>
<!-- RF_B&#45;&gt;ANG_VEL -->
<g id="edge14" class="edge">
<title>RF_B&#45;&gt;ANG_VEL</title>
<path fill="none" stroke="#00ff00" stroke-width=".302" d="M275.3388,-203.3388C286.6185,-181.932 315.2915,-127.5162 336.2612,-87.7198"/>
<polygon fill="#00ff00" stroke="#00ff00" stroke-width=".302" points="339.4442,-89.1872 341.0095,-78.7086 333.2513,-85.924 339.4442,-89.1872"/>
</g>
<!-- RF_B&#45;&gt;VEL -->
<g id="edge18" class="edge">
<title>RF_B&#45;&gt;VEL</title>
<path fill="none" stroke="#00ff00" stroke-width=".3187" d="M262.5253,-203.4959C254.8428,-194.8005 242.8521,-181.2292 232.2153,-169.1901"/>
<polygon fill="#00ff00" stroke="#00ff00" stroke-width=".3187" points="234.7238,-166.7432 225.4797,-161.5665 229.478,-171.378 234.7238,-166.7432"/>
</g>
<!-- RF_B&#45;&gt;22 -->
<g id="edge7" class="edge">
<title>RF_B&#45;&gt;22</title>
<path fill="none" stroke="#00ff00" stroke-width=".1269" d="M282.2659,-203.4959C296.2699,-192.7531 319.9757,-174.5676 337.6305,-161.0241"/>
<polygon fill="#00ff00" stroke="#00ff00" stroke-width=".1269" points="339.9383,-163.665 345.7423,-154.8013 335.6776,-158.111 339.9383,-163.665"/>
</g>
<!-- RAD_F -->
<g id="node7" class="node">
<title>RAD_F</title>
<polygon fill="#d3d3d3" stroke="#000000" points="533.5,-221.5219 487.5,-221.5219 487.5,-203.5219 533.5,-203.5219 533.5,-221.5219"/>
<text text-anchor="middle" x="510.5" y="-210.3219" font-family="Times,serif" font-size="9.00" fill="#000000">RAD_F</text>
</g>
<!-- RAD_F&#45;&gt;ANG_VEL -->
<g id="edge16" class="edge">
<title>RAD_F&#45;&gt;ANG_VEL</title>
<path fill="none" stroke="#00ff00" stroke-width=".4751" d="M487.1632,-204.6289C468.5793,-197.3794 442.8866,-185.0831 425.5,-167.5219 404.1817,-145.9894 388.3239,-116.0294 377.6104,-90.7483"/>
<polygon fill="#00ff00" stroke="#00ff00" stroke-width=".4751" points="380.7784,-89.2483 373.7555,-81.3155 374.2986,-91.8964 380.7784,-89.2483"/>
</g>
<!-- RAD_F&#45;&gt;22 -->
<g id="edge13" class="edge">
<title>RAD_F&#45;&gt;22</title>
<path fill="none" stroke="#ff0000" stroke-width=".233" d="M487.4839,-205.8577C463.0716,-198.3127 423.7886,-184.7913 392.5,-167.5219 389.2034,-165.7023 385.8687,-163.5759 382.6596,-161.3541"/>
<polygon fill="#ff0000" stroke="#ff0000" stroke-width=".233" points="384.6982,-158.5087 374.5713,-155.395 380.5462,-164.1444 384.6982,-158.5087"/>
</g>
<!-- RAD_L -->
<g id="node8" class="node">
<title>RAD_L</title>
<polygon fill="#d3d3d3" stroke="#000000" points="167.5,-221.5219 121.5,-221.5219 121.5,-203.5219 167.5,-203.5219 167.5,-221.5219"/>
<text text-anchor="middle" x="144.5" y="-210.3219" font-family="Times,serif" font-size="9.00" fill="#000000">RAD_L</text>
</g>
<!-- RAD_L&#45;&gt;VEL -->
<g id="edge15" class="edge">
<title>RAD_L&#45;&gt;VEL</title>
<path fill="none" stroke="#00ff00" stroke-width=".2544" d="M152.9976,-203.4959C161.3759,-194.5966 174.5626,-180.59 186.0901,-168.3458"/>
<polygon fill="#00ff00" stroke="#00ff00" stroke-width=".2544" points="188.6889,-170.6913 192.9953,-161.0111 183.5922,-165.893 188.6889,-170.6913"/>
</g>
<!-- RAD_B -->
<g id="node9" class="node">
<title>RAD_B</title>
<polygon fill="#d3d3d3" stroke="#000000" points="47,-221.5219 0,-221.5219 0,-203.5219 47,-203.5219 47,-221.5219"/>
<text text-anchor="middle" x="23.5" y="-210.3219" font-family="Times,serif" font-size="9.00" fill="#000000">RAD_B</text>
</g>
<!-- RAD_B&#45;&gt;ANG_VEL -->
<g id="edge8" class="edge">
<title>RAD_B&#45;&gt;ANG_VEL</title>
<path fill="none" stroke="#00ff00" stroke-width=".3845" d="M37.0324,-203.3524C63.2478,-185.8026 123.0837,-146.7816 176.5,-119.4386 221.1291,-96.5937 274.037,-74.7634 311.6375,-60.0884"/>
<polygon fill="#00ff00" stroke="#00ff00" stroke-width=".3845" points="313.2749,-63.2075 321.3341,-56.33 310.7451,-56.6806 313.2749,-63.2075"/>
</g>
<!-- RAD_B&#45;&gt;VEL -->
<g id="edge4" class="edge">
<title>RAD_B&#45;&gt;VEL</title>
<path fill="none" stroke="#ff0000" stroke-width=".3086" d="M47.057,-203.7777C79.939,-191.5722 139.7298,-169.3783 176.8795,-155.5887"/>
<polygon fill="#ff0000" stroke="#ff0000" stroke-width=".3086" points="178.559,-158.6987 186.716,-151.9374 176.1231,-152.1362 178.559,-158.6987"/>
</g>
<!-- RAD_R -->
<g id="node10" class="node">
<title>RAD_R</title>
<polygon fill="#d3d3d3" stroke="#000000" points="233,-221.5219 186,-221.5219 186,-203.5219 233,-203.5219 233,-221.5219"/>
<text text-anchor="middle" x="209.5" y="-210.3219" font-family="Times,serif" font-size="9.00" fill="#000000">RAD_R</text>
</g>
<!-- RAD_R&#45;&gt;VEL -->
<g id="edge10" class="edge">
<title>RAD_R&#45;&gt;VEL</title>
<path fill="none" stroke="#00ff00" stroke-width=".1674" d="M209.5,-203.4959C209.5,-196.8389 209.5,-187.3239 209.5,-177.8266"/>
<polygon fill="#00ff00" stroke="#00ff00" stroke-width=".1674" points="213.0001,-177.664 209.5,-167.664 206.0001,-177.664 213.0001,-177.664"/>
</g>
<!-- VEL&#45;&gt;VEL -->
<g id="edge3" class="edge">
<title>VEL&#45;&gt;VEL</title>
<path fill="none" stroke="#ff0000" stroke-width=".2299" d="M230.2659,-155.7042C241.399,-157.7814 251.5416,-153.7068 251.5416,-143.4802 251.5416,-136.6093 246.9631,-132.5154 240.5818,-131.1985"/>
<polygon fill="#ff0000" stroke="#ff0000" stroke-width=".2299" points="240.2461,-127.7003 230.2659,-131.2563 240.2854,-134.7002 240.2461,-127.7003"/>
</g>
<!-- 22&#45;&gt;ANG_VEL -->
<g id="edge17" class="edge">
<title>22&#45;&gt;ANG_VEL</title>
<path fill="none" stroke="#00ff00" stroke-width=".3271" d="M360.5,-124.8157C360.5,-115.9418 360.5,-104.847 360.5,-93.6827"/>
<polygon fill="#00ff00" stroke="#00ff00" stroke-width=".3271" points="364.0001,-93.4718 360.5,-83.4718 357.0001,-93.4719 364.0001,-93.4718"/>
</g>
</g>
</svg>
