<?xml version="1.0" encoding="UTF-8" standalone="no"?>
<!DOCTYPE svg PUBLIC "-//W3C//DTD SVG 1.1//EN"
 "http://www.w3.org/Graphics/SVG/1.1/DTD/svg11.dtd">
<!-- Generated by graphviz version 2.40.1 (20161225.0304)
 -->
<!-- Title: %3 Pages: 1 -->
<svg width="475pt" height="230pt"
 viewBox="0.00 0.00 475.00 229.52" xmlns="http://www.w3.org/2000/svg" xmlns:xlink="http://www.w3.org/1999/xlink">
<g id="graph0" class="graph" transform="scale(1 1) rotate(0) translate(4 225.5219)">
<title>%3</title>
<polygon fill="#ffffff" stroke="transparent" points="-4,4 -4,-225.5219 471,-225.5219 471,4 -4,4"/>
<!-- RF_R -->
<g id="node1" class="node">
<title>RF_R</title>
<polygon fill="#d3d3d3" stroke="#000000" points="467,-221.5219 429,-221.5219 429,-203.5219 467,-203.5219 467,-221.5219"/>
<text text-anchor="middle" x="448" y="-210.3219" font-family="Times,serif" font-size="9.00" fill="#000000">RF_R</text>
</g>
<!-- ANG_VEL -->
<g id="node11" class="node">
<title>ANG_VEL</title>
<ellipse fill="#add8e6" stroke="#000000" cx="231" cy="-41.7193" rx="41.9398" ry="41.9398"/>
<text text-anchor="middle" x="231" y="-39.5193" font-family="Times,serif" font-size="9.00" fill="#000000">ANG_VEL</text>
</g>
<!-- RF_R&#45;&gt;ANG_VEL -->
<g id="edge10" class="edge">
<title>RF_R&#45;&gt;ANG_VEL</title>
<path fill="none" stroke="#ff0000" stroke-width=".2969" d="M448.803,-203.3787C449.8871,-185.1793 449.6962,-144.0573 429,-119.4386 392.3268,-75.8149 327.9127,-56.543 282.5324,-48.1159"/>
<polygon fill="#ff0000" stroke="#ff0000" stroke-width=".2969" points="283.0349,-44.6508 272.5828,-46.3841 281.8345,-51.5472 283.0349,-44.6508"/>
</g>
<!-- VEL -->
<g id="node12" class="node">
<title>VEL</title>
<ellipse fill="#add8e6" stroke="#000000" cx="236" cy="-143.4802" rx="24.0833" ry="24.0833"/>
<text text-anchor="middle" x="236" y="-141.2802" font-family="Times,serif" font-size="9.00" fill="#000000">VEL</text>
</g>
<!-- RF_R&#45;&gt;VEL -->
<g id="edge18" class="edge">
<title>RF_R&#45;&gt;VEL</title>
<path fill="none" stroke="#ff0000" stroke-width=".4812" d="M428.7224,-206.3183C425.8004,-205.3801 422.8206,-204.4245 420,-203.5219 369.7985,-187.4571 357.0755,-183.9752 307,-167.5219 294.4432,-163.3961 280.6747,-158.7599 268.6324,-154.6677"/>
<polygon fill="#ff0000" stroke="#ff0000" stroke-width=".4812" points="269.5817,-151.2937 258.9873,-151.3814 267.3241,-157.9196 269.5817,-151.2937"/>
</g>
<!-- RF_FR -->
<g id="node2" class="node">
<title>RF_FR</title>
<polygon fill="#d3d3d3" stroke="#000000" points="44,-221.5219 0,-221.5219 0,-203.5219 44,-203.5219 44,-221.5219"/>
<text text-anchor="middle" x="22" y="-210.3219" font-family="Times,serif" font-size="9.00" fill="#000000">RF_FR</text>
</g>
<!-- RF_FR&#45;&gt;ANG_VEL -->
<g id="edge9" class="edge">
<title>RF_FR&#45;&gt;ANG_VEL</title>
<path fill="none" stroke="#00ff00" stroke-width=".2907" d="M21.9307,-203.3756C22.2791,-185.1706 25.5642,-144.039 47,-119.4386 81.0942,-80.3109 138.2102,-60.37 179.7782,-50.555"/>
<polygon fill="#00ff00" stroke="#00ff00" stroke-width=".2907" points="180.728,-53.9291 189.7216,-48.3286 179.1985,-47.0982 180.728,-53.9291"/>
</g>
<!-- 40 -->
<g id="node13" class="node">
<title>40</title>
<ellipse fill="#ffffff" stroke="#000000" cx="175" cy="-143.4802" rx="18.2703" ry="18.2703"/>
<text text-anchor="middle" x="175" y="-141.2802" font-family="Times,serif" font-size="9.00" fill="#000000">40</text>
</g>
<!-- RF_FR&#45;&gt;40 -->
<g id="edge14" class="edge">
<title>RF_FR&#45;&gt;40</title>
<path fill="none" stroke="#00ff00" stroke-width=".3052" d="M42.0021,-203.4959C69.338,-191.1605 118.4198,-169.0122 148.7043,-155.3462"/>
<polygon fill="#00ff00" stroke="#00ff00" stroke-width=".3052" points="150.1497,-158.5339 157.825,-151.2305 147.2705,-152.1534 150.1497,-158.5339"/>
</g>
<!-- 539 -->
<g id="node14" class="node">
<title>539</title>
<ellipse fill="#ffffff" stroke="#000000" cx="77" cy="-143.4802" rx="21.4286" ry="21.4286"/>
<text text-anchor="middle" x="77" y="-141.2802" font-family="Times,serif" font-size="9.00" fill="#000000">539</text>
</g>
<!-- RF_FR&#45;&gt;539 -->
<g id="edge19" class="edge">
<title>RF_FR&#45;&gt;539</title>
<path fill="none" stroke="#00ff00" stroke-width=".2216" d="M29.1903,-203.4959C36.2878,-194.5864 47.4633,-180.5577 57.2254,-168.3033"/>
<polygon fill="#00ff00" stroke="#00ff00" stroke-width=".2216" points="60.1971,-170.1902 63.6904,-160.1878 54.722,-165.8286 60.1971,-170.1902"/>
</g>
<!-- RF_F -->
<g id="node3" class="node">
<title>RF_F</title>
<polygon fill="#d3d3d3" stroke="#000000" points="347,-221.5219 309,-221.5219 309,-203.5219 347,-203.5219 347,-221.5219"/>
<text text-anchor="middle" x="328" y="-210.3219" font-family="Times,serif" font-size="9.00" fill="#000000">RF_F</text>
</g>
<!-- RF_F&#45;&gt;VEL -->
<g id="edge12" class="edge">
<title>RF_F&#45;&gt;VEL</title>
<path fill="none" stroke="#00ff00" stroke-width=".6206" d="M315.9726,-203.4959C302.7458,-193.5698 281.052,-177.2896 263.5939,-164.1881"/>
<polygon fill="#00ff00" stroke="#00ff00" stroke-width=".6206" points="265.5186,-161.2566 255.4195,-158.0536 261.3169,-166.8554 265.5186,-161.2566"/>
</g>
<!-- RF_FL -->
<g id="node4" class="node">
<title>RF_FL</title>
<polygon fill="#d3d3d3" stroke="#000000" points="105.5,-221.5219 62.5,-221.5219 62.5,-203.5219 105.5,-203.5219 105.5,-221.5219"/>
<text text-anchor="middle" x="84" y="-210.3219" font-family="Times,serif" font-size="9.00" fill="#000000">RF_FL</text>
</g>
<!-- RF_FL&#45;&gt;ANG_VEL -->
<g id="edge16" class="edge">
<title>RF_FL&#45;&gt;ANG_VEL</title>
<path fill="none" stroke="#ff0000" stroke-width=".1412" d="M89.3964,-203.3304C99.7238,-186.0722 123.4477,-147.9871 148,-119.4386 161.1415,-104.1582 177.0019,-88.7048 191.3225,-75.6465"/>
<polygon fill="#ff0000" stroke="#ff0000" stroke-width=".1412" points="194.0004,-77.9453 199.093,-68.6547 189.3182,-72.7417 194.0004,-77.9453"/>
</g>
<!-- RF_FL&#45;&gt;40 -->
<g id="edge11" class="edge">
<title>RF_FL&#45;&gt;40</title>
<path fill="none" stroke="#00ff00" stroke-width=".2673" d="M95.8967,-203.4959C110.0562,-192.7531 134.0255,-174.5676 151.8764,-161.0241"/>
<polygon fill="#00ff00" stroke="#00ff00" stroke-width=".2673" points="154.2272,-163.6339 160.0783,-154.8013 149.9961,-158.0573 154.2272,-163.6339"/>
</g>
<!-- RF_L -->
<g id="node5" class="node">
<title>RF_L</title>
<polygon fill="#d3d3d3" stroke="#000000" points="227,-221.5219 189,-221.5219 189,-203.5219 227,-203.5219 227,-221.5219"/>
<text text-anchor="middle" x="208" y="-210.3219" font-family="Times,serif" font-size="9.00" fill="#000000">RF_L</text>
</g>
<!-- RF_L&#45;&gt;VEL -->
<g id="edge15" class="edge">
<title>RF_L&#45;&gt;VEL</title>
<path fill="none" stroke="#00ff00" stroke-width=".3339" d="M211.6605,-203.4959C214.6114,-196.2198 218.9468,-185.5295 223.1442,-175.1797"/>
<polygon fill="#00ff00" stroke="#00ff00" stroke-width=".3339" points="226.4016,-176.4605 226.9165,-165.8782 219.9147,-173.8297 226.4016,-176.4605"/>
</g>
<!-- RF_L&#45;&gt;40 -->
<g id="edge1" class="edge">
<title>RF_L&#45;&gt;40</title>
<path fill="none" stroke="#ff0000" stroke-width=".2499" d="M203.6858,-203.4959C199.5502,-194.8434 193.1068,-181.3628 187.3737,-169.3681"/>
<polygon fill="#ff0000" stroke="#ff0000" stroke-width=".2499" points="190.4561,-167.7008 182.9857,-160.1878 184.1404,-170.7195 190.4561,-167.7008"/>
</g>
<!-- RF_B -->
<g id="node6" class="node">
<title>RF_B</title>
<polygon fill="#d3d3d3" stroke="#000000" points="354,-152.4802 316,-152.4802 316,-134.4802 354,-134.4802 354,-152.4802"/>
<text text-anchor="middle" x="335" y="-141.2802" font-family="Times,serif" font-size="9.00" fill="#000000">RF_B</text>
</g>
<!-- RF_B&#45;&gt;ANG_VEL -->
<g id="edge6" class="edge">
<title>RF_B&#45;&gt;ANG_VEL</title>
<path fill="none" stroke="#00ff00" stroke-width=".3184" d="M325.7707,-134.4496C312.8746,-121.8312 288.7178,-98.1944 268.0217,-77.9439"/>
<polygon fill="#00ff00" stroke="#00ff00" stroke-width=".3184" points="270.4651,-75.438 260.8697,-70.9459 265.5695,-80.4413 270.4651,-75.438"/>
</g>
<!-- RAD_F -->
<g id="node7" class="node">
<title>RAD_F</title>
<polygon fill="#d3d3d3" stroke="#000000" points="411,-221.5219 365,-221.5219 365,-203.5219 411,-203.5219 411,-221.5219"/>
<text text-anchor="middle" x="388" y="-210.3219" font-family="Times,serif" font-size="9.00" fill="#000000">RAD_F</text>
</g>
<!-- RAD_F&#45;&gt;ANG_VEL -->
<g id="edge7" class="edge">
<title>RAD_F&#45;&gt;ANG_VEL</title>
<path fill="none" stroke="#00ff00" stroke-width=".3762" d="M364.9912,-203.6101C347.547,-195.9997 323.791,-183.7134 307,-167.5219 284.0155,-145.358 265.3424,-114.8041 252.2573,-89.3577"/>
<polygon fill="#00ff00" stroke="#00ff00" stroke-width=".3762" points="255.2984,-87.6138 247.6917,-80.2389 249.0391,-90.7477 255.2984,-87.6138"/>
</g>
<!-- RAD_F&#45;&gt;VEL -->
<g id="edge2" class="edge">
<title>RAD_F&#45;&gt;VEL</title>
<path fill="none" stroke="#ff0000" stroke-width=".2945" d="M364.7347,-204.7886C341.2956,-196.6644 304.3525,-182.9411 274,-167.5219 270.9136,-165.954 267.7563,-164.2079 264.6452,-162.3924"/>
<polygon fill="#ff0000" stroke="#ff0000" stroke-width=".2945" points="266.4578,-159.3983 256.0973,-157.1825 262.8147,-165.3756 266.4578,-159.3983"/>
</g>
<!-- RAD_L -->
<g id="node8" class="node">
<title>RAD_L</title>
<polygon fill="#d3d3d3" stroke="#000000" points="291,-221.5219 245,-221.5219 245,-203.5219 291,-203.5219 291,-221.5219"/>
<text text-anchor="middle" x="268" y="-210.3219" font-family="Times,serif" font-size="9.00" fill="#000000">RAD_L</text>
</g>
<!-- RAD_L&#45;&gt;VEL -->
<g id="edge17" class="edge">
<title>RAD_L&#45;&gt;VEL</title>
<path fill="none" stroke="#ff0000" stroke-width=".1751" d="M263.8166,-203.4959C260.4182,-196.1638 255.413,-185.3648 250.5817,-174.9409"/>
<polygon fill="#ff0000" stroke="#ff0000" stroke-width=".1751" points="253.6254,-173.1846 246.2446,-165.5836 247.2744,-176.1283 253.6254,-173.1846"/>
</g>
<!-- RAD_L&#45;&gt;40 -->
<g id="edge4" class="edge">
<title>RAD_L&#45;&gt;40</title>
<path fill="none" stroke="#ff0000" stroke-width=".2593" d="M254.0082,-203.446C240.6391,-194.6327 220.0559,-180.6912 203,-167.5219 200.9144,-165.9115 198.7763,-164.1981 196.6564,-162.4563"/>
<polygon fill="#ff0000" stroke="#ff0000" stroke-width=".2593" points="198.6189,-159.5326 188.72,-155.756 194.1032,-164.8814 198.6189,-159.5326"/>
</g>
<!-- RAD_B -->
<g id="node9" class="node">
<title>RAD_B</title>
<polygon fill="#d3d3d3" stroke="#000000" points="419.5,-152.4802 372.5,-152.4802 372.5,-134.4802 419.5,-134.4802 419.5,-152.4802"/>
<text text-anchor="middle" x="396" y="-141.2802" font-family="Times,serif" font-size="9.00" fill="#000000">RAD_B</text>
</g>
<!-- RAD_B&#45;&gt;ANG_VEL -->
<g id="edge8" class="edge">
<title>RAD_B&#45;&gt;ANG_VEL</title>
<path fill="none" stroke="#00ff00" stroke-width=".1757" d="M383.9758,-134.286C377.8063,-129.6807 370.1109,-124.1063 363,-119.4386 334.8596,-100.9667 302.2767,-81.7612 276.5237,-67.0634"/>
<polygon fill="#00ff00" stroke="#00ff00" stroke-width=".1757" points="278.1418,-63.9573 267.718,-62.0612 274.6842,-70.0438 278.1418,-63.9573"/>
</g>
<!-- RAD_R -->
<g id="node10" class="node">
<title>RAD_R</title>
<polygon fill="#d3d3d3" stroke="#000000" points="170.5,-221.5219 123.5,-221.5219 123.5,-203.5219 170.5,-203.5219 170.5,-221.5219"/>
<text text-anchor="middle" x="147" y="-210.3219" font-family="Times,serif" font-size="9.00" fill="#000000">RAD_R</text>
</g>
<!-- RAD_R&#45;&gt;40 -->
<g id="edge5" class="edge">
<title>RAD_R&#45;&gt;40</title>
<path fill="none" stroke="#00ff00" stroke-width=".2333" d="M150.6605,-203.4959C154.0885,-195.0433 159.3851,-181.9831 164.163,-170.2017"/>
<polygon fill="#00ff00" stroke="#00ff00" stroke-width=".2333" points="167.4873,-171.3177 168.0021,-160.7354 161.0004,-168.6869 167.4873,-171.3177"/>
</g>
<!-- ANG_VEL&#45;&gt;ANG_VEL -->
<g id="edge13" class="edge">
<title>ANG_VEL&#45;&gt;ANG_VEL</title>
<path fill="none" stroke="#00ff00" stroke-width=".2404" d="M268.3246,-60.4693C280.7661,-60.4693 290.7193,-54.2193 290.7193,-41.7193 290.7193,-32.9302 285.7986,-27.2311 278.5521,-24.6218"/>
<polygon fill="#00ff00" stroke="#00ff00" stroke-width=".2404" points="278.7548,-21.1093 268.3246,-22.9693 277.6382,-28.0197 278.7548,-21.1093"/>
</g>
<!-- 40&#45;&gt;ANG_VEL -->
<g id="edge3" class="edge">
<title>40&#45;&gt;ANG_VEL</title>
<path fill="none" stroke="#ff0000" stroke-width=".1022" d="M183.9974,-127.1306C189.9887,-116.2435 198.1777,-101.3626 206.0428,-87.0706"/>
<polygon fill="#ff0000" stroke="#ff0000" stroke-width=".1022" points="209.1205,-88.7374 210.8754,-78.2889 202.9877,-85.3624 209.1205,-88.7374"/>
</g>
<!-- 539&#45;&gt;ANG_VEL -->
<g id="edge20" class="edge">
<title>539&#45;&gt;ANG_VEL</title>
<path fill="none" stroke="#00ff00" stroke-width=".1302" d="M94.9672,-131.6078C117.5222,-116.7038 156.9661,-90.6398 187.5917,-70.4028"/>
<polygon fill="#00ff00" stroke="#00ff00" stroke-width=".1302" points="189.561,-73.2967 195.9745,-64.8636 185.7019,-67.4566 189.561,-73.2967"/>
</g>
</g>
</svg>
