<?xml version="1.0" encoding="UTF-8" standalone="no"?>
<!DOCTYPE svg PUBLIC "-//W3C//DTD SVG 1.1//EN"
 "http://www.w3.org/Graphics/SVG/1.1/DTD/svg11.dtd">
<!-- Generated by graphviz version 2.40.1 (20161225.0304)
 -->
<!-- Title: %3 Pages: 1 -->
<svg width="598pt" height="145pt"
 viewBox="0.00 0.00 598.00 145.44" xmlns="http://www.w3.org/2000/svg" xmlns:xlink="http://www.w3.org/1999/xlink">
<g id="graph0" class="graph" transform="scale(1 1) rotate(0) translate(4 141.4386)">
<title>%3</title>
<polygon fill="#ffffff" stroke="transparent" points="-4,4 -4,-141.4386 594,-141.4386 594,4 -4,4"/>
<!-- RF_R -->
<g id="node1" class="node">
<title>RF_R</title>
<polygon fill="#d3d3d3" stroke="#000000" points="410,-137.4386 372,-137.4386 372,-119.4386 410,-119.4386 410,-137.4386"/>
<text text-anchor="middle" x="391" y="-126.2386" font-family="Times,serif" font-size="9.00" fill="#000000">RF_R</text>
</g>
<!-- ANG_VEL -->
<g id="node11" class="node">
<title>ANG_VEL</title>
<ellipse fill="#add8e6" stroke="#000000" cx="112" cy="-41.7193" rx="41.9398" ry="41.9398"/>
<text text-anchor="middle" x="112" y="-39.5193" font-family="Times,serif" font-size="9.00" fill="#000000">ANG_VEL</text>
</g>
<!-- RF_R&#45;&gt;ANG_VEL -->
<g id="edge11" class="edge">
<title>RF_R&#45;&gt;ANG_VEL</title>
<path fill="none" stroke="#00ff00" stroke-width=".1974" d="M371.729,-122.2144C368.806,-121.279 365.8243,-120.3297 363,-119.4386 293.2586,-97.4335 212.434,-72.5107 161.7565,-56.9538"/>
<polygon fill="#00ff00" stroke="#00ff00" stroke-width=".1974" points="162.6219,-53.5584 152.0351,-53.9709 160.5685,-60.2504 162.6219,-53.5584"/>
</g>
<!-- VEL -->
<g id="node12" class="node">
<title>VEL</title>
<ellipse fill="#add8e6" stroke="#000000" cx="450" cy="-41.7193" rx="24.0833" ry="24.0833"/>
<text text-anchor="middle" x="450" y="-39.5193" font-family="Times,serif" font-size="9.00" fill="#000000">VEL</text>
</g>
<!-- RF_R&#45;&gt;VEL -->
<g id="edge9" class="edge">
<title>RF_R&#45;&gt;VEL</title>
<path fill="none" stroke="#ff0000" stroke-width=".1331" d="M397.314,-119.1581C405.2122,-107.5492 419.1005,-87.1359 430.6354,-70.1818"/>
<polygon fill="#ff0000" stroke="#ff0000" stroke-width=".1331" points="433.6773,-71.9328 436.4087,-61.6961 427.8897,-67.9952 433.6773,-71.9328"/>
</g>
<!-- 33 -->
<g id="node13" class="node">
<title>33</title>
<ellipse fill="#ffffff" stroke="#000000" cx="297" cy="-41.7193" rx="18.2703" ry="18.2703"/>
<text text-anchor="middle" x="297" y="-39.5193" font-family="Times,serif" font-size="9.00" fill="#000000">33</text>
</g>
<!-- RF_R&#45;&gt;33 -->
<g id="edge6" class="edge">
<title>RF_R&#45;&gt;33</title>
<path fill="none" stroke="#ff0000" stroke-width=".1954" d="M380.9404,-119.1581C366.0379,-105.4099 337.7503,-79.3133 318.1574,-61.238"/>
<polygon fill="#ff0000" stroke="#ff0000" stroke-width=".1954" points="320.3352,-58.4851 310.6119,-54.2769 315.5887,-63.6301 320.3352,-58.4851"/>
</g>
<!-- RF_FR -->
<g id="node2" class="node">
<title>RF_FR</title>
<polygon fill="#d3d3d3" stroke="#000000" points="472,-137.4386 428,-137.4386 428,-119.4386 472,-119.4386 472,-137.4386"/>
<text text-anchor="middle" x="450" y="-126.2386" font-family="Times,serif" font-size="9.00" fill="#000000">RF_FR</text>
</g>
<!-- RF_FR&#45;&gt;VEL -->
<g id="edge14" class="edge">
<title>RF_FR&#45;&gt;VEL</title>
<path fill="none" stroke="#ff0000" stroke-width=".343" d="M450,-119.1581C450,-108.9338 450,-91.8799 450,-76.3747"/>
<polygon fill="#ff0000" stroke="#ff0000" stroke-width=".343" points="453.5001,-75.9907 450,-65.9908 446.5001,-75.9908 453.5001,-75.9907"/>
</g>
<!-- RF_FR&#45;&gt;33 -->
<g id="edge1" class="edge">
<title>RF_FR&#45;&gt;33</title>
<path fill="none" stroke="#00ff00" stroke-width=".2793" d="M433.9155,-119.322C407.355,-104.2677 354.1177,-74.0932 322.4213,-56.1279"/>
<polygon fill="#00ff00" stroke="#00ff00" stroke-width=".2793" points="323.7551,-52.8608 313.3295,-50.9747 320.3034,-58.9507 323.7551,-52.8608"/>
</g>
<!-- RF_F -->
<g id="node3" class="node">
<title>RF_F</title>
<polygon fill="#d3d3d3" stroke="#000000" points="224,-137.4386 186,-137.4386 186,-119.4386 224,-119.4386 224,-137.4386"/>
<text text-anchor="middle" x="205" y="-126.2386" font-family="Times,serif" font-size="9.00" fill="#000000">RF_F</text>
</g>
<!-- RF_F&#45;&gt;33 -->
<g id="edge3" class="edge">
<title>RF_F&#45;&gt;33</title>
<path fill="none" stroke="#00ff00" stroke-width=".214" d="M214.8456,-119.1581C229.3495,-105.4867 256.8078,-79.6045 275.9706,-61.5417"/>
<polygon fill="#00ff00" stroke="#00ff00" stroke-width=".214" points="278.4871,-63.9794 283.3632,-54.5734 273.6856,-58.8856 278.4871,-63.9794"/>
</g>
<!-- RF_FL -->
<g id="node4" class="node">
<title>RF_FL</title>
<polygon fill="#d3d3d3" stroke="#000000" points="533.5,-137.4386 490.5,-137.4386 490.5,-119.4386 533.5,-119.4386 533.5,-137.4386"/>
<text text-anchor="middle" x="512" y="-126.2386" font-family="Times,serif" font-size="9.00" fill="#000000">RF_FL</text>
</g>
<!-- RF_FL&#45;&gt;VEL -->
<g id="edge16" class="edge">
<title>RF_FL&#45;&gt;VEL</title>
<path fill="none" stroke="#00ff00" stroke-width=".4385" d="M505.3649,-119.1581C497.0119,-107.4748 482.2832,-86.8738 470.1164,-69.8561"/>
<polygon fill="#00ff00" stroke="#00ff00" stroke-width=".4385" points="472.698,-67.449 464.0349,-61.3498 467.0037,-71.5202 472.698,-67.449"/>
</g>
<!-- RF_FL&#45;&gt;33 -->
<g id="edge10" class="edge">
<title>RF_FL&#45;&gt;33</title>
<path fill="none" stroke="#ff0000" stroke-width=".1427" d="M490.2015,-119.6463C450.5694,-103.6609 366.8373,-69.8879 323.7927,-52.526"/>
<polygon fill="#ff0000" stroke="#ff0000" stroke-width=".1427" points="324.8517,-49.1792 314.2684,-48.6844 322.2332,-55.671 324.8517,-49.1792"/>
</g>
<!-- RF_L -->
<g id="node5" class="node">
<title>RF_L</title>
<polygon fill="#d3d3d3" stroke="#000000" points="38,-137.4386 0,-137.4386 0,-119.4386 38,-119.4386 38,-137.4386"/>
<text text-anchor="middle" x="19" y="-126.2386" font-family="Times,serif" font-size="9.00" fill="#000000">RF_L</text>
</g>
<!-- RF_L&#45;&gt;ANG_VEL -->
<g id="edge15" class="edge">
<title>RF_L&#45;&gt;ANG_VEL</title>
<path fill="none" stroke="#00ff00" stroke-width=".3677" d="M28.9526,-119.1581C39.6803,-109.155 57.4186,-92.6146 73.7532,-77.3832"/>
<polygon fill="#00ff00" stroke="#00ff00" stroke-width=".3677" points="76.2024,-79.8849 81.1292,-70.5052 71.4286,-74.7652 76.2024,-79.8849"/>
</g>
<!-- RF_L&#45;&gt;33 -->
<g id="edge12" class="edge">
<title>RF_L&#45;&gt;33</title>
<path fill="none" stroke="#ff0000" stroke-width=".1687" d="M38.2715,-122.216C41.1944,-121.2804 44.176,-120.3306 47,-119.4386 98.4743,-103.179 111.4517,-99.4619 163,-83.4386 199.9303,-71.9591 242.5776,-58.677 269.6562,-50.2404"/>
<polygon fill="#ff0000" stroke="#ff0000" stroke-width=".1687" points="270.7216,-53.5745 279.2277,-47.2581 268.6392,-46.8914 270.7216,-53.5745"/>
</g>
<!-- RF_B -->
<g id="node6" class="node">
<title>RF_B</title>
<polygon fill="#d3d3d3" stroke="#000000" points="590,-137.4386 552,-137.4386 552,-119.4386 590,-119.4386 590,-137.4386"/>
<text text-anchor="middle" x="571" y="-126.2386" font-family="Times,serif" font-size="9.00" fill="#000000">RF_B</text>
</g>
<!-- RF_B&#45;&gt;VEL -->
<g id="edge18" class="edge">
<title>RF_B&#45;&gt;VEL</title>
<path fill="none" stroke="#00ff00" stroke-width=".281" d="M558.0509,-119.1581C539.0723,-105.5564 503.229,-79.8679 478.0443,-61.8183"/>
<polygon fill="#00ff00" stroke="#00ff00" stroke-width=".281" points="479.7927,-58.7653 469.6257,-55.7848 475.715,-64.455 479.7927,-58.7653"/>
</g>
<!-- RAD_F -->
<g id="node7" class="node">
<title>RAD_F</title>
<polygon fill="#d3d3d3" stroke="#000000" points="102,-137.4386 56,-137.4386 56,-119.4386 102,-119.4386 102,-137.4386"/>
<text text-anchor="middle" x="79" y="-126.2386" font-family="Times,serif" font-size="9.00" fill="#000000">RAD_F</text>
</g>
<!-- RAD_F&#45;&gt;ANG_VEL -->
<g id="edge8" class="edge">
<title>RAD_F&#45;&gt;ANG_VEL</title>
<path fill="none" stroke="#00ff00" stroke-width=".2748" d="M82.5316,-119.1581C85.2854,-111.9213 89.3413,-101.2631 93.5687,-90.1543"/>
<polygon fill="#00ff00" stroke="#00ff00" stroke-width=".2748" points="96.8496,-91.3731 97.1351,-80.7821 90.3073,-88.8834 96.8496,-91.3731"/>
</g>
<!-- RAD_F&#45;&gt;33 -->
<g id="edge4" class="edge">
<title>RAD_F&#45;&gt;33</title>
<path fill="none" stroke="#ff0000" stroke-width=".3002" d="M101.9178,-119.322C142.5863,-103.1443 227.1494,-69.5055 270.348,-52.3213"/>
<polygon fill="#ff0000" stroke="#ff0000" stroke-width=".3002" points="271.6515,-55.5696 279.6496,-48.6212 269.064,-49.0654 271.6515,-55.5696"/>
</g>
<!-- RAD_L -->
<g id="node8" class="node">
<title>RAD_L</title>
<polygon fill="#d3d3d3" stroke="#000000" points="288,-137.4386 242,-137.4386 242,-119.4386 288,-119.4386 288,-137.4386"/>
<text text-anchor="middle" x="265" y="-126.2386" font-family="Times,serif" font-size="9.00" fill="#000000">RAD_L</text>
</g>
<!-- RAD_L&#45;&gt;33 -->
<g id="edge7" class="edge">
<title>RAD_L&#45;&gt;33</title>
<path fill="none" stroke="#00ff00" stroke-width=".1163" d="M268.4246,-119.1581C272.8454,-107.1778 280.7263,-85.8207 287.0935,-68.5656"/>
<polygon fill="#00ff00" stroke="#00ff00" stroke-width=".1163" points="290.4516,-69.5752 290.63,-58.9819 283.8845,-67.1518 290.4516,-69.5752"/>
</g>
<!-- RAD_B -->
<g id="node9" class="node">
<title>RAD_B</title>
<polygon fill="#d3d3d3" stroke="#000000" points="167.5,-137.4386 120.5,-137.4386 120.5,-119.4386 167.5,-119.4386 167.5,-137.4386"/>
<text text-anchor="middle" x="144" y="-126.2386" font-family="Times,serif" font-size="9.00" fill="#000000">RAD_B</text>
</g>
<!-- RAD_B&#45;&gt;ANG_VEL -->
<g id="edge17" class="edge">
<title>RAD_B&#45;&gt;ANG_VEL</title>
<path fill="none" stroke="#ff0000" stroke-width=".2947" d="M140.5754,-119.1581C137.9567,-112.0613 134.1237,-101.6741 130.1105,-90.7983"/>
<polygon fill="#ff0000" stroke="#ff0000" stroke-width=".2947" points="133.3088,-89.3553 126.5632,-81.1854 126.7416,-91.7787 133.3088,-89.3553"/>
</g>
<!-- RAD_B&#45;&gt;VEL -->
<g id="edge2" class="edge">
<title>RAD_B&#45;&gt;VEL</title>
<path fill="none" stroke="#ff0000" stroke-width=".2771" d="M167.7551,-121.8031C170.8587,-120.9823 174.0009,-120.1742 177,-119.4386 249.8976,-101.5581 270.1128,-105.0257 342,-83.4386 368.092,-75.6034 396.8284,-64.3707 418.0956,-55.5342"/>
<polygon fill="#ff0000" stroke="#ff0000" stroke-width=".2771" points="419.7359,-58.6414 427.5978,-51.5392 417.0228,-52.1886 419.7359,-58.6414"/>
</g>
<!-- RAD_R -->
<g id="node10" class="node">
<title>RAD_R</title>
<polygon fill="#d3d3d3" stroke="#000000" points="353.5,-137.4386 306.5,-137.4386 306.5,-119.4386 353.5,-119.4386 353.5,-137.4386"/>
<text text-anchor="middle" x="330" y="-126.2386" font-family="Times,serif" font-size="9.00" fill="#000000">RAD_R</text>
</g>
<!-- RAD_R&#45;&gt;33 -->
<g id="edge5" class="edge">
<title>RAD_R&#45;&gt;33</title>
<path fill="none" stroke="#00ff00" stroke-width=".4156" d="M326.4684,-119.1581C321.9095,-107.1778 313.7823,-85.8207 307.216,-68.5656"/>
<polygon fill="#00ff00" stroke="#00ff00" stroke-width=".4156" points="310.3969,-67.0832 303.5691,-58.9819 303.8545,-69.5729 310.3969,-67.0832"/>
</g>
<!-- 33&#45;&gt;33 -->
<g id="edge13" class="edge">
<title>33&#45;&gt;33</title>
<path fill="none" stroke="#00ff00" stroke-width=".1337" d="M310.0565,-55.183C321.3927,-61.3244 333.3848,-56.8365 333.3848,-41.7193 333.3848,-31.09 327.4561,-25.7157 319.9953,-25.5963"/>
<polygon fill="#00ff00" stroke="#00ff00" stroke-width=".1337" points="318.812,-22.2897 310.0565,-28.2556 320.6214,-29.0519 318.812,-22.2897"/>
</g>
</g>
</svg>
