<?xml version="1.0" encoding="utf-8" standalone="no"?>
<!DOCTYPE svg PUBLIC "-//W3C//DTD SVG 1.1//EN"
  "http://www.w3.org/Graphics/SVG/1.1/DTD/svg11.dtd">
<!-- Created with matplotlib (https://matplotlib.org/) -->
<svg height="345.6pt" version="1.1" viewBox="0 0 460.8 345.6" width="460.8pt" xmlns="http://www.w3.org/2000/svg" xmlns:xlink="http://www.w3.org/1999/xlink">
 <defs>
  <style type="text/css">
*{stroke-linecap:butt;stroke-linejoin:round;}
  </style>
 </defs>
 <g id="figure_1">
  <g id="patch_1">
   <path d="M 0 345.6 
L 460.8 345.6 
L 460.8 0 
L 0 0 
z
" style="fill:#ffffff;"/>
  </g>
  <g id="axes_1">
   <g id="patch_2">
    <path d="M 57.6 307.584 
L 414.72 307.584 
L 414.72 41.472 
L 57.6 41.472 
z
" style="fill:#ffffff;"/>
   </g>
   <g id="matplotlib.axis_1">
    <g id="xtick_1">
     <g id="line2d_1">
      <path clip-path="url(#p59991c6c95)" d="M 73.832727 307.584 
L 73.832727 41.472 
" style="fill:none;stroke:#b0b0b0;stroke-linecap:square;stroke-width:0.8;"/>
     </g>
     <g id="line2d_2">
      <defs>
       <path d="M 0 0 
L 0 3.5 
" id="m666134b8b1" style="stroke:#000000;stroke-width:0.8;"/>
      </defs>
      <g>
       <use style="stroke:#000000;stroke-width:0.8;" x="73.832727" xlink:href="#m666134b8b1" y="307.584"/>
      </g>
     </g>
     <g id="text_1">
      <!-- 0 -->
      <defs>
       <path d="M 31.78125 66.40625 
Q 24.171875 66.40625 20.328125 58.90625 
Q 16.5 51.421875 16.5 36.375 
Q 16.5 21.390625 20.328125 13.890625 
Q 24.171875 6.390625 31.78125 6.390625 
Q 39.453125 6.390625 43.28125 13.890625 
Q 47.125 21.390625 47.125 36.375 
Q 47.125 51.421875 43.28125 58.90625 
Q 39.453125 66.40625 31.78125 66.40625 
z
M 31.78125 74.21875 
Q 44.046875 74.21875 50.515625 64.515625 
Q 56.984375 54.828125 56.984375 36.375 
Q 56.984375 17.96875 50.515625 8.265625 
Q 44.046875 -1.421875 31.78125 -1.421875 
Q 19.53125 -1.421875 13.0625 8.265625 
Q 6.59375 17.96875 6.59375 36.375 
Q 6.59375 54.828125 13.0625 64.515625 
Q 19.53125 74.21875 31.78125 74.21875 
z
" id="DejaVuSans-48"/>
      </defs>
      <g transform="translate(70.651477 322.182437)scale(0.1 -0.1)">
       <use xlink:href="#DejaVuSans-48"/>
      </g>
     </g>
    </g>
    <g id="xtick_2">
     <g id="line2d_3">
      <path clip-path="url(#p59991c6c95)" d="M 114.516254 307.584 
L 114.516254 41.472 
" style="fill:none;stroke:#b0b0b0;stroke-linecap:square;stroke-width:0.8;"/>
     </g>
     <g id="line2d_4">
      <g>
       <use style="stroke:#000000;stroke-width:0.8;" x="114.516254" xlink:href="#m666134b8b1" y="307.584"/>
      </g>
     </g>
     <g id="text_2">
      <!-- 50 -->
      <defs>
       <path d="M 10.796875 72.90625 
L 49.515625 72.90625 
L 49.515625 64.59375 
L 19.828125 64.59375 
L 19.828125 46.734375 
Q 21.96875 47.46875 24.109375 47.828125 
Q 26.265625 48.1875 28.421875 48.1875 
Q 40.625 48.1875 47.75 41.5 
Q 54.890625 34.8125 54.890625 23.390625 
Q 54.890625 11.625 47.5625 5.09375 
Q 40.234375 -1.421875 26.90625 -1.421875 
Q 22.3125 -1.421875 17.546875 -0.640625 
Q 12.796875 0.140625 7.71875 1.703125 
L 7.71875 11.625 
Q 12.109375 9.234375 16.796875 8.0625 
Q 21.484375 6.890625 26.703125 6.890625 
Q 35.15625 6.890625 40.078125 11.328125 
Q 45.015625 15.765625 45.015625 23.390625 
Q 45.015625 31 40.078125 35.4375 
Q 35.15625 39.890625 26.703125 39.890625 
Q 22.75 39.890625 18.8125 39.015625 
Q 14.890625 38.140625 10.796875 36.28125 
z
" id="DejaVuSans-53"/>
      </defs>
      <g transform="translate(108.153754 322.182437)scale(0.1 -0.1)">
       <use xlink:href="#DejaVuSans-53"/>
       <use x="63.623047" xlink:href="#DejaVuSans-48"/>
      </g>
     </g>
    </g>
    <g id="xtick_3">
     <g id="line2d_5">
      <path clip-path="url(#p59991c6c95)" d="M 155.199781 307.584 
L 155.199781 41.472 
" style="fill:none;stroke:#b0b0b0;stroke-linecap:square;stroke-width:0.8;"/>
     </g>
     <g id="line2d_6">
      <g>
       <use style="stroke:#000000;stroke-width:0.8;" x="155.199781" xlink:href="#m666134b8b1" y="307.584"/>
      </g>
     </g>
     <g id="text_3">
      <!-- 100 -->
      <defs>
       <path d="M 12.40625 8.296875 
L 28.515625 8.296875 
L 28.515625 63.921875 
L 10.984375 60.40625 
L 10.984375 69.390625 
L 28.421875 72.90625 
L 38.28125 72.90625 
L 38.28125 8.296875 
L 54.390625 8.296875 
L 54.390625 0 
L 12.40625 0 
z
" id="DejaVuSans-49"/>
      </defs>
      <g transform="translate(145.656031 322.182437)scale(0.1 -0.1)">
       <use xlink:href="#DejaVuSans-49"/>
       <use x="63.623047" xlink:href="#DejaVuSans-48"/>
       <use x="127.246094" xlink:href="#DejaVuSans-48"/>
      </g>
     </g>
    </g>
    <g id="xtick_4">
     <g id="line2d_7">
      <path clip-path="url(#p59991c6c95)" d="M 195.883308 307.584 
L 195.883308 41.472 
" style="fill:none;stroke:#b0b0b0;stroke-linecap:square;stroke-width:0.8;"/>
     </g>
     <g id="line2d_8">
      <g>
       <use style="stroke:#000000;stroke-width:0.8;" x="195.883308" xlink:href="#m666134b8b1" y="307.584"/>
      </g>
     </g>
     <g id="text_4">
      <!-- 150 -->
      <g transform="translate(186.339558 322.182437)scale(0.1 -0.1)">
       <use xlink:href="#DejaVuSans-49"/>
       <use x="63.623047" xlink:href="#DejaVuSans-53"/>
       <use x="127.246094" xlink:href="#DejaVuSans-48"/>
      </g>
     </g>
    </g>
    <g id="xtick_5">
     <g id="line2d_9">
      <path clip-path="url(#p59991c6c95)" d="M 236.566835 307.584 
L 236.566835 41.472 
" style="fill:none;stroke:#b0b0b0;stroke-linecap:square;stroke-width:0.8;"/>
     </g>
     <g id="line2d_10">
      <g>
       <use style="stroke:#000000;stroke-width:0.8;" x="236.566835" xlink:href="#m666134b8b1" y="307.584"/>
      </g>
     </g>
     <g id="text_5">
      <!-- 200 -->
      <defs>
       <path d="M 19.1875 8.296875 
L 53.609375 8.296875 
L 53.609375 0 
L 7.328125 0 
L 7.328125 8.296875 
Q 12.9375 14.109375 22.625 23.890625 
Q 32.328125 33.6875 34.8125 36.53125 
Q 39.546875 41.84375 41.421875 45.53125 
Q 43.3125 49.21875 43.3125 52.78125 
Q 43.3125 58.59375 39.234375 62.25 
Q 35.15625 65.921875 28.609375 65.921875 
Q 23.96875 65.921875 18.8125 64.3125 
Q 13.671875 62.703125 7.8125 59.421875 
L 7.8125 69.390625 
Q 13.765625 71.78125 18.9375 73 
Q 24.125 74.21875 28.421875 74.21875 
Q 39.75 74.21875 46.484375 68.546875 
Q 53.21875 62.890625 53.21875 53.421875 
Q 53.21875 48.921875 51.53125 44.890625 
Q 49.859375 40.875 45.40625 35.40625 
Q 44.1875 33.984375 37.640625 27.21875 
Q 31.109375 20.453125 19.1875 8.296875 
z
" id="DejaVuSans-50"/>
      </defs>
      <g transform="translate(227.023085 322.182437)scale(0.1 -0.1)">
       <use xlink:href="#DejaVuSans-50"/>
       <use x="63.623047" xlink:href="#DejaVuSans-48"/>
       <use x="127.246094" xlink:href="#DejaVuSans-48"/>
      </g>
     </g>
    </g>
    <g id="xtick_6">
     <g id="line2d_11">
      <path clip-path="url(#p59991c6c95)" d="M 277.250362 307.584 
L 277.250362 41.472 
" style="fill:none;stroke:#b0b0b0;stroke-linecap:square;stroke-width:0.8;"/>
     </g>
     <g id="line2d_12">
      <g>
       <use style="stroke:#000000;stroke-width:0.8;" x="277.250362" xlink:href="#m666134b8b1" y="307.584"/>
      </g>
     </g>
     <g id="text_6">
      <!-- 250 -->
      <g transform="translate(267.706612 322.182437)scale(0.1 -0.1)">
       <use xlink:href="#DejaVuSans-50"/>
       <use x="63.623047" xlink:href="#DejaVuSans-53"/>
       <use x="127.246094" xlink:href="#DejaVuSans-48"/>
      </g>
     </g>
    </g>
    <g id="xtick_7">
     <g id="line2d_13">
      <path clip-path="url(#p59991c6c95)" d="M 317.933889 307.584 
L 317.933889 41.472 
" style="fill:none;stroke:#b0b0b0;stroke-linecap:square;stroke-width:0.8;"/>
     </g>
     <g id="line2d_14">
      <g>
       <use style="stroke:#000000;stroke-width:0.8;" x="317.933889" xlink:href="#m666134b8b1" y="307.584"/>
      </g>
     </g>
     <g id="text_7">
      <!-- 300 -->
      <defs>
       <path d="M 40.578125 39.3125 
Q 47.65625 37.796875 51.625 33 
Q 55.609375 28.21875 55.609375 21.1875 
Q 55.609375 10.40625 48.1875 4.484375 
Q 40.765625 -1.421875 27.09375 -1.421875 
Q 22.515625 -1.421875 17.65625 -0.515625 
Q 12.796875 0.390625 7.625 2.203125 
L 7.625 11.71875 
Q 11.71875 9.328125 16.59375 8.109375 
Q 21.484375 6.890625 26.8125 6.890625 
Q 36.078125 6.890625 40.9375 10.546875 
Q 45.796875 14.203125 45.796875 21.1875 
Q 45.796875 27.640625 41.28125 31.265625 
Q 36.765625 34.90625 28.71875 34.90625 
L 20.21875 34.90625 
L 20.21875 43.015625 
L 29.109375 43.015625 
Q 36.375 43.015625 40.234375 45.921875 
Q 44.09375 48.828125 44.09375 54.296875 
Q 44.09375 59.90625 40.109375 62.90625 
Q 36.140625 65.921875 28.71875 65.921875 
Q 24.65625 65.921875 20.015625 65.03125 
Q 15.375 64.15625 9.8125 62.3125 
L 9.8125 71.09375 
Q 15.4375 72.65625 20.34375 73.4375 
Q 25.25 74.21875 29.59375 74.21875 
Q 40.828125 74.21875 47.359375 69.109375 
Q 53.90625 64.015625 53.90625 55.328125 
Q 53.90625 49.265625 50.4375 45.09375 
Q 46.96875 40.921875 40.578125 39.3125 
z
" id="DejaVuSans-51"/>
      </defs>
      <g transform="translate(308.390139 322.182437)scale(0.1 -0.1)">
       <use xlink:href="#DejaVuSans-51"/>
       <use x="63.623047" xlink:href="#DejaVuSans-48"/>
       <use x="127.246094" xlink:href="#DejaVuSans-48"/>
      </g>
     </g>
    </g>
    <g id="xtick_8">
     <g id="line2d_15">
      <path clip-path="url(#p59991c6c95)" d="M 358.617416 307.584 
L 358.617416 41.472 
" style="fill:none;stroke:#b0b0b0;stroke-linecap:square;stroke-width:0.8;"/>
     </g>
     <g id="line2d_16">
      <g>
       <use style="stroke:#000000;stroke-width:0.8;" x="358.617416" xlink:href="#m666134b8b1" y="307.584"/>
      </g>
     </g>
     <g id="text_8">
      <!-- 350 -->
      <g transform="translate(349.073666 322.182437)scale(0.1 -0.1)">
       <use xlink:href="#DejaVuSans-51"/>
       <use x="63.623047" xlink:href="#DejaVuSans-53"/>
       <use x="127.246094" xlink:href="#DejaVuSans-48"/>
      </g>
     </g>
    </g>
    <g id="xtick_9">
     <g id="line2d_17">
      <path clip-path="url(#p59991c6c95)" d="M 399.300943 307.584 
L 399.300943 41.472 
" style="fill:none;stroke:#b0b0b0;stroke-linecap:square;stroke-width:0.8;"/>
     </g>
     <g id="line2d_18">
      <g>
       <use style="stroke:#000000;stroke-width:0.8;" x="399.300943" xlink:href="#m666134b8b1" y="307.584"/>
      </g>
     </g>
     <g id="text_9">
      <!-- 400 -->
      <defs>
       <path d="M 37.796875 64.3125 
L 12.890625 25.390625 
L 37.796875 25.390625 
z
M 35.203125 72.90625 
L 47.609375 72.90625 
L 47.609375 25.390625 
L 58.015625 25.390625 
L 58.015625 17.1875 
L 47.609375 17.1875 
L 47.609375 0 
L 37.796875 0 
L 37.796875 17.1875 
L 4.890625 17.1875 
L 4.890625 26.703125 
z
" id="DejaVuSans-52"/>
      </defs>
      <g transform="translate(389.757193 322.182437)scale(0.1 -0.1)">
       <use xlink:href="#DejaVuSans-52"/>
       <use x="63.623047" xlink:href="#DejaVuSans-48"/>
       <use x="127.246094" xlink:href="#DejaVuSans-48"/>
      </g>
     </g>
    </g>
    <g id="text_10">
     <!-- Generations -->
     <defs>
      <path d="M 59.515625 10.40625 
L 59.515625 29.984375 
L 43.40625 29.984375 
L 43.40625 38.09375 
L 69.28125 38.09375 
L 69.28125 6.78125 
Q 63.578125 2.734375 56.6875 0.65625 
Q 49.8125 -1.421875 42 -1.421875 
Q 24.90625 -1.421875 15.25 8.5625 
Q 5.609375 18.5625 5.609375 36.375 
Q 5.609375 54.25 15.25 64.234375 
Q 24.90625 74.21875 42 74.21875 
Q 49.125 74.21875 55.546875 72.453125 
Q 61.96875 70.703125 67.390625 67.28125 
L 67.390625 56.78125 
Q 61.921875 61.421875 55.765625 63.765625 
Q 49.609375 66.109375 42.828125 66.109375 
Q 29.4375 66.109375 22.71875 58.640625 
Q 16.015625 51.171875 16.015625 36.375 
Q 16.015625 21.625 22.71875 14.15625 
Q 29.4375 6.6875 42.828125 6.6875 
Q 48.046875 6.6875 52.140625 7.59375 
Q 56.25 8.5 59.515625 10.40625 
z
" id="DejaVuSans-71"/>
      <path d="M 56.203125 29.59375 
L 56.203125 25.203125 
L 14.890625 25.203125 
Q 15.484375 15.921875 20.484375 11.0625 
Q 25.484375 6.203125 34.421875 6.203125 
Q 39.59375 6.203125 44.453125 7.46875 
Q 49.3125 8.734375 54.109375 11.28125 
L 54.109375 2.78125 
Q 49.265625 0.734375 44.1875 -0.34375 
Q 39.109375 -1.421875 33.890625 -1.421875 
Q 20.796875 -1.421875 13.15625 6.1875 
Q 5.515625 13.8125 5.515625 26.8125 
Q 5.515625 40.234375 12.765625 48.109375 
Q 20.015625 56 32.328125 56 
Q 43.359375 56 49.78125 48.890625 
Q 56.203125 41.796875 56.203125 29.59375 
z
M 47.21875 32.234375 
Q 47.125 39.59375 43.09375 43.984375 
Q 39.0625 48.390625 32.421875 48.390625 
Q 24.90625 48.390625 20.390625 44.140625 
Q 15.875 39.890625 15.1875 32.171875 
z
" id="DejaVuSans-101"/>
      <path d="M 54.890625 33.015625 
L 54.890625 0 
L 45.90625 0 
L 45.90625 32.71875 
Q 45.90625 40.484375 42.875 44.328125 
Q 39.84375 48.1875 33.796875 48.1875 
Q 26.515625 48.1875 22.3125 43.546875 
Q 18.109375 38.921875 18.109375 30.90625 
L 18.109375 0 
L 9.078125 0 
L 9.078125 54.6875 
L 18.109375 54.6875 
L 18.109375 46.1875 
Q 21.34375 51.125 25.703125 53.5625 
Q 30.078125 56 35.796875 56 
Q 45.21875 56 50.046875 50.171875 
Q 54.890625 44.34375 54.890625 33.015625 
z
" id="DejaVuSans-110"/>
      <path d="M 41.109375 46.296875 
Q 39.59375 47.171875 37.8125 47.578125 
Q 36.03125 48 33.890625 48 
Q 26.265625 48 22.1875 43.046875 
Q 18.109375 38.09375 18.109375 28.8125 
L 18.109375 0 
L 9.078125 0 
L 9.078125 54.6875 
L 18.109375 54.6875 
L 18.109375 46.1875 
Q 20.953125 51.171875 25.484375 53.578125 
Q 30.03125 56 36.53125 56 
Q 37.453125 56 38.578125 55.875 
Q 39.703125 55.765625 41.0625 55.515625 
z
" id="DejaVuSans-114"/>
      <path d="M 34.28125 27.484375 
Q 23.390625 27.484375 19.1875 25 
Q 14.984375 22.515625 14.984375 16.5 
Q 14.984375 11.71875 18.140625 8.90625 
Q 21.296875 6.109375 26.703125 6.109375 
Q 34.1875 6.109375 38.703125 11.40625 
Q 43.21875 16.703125 43.21875 25.484375 
L 43.21875 27.484375 
z
M 52.203125 31.203125 
L 52.203125 0 
L 43.21875 0 
L 43.21875 8.296875 
Q 40.140625 3.328125 35.546875 0.953125 
Q 30.953125 -1.421875 24.3125 -1.421875 
Q 15.921875 -1.421875 10.953125 3.296875 
Q 6 8.015625 6 15.921875 
Q 6 25.140625 12.171875 29.828125 
Q 18.359375 34.515625 30.609375 34.515625 
L 43.21875 34.515625 
L 43.21875 35.40625 
Q 43.21875 41.609375 39.140625 45 
Q 35.0625 48.390625 27.6875 48.390625 
Q 23 48.390625 18.546875 47.265625 
Q 14.109375 46.140625 10.015625 43.890625 
L 10.015625 52.203125 
Q 14.9375 54.109375 19.578125 55.046875 
Q 24.21875 56 28.609375 56 
Q 40.484375 56 46.34375 49.84375 
Q 52.203125 43.703125 52.203125 31.203125 
z
" id="DejaVuSans-97"/>
      <path d="M 18.3125 70.21875 
L 18.3125 54.6875 
L 36.8125 54.6875 
L 36.8125 47.703125 
L 18.3125 47.703125 
L 18.3125 18.015625 
Q 18.3125 11.328125 20.140625 9.421875 
Q 21.96875 7.515625 27.59375 7.515625 
L 36.8125 7.515625 
L 36.8125 0 
L 27.59375 0 
Q 17.1875 0 13.234375 3.875 
Q 9.28125 7.765625 9.28125 18.015625 
L 9.28125 47.703125 
L 2.6875 47.703125 
L 2.6875 54.6875 
L 9.28125 54.6875 
L 9.28125 70.21875 
z
" id="DejaVuSans-116"/>
      <path d="M 9.421875 54.6875 
L 18.40625 54.6875 
L 18.40625 0 
L 9.421875 0 
z
M 9.421875 75.984375 
L 18.40625 75.984375 
L 18.40625 64.59375 
L 9.421875 64.59375 
z
" id="DejaVuSans-105"/>
      <path d="M 30.609375 48.390625 
Q 23.390625 48.390625 19.1875 42.75 
Q 14.984375 37.109375 14.984375 27.296875 
Q 14.984375 17.484375 19.15625 11.84375 
Q 23.34375 6.203125 30.609375 6.203125 
Q 37.796875 6.203125 41.984375 11.859375 
Q 46.1875 17.53125 46.1875 27.296875 
Q 46.1875 37.015625 41.984375 42.703125 
Q 37.796875 48.390625 30.609375 48.390625 
z
M 30.609375 56 
Q 42.328125 56 49.015625 48.375 
Q 55.71875 40.765625 55.71875 27.296875 
Q 55.71875 13.875 49.015625 6.21875 
Q 42.328125 -1.421875 30.609375 -1.421875 
Q 18.84375 -1.421875 12.171875 6.21875 
Q 5.515625 13.875 5.515625 27.296875 
Q 5.515625 40.765625 12.171875 48.375 
Q 18.84375 56 30.609375 56 
z
" id="DejaVuSans-111"/>
      <path d="M 44.28125 53.078125 
L 44.28125 44.578125 
Q 40.484375 46.53125 36.375 47.5 
Q 32.28125 48.484375 27.875 48.484375 
Q 21.1875 48.484375 17.84375 46.4375 
Q 14.5 44.390625 14.5 40.28125 
Q 14.5 37.15625 16.890625 35.375 
Q 19.28125 33.59375 26.515625 31.984375 
L 29.59375 31.296875 
Q 39.15625 29.25 43.1875 25.515625 
Q 47.21875 21.78125 47.21875 15.09375 
Q 47.21875 7.46875 41.1875 3.015625 
Q 35.15625 -1.421875 24.609375 -1.421875 
Q 20.21875 -1.421875 15.453125 -0.5625 
Q 10.6875 0.296875 5.421875 2 
L 5.421875 11.28125 
Q 10.40625 8.6875 15.234375 7.390625 
Q 20.0625 6.109375 24.8125 6.109375 
Q 31.15625 6.109375 34.5625 8.28125 
Q 37.984375 10.453125 37.984375 14.40625 
Q 37.984375 18.0625 35.515625 20.015625 
Q 33.0625 21.96875 24.703125 23.78125 
L 21.578125 24.515625 
Q 13.234375 26.265625 9.515625 29.90625 
Q 5.8125 33.546875 5.8125 39.890625 
Q 5.8125 47.609375 11.28125 51.796875 
Q 16.75 56 26.8125 56 
Q 31.78125 56 36.171875 55.265625 
Q 40.578125 54.546875 44.28125 53.078125 
z
" id="DejaVuSans-115"/>
     </defs>
     <g transform="translate(205.662344 335.860562)scale(0.1 -0.1)">
      <use xlink:href="#DejaVuSans-71"/>
      <use x="77.490234" xlink:href="#DejaVuSans-101"/>
      <use x="139.013672" xlink:href="#DejaVuSans-110"/>
      <use x="202.392578" xlink:href="#DejaVuSans-101"/>
      <use x="263.916016" xlink:href="#DejaVuSans-114"/>
      <use x="305.029297" xlink:href="#DejaVuSans-97"/>
      <use x="366.308594" xlink:href="#DejaVuSans-116"/>
      <use x="405.517578" xlink:href="#DejaVuSans-105"/>
      <use x="433.300781" xlink:href="#DejaVuSans-111"/>
      <use x="494.482422" xlink:href="#DejaVuSans-110"/>
      <use x="557.861328" xlink:href="#DejaVuSans-115"/>
     </g>
    </g>
   </g>
   <g id="matplotlib.axis_2">
    <g id="ytick_1">
     <g id="line2d_19">
      <path clip-path="url(#p59991c6c95)" d="M 57.6 280.884828 
L 414.72 280.884828 
" style="fill:none;stroke:#b0b0b0;stroke-linecap:square;stroke-width:0.8;"/>
     </g>
     <g id="line2d_20">
      <defs>
       <path d="M 0 0 
L -3.5 0 
" id="m5f42e2ea7f" style="stroke:#000000;stroke-width:0.8;"/>
      </defs>
      <g>
       <use style="stroke:#000000;stroke-width:0.8;" x="57.6" xlink:href="#m5f42e2ea7f" y="280.884828"/>
      </g>
     </g>
     <g id="text_11">
      <!-- 0.0 -->
      <defs>
       <path d="M 10.6875 12.40625 
L 21 12.40625 
L 21 0 
L 10.6875 0 
z
" id="DejaVuSans-46"/>
      </defs>
      <g transform="translate(34.696875 284.684046)scale(0.1 -0.1)">
       <use xlink:href="#DejaVuSans-48"/>
       <use x="63.623047" xlink:href="#DejaVuSans-46"/>
       <use x="95.410156" xlink:href="#DejaVuSans-48"/>
      </g>
     </g>
    </g>
    <g id="ytick_2">
     <g id="line2d_21">
      <path clip-path="url(#p59991c6c95)" d="M 57.6 222.364526 
L 414.72 222.364526 
" style="fill:none;stroke:#b0b0b0;stroke-linecap:square;stroke-width:0.8;"/>
     </g>
     <g id="line2d_22">
      <g>
       <use style="stroke:#000000;stroke-width:0.8;" x="57.6" xlink:href="#m5f42e2ea7f" y="222.364526"/>
      </g>
     </g>
     <g id="text_12">
      <!-- 0.2 -->
      <g transform="translate(34.696875 226.163745)scale(0.1 -0.1)">
       <use xlink:href="#DejaVuSans-48"/>
       <use x="63.623047" xlink:href="#DejaVuSans-46"/>
       <use x="95.410156" xlink:href="#DejaVuSans-50"/>
      </g>
     </g>
    </g>
    <g id="ytick_3">
     <g id="line2d_23">
      <path clip-path="url(#p59991c6c95)" d="M 57.6 163.844225 
L 414.72 163.844225 
" style="fill:none;stroke:#b0b0b0;stroke-linecap:square;stroke-width:0.8;"/>
     </g>
     <g id="line2d_24">
      <g>
       <use style="stroke:#000000;stroke-width:0.8;" x="57.6" xlink:href="#m5f42e2ea7f" y="163.844225"/>
      </g>
     </g>
     <g id="text_13">
      <!-- 0.4 -->
      <g transform="translate(34.696875 167.643444)scale(0.1 -0.1)">
       <use xlink:href="#DejaVuSans-48"/>
       <use x="63.623047" xlink:href="#DejaVuSans-46"/>
       <use x="95.410156" xlink:href="#DejaVuSans-52"/>
      </g>
     </g>
    </g>
    <g id="ytick_4">
     <g id="line2d_25">
      <path clip-path="url(#p59991c6c95)" d="M 57.6 105.323924 
L 414.72 105.323924 
" style="fill:none;stroke:#b0b0b0;stroke-linecap:square;stroke-width:0.8;"/>
     </g>
     <g id="line2d_26">
      <g>
       <use style="stroke:#000000;stroke-width:0.8;" x="57.6" xlink:href="#m5f42e2ea7f" y="105.323924"/>
      </g>
     </g>
     <g id="text_14">
      <!-- 0.6 -->
      <defs>
       <path d="M 33.015625 40.375 
Q 26.375 40.375 22.484375 35.828125 
Q 18.609375 31.296875 18.609375 23.390625 
Q 18.609375 15.53125 22.484375 10.953125 
Q 26.375 6.390625 33.015625 6.390625 
Q 39.65625 6.390625 43.53125 10.953125 
Q 47.40625 15.53125 47.40625 23.390625 
Q 47.40625 31.296875 43.53125 35.828125 
Q 39.65625 40.375 33.015625 40.375 
z
M 52.59375 71.296875 
L 52.59375 62.3125 
Q 48.875 64.0625 45.09375 64.984375 
Q 41.3125 65.921875 37.59375 65.921875 
Q 27.828125 65.921875 22.671875 59.328125 
Q 17.53125 52.734375 16.796875 39.40625 
Q 19.671875 43.65625 24.015625 45.921875 
Q 28.375 48.1875 33.59375 48.1875 
Q 44.578125 48.1875 50.953125 41.515625 
Q 57.328125 34.859375 57.328125 23.390625 
Q 57.328125 12.15625 50.6875 5.359375 
Q 44.046875 -1.421875 33.015625 -1.421875 
Q 20.359375 -1.421875 13.671875 8.265625 
Q 6.984375 17.96875 6.984375 36.375 
Q 6.984375 53.65625 15.1875 63.9375 
Q 23.390625 74.21875 37.203125 74.21875 
Q 40.921875 74.21875 44.703125 73.484375 
Q 48.484375 72.75 52.59375 71.296875 
z
" id="DejaVuSans-54"/>
      </defs>
      <g transform="translate(34.696875 109.123143)scale(0.1 -0.1)">
       <use xlink:href="#DejaVuSans-48"/>
       <use x="63.623047" xlink:href="#DejaVuSans-46"/>
       <use x="95.410156" xlink:href="#DejaVuSans-54"/>
      </g>
     </g>
    </g>
    <g id="ytick_5">
     <g id="line2d_27">
      <path clip-path="url(#p59991c6c95)" d="M 57.6 46.803623 
L 414.72 46.803623 
" style="fill:none;stroke:#b0b0b0;stroke-linecap:square;stroke-width:0.8;"/>
     </g>
     <g id="line2d_28">
      <g>
       <use style="stroke:#000000;stroke-width:0.8;" x="57.6" xlink:href="#m5f42e2ea7f" y="46.803623"/>
      </g>
     </g>
     <g id="text_15">
      <!-- 0.8 -->
      <defs>
       <path d="M 31.78125 34.625 
Q 24.75 34.625 20.71875 30.859375 
Q 16.703125 27.09375 16.703125 20.515625 
Q 16.703125 13.921875 20.71875 10.15625 
Q 24.75 6.390625 31.78125 6.390625 
Q 38.8125 6.390625 42.859375 10.171875 
Q 46.921875 13.96875 46.921875 20.515625 
Q 46.921875 27.09375 42.890625 30.859375 
Q 38.875 34.625 31.78125 34.625 
z
M 21.921875 38.8125 
Q 15.578125 40.375 12.03125 44.71875 
Q 8.5 49.078125 8.5 55.328125 
Q 8.5 64.0625 14.71875 69.140625 
Q 20.953125 74.21875 31.78125 74.21875 
Q 42.671875 74.21875 48.875 69.140625 
Q 55.078125 64.0625 55.078125 55.328125 
Q 55.078125 49.078125 51.53125 44.71875 
Q 48 40.375 41.703125 38.8125 
Q 48.828125 37.15625 52.796875 32.3125 
Q 56.78125 27.484375 56.78125 20.515625 
Q 56.78125 9.90625 50.3125 4.234375 
Q 43.84375 -1.421875 31.78125 -1.421875 
Q 19.734375 -1.421875 13.25 4.234375 
Q 6.78125 9.90625 6.78125 20.515625 
Q 6.78125 27.484375 10.78125 32.3125 
Q 14.796875 37.15625 21.921875 38.8125 
z
M 18.3125 54.390625 
Q 18.3125 48.734375 21.84375 45.5625 
Q 25.390625 42.390625 31.78125 42.390625 
Q 38.140625 42.390625 41.71875 45.5625 
Q 45.3125 48.734375 45.3125 54.390625 
Q 45.3125 60.0625 41.71875 63.234375 
Q 38.140625 66.40625 31.78125 66.40625 
Q 25.390625 66.40625 21.84375 63.234375 
Q 18.3125 60.0625 18.3125 54.390625 
z
" id="DejaVuSans-56"/>
      </defs>
      <g transform="translate(34.696875 50.602842)scale(0.1 -0.1)">
       <use xlink:href="#DejaVuSans-48"/>
       <use x="63.623047" xlink:href="#DejaVuSans-46"/>
       <use x="95.410156" xlink:href="#DejaVuSans-56"/>
      </g>
     </g>
    </g>
    <g id="text_16">
     <!-- Fitness -->
     <defs>
      <path d="M 9.8125 72.90625 
L 51.703125 72.90625 
L 51.703125 64.59375 
L 19.671875 64.59375 
L 19.671875 43.109375 
L 48.578125 43.109375 
L 48.578125 34.8125 
L 19.671875 34.8125 
L 19.671875 0 
L 9.8125 0 
z
" id="DejaVuSans-70"/>
     </defs>
     <g transform="translate(28.617187 192.202219)rotate(-90)scale(0.1 -0.1)">
      <use xlink:href="#DejaVuSans-70"/>
      <use x="57.410156" xlink:href="#DejaVuSans-105"/>
      <use x="85.193359" xlink:href="#DejaVuSans-116"/>
      <use x="124.402344" xlink:href="#DejaVuSans-110"/>
      <use x="187.78125" xlink:href="#DejaVuSans-101"/>
      <use x="249.304688" xlink:href="#DejaVuSans-115"/>
      <use x="301.404297" xlink:href="#DejaVuSans-115"/>
     </g>
    </g>
   </g>
   <g id="line2d_29">
    <path clip-path="url(#p59991c6c95)" d="M 73.832727 241.259254 
L 74.646398 230.931797 
L 75.460068 227.238524 
L 76.273739 236.377037 
L 77.087409 229.759069 
L 77.90108 234.322382 
L 78.714751 233.047785 
L 79.528421 231.026847 
L 80.342092 228.31791 
L 81.155762 229.246226 
L 81.969433 226.115323 
L 82.783103 229.194251 
L 83.596774 233.987517 
L 84.410444 232.222754 
L 85.224115 228.818168 
L 86.037785 224.428405 
L 86.851456 229.679017 
L 87.665126 231.266335 
L 88.478797 235.0907 
L 89.292468 229.316199 
L 90.106138 233.031943 
L 90.919809 235.131575 
L 91.733479 230.809544 
L 92.54715 227.77849 
L 93.36082 228.910692 
L 94.174491 229.632209 
L 94.988161 234.773671 
L 95.801832 233.192404 
L 96.615502 231.074017 
L 97.429173 228.505504 
L 98.242843 233.853234 
L 99.056514 230.628536 
L 99.870185 221.791963 
L 100.683855 227.50362 
L 101.497526 223.224124 
L 102.311196 227.839892 
L 103.124867 227.944398 
L 103.938537 225.894689 
L 104.752208 226.463009 
L 105.565878 224.08915 
L 106.379549 222.800496 
L 107.193219 226.930679 
L 108.00689 223.894917 
L 108.82056 218.938681 
L 109.634231 220.018301 
L 110.447902 223.806778 
L 111.261572 212.406101 
L 112.075243 215.420166 
L 112.888913 209.171575 
L 113.702584 213.303803 
L 114.516254 214.935456 
L 115.329925 206.83854 
L 116.143595 209.212119 
L 116.957266 208.151813 
L 117.770936 216.521404 
L 118.584607 207.127526 
L 119.398278 208.835973 
L 120.211948 216.700557 
L 121.025619 216.41438 
L 121.839289 212.811911 
L 122.65296 216.015549 
L 123.46663 215.291811 
L 124.280301 218.049881 
L 125.093971 216.97691 
L 125.907642 211.082909 
L 126.721312 218.672938 
L 127.534983 216.168262 
L 128.348653 212.968054 
L 129.162324 218.039097 
L 129.975995 207.919142 
L 130.789665 202.524795 
L 131.603336 211.942608 
L 132.417006 207.08382 
L 133.230677 211.609558 
L 134.044347 213.583755 
L 134.858018 223.559983 
L 135.671688 210.12477 
L 136.485359 207.177196 
L 137.299029 206.422961 
L 138.1127 197.426276 
L 138.92637 205.861442 
L 139.740041 208.307962 
L 140.553712 204.472141 
L 141.367382 202.67027 
L 142.181053 208.461904 
L 142.994723 208.578344 
L 143.808394 209.72371 
L 144.622064 213.284123 
L 145.435735 203.687094 
L 146.249405 203.333324 
L 147.063076 212.51023 
L 147.876746 206.156281 
L 148.690417 202.272962 
L 149.504087 209.234723 
L 150.317758 203.083508 
L 151.131429 214.341496 
L 151.945099 219.613438 
L 152.75877 211.659549 
L 153.57244 208.762386 
L 154.386111 209.076156 
L 155.199781 203.924224 
L 156.013452 201.129266 
L 156.827122 205.494528 
L 157.640793 210.868074 
L 158.454463 202.676446 
L 159.268134 209.415156 
L 160.081805 207.253532 
L 160.895475 189.903819 
L 161.709146 193.062502 
L 162.522816 201.248948 
L 163.336487 201.329579 
L 164.150157 193.762427 
L 164.963828 203.764074 
L 165.777498 195.814887 
L 166.591169 206.477734 
L 167.404839 198.495477 
L 168.21851 204.417382 
L 169.03218 195.351721 
L 169.845851 195.431303 
L 170.659522 195.874062 
L 171.473192 193.081827 
L 172.286863 197.005714 
L 173.100533 192.603984 
L 173.914204 194.48874 
L 174.727874 200.377371 
L 176.355215 187.858726 
L 177.168886 179.656726 
L 177.982556 192.148905 
L 178.796227 194.074597 
L 179.609897 181.182576 
L 180.423568 188.825428 
L 181.237239 194.200617 
L 182.050909 189.799694 
L 182.86458 192.021507 
L 183.67825 181.400266 
L 184.491921 190.6582 
L 185.305591 194.423373 
L 186.119262 182.382839 
L 186.932932 197.561593 
L 187.746603 190.829196 
L 188.560273 186.793184 
L 189.373944 176.2111 
L 190.187614 190.070656 
L 191.001285 190.0584 
L 191.814956 185.522699 
L 192.628626 191.193972 
L 193.442297 184.686721 
L 194.255967 187.7238 
L 195.069638 191.214608 
L 195.883308 202.379372 
L 196.696979 190.012982 
L 197.510649 196.194891 
L 198.32432 193.026105 
L 199.13799 191.913685 
L 199.951661 198.779338 
L 200.765332 188.772154 
L 201.579002 189.335078 
L 202.392673 191.655647 
L 203.206343 193.055647 
L 204.020014 191.327259 
L 205.647355 202.195764 
L 207.274696 190.524375 
L 208.088366 199.961188 
L 208.902037 196.545974 
L 209.715707 196.681737 
L 210.529378 203.085965 
L 211.343049 204.492178 
L 212.156719 217.410912 
L 212.97039 203.880861 
L 214.597731 211.429853 
L 215.411401 206.182803 
L 216.225072 210.255124 
L 217.038742 201.639114 
L 217.852413 202.209571 
L 218.666083 210.362974 
L 219.479754 203.778092 
L 220.293424 198.211898 
L 221.107095 209.018072 
L 221.920766 201.52647 
L 222.734436 202.387665 
L 223.548107 204.408837 
L 224.361777 213.945363 
L 225.175448 205.898774 
L 225.989118 210.491745 
L 226.802789 213.667515 
L 227.616459 203.916434 
L 228.43013 209.393034 
L 229.2438 204.096365 
L 230.057471 210.435841 
L 230.871141 198.510654 
L 232.498483 190.502704 
L 233.312153 203.75181 
L 234.125824 188.616483 
L 234.939494 190.748132 
L 235.753165 187.772657 
L 236.566835 189.697632 
L 237.380506 183.91084 
L 238.194176 203.567061 
L 239.821517 183.247102 
L 240.635188 183.321219 
L 241.448859 188.997927 
L 242.262529 183.316266 
L 243.0762 192.572772 
L 243.88987 186.387009 
L 244.703541 192.960576 
L 245.517211 189.110262 
L 246.330882 199.948017 
L 247.144552 192.73806 
L 247.958223 207.910504 
L 248.771893 195.920562 
L 249.585564 191.985271 
L 250.399234 189.927086 
L 251.212905 196.479907 
L 252.026576 205.22137 
L 252.840246 207.898702 
L 253.653917 195.576153 
L 254.467587 205.086156 
L 255.281258 201.185465 
L 256.094928 205.883657 
L 256.908599 198.332719 
L 257.722269 211.764369 
L 258.53594 193.928757 
L 259.34961 195.91264 
L 260.163281 196.611494 
L 260.976951 207.636517 
L 261.790622 206.646338 
L 262.604293 206.216631 
L 263.417963 225.40413 
L 264.231634 226.864927 
L 265.045304 231.158086 
L 265.858975 215.533795 
L 266.672645 215.662949 
L 267.486316 223.664702 
L 268.299986 220.127348 
L 269.113657 220.62757 
L 269.927327 227.468469 
L 270.740998 223.515354 
L 271.554668 226.414512 
L 272.368339 228.30658 
L 273.99568 220.103811 
L 275.623021 227.678406 
L 276.436692 216.620877 
L 277.250362 222.596571 
L 278.064033 223.010629 
L 278.877703 222.383742 
L 279.691374 219.918532 
L 280.505044 228.936659 
L 281.318715 216.239611 
L 282.132386 221.023891 
L 282.946056 214.965337 
L 283.759727 224.752519 
L 284.573397 223.563979 
L 286.200738 213.314375 
L 287.014409 213.900744 
L 287.828079 216.004195 
L 288.64175 224.576214 
L 289.45542 219.739226 
L 290.269091 222.89438 
L 291.082761 204.531348 
L 291.896432 217.346288 
L 292.710103 216.5085 
L 293.523773 222.000143 
L 294.337444 207.235601 
L 295.151114 208.37864 
L 295.964785 206.701562 
L 296.778455 217.784686 
L 297.592126 209.868399 
L 298.405796 209.623433 
L 299.219467 214.028132 
L 300.033137 213.146059 
L 300.846808 212.782595 
L 301.660478 206.437526 
L 302.474149 207.058574 
L 303.28782 211.866611 
L 304.10149 211.900731 
L 304.915161 207.833344 
L 305.728831 211.802371 
L 306.542502 203.542539 
L 307.356172 203.245571 
L 308.169843 209.911353 
L 308.983513 211.813924 
L 309.797184 208.870674 
L 310.610854 208.721821 
L 311.424525 201.035608 
L 312.238195 208.984494 
L 313.051866 205.096418 
L 313.865537 206.91007 
L 314.679207 203.760366 
L 315.492878 201.269099 
L 316.306548 212.810552 
L 317.120219 217.516719 
L 317.933889 212.305519 
L 318.74756 218.684685 
L 319.56123 205.450223 
L 320.374901 212.67261 
L 322.002242 190.167494 
L 322.815913 204.08853 
L 323.629583 193.822469 
L 324.443254 208.273693 
L 325.256924 200.388772 
L 326.070595 202.003553 
L 326.884265 194.952554 
L 327.697936 203.288065 
L 328.511606 196.754661 
L 329.325277 200.047812 
L 330.138947 196.386205 
L 330.952618 202.482961 
L 331.766288 207.479588 
L 332.579959 201.550571 
L 333.39363 196.488122 
L 334.2073 196.676665 
L 335.020971 182.859441 
L 335.834641 196.499155 
L 336.648312 192.401057 
L 337.461982 198.213342 
L 338.275653 201.673827 
L 339.089323 206.18919 
L 339.902994 198.35952 
L 340.716664 194.675914 
L 341.530335 192.36979 
L 342.344005 202.764354 
L 343.157676 201.345918 
L 343.971347 196.09936 
L 344.785017 197.741379 
L 345.598688 188.790579 
L 346.412358 200.190013 
L 347.226029 191.72356 
L 348.039699 191.999791 
L 348.85337 197.322275 
L 349.66704 191.914039 
L 350.480711 192.936905 
L 351.294381 196.526479 
L 352.108052 191.973192 
L 352.921722 195.182548 
L 353.735393 202.683779 
L 354.549064 195.742217 
L 355.362734 200.749253 
L 356.176405 201.166365 
L 356.990075 188.229141 
L 357.803746 193.835259 
L 358.617416 191.464529 
L 359.431087 194.795621 
L 360.244757 192.295703 
L 361.058428 197.912188 
L 361.872098 197.366288 
L 362.685769 191.729943 
L 363.49944 192.933128 
L 364.31311 201.076432 
L 365.940451 206.842271 
L 366.754122 213.888137 
L 367.567792 211.902438 
L 368.381463 204.546266 
L 369.195133 214.29511 
L 370.008804 217.737157 
L 370.822474 199.834646 
L 371.636145 204.392365 
L 372.449815 202.208948 
L 373.263486 205.114236 
L 374.077157 212.862304 
L 374.890827 199.302511 
L 375.704498 202.182871 
L 376.518168 203.690961 
L 377.331839 208.865988 
L 378.145509 208.493262 
L 378.95918 197.858402 
L 379.77285 192.546958 
L 380.586521 201.967435 
L 381.400191 197.188493 
L 382.213862 199.829592 
L 383.027532 199.994706 
L 383.841203 205.046028 
L 384.654874 209.380001 
L 385.468544 206.862999 
L 386.282215 211.984473 
L 387.095885 202.140608 
L 387.909556 205.470452 
L 388.723226 203.722412 
L 389.536897 197.386799 
L 390.350567 193.401014 
L 391.164238 199.837157 
L 391.977908 195.677463 
L 392.791579 206.686499 
L 393.605249 199.219957 
L 394.41892 197.836469 
L 395.232591 202.51727 
L 396.046261 200.53233 
L 396.859932 194.382749 
L 397.673602 205.865695 
L 398.487273 189.615199 
L 398.487273 189.615199 
" style="fill:none;stroke:#0000ff;stroke-linecap:square;stroke-width:1.5;"/>
   </g>
   <g id="line2d_30">
    <path clip-path="url(#p59991c6c95)" d="M 73.832727 272.25643 
L 74.646398 260.06845 
L 75.460068 258.19898 
L 76.273739 279.08551 
L 77.087409 273.663427 
L 77.90108 280.350003 
L 78.714751 281.750495 
L 79.528421 280.494651 
L 80.342092 276.213857 
L 81.155762 278.746784 
L 81.969433 274.704835 
L 83.596774 282.386493 
L 84.410444 281.632476 
L 85.224115 278.590629 
L 86.037785 276.036594 
L 86.851456 282.086063 
L 87.665126 283.31922 
L 88.478797 288.07342 
L 89.292468 284.777007 
L 90.106138 289.062603 
L 90.919809 290.512881 
L 91.733479 286.865996 
L 92.54715 286.043213 
L 93.36082 286.310458 
L 94.174491 287.298089 
L 94.988161 290.514514 
L 95.801832 287.626185 
L 96.615502 287.854295 
L 97.429173 287.804447 
L 98.242843 290.155678 
L 99.056514 289.484325 
L 99.870185 281.065603 
L 100.683855 288.898125 
L 101.497526 282.602536 
L 102.311196 289.131221 
L 103.124867 289.348722 
L 103.938537 283.658065 
L 104.752208 285.368728 
L 105.565878 283.250865 
L 106.379549 288.195079 
L 107.193219 284.896161 
L 108.00689 285.637957 
L 108.82056 276.594965 
L 109.634231 275.305246 
L 110.447902 281.805199 
L 111.261572 270.730534 
L 112.075243 276.590709 
L 112.888913 274.75947 
L 113.702584 272.245254 
L 114.516254 275.095042 
L 115.329925 266.375971 
L 116.143595 273.508222 
L 116.957266 269.689109 
L 117.770936 280.962014 
L 118.584607 269.186666 
L 119.398278 273.12349 
L 120.211948 281.834809 
L 121.025619 285.724293 
L 121.839289 283.433809 
L 122.65296 286.8701 
L 123.46663 284.106889 
L 124.280301 286.073707 
L 125.093971 286.074796 
L 125.907642 284.943616 
L 126.721312 282.17243 
L 128.348653 284.175908 
L 129.162324 288.259281 
L 129.975995 278.173763 
L 130.789665 281.613059 
L 131.603336 288.127531 
L 132.417006 281.622952 
L 133.230677 287.536776 
L 134.044347 284.386099 
L 134.858018 293.338145 
L 135.671688 284.586834 
L 136.485359 288.026614 
L 137.299029 283.679798 
L 138.1127 278.239507 
L 138.92637 282.813398 
L 139.740041 282.944823 
L 140.553712 282.053737 
L 141.367382 283.449772 
L 142.994723 288.643767 
L 143.808394 286.073252 
L 144.622064 287.837225 
L 145.435735 285.330992 
L 146.249405 282.041282 
L 147.063076 288.382353 
L 147.876746 283.627607 
L 148.690417 278.143438 
L 149.504087 282.701952 
L 150.317758 282.43162 
L 151.945099 290.25267 
L 153.57244 285.686564 
L 154.386111 286.654265 
L 155.199781 280.920308 
L 156.013452 284.581504 
L 156.827122 286.646503 
L 157.640793 289.292792 
L 158.454463 286.859374 
L 159.268134 287.825626 
L 160.081805 287.278273 
L 160.895475 274.669296 
L 161.709146 277.800654 
L 162.522816 285.35445 
L 163.336487 284.467151 
L 164.150157 277.846123 
L 164.963828 285.59991 
L 165.777498 279.76756 
L 166.591169 282.235917 
L 167.404839 283.40217 
L 168.21851 282.528893 
L 169.03218 281.966689 
L 169.845851 279.956901 
L 170.659522 282.509315 
L 171.473192 275.777254 
L 172.286863 281.673696 
L 173.100533 276.177593 
L 173.914204 279.302846 
L 174.727874 279.341195 
L 175.541545 280.107944 
L 176.355215 273.026193 
L 177.168886 268.597534 
L 177.982556 278.520383 
L 178.796227 278.987079 
L 179.609897 271.731055 
L 180.423568 275.254946 
L 181.237239 280.344288 
L 182.050909 279.25962 
L 182.86458 278.734774 
L 183.67825 271.111084 
L 184.491921 277.03159 
L 185.305591 280.261545 
L 186.119262 269.839249 
L 186.932932 282.007821 
L 187.746603 275.420042 
L 188.560273 272.191926 
L 189.373944 267.982561 
L 190.187614 277.339565 
L 191.001285 278.347395 
L 191.814956 272.263665 
L 192.628626 280.303834 
L 193.442297 270.800684 
L 194.255967 276.515131 
L 195.069638 275.023077 
L 195.883308 282.284812 
L 196.696979 274.189239 
L 197.510649 278.751765 
L 198.32432 274.911669 
L 199.13799 274.587685 
L 199.951661 277.065817 
L 200.765332 275.652372 
L 201.579002 276.043391 
L 202.392673 277.737665 
L 203.206343 279.861722 
L 204.020014 278.151522 
L 204.833684 281.976394 
L 205.647355 283.910002 
L 207.274696 278.319977 
L 208.088366 280.519263 
L 208.902037 279.231672 
L 209.715707 280.537426 
L 211.343049 284.80156 
L 212.156719 289.541152 
L 212.97039 280.584898 
L 213.78406 286.059388 
L 214.597731 290.483839 
L 215.411401 282.947884 
L 216.225072 283.509576 
L 217.038742 281.226097 
L 217.852413 282.223016 
L 218.666083 284.653574 
L 219.479754 282.19651 
L 220.293424 283.041221 
L 221.107095 288.385732 
L 221.920766 288.014901 
L 222.734436 285.847415 
L 223.548107 284.96308 
L 224.361777 286.6677 
L 225.175448 282.442764 
L 225.989118 287.572884 
L 226.802789 287.790112 
L 227.616459 279.141072 
L 228.43013 282.804782 
L 229.2438 281.059453 
L 230.057471 285.73677 
L 230.871141 282.342823 
L 231.684812 280.204525 
L 232.498483 277.119374 
L 233.312153 287.887475 
L 234.125824 279.620958 
L 234.939494 282.048916 
L 235.753165 279.813117 
L 236.566835 280.847685 
L 237.380506 272.013005 
L 238.194176 287.351498 
L 239.007847 279.770633 
L 239.821517 274.709557 
L 240.635188 274.67814 
L 241.448859 277.871598 
L 242.262529 274.969582 
L 243.0762 282.210251 
L 243.88987 278.778846 
L 244.703541 281.2734 
L 245.517211 277.227077 
L 246.330882 288.213121 
L 247.144552 282.363019 
L 247.958223 293.203707 
L 248.771893 283.622254 
L 249.585564 279.84999 
L 250.399234 277.738455 
L 251.212905 282.052262 
L 252.026576 288.825628 
L 252.840246 291.323072 
L 253.653917 279.686559 
L 254.467587 286.586846 
L 255.281258 284.047124 
L 256.094928 289.788142 
L 256.908599 285.059158 
L 257.722269 287.360727 
L 258.53594 279.626585 
L 259.34961 281.418104 
L 260.163281 281.24232 
L 260.976951 290.274214 
L 261.790622 288.423081 
L 262.604293 282.344097 
L 263.417963 289.46908 
L 264.231634 286.73772 
L 265.045304 293.555694 
L 265.858975 280.641941 
L 266.672645 284.636139 
L 267.486316 286.749539 
L 268.299986 285.524513 
L 269.113657 286.394124 
L 269.927327 293.646617 
L 270.740998 292.152729 
L 271.554668 291.949566 
L 272.368339 295.488 
L 273.18201 289.932906 
L 273.99568 288.998598 
L 274.809351 290.424677 
L 275.623021 293.887602 
L 276.436692 284.563264 
L 277.250362 290.136554 
L 278.064033 289.089638 
L 278.877703 289.539454 
L 279.691374 284.613055 
L 280.505044 287.154239 
L 281.318715 280.690338 
L 282.132386 286.270294 
L 282.946056 280.720707 
L 283.759727 289.249746 
L 284.573397 290.241583 
L 285.387068 284.517072 
L 286.200738 284.236153 
L 287.014409 290.00671 
L 287.828079 286.664118 
L 288.64175 288.718407 
L 289.45542 287.314823 
L 290.269091 288.75149 
L 291.082761 281.713599 
L 291.896432 288.959419 
L 292.710103 287.385178 
L 293.523773 294.235334 
L 294.337444 288.465513 
L 295.151114 283.712538 
L 295.964785 287.475057 
L 296.778455 292.13072 
L 297.592126 288.232246 
L 298.405796 288.269805 
L 299.219467 289.135008 
L 300.033137 287.99591 
L 300.846808 289.756242 
L 301.660478 287.981578 
L 302.474149 282.401901 
L 303.28782 289.549478 
L 304.10149 292.081547 
L 304.915161 283.043612 
L 305.728831 289.297971 
L 306.542502 282.645081 
L 307.356172 286.555069 
L 308.169843 288.972492 
L 308.983513 289.121607 
L 309.797184 286.150629 
L 310.610854 287.773539 
L 311.424525 281.170086 
L 312.238195 284.156685 
L 313.051866 282.649488 
L 313.865537 288.922405 
L 314.679207 280.711705 
L 315.492878 279.637475 
L 316.306548 288.154937 
L 317.120219 291.695513 
L 317.933889 289.058227 
L 318.74756 293.633266 
L 319.56123 286.312839 
L 320.374901 289.935609 
L 321.188571 280.929948 
L 322.002242 274.054095 
L 322.815913 283.120787 
L 323.629583 276.568916 
L 324.443254 287.63361 
L 325.256924 284.439838 
L 326.070595 283.935607 
L 326.884265 276.586836 
L 327.697936 287.610979 
L 328.511606 279.899671 
L 329.325277 281.190166 
L 330.138947 278.209067 
L 330.952618 287.566595 
L 331.766288 286.05148 
L 332.579959 284.895314 
L 333.39363 282.063095 
L 334.2073 279.843488 
L 335.020971 271.600971 
L 335.834641 283.216217 
L 336.648312 275.752972 
L 337.461982 281.277561 
L 338.275653 280.622386 
L 339.089323 286.939278 
L 339.902994 281.40414 
L 340.716664 279.121101 
L 341.530335 275.475622 
L 342.344005 285.451745 
L 343.157676 280.61538 
L 343.971347 281.014616 
L 344.785017 279.240473 
L 345.598688 274.315149 
L 346.412358 281.856322 
L 347.226029 274.32494 
L 348.039699 277.312227 
L 348.85337 279.813089 
L 349.66704 274.420416 
L 350.480711 280.370885 
L 351.294381 281.813783 
L 352.108052 278.93485 
L 352.921722 280.294662 
L 353.735393 285.471751 
L 354.549064 280.480754 
L 355.362734 282.957312 
L 356.176405 279.641965 
L 356.990075 272.463545 
L 357.803746 278.93103 
L 358.617416 276.476058 
L 359.431087 277.91013 
L 360.244757 280.596966 
L 361.058428 282.598937 
L 361.872098 282.446456 
L 362.685769 277.481024 
L 363.49944 276.022891 
L 364.31311 280.803574 
L 365.126781 283.734345 
L 365.940451 290.010458 
L 366.754122 290.585232 
L 367.567792 289.040006 
L 368.381463 285.951208 
L 369.195133 288.948699 
L 370.008804 294.893096 
L 370.822474 281.606144 
L 371.636145 283.233256 
L 372.449815 285.984379 
L 373.263486 285.672759 
L 374.077157 287.182107 
L 374.890827 280.634507 
L 375.704498 284.110448 
L 376.518168 282.230322 
L 377.331839 285.115997 
L 378.145509 284.750932 
L 378.95918 279.99707 
L 379.77285 281.720148 
L 380.586521 284.974171 
L 381.400191 281.756663 
L 382.213862 281.649778 
L 383.027532 281.700533 
L 383.841203 287.889075 
L 384.654874 289.385415 
L 385.468544 285.461986 
L 386.282215 285.93923 
L 387.095885 285.806281 
L 387.909556 283.715533 
L 388.723226 287.937496 
L 389.536897 282.639152 
L 390.350567 281.105549 
L 391.164238 283.838873 
L 391.977908 277.755777 
L 392.791579 284.726851 
L 393.605249 280.629861 
L 394.41892 283.09107 
L 396.046261 286.092772 
L 396.859932 279.989438 
L 397.673602 285.285554 
L 398.487273 274.685135 
L 398.487273 274.685135 
" style="fill:none;stroke:#008000;stroke-dasharray:9.6,2.4,1.5,2.4;stroke-dashoffset:0;stroke-width:1.5;"/>
   </g>
   <g id="line2d_31">
    <path clip-path="url(#p59991c6c95)" d="M 73.832727 210.262077 
L 74.646398 201.795143 
L 75.460068 196.278068 
L 76.273739 193.668564 
L 77.087409 185.85471 
L 77.90108 188.294761 
L 78.714751 184.345075 
L 79.528421 181.559043 
L 80.342092 180.421963 
L 81.155762 179.745669 
L 81.969433 177.525811 
L 82.783103 179.933457 
L 83.596774 185.588542 
L 84.410444 182.813032 
L 85.224115 179.045707 
L 86.037785 172.820215 
L 86.851456 177.271971 
L 87.665126 179.21345 
L 88.478797 182.10798 
L 89.292468 173.855391 
L 90.919809 179.750268 
L 92.54715 169.513767 
L 93.36082 171.510927 
L 94.174491 171.966328 
L 94.988161 179.032828 
L 95.801832 178.758624 
L 96.615502 174.293738 
L 97.429173 169.206562 
L 98.242843 177.550791 
L 99.056514 171.772747 
L 99.870185 162.518322 
L 100.683855 166.109115 
L 101.497526 163.845712 
L 102.311196 166.548562 
L 103.124867 166.540074 
L 103.938537 168.131312 
L 104.752208 167.55729 
L 105.565878 164.927435 
L 106.379549 157.405913 
L 107.193219 168.965198 
L 108.00689 162.151877 
L 108.82056 161.282397 
L 109.634231 164.731356 
L 110.447902 165.808357 
L 111.261572 154.081668 
L 112.075243 154.249624 
L 112.888913 143.58368 
L 113.702584 154.362352 
L 114.516254 154.775871 
L 115.329925 147.301109 
L 116.143595 144.916016 
L 116.957266 146.614518 
L 117.770936 152.080793 
L 118.584607 145.068385 
L 119.398278 144.548456 
L 120.211948 151.566305 
L 121.839289 142.190012 
L 122.65296 145.160998 
L 123.46663 146.476733 
L 124.280301 150.026055 
L 125.093971 147.879024 
L 125.907642 137.222202 
L 126.721312 155.173447 
L 127.534983 149.101492 
L 128.348653 141.760199 
L 129.162324 147.818912 
L 129.975995 137.664521 
L 130.789665 123.436531 
L 131.603336 135.757684 
L 132.417006 132.544688 
L 133.230677 135.68234 
L 134.044347 142.78141 
L 134.858018 153.781821 
L 135.671688 135.662706 
L 136.485359 126.327778 
L 137.299029 129.166125 
L 138.1127 116.613045 
L 138.92637 128.909487 
L 139.740041 133.671101 
L 140.553712 126.890545 
L 141.367382 121.890768 
L 142.181053 130.912555 
L 142.994723 128.51292 
L 144.622064 138.73102 
L 145.435735 122.043196 
L 146.249405 124.625365 
L 147.063076 136.638107 
L 147.876746 128.684955 
L 148.690417 126.402487 
L 149.504087 135.767495 
L 150.317758 123.735396 
L 151.131429 142.487966 
L 151.945099 148.974206 
L 152.75877 135.287974 
L 153.57244 131.838208 
L 154.386111 131.498047 
L 155.199781 126.92814 
L 156.013452 117.677028 
L 156.827122 124.342552 
L 157.640793 132.443356 
L 158.454463 118.493517 
L 159.268134 131.004687 
L 160.081805 127.22879 
L 160.895475 105.138342 
L 161.709146 108.32435 
L 162.522816 117.143446 
L 163.336487 118.192007 
L 164.150157 109.678731 
L 164.963828 121.928237 
L 165.777498 111.862214 
L 166.591169 130.719552 
L 167.404839 113.588784 
L 168.21851 126.30587 
L 169.03218 108.736752 
L 169.845851 110.905705 
L 170.659522 109.238809 
L 171.473192 110.386399 
L 172.286863 112.337732 
L 173.100533 109.030375 
L 173.914204 109.674633 
L 174.727874 121.413547 
L 175.541545 108.734134 
L 176.355215 102.69126 
L 177.168886 90.715918 
L 177.982556 105.777428 
L 178.796227 109.162116 
L 179.609897 90.634096 
L 180.423568 102.395911 
L 181.237239 108.056946 
L 182.050909 100.339767 
L 182.86458 105.30824 
L 183.67825 91.689449 
L 184.491921 104.28481 
L 185.305591 108.585202 
L 186.119262 94.926429 
L 186.932932 113.115364 
L 187.746603 106.238349 
L 188.560273 101.394442 
L 189.373944 84.439639 
L 190.187614 102.801746 
L 191.001285 101.769405 
L 191.814956 98.781733 
L 192.628626 102.084109 
L 193.442297 98.572758 
L 194.255967 98.932469 
L 195.069638 107.406139 
L 195.883308 122.473932 
L 196.696979 105.836725 
L 197.510649 113.638017 
L 198.32432 111.140541 
L 199.13799 109.239685 
L 199.951661 120.492859 
L 200.765332 101.891935 
L 201.579002 102.626765 
L 202.392673 105.573629 
L 203.206343 106.249573 
L 204.020014 104.502996 
L 204.833684 111.551187 
L 205.647355 120.481526 
L 207.274696 102.728772 
L 208.088366 119.403112 
L 208.902037 113.860277 
L 209.715707 112.826047 
L 210.529378 123.503877 
L 211.343049 124.182795 
L 212.156719 145.280672 
L 212.97039 127.176824 
L 213.78406 129.240287 
L 214.597731 132.375868 
L 215.411401 129.417721 
L 216.225072 137.000672 
L 217.038742 122.05213 
L 217.852413 122.196125 
L 218.666083 136.072373 
L 220.293424 113.382574 
L 221.107095 129.650412 
L 221.920766 115.038039 
L 222.734436 118.927916 
L 223.548107 123.854593 
L 224.361777 141.223027 
L 225.175448 129.354784 
L 225.989118 133.410606 
L 226.802789 139.544919 
L 227.616459 128.691797 
L 228.43013 135.981286 
L 229.2438 127.133278 
L 230.057471 135.134912 
L 230.871141 114.678485 
L 231.684812 108.814503 
L 232.498483 103.886035 
L 233.312153 119.616146 
L 234.125824 97.612009 
L 234.939494 99.447348 
L 235.753165 95.732196 
L 236.566835 98.547579 
L 237.380506 95.808676 
L 238.194176 119.782623 
L 239.007847 107.214106 
L 239.821517 91.784647 
L 240.635188 91.964298 
L 241.448859 100.124256 
L 242.262529 91.66295 
L 243.0762 102.935293 
L 243.88987 93.995172 
L 244.703541 104.647751 
L 245.517211 100.993446 
L 246.330882 111.682913 
L 247.144552 103.1131 
L 247.958223 122.617301 
L 248.771893 108.21887 
L 249.585564 104.120553 
L 250.399234 102.115717 
L 251.212905 110.907553 
L 252.026576 121.617113 
L 252.840246 124.474332 
L 253.653917 111.465746 
L 254.467587 123.585465 
L 255.281258 118.323807 
L 256.094928 121.979172 
L 256.908599 111.606281 
L 257.722269 136.168011 
L 258.53594 108.230928 
L 259.34961 110.407175 
L 260.163281 111.980669 
L 260.976951 124.99882 
L 261.790622 124.869595 
L 262.604293 130.089166 
L 263.417963 161.33918 
L 264.231634 166.992133 
L 265.045304 168.760478 
L 265.858975 150.425649 
L 266.672645 146.689759 
L 267.486316 160.579865 
L 268.299986 154.730183 
L 269.113657 154.861016 
L 269.927327 161.29032 
L 270.740998 154.877979 
L 271.554668 160.879458 
L 272.368339 161.12516 
L 273.18201 158.760469 
L 273.99568 151.209024 
L 274.809351 156.894819 
L 275.623021 161.469209 
L 276.436692 148.678491 
L 277.250362 155.056588 
L 278.064033 156.931621 
L 278.877703 155.228031 
L 279.691374 155.224009 
L 280.505044 170.719079 
L 281.318715 151.788885 
L 282.132386 155.777489 
L 282.946056 149.209967 
L 283.759727 160.255292 
L 284.573397 156.886376 
L 285.387068 152.666249 
L 286.200738 142.392597 
L 287.014409 137.794779 
L 287.828079 145.344272 
L 288.64175 160.43402 
L 289.45542 152.163628 
L 290.269091 157.037271 
L 291.082761 127.349097 
L 291.896432 145.733156 
L 292.710103 145.631822 
L 293.523773 149.764952 
L 294.337444 126.005688 
L 295.151114 133.044742 
L 295.964785 125.928066 
L 296.778455 143.438652 
L 297.592126 131.504553 
L 298.405796 130.977061 
L 299.219467 138.921257 
L 300.033137 138.296209 
L 300.846808 135.808948 
L 301.660478 124.893475 
L 302.474149 131.715247 
L 303.28782 134.183744 
L 304.10149 131.719916 
L 304.915161 132.623076 
L 305.728831 134.306771 
L 306.542502 124.439996 
L 307.356172 119.936073 
L 308.169843 130.850213 
L 308.983513 134.506242 
L 309.797184 131.590719 
L 310.610854 129.670102 
L 311.424525 120.901129 
L 312.238195 133.812302 
L 313.051866 127.543349 
L 313.865537 124.897735 
L 314.679207 126.809027 
L 315.492878 122.900722 
L 316.306548 137.466167 
L 317.120219 143.337924 
L 317.933889 135.552811 
L 318.74756 143.736105 
L 319.56123 124.587608 
L 320.374901 135.40961 
L 321.188571 122.457586 
L 322.002242 106.280893 
L 322.815913 125.056274 
L 323.629583 111.076021 
L 324.443254 128.913776 
L 325.256924 116.337705 
L 326.070595 120.071499 
L 326.884265 113.318273 
L 327.697936 118.965151 
L 328.511606 113.609652 
L 329.325277 118.905459 
L 330.138947 114.563343 
L 330.952618 117.399326 
L 331.766288 128.907697 
L 332.579959 118.205828 
L 333.39363 110.913148 
L 334.2073 113.509843 
L 335.020971 94.11791 
L 335.834641 109.782093 
L 336.648312 109.049142 
L 337.461982 115.149123 
L 338.275653 122.725268 
L 339.089323 125.439102 
L 339.902994 115.3149 
L 340.716664 110.230727 
L 341.530335 109.263957 
L 342.344005 120.076963 
L 343.157676 122.076455 
L 343.971347 111.184105 
L 344.785017 116.242285 
L 345.598688 103.266008 
L 346.412358 118.523704 
L 347.226029 109.122179 
L 348.039699 106.687354 
L 348.85337 114.831461 
L 349.66704 109.407663 
L 350.480711 105.502925 
L 351.294381 111.239175 
L 352.108052 105.011534 
L 352.921722 110.070434 
L 353.735393 119.895808 
L 354.549064 111.00368 
L 355.362734 118.541194 
L 356.176405 122.690765 
L 356.990075 103.994737 
L 357.803746 108.739487 
L 358.617416 106.453001 
L 359.431087 111.681113 
L 360.244757 103.994441 
L 361.058428 113.225438 
L 361.872098 112.286119 
L 362.685769 105.978862 
L 363.49944 109.843365 
L 364.31311 121.34929 
L 365.126781 123.912089 
L 365.940451 123.674085 
L 366.754122 137.191041 
L 367.567792 134.76487 
L 368.381463 123.141325 
L 369.195133 139.641521 
L 370.008804 140.581219 
L 370.822474 118.063148 
L 371.636145 125.551473 
L 372.449815 118.433517 
L 373.263486 124.555713 
L 374.077157 138.542501 
L 374.890827 117.970515 
L 375.704498 120.255294 
L 376.518168 125.1516 
L 377.331839 132.61598 
L 378.145509 132.235592 
L 378.95918 115.719733 
L 379.77285 103.373769 
L 380.586521 118.960699 
L 381.400191 112.620324 
L 382.213862 118.009405 
L 383.027532 118.288878 
L 383.841203 122.202981 
L 384.654874 129.374587 
L 385.468544 128.264013 
L 386.282215 138.029716 
L 387.095885 118.474935 
L 387.909556 127.22537 
L 389.536897 112.134446 
L 390.350567 105.696479 
L 391.164238 115.835441 
L 391.977908 113.59915 
L 392.791579 128.646148 
L 393.605249 117.810054 
L 394.41892 112.581868 
L 395.232591 120.476999 
L 396.859932 108.776059 
L 397.673602 126.445836 
L 398.487273 104.545263 
L 398.487273 104.545263 
" style="fill:none;stroke:#008000;stroke-dasharray:9.6,2.4,1.5,2.4;stroke-dashoffset:0;stroke-width:1.5;"/>
   </g>
   <g id="line2d_32">
    <path clip-path="url(#p59991c6c95)" d="M 73.832727 161.141144 
L 74.646398 141.499878 
L 75.460068 141.499878 
L 76.273739 132.757751 
L 81.969433 132.757751 
L 82.783103 77.365509 
L 86.037785 77.365509 
L 86.851456 60.413076 
L 87.665126 56.939717 
L 93.36082 56.939717 
L 94.174491 56.431228 
L 97.429173 56.431228 
L 98.242843 56.285765 
L 120.211948 56.285765 
L 121.025619 54.615349 
L 129.975995 54.514501 
L 130.789665 54.36951 
L 151.131429 54.36951 
L 151.945099 53.898705 
L 208.902037 53.898705 
L 209.715707 53.740069 
L 213.78406 53.740069 
L 214.597731 53.568 
L 398.487273 53.568 
L 398.487273 53.568 
" style="fill:none;stroke:#ff0000;stroke-linecap:square;stroke-width:1.5;"/>
   </g>
   <g id="patch_3">
    <path d="M 57.6 307.584 
L 57.6 41.472 
" style="fill:none;stroke:#000000;stroke-linecap:square;stroke-linejoin:miter;stroke-width:0.8;"/>
   </g>
   <g id="patch_4">
    <path d="M 414.72 307.584 
L 414.72 41.472 
" style="fill:none;stroke:#000000;stroke-linecap:square;stroke-linejoin:miter;stroke-width:0.8;"/>
   </g>
   <g id="patch_5">
    <path d="M 57.6 307.584 
L 414.72 307.584 
" style="fill:none;stroke:#000000;stroke-linecap:square;stroke-linejoin:miter;stroke-width:0.8;"/>
   </g>
   <g id="patch_6">
    <path d="M 57.6 41.472 
L 414.72 41.472 
" style="fill:none;stroke:#000000;stroke-linecap:square;stroke-linejoin:miter;stroke-width:0.8;"/>
   </g>
   <g id="text_17">
    <!-- Population's average and best fitness -->
    <defs>
     <path d="M 19.671875 64.796875 
L 19.671875 37.40625 
L 32.078125 37.40625 
Q 38.96875 37.40625 42.71875 40.96875 
Q 46.484375 44.53125 46.484375 51.125 
Q 46.484375 57.671875 42.71875 61.234375 
Q 38.96875 64.796875 32.078125 64.796875 
z
M 9.8125 72.90625 
L 32.078125 72.90625 
Q 44.34375 72.90625 50.609375 67.359375 
Q 56.890625 61.8125 56.890625 51.125 
Q 56.890625 40.328125 50.609375 34.8125 
Q 44.34375 29.296875 32.078125 29.296875 
L 19.671875 29.296875 
L 19.671875 0 
L 9.8125 0 
z
" id="DejaVuSans-80"/>
     <path d="M 18.109375 8.203125 
L 18.109375 -20.796875 
L 9.078125 -20.796875 
L 9.078125 54.6875 
L 18.109375 54.6875 
L 18.109375 46.390625 
Q 20.953125 51.265625 25.265625 53.625 
Q 29.59375 56 35.59375 56 
Q 45.5625 56 51.78125 48.09375 
Q 58.015625 40.1875 58.015625 27.296875 
Q 58.015625 14.40625 51.78125 6.484375 
Q 45.5625 -1.421875 35.59375 -1.421875 
Q 29.59375 -1.421875 25.265625 0.953125 
Q 20.953125 3.328125 18.109375 8.203125 
z
M 48.6875 27.296875 
Q 48.6875 37.203125 44.609375 42.84375 
Q 40.53125 48.484375 33.40625 48.484375 
Q 26.265625 48.484375 22.1875 42.84375 
Q 18.109375 37.203125 18.109375 27.296875 
Q 18.109375 17.390625 22.1875 11.75 
Q 26.265625 6.109375 33.40625 6.109375 
Q 40.53125 6.109375 44.609375 11.75 
Q 48.6875 17.390625 48.6875 27.296875 
z
" id="DejaVuSans-112"/>
     <path d="M 8.5 21.578125 
L 8.5 54.6875 
L 17.484375 54.6875 
L 17.484375 21.921875 
Q 17.484375 14.15625 20.5 10.265625 
Q 23.53125 6.390625 29.59375 6.390625 
Q 36.859375 6.390625 41.078125 11.03125 
Q 45.3125 15.671875 45.3125 23.6875 
L 45.3125 54.6875 
L 54.296875 54.6875 
L 54.296875 0 
L 45.3125 0 
L 45.3125 8.40625 
Q 42.046875 3.421875 37.71875 1 
Q 33.40625 -1.421875 27.6875 -1.421875 
Q 18.265625 -1.421875 13.375 4.4375 
Q 8.5 10.296875 8.5 21.578125 
z
M 31.109375 56 
z
" id="DejaVuSans-117"/>
     <path d="M 9.421875 75.984375 
L 18.40625 75.984375 
L 18.40625 0 
L 9.421875 0 
z
" id="DejaVuSans-108"/>
     <path d="M 17.921875 72.90625 
L 17.921875 45.796875 
L 9.625 45.796875 
L 9.625 72.90625 
z
" id="DejaVuSans-39"/>
     <path id="DejaVuSans-32"/>
     <path d="M 2.984375 54.6875 
L 12.5 54.6875 
L 29.59375 8.796875 
L 46.6875 54.6875 
L 56.203125 54.6875 
L 35.6875 0 
L 23.484375 0 
z
" id="DejaVuSans-118"/>
     <path d="M 45.40625 27.984375 
Q 45.40625 37.75 41.375 43.109375 
Q 37.359375 48.484375 30.078125 48.484375 
Q 22.859375 48.484375 18.828125 43.109375 
Q 14.796875 37.75 14.796875 27.984375 
Q 14.796875 18.265625 18.828125 12.890625 
Q 22.859375 7.515625 30.078125 7.515625 
Q 37.359375 7.515625 41.375 12.890625 
Q 45.40625 18.265625 45.40625 27.984375 
z
M 54.390625 6.78125 
Q 54.390625 -7.171875 48.1875 -13.984375 
Q 42 -20.796875 29.203125 -20.796875 
Q 24.46875 -20.796875 20.265625 -20.09375 
Q 16.0625 -19.390625 12.109375 -17.921875 
L 12.109375 -9.1875 
Q 16.0625 -11.328125 19.921875 -12.34375 
Q 23.78125 -13.375 27.78125 -13.375 
Q 36.625 -13.375 41.015625 -8.765625 
Q 45.40625 -4.15625 45.40625 5.171875 
L 45.40625 9.625 
Q 42.625 4.78125 38.28125 2.390625 
Q 33.9375 0 27.875 0 
Q 17.828125 0 11.671875 7.65625 
Q 5.515625 15.328125 5.515625 27.984375 
Q 5.515625 40.671875 11.671875 48.328125 
Q 17.828125 56 27.875 56 
Q 33.9375 56 38.28125 53.609375 
Q 42.625 51.21875 45.40625 46.390625 
L 45.40625 54.6875 
L 54.390625 54.6875 
z
" id="DejaVuSans-103"/>
     <path d="M 45.40625 46.390625 
L 45.40625 75.984375 
L 54.390625 75.984375 
L 54.390625 0 
L 45.40625 0 
L 45.40625 8.203125 
Q 42.578125 3.328125 38.25 0.953125 
Q 33.9375 -1.421875 27.875 -1.421875 
Q 17.96875 -1.421875 11.734375 6.484375 
Q 5.515625 14.40625 5.515625 27.296875 
Q 5.515625 40.1875 11.734375 48.09375 
Q 17.96875 56 27.875 56 
Q 33.9375 56 38.25 53.625 
Q 42.578125 51.265625 45.40625 46.390625 
z
M 14.796875 27.296875 
Q 14.796875 17.390625 18.875 11.75 
Q 22.953125 6.109375 30.078125 6.109375 
Q 37.203125 6.109375 41.296875 11.75 
Q 45.40625 17.390625 45.40625 27.296875 
Q 45.40625 37.203125 41.296875 42.84375 
Q 37.203125 48.484375 30.078125 48.484375 
Q 22.953125 48.484375 18.875 42.84375 
Q 14.796875 37.203125 14.796875 27.296875 
z
" id="DejaVuSans-100"/>
     <path d="M 48.6875 27.296875 
Q 48.6875 37.203125 44.609375 42.84375 
Q 40.53125 48.484375 33.40625 48.484375 
Q 26.265625 48.484375 22.1875 42.84375 
Q 18.109375 37.203125 18.109375 27.296875 
Q 18.109375 17.390625 22.1875 11.75 
Q 26.265625 6.109375 33.40625 6.109375 
Q 40.53125 6.109375 44.609375 11.75 
Q 48.6875 17.390625 48.6875 27.296875 
z
M 18.109375 46.390625 
Q 20.953125 51.265625 25.265625 53.625 
Q 29.59375 56 35.59375 56 
Q 45.5625 56 51.78125 48.09375 
Q 58.015625 40.1875 58.015625 27.296875 
Q 58.015625 14.40625 51.78125 6.484375 
Q 45.5625 -1.421875 35.59375 -1.421875 
Q 29.59375 -1.421875 25.265625 0.953125 
Q 20.953125 3.328125 18.109375 8.203125 
L 18.109375 0 
L 9.078125 0 
L 9.078125 75.984375 
L 18.109375 75.984375 
z
" id="DejaVuSans-98"/>
     <path d="M 37.109375 75.984375 
L 37.109375 68.5 
L 28.515625 68.5 
Q 23.6875 68.5 21.796875 66.546875 
Q 19.921875 64.59375 19.921875 59.515625 
L 19.921875 54.6875 
L 34.71875 54.6875 
L 34.71875 47.703125 
L 19.921875 47.703125 
L 19.921875 0 
L 10.890625 0 
L 10.890625 47.703125 
L 2.296875 47.703125 
L 2.296875 54.6875 
L 10.890625 54.6875 
L 10.890625 58.5 
Q 10.890625 67.625 15.140625 71.796875 
Q 19.390625 75.984375 28.609375 75.984375 
z
" id="DejaVuSans-102"/>
    </defs>
    <g transform="translate(123.315 35.472)scale(0.12 -0.12)">
     <use xlink:href="#DejaVuSans-80"/>
     <use x="60.255859" xlink:href="#DejaVuSans-111"/>
     <use x="121.4375" xlink:href="#DejaVuSans-112"/>
     <use x="184.914062" xlink:href="#DejaVuSans-117"/>
     <use x="248.292969" xlink:href="#DejaVuSans-108"/>
     <use x="276.076172" xlink:href="#DejaVuSans-97"/>
     <use x="337.355469" xlink:href="#DejaVuSans-116"/>
     <use x="376.564453" xlink:href="#DejaVuSans-105"/>
     <use x="404.347656" xlink:href="#DejaVuSans-111"/>
     <use x="465.529297" xlink:href="#DejaVuSans-110"/>
     <use x="528.908203" xlink:href="#DejaVuSans-39"/>
     <use x="556.398438" xlink:href="#DejaVuSans-115"/>
     <use x="608.498047" xlink:href="#DejaVuSans-32"/>
     <use x="640.285156" xlink:href="#DejaVuSans-97"/>
     <use x="701.564453" xlink:href="#DejaVuSans-118"/>
     <use x="760.744141" xlink:href="#DejaVuSans-101"/>
     <use x="822.267578" xlink:href="#DejaVuSans-114"/>
     <use x="863.380859" xlink:href="#DejaVuSans-97"/>
     <use x="924.660156" xlink:href="#DejaVuSans-103"/>
     <use x="988.136719" xlink:href="#DejaVuSans-101"/>
     <use x="1049.660156" xlink:href="#DejaVuSans-32"/>
     <use x="1081.447266" xlink:href="#DejaVuSans-97"/>
     <use x="1142.726562" xlink:href="#DejaVuSans-110"/>
     <use x="1206.105469" xlink:href="#DejaVuSans-100"/>
     <use x="1269.582031" xlink:href="#DejaVuSans-32"/>
     <use x="1301.369141" xlink:href="#DejaVuSans-98"/>
     <use x="1364.845703" xlink:href="#DejaVuSans-101"/>
     <use x="1426.369141" xlink:href="#DejaVuSans-115"/>
     <use x="1478.46875" xlink:href="#DejaVuSans-116"/>
     <use x="1517.677734" xlink:href="#DejaVuSans-32"/>
     <use x="1549.464844" xlink:href="#DejaVuSans-102"/>
     <use x="1584.669922" xlink:href="#DejaVuSans-105"/>
     <use x="1612.453125" xlink:href="#DejaVuSans-116"/>
     <use x="1651.662109" xlink:href="#DejaVuSans-110"/>
     <use x="1715.041016" xlink:href="#DejaVuSans-101"/>
     <use x="1776.564453" xlink:href="#DejaVuSans-115"/>
     <use x="1828.664062" xlink:href="#DejaVuSans-115"/>
    </g>
   </g>
   <g id="legend_1">
    <g id="patch_7">
     <path d="M 334.779375 205.38425 
L 407.72 205.38425 
Q 409.72 205.38425 409.72 203.38425 
L 409.72 145.67175 
Q 409.72 143.67175 407.72 143.67175 
L 334.779375 143.67175 
Q 332.779375 143.67175 332.779375 145.67175 
L 332.779375 203.38425 
Q 332.779375 205.38425 334.779375 205.38425 
z
" style="fill:#ffffff;opacity:0.8;stroke:#cccccc;stroke-linejoin:miter;"/>
    </g>
    <g id="line2d_33">
     <path d="M 336.779375 151.770188 
L 356.779375 151.770188 
" style="fill:none;stroke:#0000ff;stroke-linecap:square;stroke-width:1.5;"/>
    </g>
    <g id="line2d_34"/>
    <g id="text_18">
     <!-- average -->
     <g transform="translate(364.779375 155.270188)scale(0.1 -0.1)">
      <use xlink:href="#DejaVuSans-97"/>
      <use x="61.279297" xlink:href="#DejaVuSans-118"/>
      <use x="120.458984" xlink:href="#DejaVuSans-101"/>
      <use x="181.982422" xlink:href="#DejaVuSans-114"/>
      <use x="223.095703" xlink:href="#DejaVuSans-97"/>
      <use x="284.375" xlink:href="#DejaVuSans-103"/>
      <use x="347.851562" xlink:href="#DejaVuSans-101"/>
     </g>
    </g>
    <g id="line2d_35">
     <path d="M 336.779375 166.448313 
L 356.779375 166.448313 
" style="fill:none;stroke:#008000;stroke-dasharray:9.6,2.4,1.5,2.4;stroke-dashoffset:0;stroke-width:1.5;"/>
    </g>
    <g id="line2d_36"/>
    <g id="text_19">
     <!-- -1 sd -->
     <defs>
      <path d="M 4.890625 31.390625 
L 31.203125 31.390625 
L 31.203125 23.390625 
L 4.890625 23.390625 
z
" id="DejaVuSans-45"/>
     </defs>
     <g transform="translate(364.779375 169.948313)scale(0.1 -0.1)">
      <use xlink:href="#DejaVuSans-45"/>
      <use x="36.083984" xlink:href="#DejaVuSans-49"/>
      <use x="99.707031" xlink:href="#DejaVuSans-32"/>
      <use x="131.494141" xlink:href="#DejaVuSans-115"/>
      <use x="183.59375" xlink:href="#DejaVuSans-100"/>
     </g>
    </g>
    <g id="line2d_37">
     <path d="M 336.779375 181.126438 
L 356.779375 181.126438 
" style="fill:none;stroke:#008000;stroke-dasharray:9.6,2.4,1.5,2.4;stroke-dashoffset:0;stroke-width:1.5;"/>
    </g>
    <g id="line2d_38"/>
    <g id="text_20">
     <!-- +1 sd -->
     <defs>
      <path d="M 46 62.703125 
L 46 35.5 
L 73.1875 35.5 
L 73.1875 27.203125 
L 46 27.203125 
L 46 0 
L 37.796875 0 
L 37.796875 27.203125 
L 10.59375 27.203125 
L 10.59375 35.5 
L 37.796875 35.5 
L 37.796875 62.703125 
z
" id="DejaVuSans-43"/>
     </defs>
     <g transform="translate(364.779375 184.626438)scale(0.1 -0.1)">
      <use xlink:href="#DejaVuSans-43"/>
      <use x="83.789062" xlink:href="#DejaVuSans-49"/>
      <use x="147.412109" xlink:href="#DejaVuSans-32"/>
      <use x="179.199219" xlink:href="#DejaVuSans-115"/>
      <use x="231.298828" xlink:href="#DejaVuSans-100"/>
     </g>
    </g>
    <g id="line2d_39">
     <path d="M 336.779375 195.804563 
L 356.779375 195.804563 
" style="fill:none;stroke:#ff0000;stroke-linecap:square;stroke-width:1.5;"/>
    </g>
    <g id="line2d_40"/>
    <g id="text_21">
     <!-- best -->
     <g transform="translate(364.779375 199.304563)scale(0.1 -0.1)">
      <use xlink:href="#DejaVuSans-98"/>
      <use x="63.476562" xlink:href="#DejaVuSans-101"/>
      <use x="125" xlink:href="#DejaVuSans-115"/>
      <use x="177.099609" xlink:href="#DejaVuSans-116"/>
     </g>
    </g>
   </g>
  </g>
 </g>
 <defs>
  <clipPath id="p59991c6c95">
   <rect height="266.112" width="357.12" x="57.6" y="41.472"/>
  </clipPath>
 </defs>
</svg>
