<?xml version="1.0" encoding="UTF-8" standalone="no"?>
<!DOCTYPE svg PUBLIC "-//W3C//DTD SVG 1.1//EN"
 "http://www.w3.org/Graphics/SVG/1.1/DTD/svg11.dtd">
<!-- Generated by graphviz version 2.40.1 (20161225.0304)
 -->
<!-- Title: %3 Pages: 1 -->
<svg width="633pt" height="255pt"
 viewBox="0.00 0.00 632.72 255.36" xmlns="http://www.w3.org/2000/svg" xmlns:xlink="http://www.w3.org/1999/xlink">
<g id="graph0" class="graph" transform="scale(1 1) rotate(0) translate(4 251.3625)">
<title>%3</title>
<polygon fill="#ffffff" stroke="transparent" points="-4,4 -4,-251.3625 628.7193,-251.3625 628.7193,4 -4,4"/>
<!-- RF_R -->
<g id="node1" class="node">
<title>RF_R</title>
<polygon fill="#d3d3d3" stroke="#000000" points="506.7193,-231.6137 468.7193,-231.6137 468.7193,-213.6137 506.7193,-213.6137 506.7193,-231.6137"/>
<text text-anchor="middle" x="487.7193" y="-220.4137" font-family="Times,serif" font-size="9.00" fill="#000000">RF_R</text>
</g>
<!-- VEL -->
<g id="node12" class="node">
<title>VEL</title>
<ellipse fill="#add8e6" stroke="#000000" cx="432.7193" cy="-120.1457" rx="24.0833" ry="24.0833"/>
<text text-anchor="middle" x="432.7193" y="-117.9457" font-family="Times,serif" font-size="9.00" fill="#000000">VEL</text>
</g>
<!-- RF_R&#45;&gt;VEL -->
<g id="edge1" class="edge">
<title>RF_R&#45;&gt;VEL</title>
<path fill="none" stroke="#ff0000" stroke-width=".8608" d="M482.8384,-213.5204C475.2931,-199.4631 460.4588,-171.8258 448.8779,-150.25"/>
<polygon fill="#ff0000" stroke="#ff0000" stroke-width=".8608" points="451.9578,-148.5873 444.1446,-141.4316 445.7901,-151.8979 451.9578,-148.5873"/>
</g>
<!-- 127 -->
<g id="node14" class="node">
<title>127</title>
<ellipse fill="#ffffff" stroke="#000000" cx="328.7193" cy="-21.2132" rx="21.4286" ry="21.4286"/>
<text text-anchor="middle" x="328.7193" y="-19.0132" font-family="Times,serif" font-size="9.00" fill="#000000">127</text>
</g>
<!-- RF_R&#45;&gt;127 -->
<g id="edge2" class="edge">
<title>RF_R&#45;&gt;127</title>
<path fill="none" stroke="#ff0000" stroke-width=".2523" d="M489.1571,-213.328C492.4585,-188.5107 497.9937,-119.729 465.7193,-78.4264 439.9823,-45.49 391.8768,-31.3233 360.07,-25.363"/>
<polygon fill="#ff0000" stroke="#ff0000" stroke-width=".2523" points="360.4099,-21.8706 349.9641,-23.6411 359.2341,-28.7711 360.4099,-21.8706"/>
</g>
<!-- RF_FR -->
<g id="node2" class="node">
<title>RF_FR</title>
<polygon fill="#d3d3d3" stroke="#000000" points="568.7193,-231.6137 524.7193,-231.6137 524.7193,-213.6137 568.7193,-213.6137 568.7193,-231.6137"/>
<text text-anchor="middle" x="546.7193" y="-220.4137" font-family="Times,serif" font-size="9.00" fill="#000000">RF_FR</text>
</g>
<!-- RF_F -->
<g id="node3" class="node">
<title>RF_F</title>
<polygon fill="#d3d3d3" stroke="#000000" points="450.7193,-231.6137 412.7193,-231.6137 412.7193,-213.6137 450.7193,-213.6137 450.7193,-231.6137"/>
<text text-anchor="middle" x="431.7193" y="-220.4137" font-family="Times,serif" font-size="9.00" fill="#000000">RF_F</text>
</g>
<!-- RF_F&#45;&gt;VEL -->
<g id="edge11" class="edge">
<title>RF_F&#45;&gt;VEL</title>
<path fill="none" stroke="#00ff00" stroke-width=".4254" d="M431.808,-213.5204C431.9364,-200.3635 432.1809,-175.3106 432.3844,-154.4653"/>
<polygon fill="#00ff00" stroke="#00ff00" stroke-width=".4254" points="435.8854,-154.3717 432.4832,-144.3379 428.8857,-154.3033 435.8854,-154.3717"/>
</g>
<!-- RF_FL -->
<g id="node4" class="node">
<title>RF_FL</title>
<polygon fill="#d3d3d3" stroke="#000000" points="330.2193,-231.6137 287.2193,-231.6137 287.2193,-213.6137 330.2193,-213.6137 330.2193,-231.6137"/>
<text text-anchor="middle" x="308.7193" y="-220.4137" font-family="Times,serif" font-size="9.00" fill="#000000">RF_FL</text>
</g>
<!-- ANG_VEL -->
<g id="node11" class="node">
<title>ANG_VEL</title>
<ellipse fill="#add8e6" stroke="#000000" cx="41.7193" cy="-120.1457" rx="41.9398" ry="41.9398"/>
<text text-anchor="middle" x="41.7193" y="-117.9457" font-family="Times,serif" font-size="9.00" fill="#000000">ANG_VEL</text>
</g>
<!-- RF_FL&#45;&gt;ANG_VEL -->
<g id="edge14" class="edge">
<title>RF_FL&#45;&gt;ANG_VEL</title>
<path fill="none" stroke="#00ff00" stroke-width=".6482" d="M286.9947,-217.8077C249.8674,-209.1898 172.2576,-189.4021 110.7193,-161.865 102.2741,-158.086 93.5903,-153.4774 85.3541,-148.7195"/>
<polygon fill="#00ff00" stroke="#00ff00" stroke-width=".6482" points="87.0095,-145.6319 76.6251,-143.5304 83.4324,-151.6489 87.0095,-145.6319"/>
</g>
<!-- RF_FL&#45;&gt;VEL -->
<g id="edge8" class="edge">
<title>RF_FL&#45;&gt;VEL</title>
<path fill="none" stroke="#00ff00" stroke-width=".7036" d="M319.7146,-213.4198C325.5544,-208.6438 332.9139,-202.7921 339.7193,-197.865 363.3836,-180.7322 372.4836,-180.8151 394.7193,-161.865 400.13,-157.2538 405.5264,-151.9049 410.4819,-146.6069"/>
<polygon fill="#00ff00" stroke="#00ff00" stroke-width=".7036" points="413.2715,-148.74 417.3771,-138.973 408.0768,-144.0479 413.2715,-148.74"/>
</g>
<!-- RF_FL&#45;&gt;127 -->
<g id="edge4" class="edge">
<title>RF_FL&#45;&gt;127</title>
<path fill="none" stroke="#00ff00" stroke-width=".1176" d="M320.741,-213.4347C333.6995,-202.7048 353.5631,-183.6203 361.7193,-161.865 374.7375,-127.1413 371.3098,-114.2486 361.7193,-78.4264 358.7529,-67.3464 353.0662,-56.1898 347.238,-46.7083"/>
<polygon fill="#00ff00" stroke="#00ff00" stroke-width=".1176" points="350.0802,-44.6589 341.6909,-38.1881 344.2139,-48.4782 350.0802,-44.6589"/>
</g>
<!-- RF_L -->
<g id="node5" class="node">
<title>RF_L</title>
<polygon fill="#d3d3d3" stroke="#000000" points="157.7193,-129.1457 119.7193,-129.1457 119.7193,-111.1457 157.7193,-111.1457 157.7193,-129.1457"/>
<text text-anchor="middle" x="138.7193" y="-117.9457" font-family="Times,serif" font-size="9.00" fill="#000000">RF_L</text>
</g>
<!-- RF_L&#45;&gt;127 -->
<g id="edge6" class="edge">
<title>RF_L&#45;&gt;127</title>
<path fill="none" stroke="#ff0000" stroke-width="1.2347" d="M142.7555,-110.9045C147.3058,-101.4923 155.5522,-87.086 166.7193,-78.4264 205.9169,-48.0304 262.5494,-32.9821 297.425,-26.1682"/>
<polygon fill="#ff0000" stroke="#ff0000" stroke-width="1.2347" points="298.3067,-29.5648 307.5066,-24.3101 297.0378,-22.6807 298.3067,-29.5648"/>
</g>
<!-- RF_B -->
<g id="node6" class="node">
<title>RF_B</title>
<polygon fill="#d3d3d3" stroke="#000000" points="624.7193,-231.6137 586.7193,-231.6137 586.7193,-213.6137 624.7193,-213.6137 624.7193,-231.6137"/>
<text text-anchor="middle" x="605.7193" y="-220.4137" font-family="Times,serif" font-size="9.00" fill="#000000">RF_B</text>
</g>
<!-- RAD_F -->
<g id="node7" class="node">
<title>RAD_F</title>
<polygon fill="#d3d3d3" stroke="#000000" points="221.7193,-129.1457 175.7193,-129.1457 175.7193,-111.1457 221.7193,-111.1457 221.7193,-129.1457"/>
<text text-anchor="middle" x="198.7193" y="-117.9457" font-family="Times,serif" font-size="9.00" fill="#000000">RAD_F</text>
</g>
<!-- RAD_F&#45;&gt;127 -->
<g id="edge9" class="edge">
<title>RAD_F&#45;&gt;127</title>
<path fill="none" stroke="#00ff00" stroke-width=".1606" d="M204.222,-111.0197C210.0019,-101.966 219.7628,-88.0838 230.7193,-78.4264 251.6438,-59.9831 279.3977,-44.4407 300.0273,-34.2316"/>
<polygon fill="#00ff00" stroke="#00ff00" stroke-width=".1606" points="301.749,-37.2871 309.2373,-29.792 298.7094,-30.9815 301.749,-37.2871"/>
</g>
<!-- RAD_L -->
<g id="node8" class="node">
<title>RAD_L</title>
<polygon fill="#d3d3d3" stroke="#000000" points="394.7193,-231.6137 348.7193,-231.6137 348.7193,-213.6137 394.7193,-213.6137 394.7193,-231.6137"/>
<text text-anchor="middle" x="371.7193" y="-220.4137" font-family="Times,serif" font-size="9.00" fill="#000000">RAD_L</text>
</g>
<!-- RAD_L&#45;&gt;ANG_VEL -->
<g id="edge3" class="edge">
<title>RAD_L&#45;&gt;ANG_VEL</title>
<path fill="none" stroke="#00ff00" stroke-width=".6327" d="M362.1207,-213.4105C355.9275,-208.0114 347.4259,-201.5465 338.7193,-197.865 244.2304,-157.9114 207.081,-197.0625 110.7193,-161.865 101.9321,-158.6554 93.0307,-154.2785 84.6733,-149.5625"/>
<polygon fill="#00ff00" stroke="#00ff00" stroke-width=".6327" points="86.2398,-146.4228 75.8495,-144.3512 82.6801,-152.4502 86.2398,-146.4228"/>
</g>
<!-- RAD_L&#45;&gt;VEL -->
<g id="edge13" class="edge">
<title>RAD_L&#45;&gt;VEL</title>
<path fill="none" stroke="#ff0000" stroke-width=".5511" d="M377.1326,-213.5204C385.5521,-199.3774 402.1547,-171.4883 415.0325,-149.856"/>
<polygon fill="#ff0000" stroke="#ff0000" stroke-width=".5511" points="418.181,-151.4094 420.2889,-141.0264 412.1661,-147.8287 418.181,-151.4094"/>
</g>
<!-- RAD_B -->
<g id="node9" class="node">
<title>RAD_B</title>
<polygon fill="#d3d3d3" stroke="#000000" points="287.2193,-129.1457 240.2193,-129.1457 240.2193,-111.1457 287.2193,-111.1457 287.2193,-129.1457"/>
<text text-anchor="middle" x="263.7193" y="-117.9457" font-family="Times,serif" font-size="9.00" fill="#000000">RAD_B</text>
</g>
<!-- RAD_B&#45;&gt;127 -->
<g id="edge10" class="edge">
<title>RAD_B&#45;&gt;127</title>
<path fill="none" stroke="#ff0000" stroke-width=".3374" d="M269.7178,-111.0157C279.0678,-96.7848 297.4724,-68.7722 311.2524,-47.7985"/>
<polygon fill="#ff0000" stroke="#ff0000" stroke-width=".3374" points="314.2692,-49.5808 316.8351,-39.3014 308.4189,-45.7371 314.2692,-49.5808"/>
</g>
<!-- RAD_R -->
<g id="node10" class="node">
<title>RAD_R</title>
<polygon fill="#d3d3d3" stroke="#000000" points="352.2193,-129.1457 305.2193,-129.1457 305.2193,-111.1457 352.2193,-111.1457 352.2193,-129.1457"/>
<text text-anchor="middle" x="328.7193" y="-117.9457" font-family="Times,serif" font-size="9.00" fill="#000000">RAD_R</text>
</g>
<!-- RAD_R&#45;&gt;127 -->
<g id="edge16" class="edge">
<title>RAD_R&#45;&gt;127</title>
<path fill="none" stroke="#00ff00" stroke-width=".344" d="M328.7193,-111.0157C328.7193,-97.8992 328.7193,-73.0749 328.7193,-52.8453"/>
<polygon fill="#00ff00" stroke="#00ff00" stroke-width=".344" points="332.2194,-52.7715 328.7193,-42.7716 325.2194,-52.7716 332.2194,-52.7715"/>
</g>
<!-- ANG_VEL&#45;&gt;ANG_VEL -->
<g id="edge7" class="edge">
<title>ANG_VEL&#45;&gt;ANG_VEL</title>
<path fill="none" stroke="#ff0000" stroke-width=".1555" stroke-dasharray="1,5" d="M79.335,-138.5196C91.6403,-138.4246 101.4386,-132.3 101.4386,-120.1457 101.4386,-111.5997 96.5945,-106.0347 89.4408,-103.4507"/>
<polygon fill="#ff0000" stroke="#ff0000" stroke-width=".1555" points="89.7734,-99.958 79.335,-101.7718 88.6262,-106.8634 89.7734,-99.958"/>
</g>
<!-- VEL&#45;&gt;127 -->
<g id="edge15" class="edge">
<title>VEL&#45;&gt;127</title>
<path fill="none" stroke="#00ff00" stroke-width=".1257" d="M416.8959,-101.846C410.239,-94.3955 402.2925,-85.8157 394.7193,-78.4264 381.5423,-65.5692 366.0196,-52.0393 353.3398,-41.3663"/>
<polygon fill="#00ff00" stroke="#00ff00" stroke-width=".1257" points="355.3917,-38.5201 345.471,-34.8011 350.9071,-43.895 355.3917,-38.5201"/>
</g>
<!-- 1135 -->
<g id="node13" class="node">
<title>1135</title>
<ellipse fill="#ffffff" stroke="#000000" cx="41.7193" cy="-222.6137" rx="25" ry="25"/>
<text text-anchor="middle" x="41.7193" y="-220.4137" font-family="Times,serif" font-size="9.00" fill="#000000">1135</text>
</g>
<!-- 1135&#45;&gt;ANG_VEL -->
<g id="edge12" class="edge">
<title>1135&#45;&gt;ANG_VEL</title>
<path fill="none" stroke="#ff0000" stroke-width=".2664" d="M41.7193,-197.8091C41.7193,-189.9769 41.7193,-181.0099 41.7193,-172.0167"/>
<polygon fill="#ff0000" stroke="#ff0000" stroke-width=".2664" points="45.2194,-171.9111 41.7193,-161.9111 38.2194,-171.9112 45.2194,-171.9111"/>
</g>
<!-- 127&#45;&gt;127 -->
<g id="edge5" class="edge">
<title>127&#45;&gt;127</title>
<path fill="none" stroke="#00ff00" stroke-width=".3741" d="M343.1982,-36.7844C355.2938,-43.4388 367.9325,-38.2484 367.9325,-21.2132 367.9325,-8.8361 361.2606,-2.7118 352.9727,-2.8402"/>
<polygon fill="#00ff00" stroke="#00ff00" stroke-width=".3741" points="351.8467,.4781 343.1982,-5.642 353.7756,-6.2509 351.8467,.4781"/>
</g>
</g>
</svg>
