<?xml version="1.0" encoding="UTF-8" standalone="no"?>
<!DOCTYPE svg PUBLIC "-//W3C//DTD SVG 1.1//EN"
 "http://www.w3.org/Graphics/SVG/1.1/DTD/svg11.dtd">
<!-- Generated by graphviz version 2.40.1 (20161225.0304)
 -->
<!-- Title: %3 Pages: 1 -->
<svg width="568pt" height="230pt"
 viewBox="0.00 0.00 568.00 229.52" xmlns="http://www.w3.org/2000/svg" xmlns:xlink="http://www.w3.org/1999/xlink">
<g id="graph0" class="graph" transform="scale(1 1) rotate(0) translate(4 225.5219)">
<title>%3</title>
<polygon fill="#ffffff" stroke="transparent" points="-4,4 -4,-225.5219 564,-225.5219 564,4 -4,4"/>
<!-- RF_R -->
<g id="node1" class="node">
<title>RF_R</title>
<polygon fill="#d3d3d3" stroke="#000000" points="126.5,-221.5219 88.5,-221.5219 88.5,-203.5219 126.5,-203.5219 126.5,-221.5219"/>
<text text-anchor="middle" x="107.5" y="-210.3219" font-family="Times,serif" font-size="9.00" fill="#000000">RF_R</text>
</g>
<!-- ANG_VEL -->
<g id="node11" class="node">
<title>ANG_VEL</title>
<ellipse fill="#add8e6" stroke="#000000" cx="109.5" cy="-41.7193" rx="41.9398" ry="41.9398"/>
<text text-anchor="middle" x="109.5" y="-39.5193" font-family="Times,serif" font-size="9.00" fill="#000000">ANG_VEL</text>
</g>
<!-- RF_R&#45;&gt;ANG_VEL -->
<g id="edge17" class="edge">
<title>RF_R&#45;&gt;ANG_VEL</title>
<path fill="none" stroke="#ff0000" stroke-width=".4765" d="M107.6075,-203.3388C107.8459,-182.9843 108.4337,-132.786 108.8915,-93.6886"/>
<polygon fill="#ff0000" stroke="#ff0000" stroke-width=".4765" points="112.3933,-93.5426 109.0107,-83.5023 105.3938,-93.4606 112.3933,-93.5426"/>
</g>
<!-- VEL -->
<g id="node12" class="node">
<title>VEL</title>
<ellipse fill="#add8e6" stroke="#000000" cx="163.5" cy="-143.4802" rx="24.0833" ry="24.0833"/>
<text text-anchor="middle" x="163.5" y="-141.2802" font-family="Times,serif" font-size="9.00" fill="#000000">VEL</text>
</g>
<!-- RF_R&#45;&gt;VEL -->
<g id="edge4" class="edge">
<title>RF_R&#45;&gt;VEL</title>
<path fill="none" stroke="#ff0000" stroke-width=".2274" d="M114.821,-203.4959C121.6622,-195.0615 132.2244,-182.0395 141.7641,-170.2781"/>
<polygon fill="#ff0000" stroke="#ff0000" stroke-width=".2274" points="144.5657,-172.3802 148.1468,-162.4089 139.1291,-167.9706 144.5657,-172.3802"/>
</g>
<!-- 26 -->
<g id="node13" class="node">
<title>26</title>
<ellipse fill="#ffffff" stroke="#000000" cx="223.5" cy="-143.4802" rx="18.2703" ry="18.2703"/>
<text text-anchor="middle" x="223.5" y="-141.2802" font-family="Times,serif" font-size="9.00" fill="#000000">26</text>
</g>
<!-- RF_R&#45;&gt;26 -->
<g id="edge14" class="edge">
<title>RF_R&#45;&gt;26</title>
<path fill="none" stroke="#ff0000" stroke-width=".4787" d="M126.7009,-204.5564C145.2859,-196.4518 173.8881,-182.9191 196.5,-167.5219 198.439,-166.2015 200.3873,-164.7543 202.3009,-163.2453"/>
<polygon fill="#ff0000" stroke="#ff0000" stroke-width=".4787" points="204.9669,-165.5736 210.3312,-156.4372 200.4402,-160.2343 204.9669,-165.5736"/>
</g>
<!-- RF_FR -->
<g id="node2" class="node">
<title>RF_FR</title>
<polygon fill="#d3d3d3" stroke="#000000" points="438.5,-221.5219 394.5,-221.5219 394.5,-203.5219 438.5,-203.5219 438.5,-221.5219"/>
<text text-anchor="middle" x="416.5" y="-210.3219" font-family="Times,serif" font-size="9.00" fill="#000000">RF_FR</text>
</g>
<!-- RF_FR&#45;&gt;ANG_VEL -->
<g id="edge10" class="edge">
<title>RF_FR&#45;&gt;ANG_VEL</title>
<path fill="none" stroke="#ff0000" stroke-width=".5128" d="M402.9223,-203.2934C377.2094,-185.9734 319.4188,-147.7895 268.5,-119.4386 231.7284,-98.9647 188.7857,-78.1496 156.8036,-63.2202"/>
<polygon fill="#ff0000" stroke="#ff0000" stroke-width=".5128" points="158.2132,-60.0158 147.6694,-58.9771 155.2641,-66.3643 158.2132,-60.0158"/>
</g>
<!-- RF_FR&#45;&gt;26 -->
<g id="edge6" class="edge">
<title>RF_FR&#45;&gt;26</title>
<path fill="none" stroke="#ff0000" stroke-width=".3556" stroke-dasharray="1,5" d="M394.3604,-204.6019C358.7311,-191.8563 288.7863,-166.835 250.3605,-153.089"/>
<polygon fill="#ff0000" stroke="#ff0000" stroke-width=".3556" points="251.4558,-149.7637 240.8612,-149.6908 249.098,-156.3546 251.4558,-149.7637"/>
</g>
<!-- 347 -->
<g id="node14" class="node">
<title>347</title>
<ellipse fill="#ffffff" stroke="#000000" cx="416.5" cy="-143.4802" rx="21.4286" ry="21.4286"/>
<text text-anchor="middle" x="416.5" y="-141.2802" font-family="Times,serif" font-size="9.00" fill="#000000">347</text>
</g>
<!-- RF_FR&#45;&gt;347 -->
<g id="edge19" class="edge">
<title>RF_FR&#45;&gt;347</title>
<path fill="none" stroke="#ff0000" stroke-width=".1623" d="M416.5,-203.4959C416.5,-196.1489 416.5,-185.321 416.5,-174.8776"/>
<polygon fill="#ff0000" stroke="#ff0000" stroke-width=".1623" points="420.0001,-174.7053 416.5,-164.7054 413.0001,-174.7054 420.0001,-174.7053"/>
</g>
<!-- RF_F -->
<g id="node3" class="node">
<title>RF_F</title>
<polygon fill="#d3d3d3" stroke="#000000" points="70.5,-221.5219 32.5,-221.5219 32.5,-203.5219 70.5,-203.5219 70.5,-221.5219"/>
<text text-anchor="middle" x="51.5" y="-210.3219" font-family="Times,serif" font-size="9.00" fill="#000000">RF_F</text>
</g>
<!-- RF_F&#45;&gt;ANG_VEL -->
<g id="edge9" class="edge">
<title>RF_F&#45;&gt;ANG_VEL</title>
<path fill="none" stroke="#00ff00" stroke-width=".5355" d="M54.6183,-203.3388C61.6897,-182.5144 79.3686,-130.4525 92.7659,-90.9991"/>
<polygon fill="#00ff00" stroke="#00ff00" stroke-width=".5355" points="96.1693,-91.8614 96.0707,-81.267 89.5411,-89.6105 96.1693,-91.8614"/>
</g>
<!-- RF_F&#45;&gt;VEL -->
<g id="edge7" class="edge">
<title>RF_F&#45;&gt;VEL</title>
<path fill="none" stroke="#00ff00" stroke-width=".3288" d="M66.142,-203.4959C83.3398,-192.8944 112.2956,-175.0449 134.169,-161.5611"/>
<polygon fill="#00ff00" stroke="#00ff00" stroke-width=".3288" points="136.0816,-164.4938 142.7575,-156.2668 132.4083,-158.535 136.0816,-164.4938"/>
</g>
<!-- RF_FL -->
<g id="node4" class="node">
<title>RF_FL</title>
<polygon fill="#d3d3d3" stroke="#000000" points="43,-152.4802 0,-152.4802 0,-134.4802 43,-134.4802 43,-152.4802"/>
<text text-anchor="middle" x="21.5" y="-141.2802" font-family="Times,serif" font-size="9.00" fill="#000000">RF_FL</text>
</g>
<!-- RF_FL&#45;&gt;ANG_VEL -->
<g id="edge8" class="edge">
<title>RF_FL&#45;&gt;ANG_VEL</title>
<path fill="none" stroke="#ff0000" stroke-width=".3802" d="M29.3094,-134.4496C39.6329,-122.5118 58.4846,-100.7122 75.3167,-81.248"/>
<polygon fill="#ff0000" stroke="#ff0000" stroke-width=".3802" points="77.9945,-83.5022 81.8883,-73.6488 72.6997,-78.9234 77.9945,-83.5022"/>
</g>
<!-- RF_L -->
<g id="node5" class="node">
<title>RF_L</title>
<polygon fill="#d3d3d3" stroke="#000000" points="182.5,-221.5219 144.5,-221.5219 144.5,-203.5219 182.5,-203.5219 182.5,-221.5219"/>
<text text-anchor="middle" x="163.5" y="-210.3219" font-family="Times,serif" font-size="9.00" fill="#000000">RF_L</text>
</g>
<!-- RF_L&#45;&gt;VEL -->
<g id="edge16" class="edge">
<title>RF_L&#45;&gt;VEL</title>
<path fill="none" stroke="#00ff00" stroke-width=".1373" d="M163.5,-203.4959C163.5,-196.8389 163.5,-187.3239 163.5,-177.8266"/>
<polygon fill="#00ff00" stroke="#00ff00" stroke-width=".1373" points="167.0001,-177.664 163.5,-167.664 160.0001,-177.664 167.0001,-177.664"/>
</g>
<!-- RF_L&#45;&gt;26 -->
<g id="edge5" class="edge">
<title>RF_L&#45;&gt;26</title>
<path fill="none" stroke="#ff0000" stroke-width=".5498" d="M171.344,-203.4959C179.7617,-193.8096 193.4377,-178.0727 204.6738,-165.1434"/>
<polygon fill="#ff0000" stroke="#ff0000" stroke-width=".5498" points="207.368,-167.3789 211.2858,-157.5351 202.0844,-162.7872 207.368,-167.3789"/>
</g>
<!-- RF_B -->
<g id="node6" class="node">
<title>RF_B</title>
<polygon fill="#d3d3d3" stroke="#000000" points="494.5,-221.5219 456.5,-221.5219 456.5,-203.5219 494.5,-203.5219 494.5,-221.5219"/>
<text text-anchor="middle" x="475.5" y="-210.3219" font-family="Times,serif" font-size="9.00" fill="#000000">RF_B</text>
</g>
<!-- RAD_F -->
<g id="node7" class="node">
<title>RAD_F</title>
<polygon fill="#d3d3d3" stroke="#000000" points="246.5,-221.5219 200.5,-221.5219 200.5,-203.5219 246.5,-203.5219 246.5,-221.5219"/>
<text text-anchor="middle" x="223.5" y="-210.3219" font-family="Times,serif" font-size="9.00" fill="#000000">RAD_F</text>
</g>
<!-- RAD_F&#45;&gt;VEL -->
<g id="edge12" class="edge">
<title>RAD_F&#45;&gt;VEL</title>
<path fill="none" stroke="#ff0000" stroke-width=".3794" d="M215.656,-203.4959C208.1516,-194.8605 196.4679,-181.4161 186.0595,-169.4394"/>
<polygon fill="#ff0000" stroke="#ff0000" stroke-width=".3794" points="188.6621,-167.0983 179.4607,-161.8461 183.3785,-171.69 188.6621,-167.0983"/>
</g>
<!-- RAD_F&#45;&gt;26 -->
<g id="edge15" class="edge">
<title>RAD_F&#45;&gt;26</title>
<path fill="none" stroke="#ff0000" stroke-width=".3272" d="M223.5,-203.4959C223.5,-195.5738 223.5,-183.6045 223.5,-172.4339"/>
<polygon fill="#ff0000" stroke="#ff0000" stroke-width=".3272" points="227.0001,-172.1269 223.5,-162.1269 220.0001,-172.127 227.0001,-172.1269"/>
</g>
<!-- RAD_L -->
<g id="node8" class="node">
<title>RAD_L</title>
<polygon fill="#d3d3d3" stroke="#000000" points="310.5,-221.5219 264.5,-221.5219 264.5,-203.5219 310.5,-203.5219 310.5,-221.5219"/>
<text text-anchor="middle" x="287.5" y="-210.3219" font-family="Times,serif" font-size="9.00" fill="#000000">RAD_L</text>
</g>
<!-- RAD_L&#45;&gt;VEL -->
<g id="edge13" class="edge">
<title>RAD_L&#45;&gt;VEL</title>
<path fill="none" stroke="#00ff00" stroke-width=".2022" d="M266.7303,-203.4782C247.9326,-195.0086 219.7179,-181.5796 196.5,-167.5219 194.7719,-166.4755 193.0196,-165.3642 191.2698,-164.2153"/>
<polygon fill="#00ff00" stroke="#00ff00" stroke-width=".2022" points="192.8866,-161.0789 182.6668,-158.285 188.9137,-166.8422 192.8866,-161.0789"/>
</g>
<!-- RAD_L&#45;&gt;26 -->
<g id="edge11" class="edge">
<title>RAD_L&#45;&gt;26</title>
<path fill="none" stroke="#ff0000" stroke-width=".3926" d="M279.1331,-203.4959C270.042,-193.6886 255.2009,-177.6784 243.133,-164.6599"/>
<polygon fill="#ff0000" stroke="#ff0000" stroke-width=".3926" points="245.4188,-161.9772 236.0537,-157.0228 240.2851,-166.736 245.4188,-161.9772"/>
</g>
<!-- RAD_B -->
<g id="node9" class="node">
<title>RAD_B</title>
<polygon fill="#d3d3d3" stroke="#000000" points="376,-221.5219 329,-221.5219 329,-203.5219 376,-203.5219 376,-221.5219"/>
<text text-anchor="middle" x="352.5" y="-210.3219" font-family="Times,serif" font-size="9.00" fill="#000000">RAD_B</text>
</g>
<!-- RAD_B&#45;&gt;VEL -->
<g id="edge3" class="edge">
<title>RAD_B&#45;&gt;VEL</title>
<path fill="none" stroke="#ff0000" stroke-width=".2105" d="M328.9355,-205.9564C286.8474,-194.1976 202.5603,-170.4885 196.5,-167.5219 194.6856,-166.6337 192.8661,-165.6452 191.0653,-164.5899"/>
<polygon fill="#ff0000" stroke="#ff0000" stroke-width=".2105" points="192.6175,-161.4246 182.3253,-158.9103 188.8032,-167.2941 192.6175,-161.4246"/>
</g>
<!-- RAD_B&#45;&gt;26 -->
<g id="edge2" class="edge">
<title>RAD_B&#45;&gt;26</title>
<path fill="none" stroke="#00ff00" stroke-width=".2594" d="M335.6355,-203.4959C313.5923,-191.6982 274.7779,-170.9245 249.0976,-157.1802"/>
<polygon fill="#00ff00" stroke="#00ff00" stroke-width=".2594" points="250.429,-153.9231 239.9608,-152.2901 247.1259,-160.0948 250.429,-153.9231"/>
</g>
<!-- RAD_R -->
<g id="node10" class="node">
<title>RAD_R</title>
<polygon fill="#d3d3d3" stroke="#000000" points="560,-221.5219 513,-221.5219 513,-203.5219 560,-203.5219 560,-221.5219"/>
<text text-anchor="middle" x="536.5" y="-210.3219" font-family="Times,serif" font-size="9.00" fill="#000000">RAD_R</text>
</g>
<!-- 26&#45;&gt;ANG_VEL -->
<g id="edge18" class="edge">
<title>26&#45;&gt;ANG_VEL</title>
<path fill="none" stroke="#ff0000" stroke-width=".2781" d="M209.5214,-131.0023C194.3769,-117.4838 169.5454,-95.3182 148.4138,-76.4553"/>
<polygon fill="#ff0000" stroke="#ff0000" stroke-width=".2781" points="150.6116,-73.7256 140.8206,-69.6774 145.9501,-78.9477 150.6116,-73.7256"/>
</g>
<!-- 26&#45;&gt;26 -->
<g id="edge1" class="edge">
<title>26&#45;&gt;26</title>
<path fill="none" stroke="#00ff00" stroke-width=".2401" d="M238.0708,-154.7236C248.935,-158.6499 259.8848,-154.9021 259.8848,-143.4802 259.8848,-135.8062 254.9419,-131.5963 248.403,-130.8506"/>
<polygon fill="#00ff00" stroke="#00ff00" stroke-width=".2401" points="247.5165,-127.4381 238.0708,-132.2368 248.4474,-134.3759 247.5165,-127.4381"/>
</g>
</g>
</svg>
